<?xml version="1.0" standalone="no"?>
<!DOCTYPE svg PUBLIC "-//W3C//DTD SVG 1.1//EN" "http://www.w3.org/Graphics/SVG/1.1/DTD/svg11.dtd" >
<svg xmlns="http://www.w3.org/2000/svg">
<metadata></metadata>
<defs>
<font id="hello_sunshine_markerregular" horiz-adv-x="618" >
<font-face units-per-em="2048" ascent="1536" descent="-512" />
<missing-glyph horiz-adv-x="294" />
<glyph horiz-adv-x="0" />
<glyph horiz-adv-x="682" />
<glyph horiz-adv-x="0" />
<glyph horiz-adv-x="0" />
<glyph unicode="&#xd;" horiz-adv-x="294" />
<glyph unicode=" "  horiz-adv-x="294" />
<glyph unicode="&#x09;" horiz-adv-x="294" />
<glyph unicode="&#xa0;" horiz-adv-x="294" />
<glyph unicode="!" horiz-adv-x="499" d="M143 541q4 132 4 161q1 25 -0.5 70t-1.5 59q4 110 11 185q21 236 24 262q3 38 13.5 107.5t13.5 95.5q0 13 2 37t2 36q0 29 17 45.5t48 16.5h17q74 6 104 -66q2 -4 2 -14q-5 -152 -8 -180q-5 -40 -20.5 -134t-20.5 -145q-5 -38 -6 -109t-2 -94q-12 -149 -12 -157 q-1 -15 -6.5 -76t-6.5 -94q-1 -23 -12 -45.5t-18.5 -32t-28.5 -33.5q-15 -19 -49 -10.5t-43 31.5q-6 18 -23 84zM221 717l10 -10q5 15 5 18q0 1 -3 4.5t-4 5.5q-7 -14 -8 -18zM236 641v2l-3 -2h3zM178 195q11 -4 25 -11t32.5 -16.5t30.5 -15.5q2 -1 5 -5.5t5 -5.5 q44 -15 35 -47q-7 -29 -27.5 -42.5t-47.5 -8.5q-78 11 -101 59q-3 5 -6 17t-6 18q-9 32 1 43t54 15z" />
<glyph unicode="&#x22;" horiz-adv-x="552" d="M207 1479q8 0 12 -2q25 -3 29 -23v-4q-8 -3 -10.5 -7.5t-2 -10.5t0.5 -7q-4 -22 -9.5 -65.5t-9.5 -65.5q-8 -39 -29 -98q-1 -5 -4 -19t-4 -22q0 -8 -14 -8q-12 0 -14 2q-22 22 -25 45q-2 21 -10 68q-4 15 -4 71v92q0 9 4 25q0 18 35 27q37 8 55 2zM164 1245q5 14 14 49v4 l-4 -4q-8 -34 -16 -47q-11 -18 -15 -53q4 0 4 -4l5 4q2 9 6 25.5t6 25.5zM287 1440q-4 7 14 16q17 19 59 19q17 0 43 -11q12 -4 9 -12q2 -21 2.5 -60t1.5 -51q-3 -58 -23 -108q-10 -20 -12 -23q-10 -16 -33 -16q-8 0 -17 5.5t-12 12.5q-1 8 -6 26.5t-6 27.5q-1 12 -8.5 39 t-7.5 43q-1 13 -4 39.5t-4 39.5q1 2 2 6.5t2 6.5z" />
<glyph unicode="#" horiz-adv-x="1071" d="M991 788q7 -1 10.5 -4.5t3.5 -6t-0.5 -9t-0.5 -8.5q0 -6 -2.5 -8.5t-4.5 -2.5t-6.5 0.5t-5.5 0.5q-19 0 -27 2q-2 0 -6 3.5t-4 4.5q2 13 1 16t-10.5 4.5t-12.5 3.5q-55 11 -64 11q-95 9 -188 12h-15q-4 -4 -10 -6q3 -1 6 -4.5t4 -3.5q32 0 48 2q80 0 129 -19q6 -2 41 -2 q2 0 8 1t8 1q1 0 2 -1t3.5 -3t4.5 -4q-3 -1 -6 -3.5t-4 -2.5q-14 -2 -43 -2h-37q-3 0 -6 -6l6 -6h45q2 0 5 -1.5t5 -1.5q-1 -1 -4.5 -3.5t-5.5 -2.5h-24l-5 -2q-7 1 -21.5 5.5t-21.5 5.5q-2 0 -5.5 -2.5t-6.5 -2.5q-20 0 -20 2q-2 15 -23 15q-7 -1 -24 -4t-27 -4v-4 q0 -3 6 -3q20 0 35 -6q-5 0 -17 -1t-20 -1q-27 2 -40.5 -9t-14.5 -38q-1 -16 -23 -149q-5 -30 -10.5 -83.5t-7.5 -66.5q-5 -21 -12.5 -29t-24.5 -8q-23 0 -28 4t-11 27q-3 15 -6.5 15t-9.5 -5q-1 2 -8 8t-7 9q0 30 4 104q4 31 12 90.5t11 83.5q1 11 -5 15t-16 2 q-28 -8 -83 -26t-82 -26q-32 -5 -35 -43q-29 -142 -35 -178q-11 -52 -27 -139q-2 -10 -5 -12.5t-13 -1.5q-6 2 -21 2q-22 0 -26 18q0 10 -5 16t-16 5q-3 0 -7.5 4t-4.5 10q-10 43 -8 59q4 36 13.5 102t12.5 93q3 18 0 22.5t-20 12.5q-11 7 -47 43q-9 10 -10.5 13.5t1.5 6.5 t17 8q37 13 59 25q19 8 23 22q1 5 18 115q3 17 -4 23.5t-24 3.5q-32 -6 -46.5 3t-25.5 40q-1 5 -6 16t-6 14q-16 33 20 46q17 6 115 51q12 12 12 24q1 10 9 70.5t10 91.5q1 14 4 40t4 38q3 26 35 37q25 12 51 1t39 -36q8 -15 8 -32t-3.5 -36t-2.5 -30q1 -15 -0.5 -44 t-1.5 -38q0 -24 22 -19q27 6 83 17.5t83 17.5q23 3 23 27q8 81 10 112l10 25q21 0 33 -12q23 -27 29 -54q11 -32 14 -67q3 -22 8.5 -26.5t28.5 -4.5q84 0 127 -6q15 0 47 -16q12 -3 1 -14l-3 -3q-5 -3 -10 -12q2 -1 7 -3t7 -3q4 -2 10.5 -4t11.5 -3.5t9.5 -5.5t7.5 -10 q9 -24 -17 -24q-19 0 -58 -1t-58 -1q-8 -1 -23.5 0.5t-21.5 1.5q-10 0 -30 1t-32 1q-17 0 -20 -19q-1 -14 -6.5 -42.5t-6.5 -43.5q-4 -58 -4 -90q-3 -19 0 -21.5t23 -4.5q107 -9 268 -31q8 -1 23 -7.5t22 -7.5zM731 1065q9 3 14 8q-8 4 -14 6q-1 1 -3.5 1t-2.5 -1 q-17 -3 -25 -6q12 -8 19 -8h12zM702 1135q-1 0 -4 -2t-6 -3q4 0 7 -2l3 -2h50v-4h41q2 0 5.5 2.5t4.5 3.5q-7 7 -10 7h-91zM195 598q2 2 0 4q0 3 -5 8q-8 -4 -8 -8l-4 -12q-14 -114 -20 -154q2 -4 6 -10q4 8 6 10q4 26 12.5 80.5t12.5 81.5zM211 461v2q-2 0 -2 -2h2z M219 766q2 10 9 47.5t10 60.5q0 1 -1 6t-1 7q0 -1 -4.5 -5t-4.5 -8q-3 -15 -10 -51.5t-10 -56.5l1 -4q1 -4 1 -8l4.5 4.5l4 4t1.5 3.5zM502 780q2 0 3.5 2t2.5 2q-2 2 -6 2q-2 -2 -4 -2q1 0 2 -2t2 -2zM520 477v2l-2 -2v-2zM522 500l2 2v6l-4 -2q0 -4 2 -6zM528 535q8 8 4 8 l-6 6q-4 -4 -4 -6t6 -8zM557 702q0 1 -1 4.5t-1 4.5q-2 -1 -6 -2t-6 -2q-4 -16 -4 -21q-12 -72 -13 -80q0 -6 6 -12q1 1 4.5 6t4.5 8q0 2 1 7t1 8q7 31 14 79zM557 979q4 12 4 41q0 3 -3 7.5t-5 4.5q-43 0 -66 -6q-16 -5 -33.5 -12t-39.5 -15.5t-35 -13.5q-53 -21 -47 -82 q0 -6 2 -14q-2 -15 -9.5 -44.5t-9.5 -39.5q-2 -13 1.5 -18.5t13.5 -2.5q24 6 184 37q19 9 21 23q4 27 22 135z" />
<glyph unicode="$" horiz-adv-x="884" d="M815 618q26 -87 14 -256q-1 -15 -5.5 -31t-12 -36.5t-10.5 -30.5q-21 -57 -39 -82q-41 -55 -96 -76q-120 -47 -172 -81q-16 -9 -37 -13q-16 -3 -19 -20q-3 -12 -10 -35.5t-10 -36.5q-2 -6 -1.5 -18t-0.5 -19q-8 -28 -35 -10q-19 19 -27.5 35t-1.5 37l6 12q6 -3 11 -8 q2 -4 5 -12.5t5 -12.5q1 4 6 29v24v5t0.5 7t0 6.5t-2 4t-6 -0.5t-10.5 -7q-1 0 -13 6q-5 4 -13 11.5t-13.5 12t-14 8.5t-16.5 5q-30 3 -55 28q-4 4 -9 6t-12 4t-10 3q-11 5 -29 14.5t-22 11.5q-40 24 -86 74q-17 17 -23 27q-16 19 -16 39q0 44 -4 57q0 5 -2 16t-2 17 q0 8 4 20q5 24 28 86q12 25 38.5 74.5t39.5 75.5q2 4 6.5 12t6.5 12q20 20 22 21q43 30 59 -2q7 -16 -2 -47q-5 -11 -15 -34.5t-15 -35.5q-4 -9 -31 -72q-11 -23 -14 -41q-2 0 -1 -15l1 -15v-66q0 -31 10 -69q13 -30 24 -41q7 -9 22.5 -17t20.5 -12q7 -6 21.5 -19.5 t21.5 -19.5q20 -14 54 -18q22 -3 24 14q2 6 2 41q4 82 4 121q1 32 4.5 95t4.5 95q1 48 5 144.5t5 144.5q1 26 1 78t1 78q0 23 -23 32q-20 8 -73 35q-13 4 -15 8q-8 13 -33.5 47.5t-38.5 60.5t-16 56q-8 127 10 197q9 57 60 88q20 14 51 14q38 -3 86 4q4 0 9 5t7 10 q2 11 4.5 34t4.5 35q1 5 7.5 53.5t20.5 71.5q11 13 28.5 18t31.5 -3q24 -15 37.5 -50t7.5 -65q-3 -13 -25 -152q0 -10 8 -18q71 -69 103 -195q4 -12 4 -20q0 -28 -19 -41t-45 -4q-24 9 -30 19t-6 36q0 8 -2.5 17t-7.5 21t-7 17q-4 4 -8 6q0 -1 -1 -4t-1 -4q-5 -148 -6 -176 q-3 -30 -6 -57q-3 -30 26 -45q108 -54 189 -144q27 -28 48 -65.5t31.5 -66.5t24.5 -77zM467 522l-4 -4h2q2 0 4 2zM446 883q-2 -5 -5 -17.5t-5 -17.5q8 -12 15 -19q0 9 4 21q0 2 -2 2q-1 5 -3.5 15.5t-3.5 15.5zM444 748q-4 -82 -6 -127q0 -1 6 -13q5 10 5 15q2 18 2 57 q0 37 4 111q0 1 -2 4.5t-2 5.5q-9 -9 -9 -10q0 -7 1 -21.5t1 -21.5zM356 1047q17 -6 21 -3.5t6 17.5q12 291 12 297h-2q3 7 0 14q0 2 -6 8q-1 -1 -3 -1.5t-3.5 -1t-1.5 -1.5q0 -9 -5 -14.5t-14 -9.5t-12 -6q-43 -38 -49 -52q-14 -34 -14 -92q1 -15 4 -31t7.5 -36t6.5 -31 q11 -39 53 -57zM381 86q1 0 3.5 2.5t4.5 3.5q-6 6 -10 6q0 -1 -2 -3.5t-2 -4.5q4 -4 6 -4zM395 330q1 45 6.5 135t6.5 135q4 80 8 240v78q0 2 -4.5 6t-5.5 6q-7 -14 -7 -15q-2 -43 -2 -133q-8 -172 -12 -256q-4 -64 -8 -194q-4 -126 -8 -187q0 -2 -4 -2q3 -4 8 -11t8 -11 q1 4 4 12t4 12v9q1 30 3 88.5t3 87.5zM422 78q1 2 3 5t3 5t0 4q0 5 -4 12.5t-4 8.5l-3 -7l-5 -10q2 -3 5 -9t5 -9zM446 242q0 2 -4 10q-6 12 -6 16q-3 51 0 101q1 31 5 92.5t5 91.5h-2v12q0 2 -6 8q0 -1 -2 -4t-2 -4q0 -57 -2 -88l-6 -123q-1 -32 -4 -95.5t-4 -94.5 q0 -1 6 -19q10 15 10 19q0 6 1 19.5t1.5 21t3 18t6.5 19.5zM524 147q4 2 8 13q-2 0 -4.5 1t-3.5 1q-4 -1 -17.5 -3t-22.5 -4.5t-15 -7.5q-2 -3 -18 -45q2 0 5 -1t5 -1.5t4 0.5q31 19 59 47zM662 506v34t-2 33.5t-3 34.5q-2 17 -10 49t-10 45q-19 118 -125 179q-13 8 -17.5 6 t-5.5 -17q-1 -17 -1 -49.5t-1 -48.5q-1 -14 -2 -41t-2 -41h4q2 -6 2 -20q-1 -18 -3 -54.5t-3 -54.5q-12 -216 -20 -319q0 -18 -4 -58q0 -22 18 -10q3 2 31.5 16.5t42.5 24.5q70 52 98 162q10 70 13 129z" />
<glyph unicode="%" horiz-adv-x="884" d="M653 1329q41 5 66 -37q30 -46 8 -86q-38 -68 -145 -278q-6 -11 -15.5 -34.5t-15.5 -35.5q-10 -18 -33 -53t-33 -53q-7 -13 -17 -39.5t-17 -38.5q-11 -21 -68 -113q-2 -3 -8 -8t-8 -8t-68 -127q-85 -139 -111 -187q-3 -4 -14 -38q-5 -16 -15 -23t-20 0q-67 51 -84 98 q-2 6 -3 11.5t0 12t1.5 10.5t3.5 10.5t4.5 9.5t5.5 10.5t5 9.5q22 36 78 129t86 143q24 42 77.5 141.5t83.5 151.5q21 39 64.5 110.5t48.5 80.5q50 91 100 205q14 26 43 26zM18 1090q4 12 12 38.5t15 45.5t16 36q17 36 78 113q22 30 52.5 36.5t57 -5.5t44.5 -35 q19 -23 37 -33q31 -17 24 -59q-33 -137 -51 -193q-23 -71 -106 -98q-16 -6 -31.5 -5.5t-25.5 2.5t-23 11.5t-18.5 14t-19 19t-16.5 17.5q-30 26 -45 95zM104 1069q2 -5 8 -17.5t9 -19.5q2 1 15.5 9.5t19.5 13.5q4 4 12 16q41 95 65 158q1 8 1 11t-2 12t-3 12q-3 0 -13 -1 t-16 -2.5t-10 -5.5q-67 -70 -86 -186zM475 336q3 119 80 211q33 37 51 51q45 36 94 0q19 -17 -2 -35q-73 -73 -106 -112q-50 -63 -43 -166q4 -40 33 -47q42 -11 61 20q21 30 25 45q12 71 18 141q0 6 -16 43q-1 2 -3 6.5t-3 6.5q2 1 5.5 3t6.5 3t6 0q33 -2 64.5 -31.5 t31.5 -62.5v-28v-29.5t-0.5 -27t-3 -29.5t-6 -26t-9.5 -28t-14 -25q-6 -10 -40 -39q-46 -39 -125 -12q-28 10 -70 59q-35 38 -35 109z" />
<glyph unicode="&#x26;" horiz-adv-x="681" d="M739 512q0 -17 -3.5 -37.5t-6.5 -32t-11.5 -38t-10.5 -33.5q-46 -125 -144 -277q-12 -10 -33 -31q-11 -9 -30.5 -28.5t-37.5 -34t-38 -23.5q-93 -35 -170 -40q-23 -1 -43 4.5t-47.5 19t-36.5 16.5q-24 8 -45 22.5t-49 40t-37 32.5q-52 49 -76 98q-24 51 -20 135 q13 147 102 307q85 145 164 244q17 21 -6 33q-16 5 -33 26q-41 30 -47 72q-15 126 35 236q7 15 18 45t21.5 54t21.5 44q36 77 113 141q6 6 16 6q119 10 152 7q55 -4 94.5 -32.5t56.5 -76.5q6 -17 9.5 -35t7 -46t4.5 -38q1 -11 5 -33.5t5 -35.5q0 -25 -21.5 -47t-48.5 -23 q-11 -2 -24 11.5t-10 25.5q10 32 -5 67q-8 10 -12 50q-3 26 -8 84q-4 42 -39.5 64.5t-77.5 10.5q-3 0 -7.5 -6t-4.5 -12q-5 -29 -31 -51q-7 -5 -28 -31q-64 -88 -119 -233q-4 -15 -7.5 -32t-6.5 -40t-5 -33q-4 -32 9.5 -45t46.5 -10t67 14q32 17 82 -4q24 -13 51 -37 q17 -15 17 -33t-17 -32q-10 -5 -14 -9q-22 -30 -102.5 -120.5t-112.5 -147.5q-73 -128 -98 -190q-21 -51 -31 -123q-8 -36 -12 -109q-3 -34 22 -57q13 -9 39.5 -31.5t42.5 -32.5q21 -12 47 -12q53 7 95.5 35.5t91.5 77.5q85 85 151 231q27 69 41 127q0 13 2 17.5t-2 17 t-5.5 16t-7 15.5t-7.5 16q-5 10 -22.5 9.5t-31.5 -9.5q-5 -3 -28 -31q-84 -65 -105 -82q-30 -34 -43 -51q-11 -14 -24.5 -17t-22.5 7q-1 1 -7 6.5t-7 7t-6 7.5t-5 8.5t-2.5 10t0.5 11.5q19 104 107 156q17 10 57 14q18 5 52.5 13.5t50.5 13.5q61 16 129 -19q25 -11 47 -61 q8 -21 20 -84zM664 532q-22 0 -29 -6.5t-12 -29.5q-3 -33 -17 -72q-8 -21 10 -57q1 -7 5 -9.5t9 0t9 9.5q46 64 49 139q0 2 0.5 10t0 9t-2.5 6.5t-7.5 3t-14.5 -2.5zM618 330v8h-10q-5 -7 -14 -22l-8 -15l4 -2q21 21 26 25q2 2 2 6z" />
<glyph unicode="'" horiz-adv-x="251" d="M166 1520q8 0 12 -2q25 -3 29 -23v-4q-8 -3 -10.5 -7.5t-2 -10.5t0.5 -7q-4 -22 -9.5 -65.5t-9.5 -65.5q-8 -39 -29 -98q-1 -5 -4 -19t-4 -22q0 -8 -14 -8q-12 0 -14 2q-22 22 -25 45q-2 21 -10 68q-4 15 -4 71v92q0 9 4 25q0 18 35 27q37 8 55 2zM123 1286q5 14 14 49v4 l-4 -4q-8 -34 -16 -47q-11 -18 -15 -53q4 0 4 -4l5 4q2 9 6 25.5t6 25.5z" />
<glyph unicode="(" horiz-adv-x="581" d="M66 473q-4 207 16 289q8 36 24.5 108.5t24.5 108.5q4 19 17.5 52t17.5 48q6 17 12.5 47t9.5 39q68 158 93 211q29 66 79 168q19 37 42.5 43t58.5 -18q21 -11 49 -35q9 -6 8.5 -36.5t-12.5 -43.5q-55 -68 -119 -223q-17 -40 -74 -166q-17 -41 -28 -80q-19 -60 -41 -129 q-4 -14 -4 -41q0 -10 -2 -12q-4 -7 -7 -13.5t-5.5 -15t-4 -14.5t-3 -16.5t-2 -14.5t-1 -16.5t-1 -15.5t-1 -17t-0.5 -16q-13 -189 8 -338q12 -91 43 -187q4 -11 9.5 -22t14 -24t13.5 -20.5t16.5 -23t14.5 -20.5q5 -6 13 -12t18 -12t14 -9q2 -1 6.5 -3.5t8 -4.5t5.5 -6 q12 -20 9 -39q0 -12 -27 -17q-70 -2 -139 90q-99 143 -131 265q-10 32 -18 68t-15 73.5t-10 50.5zM139 963v-2v2q0 8 4 20l9 9q8 10 10 16q8 25 27.5 82.5t29.5 89.5v12l-8 -8q-1 -2 -3 -7.5t-3 -7.5q-11 -36 -34 -103.5t-28 -82.5q-4 -12 -4 -20zM262 1274q6 3 6 4 q9 17 31 68q1 1 0 3t-2.5 4t-1.5 3q-4 0 -4 -4q-4 -8 -10 -21t-10.5 -24t-8.5 -21v-12zM168 743q-4 -4 -6 -8q-4 -11 -8 -41q-1 -1 0 -6l2 -4q6 0 6 4q8 33 10 45q0 2 -4 10zM137 596q4 -8 6 -16l4 8t3 8q2 6 2 16v37q-6 -16 -13 -39q0 -6 -2 -14zM133 410q-5 22 -8 45 q0 -9 -1 -28t-1 -28q1 -6 4 -20t4 -23q1 8 1 25t1 29zM123 532q1 2 2 3t1.5 2t0.5 2q6 21 6 41q0 6 -4 10q0 -1 -2 -3t-2 -3q0 -15 -4 -43q0 -1 1 -4t1 -5zM246 1227q4 12 4 14l-4 4l-6 -12q4 -2 6 -6zM219 946q1 2 2 4.5t1.5 3.5t0.5 2q0 5 -4 5q-4 -3 -4 -5q0 -1 0.5 -2 t1.5 -3.5t2 -4.5zM135 319q0 -2 1 -3.5t1 -2.5q0 1 1 2.5t1 3.5l-2 3zM143 537l2 2q0 2 -2 2v-2v-2zM184 827v-4l2 4h-2z" />
<glyph unicode=")" horiz-adv-x="581" d="M453 469q-30 -136 -50 -193q-34 -120 -137 -260q-73 -88 -143 -86q-9 2 -18 7.5t-9 11.5q0 24 10 37q2 4 5.5 6.5t8.5 4.5t7 3q37 21 47 31q3 4 15 19t17 22.5t14 20.5t14.5 24t9.5 22q33 88 49 185q25 139 18 338q0 98 -20 141q-2 2 -2 12q0 34 -2 41q-10 31 -37 129 q-14 48 -27 80q-6 15 -31.5 75.5t-37.5 92.5q-60 158 -111 227q-11 13 -11 43.5t9 36.5q23 20 49 33q37 24 59.5 17.5t40.5 -44.5q48 -106 74 -170q2 -5 86 -213q3 -11 9 -40.5t12 -45.5q4 -13 16 -47.5t16 -54.5q7 -36 20.5 -108.5t20.5 -108.5q19 -90 9 -289zM393 958 q0 15 -2 21q-7 26 -27.5 90t-29.5 98q-1 2 -2 7.5t-2 7.5l-8 8v-12q9 -32 26.5 -89t24.5 -83q2 -6 9 -15t9 -12q2 -6 2 -21v-2v2zM281 1274v12q-7 20 -27 66q0 4 -4 4q0 -1 -1.5 -3t-2.5 -4t0 -3q3 -7 12 -31t16 -37zM358 741q-4 -8 -4 -10q1 -6 4 -21t4 -24q0 -4 7 -4l1 4 q2 5 1 6q0 23 -6 41q-1 2 -7 8zM385 592q-2 8 -2 14q-2 6 -5 20.5t-5 20.5q0 -5 -1 -18t-1 -19q0 -10 2 -16q0 -2 2.5 -8.5t3.5 -10.5q3 10 6 17zM383 406q1 -11 1 -20.5t-0.5 -19t-0.5 -14.5q9 36 10 43v56q-1 -9 -10 -45zM397 528q0 2 1 5t1 4q-2 14 -2 43q0 1 -2 3t-2 3 q-4 -4 -4 -11q0 -26 4 -40q0 -1 0.5 -2t1.5 -2t2 -3zM295 1227l6 6q-4 8 -4 12l-6 -4q0 -2 4 -14zM313 944q1 2 2 4.5t1.5 3.5t0.5 2l-4 4q-4 0 -4 -4q0 -1 0.5 -2t1.5 -3.5t2 -4.5zM379 315l-2 2l-2 -2q0 -2 1 -3.5t1 -2.5q0 1 1 2.5t1 3.5zM377 532v3v2h-2q0 -3 2 -5z M344 825h-2l2 -4v4z" />
<glyph unicode="*" horiz-adv-x="612" d="M543 1481q3 -8 1.5 -12t-7.5 -3h-6h-7t-5.5 1t-5.5 3.5t-3 6.5q0 4 -8 4q-32 4 -49 4q-29 0 -43 -2q-1 0 -4.5 -1t-4.5 -1q1 -2 7 -8q2 -1 6 -2.5t6 -2.5q12 -4 16 -4q8 -4 15 -4q8 1 25.5 2t25.5 2q6 0 18 -4q4 0 8 -8q-4 -4 -8 -4q-5 -1 -16.5 -3t-16.5 -3q-2 -1 -5 -3 t-5 -3q2 -2 4.5 -5t3.5 -4q6 -3 10.5 -6.5t8 -9.5t5 -9t5 -11.5t4.5 -10.5q0 -6 -2 -8q-6 -8 2 -20q3 -10 -4 -17q-13 -10 -25 2q-4 4 -34 19q-33 17 -64 30q-38 14 -49 17q-12 5 -25 -8q-18 -18 -14 -62q1 -11 4 -34.5t4 -36.5q0 -4 -6 -52q0 -2 -1 -6t-1 -6 q-3 -18 -15.5 -23.5t-27.5 3.5q-4 3 -12 8t-12 8q-6 6 -3 8q8 14 3 58v14q-1 2 -3.5 5t-3.5 5q-1 -1 -4 -3t-4 -3q-7 -11 -51 -72q-9 -14 -18 -12q-6 2 -14 8t-9 10q0 7 -6 13q-1 3 -5.5 8.5t-4.5 7.5q0 31 6 41q40 53 71 100q1 1 2.5 4.5t2.5 4.5h-11q-20 -3 -58.5 -9.5 t-57.5 -9.5q-26 -6 -39 17q-1 2 -7.5 11.5t-9 14t-5 13t-1.5 16.5q2 6 2 18q3 10 6 11.5t15 1.5h53l2 2q0 4 -2 4q-21 18 -21 55q0 6 3.5 17.5t3.5 13.5q3 13 16 10q64 -16 113 -27q14 -6 14 11q-2 4 -2 16v47q0 13 12 21t28 5t25 -14q11 -12 16 -28.5t5 -24.5v-31v-20 q0 -4 2 -8q1 1 3 2q3 1 3 2q5 6 15.5 18.5t15.5 18.5q6 9 28.5 39t32.5 47q10 18 33 22q26 0 39 -26q12 -24 -2 -48q-2 -3 -29 -47q-3 -4 -9 -13t-9 -13q-4 -7 2 -10l3.5 -3.5t3.5 -3t5 1.5q1 1 3 3.5t3 3.5q35 0 51 -2q7 0 19.5 -3t15.5 -4q15 -4 15 -18q4 -8 4 -10z M186 1264v-2v4v-2zM188 1268q3 2 5 4h-3q0 -1 -1 -2t-1 -2zM209 1292q0 2 2 4h-4v-2q0 -2 2 -2zM381 1466l4 4q-1 0 -3 1.5t-3 1.5q-2 -3 -4 -3q1 -1 3 -2t3 -2z" />
<glyph unicode="+" horiz-adv-x="581" d="M342 1030q-1 -15 -3 -43.5t-3 -42.5q-2 -2 -2 -6q0 -17 3.5 -20t20.5 0q62 8 95 12q2 1 8.5 4t11.5 4q27 7 43 -16q5 -6 16.5 -18.5t16.5 -18.5q2 -3 5 -12t5 -13q5 -25 6 -29q3 -23 -22 -26q-9 -1 -28 -2t-28 -2q-17 -2 -52 -5t-52 -5q-8 -1 -24.5 -5.5t-24.5 -5.5 q-13 0 -17 -18q-4 -57 9 -189l6 -24q1 -3 2 -10t2 -11t2 -13t2 -13q5 -14 -2.5 -22t-20.5 -5q-3 1 -10 1t-12 1t-8 4q-19 16 -27 23.5t-18.5 24t-14.5 34.5q-13 74 -16 180q0 15 -3 18.5t-18 0.5q-18 -3 -106 -23q-32 -10 -55 17q-5 8 -15.5 24.5t-15.5 24.5q-4 8 -8 12 q-11 10 -8 23.5t18 17.5q7 2 24.5 5t24.5 5q18 3 51.5 8.5t51.5 8.5q7 1 21.5 2t21.5 2q20 3 22 22q1 35 3 104.5t3 104.5q0 14 11 25t26 12q24 3 43 -10t27 -33q9 -22 10.5 -32.5t1.5 -51.5zM240 707h2v-50q8 -59 14 -92l6 -12q0 2 1 7t1 7q0 43 -4 129q-1 10 -2 30.5 t-2 29.5q0 16 -6 16q-10 0 -10 -14v-51zM279 666q-1 2 -2.5 6t-2.5 6q0 -2 -1 -7.5t-1 -8.5q0 -5 2 -7q0 1 5 11z" />
<glyph unicode="," horiz-adv-x="313" d="M96 59q-5 -2 -12 -12q-67 -101 -70 -106q-16 -16 -43 -33q-2 0 -7 -1t-7 -1q0 1 -1 3t-1 4t2 3q2 6 10 17t10 14q6 12 24 42.5t26 47.5q44 106 51 131q21 69 24 121q2 21 -1 60.5t-3 51.5q0 16 4 17q3 2 12 2t13 -2q17 -6 45 -25q45 -27 49 -49q23 -67 4 -127 q-6 -21 -16.5 -42.5t-29 -54t-23.5 -42.5q-18 -25 -41 -45q-22 -15 -37 -37q-2 -1 -6 -4t-6 -4q5 13 15 36t15 35v2l-4 2q0 -1 2 -2t2 -2zM61 57q0 -2 -4 -6h2q0 1 1 3t1 3q9 9 15 13h-6q0 -4 -9 -13z" />
<glyph unicode="-" horiz-adv-x="552" d="M164 770q82 4 121 4q33 1 55.5 -6t52.5 -8q12 0 24.5 -2.5t28 -7.5t23.5 -7q15 -4 22 -26.5t-2 -34.5q-6 -6 -18 -6q-6 0 -18 2t-17 2h-6q-5 1 -6.5 0.5t-4.5 -2t-2 -5t5 -9.5q2 -1 -4 -9q-5 -1 -18.5 -4.5t-19 -3.5t-18.5 6q-6 0 -8 -2q-8 -7 -17.5 -9.5t-24.5 -2.5h-19 q-29 -3 -49 0t-49 0q-50 -4 -132 -35q-28 -10 -46 2t-23 43q-8 44 0 66q8 25 18 33q2 2 31 8q17 2 53 7t54 7h14z" />
<glyph unicode="." horiz-adv-x="296" d="M133 41q-28 0 -43.5 11t-13.5 30q8 78 14 117q2 14 14 51q4 15 16 18t25 -6q34 -23 48 -39q6 -6 19 -17.5t21.5 -21.5t12.5 -22q11 -43 -21 -66q-3 -4 -10.5 -10t-9.5 -10q-9 -16 -37.5 -22.5t-34.5 -12.5z" />
<glyph unicode="/" horiz-adv-x="612" d="M-14 174q8 86 63 254q58 177 68 203q6 20 20 57t17 47q56 159 114 318q21 59 129 346q7 18 32 80.5t38 97.5q7 22 14 22q36 -4 47 -14q19 -11 45 -45q42 -55 13 -127q-12 -26 -33 -92q-3 -9 -34 -85.5t-46 -115.5q-7 -19 -22.5 -56.5t-22.5 -55.5q-2 -7 -2 -24.5 t-2 -25.5q-11 -31 -56.5 -154.5t-68.5 -191.5q-16 -42 -43 -120q-5 -12 -31.5 -71.5t-38.5 -92.5q-29 -75 -49 -146q-14 -39 -28 -110q-5 -53 -3 -72q1 -10 1.5 -18t-4 -14.5t-15.5 -10.5q-13 -5 -29.5 2.5t-19.5 20.5q-9 22 -29 22q-8 0 -18 29q-18 43 -6 127v16zM254 678 v-33q-1 -2 -9 -9t-9 -13q-47 -130 -64 -170v-11v-14l10 10q1 3 6 23q18 45 64 184q2 10 2 35q8 6 16 22v3q-9 -18 -14 -23q0 -2 -2 -4zM10 135l2 -2q0 -33 -2 -51q0 -3 6 -12q1 3 4 7t3 5q12 53 12 55q6 41 18.5 82.5t34.5 98.5t29 77q11 37 25 77t33 90t28 77q8 23 16 63 q0 21 2 31q9 25 30 76t30 76q7 21 19 60t19 59q5 12 14.5 36.5t14.5 36.5q1 5 -0.5 14t-1.5 13q-2 -4 -8.5 -11t-7.5 -10q-6 -9 -14.5 -29t-10.5 -24q-4 -11 -13 -34t-13 -35q-24 -76 -29 -89q-4 -12 -39 -101.5t-43 -139.5q0 -9 -4 -13q-4 -11 -55 -149q-37 -100 -43 -131 q-8 -40 -31 -118.5t-25 -84.5zM293 764q2 6 6 14q35 97 37 103v12q-8 -4 -8 -8q-35 -93 -41 -111q0 -4 6 -10zM365 967q7 23 10 28q0 1 -4.5 4t-5.5 5q-1 -3 -4 -10.5t-3 -10.5q0 -2 1 -3.5t2.5 -5t3.5 -7.5zM137 324q0 1 -1 2t-1 2q-4 -4 -4 -6q2 -3 2 -7q1 2 2 5t2 4z M346 940q-1 -2 -2 -4.5t-1.5 -3.5t-0.5 -2t1 -3t1 -3q4 4 4 6q1 1 -2 10zM279 731q6 3 6 6v8q-6 0 -6 -6v-8z" />
<glyph unicode="0" horiz-adv-x="675" d="M485 844q-20 -152 -28 -228q-2 -10 1 -21.5t9 -12.5q12 -3 22 4t13 20q21 75 35 103q3 7 9 13t16 12t13 9q9 -9 9 -14q-7 -90 -17 -151q-21 -148 -41 -205q-24 -72 -57.5 -122.5t-89.5 -80.5q-11 -5 -24.5 -9.5t-31.5 -9l-26 -6.5q-1 0 -4 1t-4 1q-19 -7 -36 -9.5 t-32.5 3t-26 9.5t-25 18t-20.5 20.5t-21 25t-19 22.5q-69 84 -105 247q-32 144 -18 267q9 92 47 303q7 40 23 84.5t30.5 74.5t40.5 78q47 93 145 96q16 0 41 17q94 69 230 43q69 -12 92 -82q5 -14 0 -59q0 -2 -3.5 -10t-2.5 -11q5 -24 4 -33t-8 -31t-9 -32q-4 -20 -6 -42.5 t-3.5 -50t-2.5 -42.5q-4 -26 -16 -82q-2 -4 -8 -10q-5 10 -5 14q2 24 7.5 77.5t7.5 80.5q12 180 12 186q0 8 -4 17t-10.5 20.5t-9.5 17.5q-1 1 -6 2t-7 2q0 -2 -1 -4.5t-1.5 -4t0.5 -3.5q24 -31 -6 -45q-1 -1 -1 -8t-1 -10q-17 -110 -33 -189q0 -4 -6 -16q-4 12 -4 18 q0 24 1.5 99t0.5 116q0 31 -17 40.5t-42 -9.5q-94 -67 -142 -113q-8 -8 -13.5 -20t-11 -29t-9.5 -26q-2 -4 -4.5 -14t-4.5 -13q-64 -99 -102 -285q-25 -124 -27 -180q-1 -44 3.5 -125t5.5 -104q2 -69 38 -160q18 -49 56 -23q37 25 67 66q69 91 101 246q7 34 23.5 93.5 t21.5 78.5q3 12 7 35t7 34zM535 537l-15 30q-3 -3 -7.5 -7t-8 -7.5t-6.5 -7.5q-18 -36 -23 -51q-1 -2 -3 -8t-3 -7.5t-3.5 -3.5t-6.5 0.5t-10 7.5q0 1 -4.5 -0.5t-9 -4.5t-5.5 -5q-5 -16 -14.5 -47.5t-14.5 -48.5q0 -3 11 -8q2 -1 4.5 -0.5t4 1t1.5 -0.5q18 -40 43 4 q26 48 53 114q6 13 17 50zM420 274h14q10 35 12 41l-8 2q-8 -15 -18 -43z" />
<glyph unicode="1" horiz-adv-x="425" d="M268 111q-7 1 -20 2.5t-20 3t-15 7.5t-14 17q-12 -4 -21 1.5t-16 14t-12 9.5q-4 2 -14 3t-14.5 5t-6.5 14q-1 7 -5.5 21t-5.5 22q0 109 -4 158q-8 212 -8 309q-4 97 -14 568q0 35 -4.5 98t-5.5 88q-2 19 7.5 36t24.5 17q5 0 11 -2.5t10 -5.5t10.5 -7.5t9.5 -6.5 q4 -2 29.5 -21.5t40.5 -23.5q14 -4 23 -9.5t15.5 -17t8.5 -16.5t8 -23q6 -19 9.5 -44t4 -37t0 -47t-0.5 -40q2 -53 2 -160q6 -138 6 -276q2 -125 10 -379q0 -74 4 -242q1 -21 -6 -28.5t-27 -7.5zM184 748v96q0 5 -3 10l-3 4q-8 -8 -8 -14q-4 -2 -4 -15q4 -113 4 -333 q0 -8 3.5 -23.5t4.5 -23.5l6 -5q1 1 3 2q3 2 3 3q0 10 2.5 28t2.5 27q-10 217 -11 244z" />
<glyph unicode="2" horiz-adv-x="720" d="M571 1235q0 -121 -59 -268q-59 -145 -137 -318q-56 -127 -90 -182q-6 -10 -24.5 -40.5t-29 -52t-16.5 -44.5q-4 -12 -13.5 -34.5t-13.5 -33.5q-6 -17 -2 -22t21 -2q22 3 68.5 10t68.5 10q76 14 170 27q24 4 37.5 -1t21.5 -28q11 -31 58 -35q31 -3 41 -13t14 -44 q4 -22 -1 -28t-30 -9l-147 -18q-30 -5 -98 -21.5t-105 -21.5q-41 -7 -170 -21q-12 0 -24 12q-25 22 -34 30.5t-25 28t-23 38.5q-3 5 -13 30q-10 26 -12 27q-25 22 -14 55q7 20 19.5 64.5t24.5 77.5t29 63q16 28 38.5 83.5t31.5 74.5q14 31 43 86.5t39 75.5q57 122 113 253 q9 21 18 45.5t20 53.5t17 45q1 1 3.5 4.5t2.5 5.5q0 33 2 49q-33 -14 -39 -20q-5 -5 -47.5 -47t-66.5 -62q-50 -46 -99 -35q-31 8 -53.5 31t-26.5 55q-2 25 29 70q99 135 217 195q21 11 86 16q6 1 14 -2t11 -8q2 -5 5 -9.5t5.5 -7.5t7.5 -6t7 -4t8.5 -3t8 -2.5t10 -2.5 t9.5 -2q33 -7 52 -32t32 -64q2 -6 10 -72zM244 770q-3 -6 -19 -35.5t-24 -46.5q0 -1 1 -5.5t1 -6.5q1 1 4 2t4 2q3 6 14.5 26.5t15.5 34.5t1 31q13 2 16.5 -0.5t-0.5 -15.5q-62 -136 -111 -260q-11 -27 -75 -201q-5 -14 -9 -35q4 5 11.5 15.5t11.5 15.5q1 1 2 4.5t2 5.5 q36 80 41 96q3 9 20.5 40.5t20.5 51.5q2 10 13.5 29.5t13.5 24.5q84 184 92 205q14 38 26 118q1 2 -0.5 4t-5 5.5t-4.5 5.5q-11 -11 -8 -13q1 -6 -1.5 -12.5t-3.5 -9t-7.5 -9.5t-7.5 -8q-13 -15 -35 -59z" />
<glyph unicode="3" horiz-adv-x="681" d="M375 1327q-56 2 -160 -39q-70 -26 -109 -37q-28 -7 -52 1t-36 28q-17 29 -14.5 49.5t25.5 46.5q54 61 172 86q93 18 182 -2q21 -4 57 -28q5 -3 23.5 -17.5t28.5 -19.5q40 -24 57 -60.5t26 -91.5q9 -77 -36 -137q-66 -90 -103 -131q-10 -13 -23.5 -25t-30.5 -26.5 t-26 -22.5q-17 -12 2 -22q54 -22 72 -31q11 -8 31.5 -26t27.5 -23q5 -4 23.5 -19t28.5 -22q61 -43 80 -154q12 -92 -39 -219q-33 -81 -119 -174q-3 -4 -21 -24.5t-25.5 -28t-23.5 -21.5t-31 -21.5t-32 -11.5q-7 -2 -15 -10q-65 -48 -135 -2q-95 62 -110 174v10q0 3 6 27 q3 -3 10 -8t10 -8q9 -9 21 -29q37 -51 94 -25q119 57 184 166q20 35 56 105q24 48 36 139q3 31 -5.5 46t-37.5 30q-68 35 -155 51q-29 6 -68 -6q-48 -14 -69.5 -1.5t-47.5 58.5q-2 3 -1.5 10.5t-0.5 12.5v18q-18 31 -13 47.5t36 34.5q26 17 53 41q114 98 168 150 q68 71 88 159q5 19 0.5 25.5t-24.5 7.5h-35zM397 274q-1 5 -1.5 10.5t-1 8.5t-1.5 6l-4 12t-4 15q-16 -12 -23 -19q-17 -19 -50.5 -55t-51.5 -55q-1 -2 -3 -6.5t-3 -6.5q2 0 6 1t6 1q4 0 12 1t11 1q-2 -8 -10 -24q-2 -3 -8 -7t-7 -5q-10 -10 -16 -19q4 1 12 2t12 2 q3 1 5.5 2.5t5.5 3t4 2.5q9 5 17.5 10.5t16.5 13.5t13 13.5t12.5 16.5t10.5 15.5t11.5 17.5t10.5 16q4 6 10.5 15.5t7.5 10.5zM367 1081q-6 12 -9 15q-4 0 -12 -4l-41 -41q-53 -49 -102 -99q-2 -1 -8 -20q2 1 9.5 1.5t10.5 2.5q92 78 111 94q9 8 22.5 27t18.5 24zM285 961 q-11 4 -13 2q-20 -15 -24 -19q-4 -6 -8 -18q20 -5 22 -2q5 4 8.5 9.5t8 14.5zM205 145q3 1 8 3.5t8 3.5l-4 6q-15 -10 -16 -11q2 -2 4 -2zM324 1006h2h-2zM299 979v2l-2 -2h2z" />
<glyph unicode="4" horiz-adv-x="720" d="M328 80q0 17 -0.5 49t-0.5 58t1 49q0 29 -23 20q-10 -2 -58 -7t-73 -18q-9 -6 -28.5 1t-32.5 18q-85 69 -70 178q24 169 63 481q21 167 56 473q1 13 4 40.5t4 41.5q3 31 29 19q34 -18 59 -66q5 -16 8 -18q42 -38 31 -117q-5 -40 -13.5 -120t-13.5 -120q-3 -19 -12 -57.5 t-12 -58.5q-2 -9 -1.5 -26.5t-0.5 -27.5q-4 -36 -13.5 -107.5t-13.5 -107.5q-5 -41 -14.5 -123.5t-14.5 -123.5q-2 -11 3.5 -16.5t15.5 -4.5q78 4 117 10q4 0 9 7t7 14q2 14 4 44t4 44q19 108 25 133q2 5 6.5 11t10.5 12.5t9 9.5l25 -25q15 -18 22.5 -42t12 -53.5 t10.5 -45.5q5 -11 10 -43q1 -23 5.5 -26t27.5 3q15 3 43 10.5t43 10.5q20 5 26 1t9 -26q0 -2 0.5 -9t1.5 -7.5t5.5 -4.5t12.5 1q10 2 43 -17q1 -1 1 -4.5t-1.5 -8t-3.5 -5.5q-58 -35 -63 -37q-43 -16 -113 -39q-12 -6 -24 -6q-20 1 -27.5 -8.5t-11.5 -30.5q-3 -24 -13 -47 q-9 -18 -16.5 -40.5t-11 -38.5t-9 -44.5t-8.5 -40.5q-9 -37 -16 -49q-6 -16 -29 -25q-4 0 -12.5 7.5t-11.5 13.5q-4 9 -9 49q0 8 5 33h6zM606 410q-3 3 -6.5 7t-5 5.5t-2.5 1.5q-68 -12 -96 -16q-1 -1 -3.5 -5.5t-3.5 -5.5q2 0 5 -1t4 -1q42 17 86 6q2 -1 5 0.5t8 4.5t9 4z " />
<glyph unicode="5" horiz-adv-x="784" d="M403 850q-106 -31 -172 -45q-43 -11 -84 -43q-66 -53 -114 26q-8 12 -20 38.5t-15 31.5q-22 36 -4 94q7 21 19.5 61t19.5 60q8 25 25.5 74.5t25.5 73.5q7 27 14 67q6 40 47 43q27 3 27 25q3 39 45 49q181 53 363 102q26 9 34 -8q22 -40 9 -55q-27 -39 -56 -49 q-19 -7 -37.5 -20t-39 -30t-33.5 -26q-4 -3 -20 -14.5t-23 -15.5t-20 -10.5t-25 -10.5q-9 -2 -18.5 -7t-20.5 -13t-17 -11q-1 -1 -7 -6t-9.5 -7t-7.5 -1q-12 1 -18.5 -3.5t-8 -8t-2.5 -15t-2 -14.5q-18 -73 -49 -168q-9 -29 -6 -32.5t33 -0.5q85 12 131 14q33 1 68.5 -14 t51 -27t54.5 -43q87 -70 90 -73q24 -22 45 -56q20 -41 33 -77q15 -38 14.5 -82.5t-8 -75t-23.5 -80.5q-41 -120 -121 -195q-62 -57 -151 -125q-98 -72 -174 -94q-80 -22 -115 25q-40 59 -31 125v59v10q3 9 17 37q1 -4 7 -16t7 -19q5 -62 6 -65q2 -6 11.5 -13t13.5 -6 q31 9 57 29q112 83 156 121q146 117 184 283q8 29 12 88q6 60 -40 99.5t-128 39.5zM580 1477v2l2 -2q-2 0 -7.5 -0.5t-8 -1t-6 -2.5t-5 -5.5t-0.5 -9.5h29q2 0 14 6q-3 2 -9 6.5t-9 6.5zM510 375q-1 0 -3 1t-3 1q-2 0 -10 2t-12 2t-10.5 -2t-12.5 -8q-48 -49 -74.5 -75 t-70.5 -63t-85 -63q-13 -8 -39 -29q-6 -4 -10 -16q15 0 21 2l12 6q48 34 121 82q4 3 20 8q-1 -1 -4.5 -9t-7.5 -11q-11 -11 -23 -17q-15 -12 -47 -35t-47 -34q-4 -2 -8 -15q2 1 7.5 1t8.5 1q169 76 259 226q3 4 18 45zM164 174l-2 2v-4z" />
<glyph unicode="6" horiz-adv-x="634" d="M31 539q4 40 10.5 134.5t13.5 145.5q27 201 109 348q76 137 147 217q42 42 72 62q29 22 57 8q4 -4 17 -4q72 6 100 -68q10 -31 6 -43.5t-24 -35.5q-18 -22 -58.5 -54.5t-54.5 -46.5q-10 -8 -23 -31.5t-14 -25.5q-65 -109 -86 -148q-65 -126 -82 -225q-5 -29 -16.5 -85.5 t-16.5 -84.5q-2 -7 2 -20q10 7 15 14q50 68 145 74q41 4 64 -17q9 -7 42 -29t46 -38q70 -80 69.5 -170t-69.5 -164q-9 -9 -26.5 -24t-30.5 -28t-19 -28q-9 -23 -28 -42t-32.5 -27.5t-39.5 -22.5q-18 -10 -44 -10.5t-44 8.5q-116 51 -144 155q-48 153 -63 306zM428 508 q-2 8 -7 25.5t-7 25.5q-11 25 -19.5 27.5t-27.5 -15.5q-42 -40 -82 -92q-14 -18 -37.5 -58.5t-38.5 -58.5q-33 -36 -19 -79q5 -20 21 -52q33 11 53 21q8 2 15 10q15 16 45.5 48t44.5 48q56 62 59 150zM489 440q-2 6 -4 18.5t-4 18.5q0 4 -8 12q0 -8 -2 -12q-6 -73 -6 -74 q-1 -5 -3 -11t-5 -13.5t-4 -11.5q0 -2 1 -6.5t1 -6.5l5 3q4 3 5 5q4 14 12.5 40t11.5 38zM500 496v18l-6 6q0 -2 -1 -4.5t-1 -3.5q0 -3 8 -16zM410 289q0 2 2 4q-7 4 -9 2v-4q0 -2 7 -2zM426 334h2l-2 2v-2z" />
<glyph unicode="7" horiz-adv-x="696" d="M170 193q0 117 49 256q87 219 154 421q18 52 46 152.5t34 120.5q5 20 16 59t16 58q4 14 1 20.5t-19 1.5q-19 -8 -59.5 -19.5t-59.5 -19.5q-62 -25 -149 -18q-57 3 -68 -8t-12 -72q0 -32 -15 -62q-6 -15 -8.5 -29.5t-3 -39t-0.5 -29.5q-4 -25 -14 -33q-3 -4 -6 -5.5 t-7 -0.5t-7 2t-8 4t-7 4q-26 17 -29 54q-12 82 9 252q6 50 6 94q2 15 18 26t29 4q31 -16 67.5 -20.5t63 -1.5t67.5 12q37 8 78.5 19t93 26.5t78.5 22.5q12 4 43 4q4 0 11.5 -5.5t7.5 -8.5q-3 -13 1 -19.5t15 -11t14 -6.5q46 -36 43 -101q-7 -116 -38 -198 q-11 -30 -20.5 -62.5t-21.5 -81t-16 -63.5q-7 -24 -21 -65.5t-16 -47.5q-15 -45 -40.5 -128.5t-34.5 -112.5q-11 -35 -33.5 -105.5t-34.5 -105.5q-10 -33 -20 -70t-21 -83t-18 -71q-5 -16 -40 -41.5t-48 -21.5q-22 9 -35 20.5t-17 34.5q-12 66 -14 99zM336 514v4 q-2 -2 -2 -4h2zM328 565l14 35h-6q-3 -23 -8 -35q-27 -30 -19 -65q-11 -9 -17 -22t-10 -31t-8 -27q3 -2 5 -4l5 3q4 3 5 5q11 45 20 76q2 10 9 31.5t10 33.5zM348 651q1 -1 2 -3t2 -3l6 6q0 1 -1.5 4.5t-2.5 6.5q-2 -8 -6 -11z" />
<glyph unicode="8" horiz-adv-x="546" d="M18 252q-2 126 78 305q4 10 20 44.5t23 53.5q2 6 0 20t0 19q3 7 15 16t14 15q29 55 31 70q1 6 -1 14.5t-4.5 13.5t-7.5 15.5t-6 13.5q-48 74 -82 121q-14 19 -23.5 44t-12.5 37t-8.5 49.5t-6.5 41.5q-2 12 -3 26t-1.5 30.5t-1.5 25.5q-10 151 147 256q56 37 123 10 q9 -2 29 -14q33 -33 49 -45q37 -24 43 -64q0 -34 10 -51q9 -19 14 -41.5t6.5 -37.5t2.5 -42.5t2 -38.5q12 -167 -55 -328q-12 -35 -56 -133q-11 -22 11 -39q47 -35 67 -102t-2 -113q-11 -21 -29.5 -63t-35 -74t-33.5 -57q-23 -31 -50.5 -62t-67.5 -71.5t-56 -57.5 q-1 -3 -11 -2.5t-16 4.5q-33 29 -61 62q-19 21 -35 60t-19 69zM330 494l2 -2l-2 2l2 2zM258 473v-2v2q14 4 21 15t11.5 27t8.5 22q0 4 -4 8q-8 0 -8 -4q-5 -12 -14.5 -34.5t-14.5 -33.5zM352 1028l2 -2v2q-2 -6 -37 -139q-1 -3 0.5 -6.5t3.5 -8t3 -6.5q11 11 10 13 q12 73 18 147zM72 332l-2 -2v2l7.5 7.5t6.5 8.5q26 75 29 82q17 41 48.5 116t41.5 99q2 4 2 8.5t-1 10t-1 8.5q-13 -13 -17 -19q-53 -116 -71 -168q-8 -22 -15 -47t-15.5 -58t-12.5 -48zM326 1284q-2 10 -6 28t-5 27q-12 35 -39 11q-6 -6 -17 -16.5t-17.5 -17t-15.5 -17 t-15 -21.5q-65 -105 -47 -209q13 -90 61 -158q18 -21 25 2q3 9 37 107q11 30 18 67.5t10 62t6 71t5 63.5zM354 473q-6 6 -8 6q-2 -1 -5 -4t-5 -4q-44 -71 -84 -141q-4 -5 -8 -23q2 1 7.5 3t9 4t5.5 5q13 21 27 44.5t31 52t26 43.5q4 8 4 14zM225 745q0 -5 -1 -10t-1 -6 q0 -4 6 -4q4 4 4 8t-8 12zM184 510h4q0 1 -1 2t-1 2l-2 -2v-2z" />
<glyph unicode="9" horiz-adv-x="675" d="M614 1350q6 -164 -41 -349q-6 -23 -21.5 -93t-25.5 -109q-6 -35 -28 -133q-4 -18 -11 -51.5t-8 -39.5q-6 -36 -20.5 -113.5t-20.5 -117.5q-6 -38 -17.5 -113.5t-17.5 -113.5q-4 -37 -16 -115q-4 -19 -13.5 -22t-29.5 6q-10 3 -19 7t-17 11.5t-13 12t-12.5 16t-10 15.5 t-11 18t-9.5 16q-26 44 -6 133q13 62 94 463q48 203 66 293q4 19 12 57.5t12 58.5v25q-1 2 -4.5 3.5t-6.5 1.5t-3 -1q-16 -12 -21 -24q-68 -110 -155 -156q-7 -3 -17.5 -10.5t-16.5 -11t-18 -6.5t-22 3q-2 1 -15.5 6.5t-19.5 10.5q-125 84 -119 229q0 145 125 291 q12 15 26.5 28t39 32t30.5 24q11 8 33 4q60 -11 101 -25q29 -11 69 -36q27 -24 27 10q1 15 3 22.5t9 15t21 9.5q41 8 49 -35q0 -5 5 -11.5t11 -6.5q50 -6 53 -58v-71zM340 1124l-8 -4l2 2h6v2zM319 250l-6 -6q-2 -4 -2 -11q7 7 8 9v10q1 1 3 3.5t2.5 3t-0.5 3.5 q49 211 53 232q1 1 -1 6q-1 4 -1 6q-8 -8 -10 -12q-7 -30 -24 -104.5t-26 -115.5q-1 -4 1.5 -12.5t2.5 -11.5zM137 1096q0 -34 27 -19q59 28 72 43q27 33 78.5 100.5t78.5 100.5q26 35 0 72q-25 35 -57 8q-10 -11 -51.5 -55t-63.5 -70q-62 -74 -84 -180zM360 1155 q16 10 19 14q6 9 80 121q17 20 -13 35q-19 8 -30 -14q-8 -17 -24.5 -46t-22.5 -42q-12 -29 -17 -45q-1 -3 3 -11.5t5 -11.5zM469 973q4 8 4 16q3 19 9.5 56t9.5 55q1 2 -1 7.5t-2 6.5q-9 -5 -12 -10q-12 -82 -16 -121q7 -7 8 -10zM432 872q2 -4 4.5 -10t3.5 -8q11 17 11 18 q2 12 2 41h-7q-2 -8 -7.5 -23.5t-6.5 -17.5zM412 664q-3 12 -6 18q-1 -4 -4.5 -11.5t-4.5 -11.5q0 -4 4 -8q9 9 11 13zM465 950l-6 6q-1 -2 -4 -5t-4 -5l6 -4q2 1 4 4t4 4zM393 608l6 6q0 1 -1 3.5t-1 3.5q-6 -6 -6 -7q-2 -2 2 -6z" />
<glyph unicode=":" horiz-adv-x="401" d="M174 451q-28 0 -43.5 11t-13.5 30t-9 57.5t-8 58.5q1 8 20.5 19t22.5 20q4 15 16 18t25 -6q7 -5 24.5 -11.5t24.5 -14.5q6 -6 19.5 -17.5t22 -22t12.5 -22.5q11 -43 -21 -65q-3 -3 -10.5 -10t-9.5 -11q-9 -16 -37.5 -22t-34.5 -12zM176 911q-26 0 -47.5 26.5t-19.5 47.5 q2 20 10.5 37.5t11.5 36.5q11 34 29 46.5t36.5 5.5t36.5 -28q6 -7 19.5 -18t22 -21t12.5 -22q11 -43 -21 -66q-3 -4 -10.5 -10t-9.5 -10q-9 -16 -36.5 -17.5t-33.5 -7.5z" />
<glyph unicode=";" horiz-adv-x="313" d="M100 485q-23 0 -42 23.5t-17 42.5q2 17 9.5 32.5t10.5 32.5q9 29 24.5 40.5t33 5.5t33.5 -25q5 -6 16.5 -15.5t19 -18.5t11.5 -19q8 -41 -19 -60q-2 -2 -6 -5t-7 -6t-5 -7q-8 -14 -32 -14.5t-30 -6.5zM96 59q-5 -2 -12 -12q-67 -101 -70 -106q-16 -16 -43 -33q-2 0 -7 -1 t-7 -1q0 1 -1 3t-1 4t2 3q2 6 10 17t10 14q6 12 24 42.5t26 47.5q44 106 51 131q21 69 24 121q2 21 -1 60.5t-3 51.5q0 16 4 17q3 2 12 2t13 -2q17 -6 45 -25q45 -27 49 -49q23 -67 4 -127q-6 -21 -16.5 -42.5t-29 -54t-23.5 -42.5q-18 -25 -41 -45q-22 -15 -37 -37 q-2 -1 -6 -4t-6 -4q5 13 15 36t15 35v2l-4 2q0 -1 2 -2t2 -2zM61 57q0 -2 -4 -6h2q0 1 1 3t1 3q9 9 15 13h-6q0 -4 -9 -13z" />
<glyph unicode="&#x3c;" horiz-adv-x="577" d="M440 1204q1 -3 3.5 -9.5t2.5 -9t-2 -7.5q-15 -117 -120 -197q-9 -8 -46 -41.5t-53 -50.5q-31 -19 -4 -43q14 -19 32.5 -39.5t41.5 -44.5t35 -37q9 -11 36 -40.5t44.5 -51t33.5 -43.5q12 -14 30 -27.5t22 -17.5q19 -4 25 -25t1 -47q-25 -91 -102 -115q-10 -6 -31 -6 q-15 -5 -24 -1t-15 20q-18 36 -86 131q-95 125 -96 127q-18 19 -39 40t-46 45.5t-38 37.5q-18 22 -21.5 36.5t5.5 45.5q19 46 32.5 72t39.5 54.5t59 43.5q63 26 147 129q3 4 11.5 15.5t13.5 17t12.5 12.5t13.5 10q11 6 24 8.5t30 4t28 3.5z" />
<glyph unicode="=" horiz-adv-x="671" d="M127 674v12q4 26 27 33h6q4 -6 10 -7.5t14.5 0t10.5 1.5q154 15 180 16q47 2 141 -2q37 0 57 2q13 0 13 -10q4 -9 0 -17q-26 -26 -58 -34q-24 -5 -88 -27q-29 -10 -98 -23q-20 -4 -62.5 -11t-64.5 -11q-12 -2 -33 -2q-27 -3 -43 29q-17 29 -12 51zM453 692h-68 q-1 0 -3 -1t-3 -1q1 0 3 -1t3 -1q53 0 66 -4q24 -4 73 0q4 4 8 6q-2 0 -4.5 1t-3.5 1h-71zM166 760q-7 -2 -9 -1.5t-8 4.5t-8 5q-30 12 -37 53q-2 12 7 43q4 13 16 13q30 7 84.5 17t67.5 13q79 12 151 4q5 0 11 -1t13 -2.5t11 -2.5q21 -7 24 -26q2 -8 -3.5 -17.5 t-14.5 -13.5l-31.5 -13.5t-38.5 -13.5q-18 -4 -54 -17.5t-54 -17.5q-19 -4 -56 -13t-55 -13h-16z" />
<glyph unicode="&#x3e;" horiz-adv-x="577" d="M106 1204q11 -2 28 -3.5t30 -4t24 -8.5q6 -3 14 -10t12.5 -12t14 -17.5t11.5 -15.5q84 -103 147 -129q33 -15 59 -43.5t39.5 -54.5t32.5 -72q9 -31 5.5 -45.5t-21.5 -36.5q-13 -13 -38 -37.5t-46 -45.5t-39 -40q-1 -2 -96 -127q-68 -95 -86 -131q-6 -16 -15 -20t-24 1 q-21 0 -31 6q-77 24 -102 115q-5 26 1 47t25 25q4 4 21.5 17t29.5 28q16 22 34.5 44t44 50t36.5 41q12 13 35 37t41.5 44.5t32.5 39.5q27 24 -4 43q-16 17 -53 50.5t-46 41.5q-107 81 -121 197q-2 5 -2 7.5t2.5 9t3.5 9.5z" />
<glyph unicode="?" horiz-adv-x="862" d="M778 1421q8 -117 -4 -180q-12 -68 -67 -197q-16 -35 -35 -73t-44.5 -85t-37.5 -71q-48 -99 -62 -121q-14 -27 -45 -80t-45 -79q-4 -8 -5.5 -26t-4.5 -26q-1 -7 -6.5 -33t-8.5 -38t-11 -30.5t-19 -31.5q-18 -18 -20.5 -41.5t2.5 -44.5q0 -3 2 -9.5t2.5 -11t0 -10 t-3.5 -9.5t-10 -7q-8 -2 -15.5 1t-10.5 5.5t-10.5 12t-8.5 10.5q-3 4 -13.5 14.5t-16.5 18.5q-2 3 -8 9.5t-10 11t-8 10.5t-5 12q-15 47 -31 135h8q-2 12 -2 23.5t1 20.5t5.5 20.5t7.5 18.5t10.5 19t11.5 17.5t13 19t13 18.5q16 24 46 72l40 64q43 70 65 112q34 61 45 94 q7 21 33 71t33 81q2 21 19 58.5t20 47.5q4 12 8 62q0 45 18 57q1 1 2.5 4.5t3 5.5t1.5 3q-2 26 -0.5 46t-1.5 44.5t-13 44.5q-12 27 -38.5 34t-61.5 -8q-53 -20 -84 -43q-123 -103 -162 -182q-30 -47 -78 -47q-7 -1 -20.5 -5.5t-20.5 -5t-22 4.5q-33 14 -25 39 q17 107 96 192q56 70 142 127q90 63 190 37q6 -2 44 -12t59 -17q58 -12 86 -63q3 -4 20 -24.5t23 -34.5q19 -26 24 -52zM602 944q19 48 23 72q4 20 11 59.5t11 59.5q-5 -3 -13.5 -8.5t-10.5 -6.5q-6 -7 -16 -21t-13 -18q-24 -28 -35 -49q-15 -30 -27 -57 q-134 -248 -182 -334q-56 -94 -69 -168q-1 -8 -6 -21t-7 -20q0 -2 4 -14q2 3 11 12v10q4 8 19 36t22 42l10 2q2 -9 5 -13t6.5 -3t6 3.5t5.5 6.5l3 4q22 24 58 74q3 4 29 50t53 63q2 0 2 8q-7 5 -8 9t1.5 7t6.5 7.5t6 8.5q3 9 19 20.5t24.5 25.5t-0.5 34q-1 3 4 13t6 14 q4 8 12.5 26.5t12.5 26.5q6 9 16 39zM645 1141q2 8 2 26h-6v-28q0 -1 3 -2q2 -1 3 -2q0 1 -1 3t-1 3zM358 -23q1 -1 8 -6.5t8.5 -7t6.5 -6t6 -7.5t2.5 -8t1 -9.5t-3.5 -10.5q4 -35 -12.5 -48.5t-50.5 -2.5q-16 4 -19 4q-80 9 -96 86q-1 17 0 23.5t6.5 24.5t7.5 26q0 8 13 8 q8 -2 34 -5t41 -11t23 -27q3 -7 24 -23z" />
<glyph unicode="@" horiz-adv-x="1126" d="M774 307q-2 -4 -11 -24t-13 -29q-2 -3 -4.5 -10.5t-4.5 -10.5q9 3 21 9q3 2 10.5 9.5t11.5 10.5q8 4 13 4q0 -1 1.5 -5.5t0.5 -6.5q-19 -47 -25 -57q-40 -70 -65 -95q-27 -27 -86 -65q-74 -42 -181 -29q-74 9 -147 21q-29 2 -64 37q-4 5 -10 10t-14 11l-12 9l-11 12 q-10 12 -14 19q-62 97 -92 238q-2 6 -12 41q-18 79 -15 108q2 16 2 48t2 48q8 100 21 154q11 83 45 213q22 84 43 115q9 9 18 51q29 128 129 264q17 17 37 49q1 2 2 5t2 5q-8 0 -10 -2q-26 -13 -37 -22q-7 -5 -21.5 -17.5t-21.5 -17.5v-2q5 7 22 30t23.5 32t22.5 28t27 29.5 t27.5 23t33.5 21.5q12 6 28 6q54 0 74 12q14 8 30.5 8.5t29 -2t34.5 -8.5q168 -53 189 -61q57 -25 94 -82q12 -22 55 -56q37 -34 47 -90q20 -116 25 -206q2 -27 -12 -93q-4 -22 -17.5 -70t-17.5 -73q-4 -27 -14 -156q-7 -53 -43 -116q-18 -38 -43 -82q-20 -28 -33 -39 q-26 -14 -35 -45q-5 -15 -19.5 -37.5t-17.5 -28.5q-10 -10 -18 -20q0 -2 -1 -9t-1 -12q3 -1 11 -2t11 -2v2zM954 1057q-1 7 -6 47q0 2 -2 5t-2 5q-8 -4 -6 -8q-23 -69 -49 -184q-1 -3 2.5 -12.5t3.5 -14.5q1 1 6 3.5t7 4.5t3 6q3 9 13 54q15 41 32 94h-2zM526 668 q-6 -18 -18 -33q-4 -6 -22.5 -32t-26.5 -42q-31 -61 -84 -51q-62 14 -101 84q-28 52 -20 133q10 102 29 178q14 53 53 113q5 7 10.5 13.5t15 12.5t14 9t17.5 10t15 8q4 2 11.5 4t10.5 4q13 1 27 -3t22.5 -9t24 -15t22.5 -14q21 -13 11 -37q-1 -8 -3.5 -25.5t-3.5 -25.5 q-23 -3 -32 21q-5 14 -14 21t-25 14q-25 11 -32 7t-1 -30q3 -33 -10 -55q-4 -9 -19.5 -41t-21.5 -51q-28 -86 -25 -181q0 -15 12 -51q27 27 33 31q7 5 23 29.5t35 25.5q2 4 2 6q-4 6 -5 11t0.5 8.5t4.5 8.5t4 7q49 76 71 174q1 6 0 22t0 23q2 2 7 4t6 4q15 70 30 144 q3 18 15 29.5t24 7.5q18 -3 39 -6l6 -7q-4 -10 -2 -12t11 -6q3 0 6.5 -4t3.5 -10q2 -2 3.5 -9.5t4.5 -11.5q21 -26 21 -80q0 -11 1.5 -37.5t0.5 -40.5q-5 -136 8 -309q4 -26 8 -41q2 2 7.5 7t10 9.5t7.5 8.5l16 16q59 86 72 152q10 68 49 246q26 109 12 186q-6 27 -6 49 q-2 56 -15 97t-49 75q-6 3 -10 14q-33 50 -108 72q-15 3 -29 6q-46 11 -72 0q-9 -4 -21 -18.5t-18 -18.5q-4 -3 -19 -13.5t-21 -14.5t-18.5 -13.5t-20 -16t-17 -16t-16.5 -18.5q-79 -92 -111 -182q-3 -9 -7 -28.5t-7 -28.5q-10 -28 -31.5 -80.5t-28.5 -69.5 q-34 -101 -36 -149q0 -72 -13 -103q-18 -56 -14 -143q0 -9 2.5 -63.5t-0.5 -65.5q-5 -47 16 -111q27 -65 33 -84q15 -48 41 -112q12 -28 39 -31q36 -8 55 -6q121 13 197 71q18 15 35.5 31t37 37t31 34.5t34.5 40t32 36.5q5 5 10 13t10.5 18t8.5 16q8 15 -9 18q-49 5 -63 12 q-7 4 -24 10.5t-26 11.5t-20 16.5t-16 27.5q-9 13 -12 10q-22 -4 -37 27q-16 41 -19 76q0 2 -6 73q0 6 -6 9q-6 0 -6 -5q-5 -4 -21 -32h-4l-4 -2q1 0 4 1t4 1zM942 1280q-3 3 -7 9t-7 9q-8 -16 -8 -18t5 -8.5t5 -7.5q3 2 6 7.5t6 8.5zM940 1208q0 5 1 12t1 11q-1 1 -3 4 t-3 4q-6 -12 -6 -14zM92 473l4 -4q0 2 2 2l-4 2h-2z" />
<glyph unicode="A" d="M-12 70q8 113 14 166q2 29 6 87.5t6 88.5q1 13 6.5 73.5t6.5 92.5q2 25 3 75.5t3 75.5q8 176 16 262q15 148 43 348q4 22 10.5 45.5t16.5 54.5t14 44q2 8 10 20q13 18 23 4q3 -1 9 -1t9 1q21 18 43 13q3 -1 16 5t19 -1q3 -2 13 -3t14 -3q82 -43 141 -142q9 -21 21 -39 q7 -11 12 -21.5t9 -25t5.5 -21.5t5 -26t4.5 -22q15 -95 27 -189q11 -104 16 -168q2 -35 3.5 -103.5t3.5 -103.5q0 -15 1 -31t2.5 -36t2.5 -31q6 -87 6 -88l-6 -141q0 -84 -2 -125l-6 -105q0 -5 -5 -20q-5 -10 -18 -4q-5 2 -17.5 4t-17.5 4q-18 3 -33 12q-38 19 -61 37 q-16 12 -12 31q0 19 3.5 54t4.5 46q12 134 16 197q1 15 1 31t-0.5 35.5t-0.5 29.5q0 9 -4 12t-10 -2q-15 -11 -31.5 -17.5t-43.5 -12t-34 -7.5q-32 -8 -77 -4q-9 1 -13 -1t-5.5 -5t-2.5 -10q-4 -108 -8 -162q-12 -112 -16 -174q0 -16 1 -33.5t2.5 -39.5t2.5 -35 q0 -44 -37 -56q-31 -8 -41 -22q-9 -13 -29 -13.5t-33 9.5q-31 18 -28 63q0 15 2 23h-2zM432 754l4 8q-1 -2 -2 -5t-2 -5q0 -3 -1 -10.5t-1 -10.5h4q0 3 -1 10t-1 11v2zM154 1448q0 1 1 3.5t1 4.5v-8q-14 -28 -17 -37q-1 -5 -4 -21t-6 -24q-27 -91 -43 -276q-1 -21 -4 -59.5 t-5 -70t-3 -59.5q-4 -43 -4 -131v-43h2q0 7 -1 21.5t-1 21.5q10 20 10 25q1 10 2 31.5t2 31.5q4 73 16 207q1 10 3 29.5t3 29.5q2 19 5.5 55t5.5 52q1 10 3 28t4 32.5t5 27.5q2 11 7.5 31.5t9 33.5t6 31t2.5 33zM178 666v-41q-2 -12 4 -17t19 -2q14 3 41.5 8.5t40.5 8.5 q44 11 94 30q4 1 8 8.5t4 12.5t-6 194q0 36 -6 52q-4 15 -5 45.5t-5 46.5q-6 22 -7.5 64t-3.5 57q-8 51 -32 149q-16 66 -54 115q-11 18 -20 -2q-17 -40 -25 -119q-24 -202 -32 -307q-4 -40 -9 -168q-1 -15 -2 -43t-2 -50.5t-2 -41.5zM459 768v-17t-4 -24.5t-15 -13.5 q-6 -2 -6 -27q13 -4 19 -4q13 3 17.5 -2.5t2.5 -15.5q-1 -2 -1.5 -8.5t-1.5 -9.5t-6 -5.5t-15 2.5q0 4 -9 -8l-2 -2q-4 -28 -4 -43q0 -26 9 -30q7 -2 18 1l10 -10q-2 -1 -4 -2.5t-3.5 -2.5t-2.5 -1q-21 5 -21 -17q0 -4 -1 -10.5t-1 -9.5q0 -10 -2.5 -31.5t-1.5 -37.5t8 -31 q3 -3 -2 -13q0 -1 -4 -6.5t-4 -7.5v-121q0 -6 8 -14q12 -19 13 -21q3 -5 7 -15.5t7 -14.5q2 -3 16 -17q9 14 9 19q1 16 2 46.5t2 45.5q13 126 8 225q-1 21 0 62t0 61q-6 105 -15 215q-4 52 -8 80q0 2 -2 3.5t-5 3t-5 3.5q-10 -10 -10 -12v-162zM84 702q-10 5 -12 5 q-4 0 -4 -9q0 -2 4 -10q2 4 12 14zM496 111l2 2h-2v-2z" />
<glyph unicode="B" horiz-adv-x="731" d="M211 408q9 -61 -4 -125q-1 -9 2.5 -27t3.5 -25q0 -13 -1 -37t-1 -36q0 -15 1 -46.5t1 -48.5q-5 -38 -6 -40q-22 -63 -88 -31q-20 8 -39 8q-20 2 -31 14.5t-10 34.5q4 61 8 187q1 57 2 172.5t2 173.5q0 24 -14 28q-1 0 -14 13q-19 18 -22.5 24.5t1.5 11.5t29 15 q19 8 22 28q0 48 4 146q0 16 1 48t1 48q4 94 2 139q0 31 -1 95t-1 96q0 13 4 33q0 5 -0.5 8t-3 5t-8.5 1q-23 -4 -28 14q-11 27 6 41q4 3 28 24.5t39 29.5q73 38 119 51q25 9 107 18q116 10 198 -33q81 -46 113 -123q4 -12 0 -40q-3 -19 -10.5 -56.5t-10.5 -56.5 q-1 -2 -4.5 -6.5t-5.5 -7.5q-8 -15 -10 -25q-15 -45 -17 -53q-5 -19 -12 -38t-18 -38.5t-18.5 -32t-22.5 -35.5t-21 -32q-15 -23 -32.5 -45t-47 -54.5t-36.5 -40.5q-11 -14 -32.5 -36t-29.5 -31q-6 -7 -2 -13t16 -6q19 0 56 1t55 1q14 -1 39.5 -0.5t46.5 -0.5t39 -5 q42 -10 67 -31.5t31 -64.5q11 -69 0 -111q-3 -14 -7 -46.5t-9 -49.5q-12 -44 -55 -149q-7 -17 -47 -105q-3 -6 -13.5 -17t-13.5 -14q-11 -16 -12 -20q-16 -43 -68 -59q-77 -20 -149 24q-7 2 -15 14q-2 4 -2 17q2 0 6.5 -1t7.5 -1q3 1 10 1t12 1t9 4q19 13 35 35 q86 134 117 217q20 55 33 98q0 1 2 11.5t4 15.5q10 28 6.5 78t-17.5 77q-12 21 -36 21q-66 -2 -197 -2q-22 -2 -27.5 -7t-5.5 -26q-1 -28 -3 -85t-3 -85q0 -12 -6 -24h2zM182 317q0 3 2 5l-2 2v-7q-2 -4 -6 -11t-6 -11l4 -4q1 5 4 11.5t4 8.5v6zM158 121l2 -2l-2 2l6 -12 q1 -2 4 -5.5t4 -5.5q1 2 4 6.5t4 6.5q2 6 2 18q0 15 1 44t1 44q0 12 -6 21h-14v-21q-1 -17 -3 -48t-3 -48zM223 911h4q0 -6 -1 -18.5t-1 -18.5q0 -3 2 -9t2 -9q16 11 17 12q40 50 78 99q66 88 102 182q40 105 27 166q-10 45 -29 76q-24 34 -72 28q-53 -5 -127 -41 q-24 -13 -8 -39q19 -38 19 -47q4 -39 0 -118q-2 -44 -6.5 -131.5t-6.5 -131.5zM96 358q1 -6 4 -14.5t4 -11.5q2 3 5.5 8t5.5 8q0 2 2 2q11 8 2 15q-6 6 -15 12q-1 -3 -4 -9.5t-4 -9.5zM109 518h2v-14q8 8 10 14v45q0 1 -1 4t-1 4q-8 -4 -10 -6v-47zM184 59q-9 13 -10 17 q-1 -2 -2.5 -4t-2.5 -3.5t-1 -2.5t6 -19q2 2 5 6t5 6zM121 463l-8 4q-5 -6 -13 -23q2 -4 4 -6q2 2 7.5 10t9.5 15zM180 248q1 2 2 5l1.5 4.5t0.5 2.5l-8 8q-1 -1 -2 -3l-1.5 -3t-0.5 -2zM98 252q5 8 6 8v12q-1 -1 -3 -2t-3 -2v-16z" />
<glyph unicode="C" horiz-adv-x="720" d="M6 303v141q0 14 1 39t1 37q-1 10 -4.5 39t-3.5 45q0 30 4 96q18 223 29 301q22 184 88 332q67 150 217 183q71 14 121 -3q5 -2 15.5 -2t14.5 -2q50 -19 58 -65q15 -80 6 -156q-8 -62 -8 -92q-3 -21 -19 -29q-44 -33 -94 -63q-4 -4 -16 -8q-4 12 -4 18v16q-12 30 -16 62 t-4.5 75.5t-2.5 63.5v15q-2 6 -12 22q-15 -10 -19 -16q-52 -69 -102 -226q-34 -106 -47 -237q-1 -8 -4 -22t-4 -19q-2 -16 -9.5 -66t-9.5 -77q-3 0 -2 -49l2 -50q-1 -29 -2 -88t-2 -88q0 -6 -6 -12q-2 -4 -8 -10.5t-8 -10.5q-2 0 -1 -9l1 -9l10 10l6 6q1 -1 3.5 -4.5 t2.5 -5.5q0 -14 1 -43t1 -45q0 -1 -1 -3t-1 -3q11 -57 27 -119l6 -18q14 -27 35 -9q44 39 57 56q147 162 205 266q98 172 135 264q11 27 21 41q2 4 8.5 8.5t7.5 5.5q10 -15 10 -18q-3 -17 -7.5 -51.5t-8 -55t-12 -48.5t-21.5 -50q-11 -18 -53 -96q-7 -11 0 -37q9 -58 18 -76 q5 -9 -4 -18q-9 -12 -26.5 -36.5t-26.5 -37.5q-29 -44 -39 -55q-39 -52 -76 -94q-7 -9 -35 -23q-12 -5 -35 -18.5t-42.5 -20.5t-40.5 -4q-28 2 -99 19q-10 2 -35 10q-78 20 -108 84q-29 74 -33 143zM164 344q-2 4 -2 10h-4q1 -2 3 -5t3 -5l-10 -10q1 0 2 -1t2 -1zM88 569h2 q0 33 -2 47q0 5 -6 17q-10 -10 -12 -15q-2 -4 2 -16q0 -6 1 -18.5t1 -18.5q-3 -47 -6 -96q0 -2 -1.5 -11.5t-3.5 -13.5q-1 -2 -5 -7t-5.5 -7.5t-2 -6.5t3.5 -7t12 -6v-9q0 -52 2 -79q0 -91 26 -168q2 -4 12 -15q0 3 2.5 8.5t2.5 8.5q-2 16 -7.5 49t-7.5 51q-1 6 0.5 17.5 t1.5 15.5q2 -4 3.5 -9.5t4 -12.5t3.5 -11q4 -17 12 -49.5t12 -48.5q1 -4 12 -15v17q-2 13 -8.5 44t-10 54t-3.5 45q0 74 -2 113q0 16 -6 17q-2 0 -6 -1q-13 -5 -17 1t-4 18v118zM41 641h2v-8q1 -2 2 -6t2 -6q2 2 6 10q2 2 2 8q2 10 2 31l-6 2q-2 -5 -5 -15.5t-5 -15.5z M100 788h-2v11l-6 12q-1 -2 -3 -5t-3 -5q-2 -2 -2 -8q1 -5 4 -14.5t4 -14.5q1 4 4 12t4 12zM88 649l4 13l-4 8l-6 -6q0 -6 6 -15zM104 485l5 4q0 1 -1.5 3.5t-1.5 3.5l-4 -2q0 -5 2 -9zM86 721q1 2 2 4.5t1.5 3.5t0.5 2q1 1 -4 6q-4 -4 -4 -8zM51 369v2h-2z" />
<glyph unicode="D" horiz-adv-x="624" d="M82 1487q125 12 219 -49q82 -54 107 -105q9 -20 26.5 -54t31 -62.5t23.5 -53.5q54 -135 62 -194q2 -15 11 -45.5t11 -46.5q7 -36 7 -95q0 -3 -3 -11t-4 -11l-3 -6t-3 -7t0 -6q5 -19 -2.5 -52t-7.5 -40q-1 -36 -33 -137q-6 -18 -19.5 -55t-19.5 -56q-2 -5 -5 -16t-5 -16 q-3 -7 -11.5 -18t-10.5 -15q-4 -4 -9 -14q-2 -2 -3.5 -5t-2.5 -5.5t-2 -2.5q-8 -1 -9 -4.5t3 -9.5q3 -7 -0.5 -9t-9.5 3h-12q0 -8 2 -10q19 -28 -7 -54q-15 -18 -30 -39q-17 -21 -48.5 -61.5t-48.5 -61.5q-6 -9 -12 -12q-2 -1 -16 -6q1 2 1.5 9t2.5 9q7 11 23 30.5t20 23.5 q1 2 18 41q1 1 -1.5 4.5t-4.5 3.5q-2 -1 -7 -2t-7 -2t-5 -3.5t-4 -6t-1 -9.5q1 -20 -41 -72t-62 -55q-58 -11 -98 9q-22 10 -6 26q19 19 -10 27q-27 7 -34 17t-5 40q6 84 14 266q2 46 5 129.5t6 152.5t7 130q2 45 8.5 139t8.5 142q1 49 3 147.5t3 147.5q0 23 -21 26 q-2 0 -61 12q-9 1 -14.5 2.5t-10.5 7.5t-4 15q1 13 11 22t24 9q12 1 38 2t38 2zM111 512q12 12 16 18q-2 3 -2 5q-2 -3 -6 -10.5t-6 -10.5v-2q-6 9 -6.5 18.5t2 17t6 18.5t4.5 18v14q-5 1 -7.5 3t-4 6t-1.5 5v7v6q1 8 2.5 23.5t2.5 23.5q0 2 -3 5t-4 5q-4 -4 -4 -10 q-8 -105 -10 -162q0 -5 3.5 -11.5t6.5 -6.5q16 0 11 20zM109 203q-1 -1 -3.5 -2t-3.5 -2l2 -2q0 1 5 6q4 41 8 63q0 11 -4 13q-14 9 -14 27t7 26t10 24.5t5 20.5q5 6 2.5 12t-12.5 6t-10 6t5 9q27 14 19 53q0 3 -2.5 7.5t-3.5 4.5q-25 5 -27 -12q0 -2 -1 -5t-1 -5 q-4 -138 -8 -209q-2 -20 3.5 -29t23.5 -12zM311 238v8q20 6 8 30q0 5 3 11q4 12 13 34t13 33q1 4 2 12t2 11q0 6 -4 10q0 -1 -3.5 -2.5t-4.5 -3.5q-3 -6 -19 -35.5t-24 -46.5q-2 -3 -19 -37t-28 -49q-44 -60 -49 -119v-16q8 8 10 8q34 3 29 37q-1 2 1.5 5t7.5 7t7 6 q-4 11 -2.5 15.5t8.5 12t8 11.5q5 33 41 58q-4 -8 -4 -11v-14q4 0 6 2q0 2 1 6t1 6q0 3 -4 11zM408 879q-4 108 -72 270q-8 18 -26 50t-25 46q-5 5 -9 17q-8 -12 -8 -19q-20 -167 -22 -196q-9 -142 -15 -304q-1 -19 -4 -55.5t-4 -54.5q-2 -55 -10 -150v-57q-2 -43 -2 -129 v-31q0 -2 1 -7.5t1 -8.5l12 12q1 1 2 3t2 3q100 168 144 340q41 146 35 271zM375 305q5 -13 10 -18l8 8q24 41 25 45q17 35 28 68q23 61 64 186q0 2 -1 7t-1 7q-1 -2 -4 -5t-4 -5q-1 -4 -11 -35q0 -4 -8 -8q0 1 -1 4.5t-1 5.5q-1 2 -2 7.5t-2 7.5q-12 -6 -14 -11 q-22 -51 -25 -59q-6 -21 -20 -96q-3 -11 -17 -49zM168 311q0 17 -2 23l-6 6q0 -1 -1 -3t-1 -3q-4 -46 -4 -72q0 -2 4 -6l6 6q4 32 4 49zM133 31q10 -6 12 -4l21 28l-10 6q-9 -9 -23 -30zM172 416q0 6 -1 14t-1 10q-8 -16 -8 -24q-1 -2 4 -17q1 2 2.5 6t2.5 6.5t1 4.5z M172 379q-2 2 -6 5t-6 5q-4 -4 -6 -4l12 -12q0 3 6 6zM152 174q2 -4 2 -10q2 4 2 12q3 3 -2 8q0 -6 -2 -10zM154 229q1 0 2 -1t2 -1v4v2zM360 414l2 2l-2 2q0 -1 -1 -2t-1 -2h2z" />
<glyph unicode="E" horiz-adv-x="585" d="M23 344q1 18 5 100t7 129q4 116 8 172q2 35 5 98.5t6 116.5t7 99q3 59 21 235q1 7 1.5 19.5t1.5 23t3 19.5q7 30 30 42.5t54 4.5q13 -4 21 0q7 8 14.5 13t18 8t17.5 4t21 2t19 2q62 11 149 14q11 1 72 -4q9 -1 14 -15t0 -22q-13 -17 -20 -19q-12 -4 -55 -20t-72 -23.5 t-60 -9.5q-20 0 -28 2q-20 5 -24 2t3 -22q15 -33 4 -92q-7 -52 -16 -149t-12 -128q-2 -15 3.5 -19.5t22.5 1.5q65 21 111 41q31 14 51 -13q12 -16 4 -32q-4 -5 -16.5 -24.5t-18.5 -27.5t-19.5 -19t-27.5 -15q-53 -17 -98 -17q-21 0 -21 -14v-156q-1 -17 -3 -46t-3 -53t0 -46 q0 -19 -3 -77t-1 -91q14 -112 51 -188q13 -26 45 -29q78 0 172 41q12 5 31 -1t25 -18q8 -10 -2 -34q-27 -50 -95 -64q-24 -6 -67 -10q-95 -12 -180 28q-132 60 -158 189q-3 14 -8.5 44t-9.5 48zM125 307q4 -8 6 -14q0 2 3 9.5t3 12.5q0 20 1 62.5t1 64.5q0 25 2 39 q0 5 -6 11q0 -5 -4 -9q-4 -12 -2 -18q-4 -102 -4 -158zM147 735q0 1 -4 13q-4 -8 -4 -15q-4 -43 -8 -137q-1 -3 0 -6t3 -6.5t3 -5.5q1 3 3 8t3 8q4 90 4 141zM150 829l2 5q0 1 -1 2t-1 2q-1 -1 -3 -2t-2 -2zM139 547l4 2q2 2 -2 6q0 -1 -1 -2t-1 -2v-4z" />
<glyph unicode="F" horiz-adv-x="569" d="M-4 303q2 57 8 171t8 171q2 36 4 107.5t4 107.5q3 135 15 266q5 57 17 162.5t16 143.5q4 24 8 36q3 21 20.5 32.5t38.5 6.5q3 0 13 -1.5t14 -2t11.5 -3t12 -5.5t9.5 -8t8 -12q3 -5 16 -5q17 5 35.5 8t41.5 4.5t35.5 2t42 1.5t36.5 1q45 2 110 -8q17 -3 33 -23 q8 -13 8 -35q-1 -6 -9.5 -11t-14.5 -5q-70 -13 -269 -39q-28 -3 -30 -31q-5 -44 -16.5 -125.5t-14.5 -101.5q-2 -23 -7 -70t-7 -71q-3 -36 5 -43.5t42 0.5q22 6 59.5 20.5t50.5 18.5q33 11 86 26q11 3 25.5 -3.5t15.5 -16.5q4 -21 -10 -35q-4 -3 -24.5 -20.5t-27 -23 t-24 -19t-28.5 -20t-27.5 -14.5t-32.5 -14q-17 -6 -94 -41q-15 -7 -19 -24q-1 -37 -1 -110.5t-1 -110.5q0 -74 -4 -109q0 -18 -1 -54t-1 -55q0 -10 2 -14q11 -28 16 -80.5t9 -70.5q6 -32 -19 -48l-30 -24q-13 -13 -13 -25q0 -23 -24 -30q-11 -4 -25 -2t-20 18 q-47 92 -78 158q-2 8 -2 28q0 49 2 74h-4zM92 438v-24q-6 -131 -6 -133q0 -8 1 -24t1 -24q0 -1 2.5 -3.5t3.5 -4.5q2 4 2 11q4 68 8 196q0 9 -1 27.5t-1 27.5q0 3 -4 11q-6 -6 -6 -9v-51zM96 631q0 -21 2 -31l6 -6q2 0 4.5 2.5t2.5 3.5q0 19 4 59q0 2 -2.5 5.5t-3.5 3.5 q-2 0 -5.5 -2.5t-3.5 -3.5q-4 -20 -4 -31zM117 723v8q0 2 -2 6.5t-2 7.5q-1 -2 -2 -7t-2 -7q-3 -9 -3 -16q1 -5 3.5 -15.5t3.5 -15.5q4 20 4 29v10zM98 539q3 -9 6 -15q5 10 5 11q0 2 -5 12q-1 -1 -3 -4t-3 -4zM119 909h2l-2 4q-2 0 -2 -2q2 0 2 -2z" />
<glyph unicode="G" horiz-adv-x="733" d="M565 211q-3 -6 -9 -18.5t-9 -18.5q-63 -79 -74 -90q-4 -4 -8.5 -6.5t-11 -6t-9.5 -5.5q-38 -27 -75 -41q-40 -18 -60 -11q-21 3 -162 35q-66 22 -94 111q-7 21 -11.5 42t-7 46.5t-3.5 41t-2 47.5t-2 44q-2 20 -3 69t-4 76t-4.5 55.5t-2.5 51.5t0 56.5t1.5 51t3.5 56.5 t4 51.5t4.5 56.5t4.5 53q12 166 63 330q48 125 121 172q60 39 117 54t121 -1q52 -12 65 -24q19 -14 21 -31q28 -79 18 -174q-2 -15 -4 -45.5t-4 -46.5q-6 -23 -14 -29q-35 -29 -95 -67l-18 -6q0 4 -1 9l-1 5q-1 3 -1 9t-1 9q-14 30 -19 64t-7 77t-5 66v6q-3 14 -14 29 q-17 -12 -23 -21q-71 -111 -100 -266q-13 -57 -35 -215q-16 -107 -20 -172q-1 -19 1 -60.5t1 -62.5q0 -20 -3 -56t-4 -46l-2 -5q-1 -4 0 -5q6 -11 6.5 -23.5t-0.5 -19t-8 -22.5t-8 -19q-2 -10 -2 -62q0 -3 4.5 -6.5t7.5 -3.5q12 0 18.5 -5.5t0.5 -12.5q-5 -6 -5.5 -12 t1 -9.5t5.5 -10t5 -9.5q3 -10 8 -34.5t8 -35.5q3 -25 11 -41q17 -45 49 -8q32 25 53 51q15 18 50.5 62t54.5 68.5t45 62t45 71.5q55 104 73 148q21 37 11.5 48.5t-64.5 10.5q-13 -1 -51 11.5t-53 11.5q-17 0 -23 6q-9 8 -7 19t11 22q18 22 69 36.5t93 16.5q61 3 94.5 -18.5 t34.5 -81.5q0 -5 4 -42.5t-2 -41.5q-20 -58 -51 -199q-2 -13 -22 -36.5t-23 -31.5q-2 -12 -8.5 -24.5t-18 -29t-14.5 -21.5q-16 -20 -25 -29h2h-2zM104 543q-2 18 -2 55l-4 8q-6 0 -10 -4q-6 -12 -6 -22q0 -42 2 -62q1 -11 -3 -27.5t-5 -26t6 -28.5q3 -8 -4 -18 q-20 -29 -2 -43q6 -6 2 -10q-6 -6 -7.5 -13.5t-0.5 -12t4 -13.5t4 -13q5 -18 20 -118q16 -61 31 -95q0 -2 1.5 -3.5t3.5 -2.5t3 -2q8 4 8 10q0 9 -4 25q-2 13 -8 43.5t-8 48.5v10q1 -1 3.5 -4.5t2.5 -5.5q4 -14 13.5 -43.5t13.5 -46.5q2 -3 8 -13.5t8 -13.5q2 -2 10 -2l1 5 q1 5 1 8q-14 35 -20 69q-6 35 -10 105q-6 60 -9 116q0 14 -7.5 17.5t-16.5 -4.5q-6 -3 -9.5 -2.5t-4.5 3t0 5.5q5 20 16 31q14 20 7 26q-2 1 -5 0q-10 -2 -15.5 0t-6 6.5t-1 10t-0.5 10.5v37zM49 616q9 -16 12 -26q8 17 7 22v37h-5q-7 -22 -14 -33zM106 766h-2q0 2 1 5.5 t1 4.5q-8 15 -8 17q-3 -9 -6 -15v-8q2 -10 6 -31q1 6 4 15zM102 711q-4 2 -8 6q0 -1 -2 -4.5t-2 -5.5q-1 -1 0 -2.5t2.5 -3.5t1.5 -3q1 1 4 5.5t4 7.5zM96 625q2 2 4 4.5t3 3.5t1 2l-8 8q-4 -4 -4 -6zM475 305v2h-2zM569 336l2 -2v2h-2z" />
<glyph unicode="H" horiz-adv-x="686" d="M18 94q1 67 2.5 201t2.5 201q0 19 4 69q3 33 -31 39q-3 1 -12.5 2.5t-14 3t-8 7.5t-2.5 16q0 12 7.5 16t16 2.5t15.5 1.5q3 2 15 2.5t14 3.5q6 10 6 37q2 75 7 225.5t7 225.5q4 236 10 354q1 13 23 62q2 3 10 3t12 -3q20 -12 43 -31q36 -28 62 -57q12 -12 12 -37 q-2 -44 -7 -135t-7 -138q-6 -141 -6 -143q0 -11 2 -33.5t2 -34.5v-231q0 -25 5 -28.5t28 3.5q38 13 167 62q22 13 25 33q14 126 33 274q6 47 19.5 133.5t17.5 114.5q4 61 12 92q1 10 20 43q4 -4 19 -15.5t18 -19.5q53 -118 60 -141q12 -46 8 -70q-5 -46 -17 -130.5 t-16 -115.5q-1 -11 -18 -260q-1 -13 -29 -217q-1 -19 -2 -57.5t-2 -58.5q0 -3 0.5 -9.5t0.5 -10t-1 -8.5t-4 -8.5t-8 -6.5q-6 -6 -2 -13q12 -57 -19 -108q-4 -8 -11.5 -30.5t-14.5 -33.5q-3 -7 -8 -11.5t-11.5 -6.5t-10 -3t-11.5 -2t-9 -1q-27 0 -33.5 -0.5t-34 3.5t-34.5 5 q-2 0 -6.5 3.5t-5.5 4.5l10 10q23 15 29 51q21 141 26 199q5 48 19 250q0 2 1 6t1 6q-4 16 -4 25q-3 -1 -9.5 -3t-10.5 -4t-5 -5q-6 -12 -16 -20t-18.5 -11.5t-24.5 -8.5t-23 -8q-17 -6 -49.5 -18t-48.5 -18q-6 -2 -12 -19q-15 -231 -17 -266q-1 -18 2.5 -50t3.5 -46 q-4 -60 -8 -90q-4 -44 -8 -62q-3 -9 -6.5 -18.5t-8.5 -20.5t-8 -18q0 -2 -4.5 -2t-5.5 2q-8 8 -11.5 6.5t-8.5 -10.5q-11 -16 -21 -13q-33 0 -53 14.5t-19 45.5q0 10 -1 30.5t-1 30.5zM119 70zM479 707q0 2 -8 18q-6 -12 -12 -27q-2 -4 -2 -14q-4 -32 -8 -88 q-1 -12 -2.5 -35.5t-2.5 -34.5q-2 -33 -2 -98q-4 -86 -10 -129q-1 -9 -18 -156q0 -4 4 -16q1 1 4.5 5.5t3.5 6.5q2 9 4 26t2 19q3 29 8.5 93t8.5 96q4 47 16 157q1 20 6.5 81t7.5 96zM471 823v-10q2 -3 5 -9t5 -9q1 2 4.5 8.5t3.5 9.5q1 9 2.5 27.5t2.5 27.5q1 11 3 32.5 t3 33.5q0 2 -8 14q-1 -2 -4.5 -6t-4.5 -6q-12 -109 -12 -113zM59 385h2q-2 -2 -2 -8q1 -3 2 -9.5t2 -9.5q11 16 11 17q2 4 2 12q4 50 2 74q0 1 -6 31q-1 -3 -8 -13t-7 -16q0 -14 1 -39.5t1 -38.5zM66 711h2q1 -5 2 -15.5t2 -15.5q0 -2 3.5 -5t4.5 -5q0 1 3.5 5.5t4.5 8.5 q1 18 2 54.5t2 54.5q2 7 -2 26q0 2 -4 6q-2 -2 -2 -6q-11 -49 -18 -108zM117 477q0 -23 -1 -69t-1 -70q0 -4 4 -12q4 8 4 12q3 102 6 201q3 9 -4 16q0 -2 -3 -7.5t-3 -8.5q-2 -20 -2 -62zM489 985q1 -2 4.5 -7t4.5 -7q0 1 3 7t3 9q3 14 8 44t8 46q1 3 0 6.5t-3 8t-3 6.5 q-1 -3 -5 -8.5t-5 -6.5q-3 -17 -7.5 -49.5t-7.5 -48.5zM59 561q3 -8 6 -20.5t5 -16.5q0 -2 6 -8q1 3 3.5 6t2.5 4q4 23 0 33q0 3 -5.5 7.5t-6.5 6.5q-6 -10 -11 -12zM125 221h2q-2 16 -10 43q-1 -8 -3 -23.5t-3 -23.5v-6q4 -9 8 -31q3 15 6 33v8zM72 860q-1 -1 -4 -5.5 t-5 -6.5q3 0 10.5 -1t10.5 -1q1 0 3.5 5.5t2.5 8.5q-1 2 -4.5 6.5t-5.5 7.5q-1 -2 -4 -7t-4 -7zM84 915q0 -3 1 -8t1 -8q1 3 4 9.5t4 9.5q0 2 -4 10q-1 -2 -3 -6.5t-3 -6.5zM66 309q2 3 4 5t2 3q0 9 -2 13l-7 -2q0 -7 3 -19zM119 92q1 1 2 3l1.5 3t0.5 2q0 7 -2 11v-5 q-2 -4 -2 -14zM61 283q2 2 2 6h-2q0 -1 -1 -2t-1 -2q2 0 2 -2zM119 23h2v2z" />
<glyph unicode="I" horiz-adv-x="385" d="M57 311q4 70 13.5 206t13.5 202q3 38 7 110.5t7 110.5q6 100 21 203q9 79 28 223q1 5 0 15t0 14q4 26 27 43.5t51 15.5q53 -6 83.5 -48t21.5 -99q-3 -17 -10.5 -52t-10.5 -53q-9 -61 -12 -127q-2 -23 -6 -62t-7 -72t-5 -62q-1 -18 1.5 -52t2.5 -47q0 -7 -4 -18.5 t-5 -16.5q-9 -79 -12 -159q0 -3 -6 -150q0 -5 -1 -15t-1 -15q-4 -70 -4 -101q0 -5 6 -15.5t6 -15.5q0 -90 -4 -135q0 -4 -8 -11t-14 -9q-3 0 -13 -2.5t-16 -3t-13.5 3t-11.5 12.5q-2 1 -5 1t-5 -1q-16 -3 -23 -1.5t-20 8.5t-18 9q-44 19 -48 82q-2 14 -2 84h-4zM197 590 l4 12q-13 9 -15.5 24t0.5 31q1 15 3.5 49.5t3.5 53.5q0 2 -2.5 5t-2.5 5q-6 -6 -8 -10q-16 -111 -18 -160q-6 -72 -10 -221q0 -17 4 -45q0 -2 2.5 -5.5t3.5 -4.5q0 2 2 5t2 5q2 23 2 67q0 3 0.5 13.5t1.5 16.5t5 13.5t11 12.5q4 4 4 18q1 10 2.5 31t2.5 31q0 9 1 27t1 26z M152 268q1 -2 4.5 -8t5.5 -10v22v15q0 4 -2 6q-1 -1 -4 -3t-4 -3v-19z" />
<glyph unicode="J" horiz-adv-x="716" d="M211 1329q-26 0 -84 4q-40 5 -68 49q-9 11 1 26.5t28 16.5q79 11 129 11q231 -5 279 -4q33 -2 98 10q39 5 139 22q15 4 27 -4q11 -2 24 -24q3 -1 -1.5 -7t-10.5 -12q-7 -3 -45.5 -24.5t-60.5 -28.5q-132 -35 -189 -33q-13 3 -14.5 -0.5t0.5 -17.5q9 -83 12 -162 q3 -101 0 -201q2 -15 -6 -43q-1 -8 -2 -24.5t-2 -24.5q9 -97 0 -137q-2 -7 3 -21t5 -20q-11 -214 -22 -332q-4 -107 -21 -180q-1 -3 -3 -14.5t-3 -15.5t-3.5 -15t-4.5 -16t-5.5 -14t-7.5 -15t-9 -12.5t-11 -12.5t-6 -8q-5 -13 -12 -24t-18.5 -19.5t-19 -12.5t-24 -12 t-20.5 -10q-12 -6 -45 -6q-146 6 -226 123l-2 4q3 19 -10 44t-14 34q0 17 3.5 45.5t4.5 36.5q15 114 106 280q1 3 11 13q0 -3 1 -9.5t1 -9.5q-2 -5 -17 -30q-5 -12 -17.5 -39.5t-17.5 -42.5q-1 -2 0.5 -6t1.5 -5q1 1 5 2t6 2q15 11 25.5 42t15.5 38q1 2 7 10t9.5 11.5 t7.5 3.5q7 0 11.5 -13.5t1.5 -27.5q-37 -122 -46 -164q-3 -16 -4 -35t-1 -41t-1 -34l-6 -48q-6 -19 8 -53t31 -41q21 -15 39 6q48 73 55 111q33 145 35 242q2 39 7 115t7.5 136t2.5 115q0 149 -7 357q-1 27 -2 80t-2 79q-2 25 -7 30.5t-30 6.5q-3 0 -9.5 1t-10.5 1v-2z M385 686h2q-1 5 -4 16.5t-4 16.5q0 2 -4 14q0 -2 -4 -14q-1 -27 -4.5 -80t-4.5 -80q-9 -98 -22 -315q-2 -20 -6 -42.5t-10 -49.5t-9 -41q2 -2 2 -9q7 -6 11 -2q3 2 7 7t3 8q11 31 22 82q2 28 7.5 80.5t7.5 78.5q4 48 8 164q0 28 1 83t1 83zM381 758q0 2 1 5.5t1 4.5 q0 2 -4 6q-4 -4 -4 -8q-1 -1 6 -8z" />
<glyph unicode="K" horiz-adv-x="686" d="M201 309q10 -13 10.5 -21.5t-4.5 -21.5q-2 -5 4 -35q1 -3 4 -8.5t4 -8.5t-0.5 -7t-7.5 -8q-1 0 -1 -2.5t1 -3.5q11 -30 14.5 -88t5.5 -70q3 -15 -7 -23t-25 -2q-14 7 -9 19q2 7 -2 20q-5 10 -14 6q-2 0 -12 -10v-10q0 -18 -4 -20t-21 5q-25 12 -51 19q-39 9 -39 45 q1 25 1.5 103t2.5 120q2 17 -1 48.5t-1 47.5q2 15 2 32t-1 37.5t-1 31.5v231q0 76 -4 232v223q-2 57 -2 170q0 13 1 41t1 43q0 35 39 43q27 4 82 0q32 -6 43 -39q3 -8 8 -16q13 -18 10 -46q-1 -8 -5 -30.5t-4.5 -30l-2 -30t1.5 -31.5q14 -101 4 -177q-1 -5 0.5 -12t1.5 -10 q2 2 9.5 7.5t9.5 8.5q17 37 49.5 109.5t48.5 109.5q51 101 72 136q10 20 38.5 25t53.5 -7q32 -14 43 -20q15 -6 24.5 -31t1.5 -39q-2 -5 -34 -66q-4 -4 -4 -6q-7 -30 -23.5 -59.5t-39.5 -62.5t-34 -52l-30 -69q-3 -5 -15.5 -23t-17.5 -27t-13.5 -28.5t-13.5 -28.5 q-7 -12 -22.5 -37.5t-22.5 -38.5q-6 -10 -14 -30q-11 -26 6 -52q50 -64 100 -186q13 -28 37 -84.5t37 -83.5q5 -12 13.5 -36.5t13.5 -37.5q3 -7 20 -41q27 -53 39 -79q1 -2 9.5 -22.5t13.5 -29.5q8 -17 24.5 -51t24.5 -51l16.5 -33t20.5 -43q2 -5 2.5 -14t1.5 -12 q-5 3 -13 8t-10 6q-4 3 -10 10t-10 10q-7 4 -15 0q-2 -2 -2 -14q1 -3 6 -23l-22 11q-12 9 -27 18q-13 13 -20 0q0 -6 -10 -6q-15 3 -30 16.5t-18 28.5q-12 63 -67 174q-10 21 -29 59.5t-34 69.5t-29 58t-39.5 82t-38.5 83q-4 13 -8 17q-1 2 -11 12q-1 -2 -4 -5t-4.5 -5 t-1.5 -4q-2 -14 -2 -43v-88q-3 -12 -6 -21q0 -6 -8 -6q-2 0 -6 8q0 13 -2 17h-17l-2 -4q-4 1 -8.5 4t-5.5 4q0 -1 -1 -4t-1 -4q4 -9 0.5 -31t1.5 -35q2 -12 2.5 -14t-2 -16.5t-2.5 -16.5q-1 -4 -5 -15t-5 -15t0 -11q6 -11 2 -40.5t10 -39.5q4 -4 4 -22v-17q1 -5 3 -15.5 t3 -15.5q20 24 21 33q0 2 6 133v-2zM109 776q-6 12 -7 15q-1 -1 -3 -4.5t-3 -4.5q2 -1 6.5 -3t6.5 -3q-3 -3 -3 -4q-4 -8 -4 -10l2 -2q0 2 1 6t1 6q0 1 1.5 2t1.5 2zM94 197q0 -19 2 -29q0 -4 4 -8q6 0 6 4q2 8 6 22.5t6 24t1.5 22t-6.5 23.5q-3 6 0 16q0 29 1 89.5t1 91.5 q0 29 -1 87t-1 87q0 17 -1 51t-1 51q0 2 -3.5 6.5t-3.5 5.5l-4 -5q-4 -5 -4 -9v-74q-5 -118 -4 -141q2 -27 1.5 -93t2.5 -93q3 -11 0.5 -64.5t-2.5 -64.5zM182 520q1 -2 2 -7t2.5 -9t3.5 -8q0 -2 9 -7q0 1 1 4.5t1 4.5q-1 6 -2 18.5t-2 18.5q0 4 -4 12q-1 -2 -4.5 -5 t-4.5 -5t-1 -7.5t-1 -9.5zM561 137q4 -4 12 -8q3 4 5 6q-1 1 -4.5 3t-4.5 3zM186 578q2 3 5 6.5t4 5.5q0 1 -2.5 3t-2.5 3q-8 -4 -10 -8q0 -1 6 -10zM178 637q0 2 2 2q-2 0 -4 2v-2zM571 92l2 2v2q-2 0 -2 -2v-2zM518 74l-2 2v-2h2z" />
<glyph unicode="L" horiz-adv-x="501" d="M319 76q68 -7 125 -15q22 -3 37 -26q9 -9 2.5 -23t-20.5 -16q-17 -1 -106 -9.5t-136 -9.5q-10 0 -22.5 4t-21 8t-23 12t-21.5 11q-30 15 -39 15q-33 0 -76 43q-4 4 -4 22q2 42 7.5 122.5t7.5 119.5q2 53 5 160.5t5 160.5q1 35 3 99t4 116.5t5 98.5q2 44 8.5 129.5 t8.5 126.5q1 33 0 98t0 96q0 35 8 56q3 11 20 20q51 12 99 -2q5 -2 15 -5t15 -5q1 -1 9 -6t11.5 -8.5t4.5 -8.5q16 -58 18 -90q0 -17 -4.5 -49.5t-5.5 -44.5q-2 -35 -6 -104.5t-6 -104.5q-1 -22 -5 -64.5t-5 -62.5q-1 -16 -6.5 -83.5t-6.5 -104.5q-2 -40 -4 -120t-4 -120 q0 -13 -5.5 -35.5t-6.5 -32.5q0 -8 1.5 -32t0.5 -37q-1 -7 0 -27t-1.5 -33.5t-10.5 -25.5v-6q11 -32 9.5 -87t2.5 -87q5 -20 12.5 -27.5t26.5 -7.5q25 -2 75 -2v4zM145 197q1 3 5 8t6 9.5t2 8.5q6 79 6 156q-1 7 -1 21.5t-0.5 23t-3 21t-7.5 22.5q-4 8 -4.5 19.5t1 28 t1.5 24.5q0 2 -5 12q-1 -1 -6 -4.5t-6 -5.5q0 -1 -2 -13t-4 -18q-2 -5 -7 -18t-7 -20t-2 -18.5t6 -21.5v-6q-4 -94 -8 -143q0 -5 -2.5 -16t-2.5 -17q-2 -43 -6 -133q0 -7 2 -11q9 -28 33 -8q25 25 25 84q0 2 -13 15zM164 520l-2 2v-2h2z" />
<glyph unicode="M" horiz-adv-x="1005" d="M150 487q-5 -7 -8.5 -14.5t-5.5 -13.5t-3.5 -16t-1.5 -14.5t-1 -16.5t-1 -15q-3 -25 2 -112q1 -8 21 -43q0 -3 4 -4.5t6 0.5q6 3 6 10q-11 9 -1.5 28.5t7.5 26.5q-1 1 6 8l6 -6q0 -3 1.5 -11t0.5 -13q-6 -55 5 -107q6 -24 0 -28t-29 6q-14 5 -17 4q-10 -2 -19.5 0.5 t-20 8t-17.5 7.5q-42 15 -45 70q-2 74 -10 227q-1 47 -4 138.5t-4 135.5q0 18 0.5 50.5t0.5 59t-1 50.5q0 17 -1.5 70.5t-0.5 81.5q0 1 6 235q1 12 0.5 44.5t1.5 45.5q4 49 16 80q3 9 14.5 17t20.5 10q48 8 87 -14t46 -68q3 -21 25 -39q25 -21 49 -84q14 -37 45 -145 q29 -94 41 -140q11 -38 26 -108q18 -111 21 -146q1 -7 -3.5 -23t-4.5 -20l-2 -10q11 -5 14 -2q14 12 14 -8q1 -2 4.5 -6t4.5 -6q10 10 10 12q14 45 26 96q6 22 19.5 68t19.5 69q9 30 15 60q13 54 30 69q3 3 9 15q26 108 92 237q5 10 11 30t9 28q4 9 10.5 18t14.5 20t12 17 l6 6q20 39 80 27q17 -4 23 2q33 22 77 -4q41 -26 31 -82q-1 -7 0.5 -21.5t1.5 -19.5q-2 -45 -7 -135.5t-7 -135.5q-8 -192 -14 -286q-1 -27 -11 -154q-5 -105 -2 -135q1 -9 2.5 -24.5t2.5 -28.5t1 -25q0 -14 2.5 -90t-0.5 -90q0 -13 2.5 -36t2.5 -34q2 -17 -5 -47 q-1 -3 -6.5 -8.5l-7.5 -7.5q-6 8 -14 20q-2 4 -2 15q-3 -3 -8 -13q-3 -9 -10.5 -26.5t-10.5 -26.5q0 -4 -4 -4q-2 0 -6 4q-2 5 -5 14.5t-5 14.5q-1 2 -13 8q-1 -1 -4.5 -5.5t-3.5 -6.5q4 -26 8 -37q1 -5 7 -16.5t8 -16.5q3 -7 7.5 -9.5t12.5 -2.5h10q3 -1 15 -13 q-8 -8 -15 -8q-39 -7 -53 25q-29 65 -33 86q-42 181 -39 352q0 64 5 361q2 112 10 317q0 5 -2 14.5t-2 14.5q-2 -3 -9.5 -13t-9.5 -16q-47 -173 -53 -197q-1 -5 -4 -21t-6 -24q-7 -17 -33 -125q-5 -17 -16.5 -61.5t-18.5 -67.5q-3 -11 -6.5 -39t-10 -47.5t-20.5 -35.5 q-1 -2 0 -10t0 -11q0 -51 -2 -61q-13 -52 -6 -125q2 -29 2 -86q0 -4 -4.5 -12t-5.5 -11q-3 3 -9.5 8.5t-9.5 8.5l-12 12q-3 -6 -6 -15q-4 -13 -11 -15.5t-20 5.5q-30 20 -57 35h-10q-25 -12 -31 16q-10 49 -28 141t-25 128q-10 51 -32.5 145.5t-29.5 124.5q-20 94 -32 141 q-6 26 -29 101q0 2 -6 8q-1 -2 -3 -5t-3 -5q-2 -6 -2 -19v-219q0 -14 -4 -38t-5 -32q0 -5 -2.5 -31.5t0.5 -31.5q11 -75 2 -121q-1 -5 0.5 -15t1.5 -14q-1 -2 -4 -6t-4 -6q-8 4 -10 8q-4 12 -6.5 12t-13.5 -12v21h-3q0 -3 1.5 -9.5t1.5 -9.5zM711 1260q-7 -3 -20.5 -9.5 t-20.5 -9.5q-2 -1 -2 -5.5t2 -4.5q5 -2 7.5 -4t2 -5.5t-0.5 -5t-2.5 -6.5t-2.5 -6q-7 -18 -10 -35q-4 -22 -17 -22q-9 0 -12 -1.5t-1.5 -5t7.5 -10.5q20 -20 -8 -30q-3 0 -5.5 -3t-2.5 -5q11 -30 0 -52q-1 -2 0.5 -4.5t4 -6t3.5 -5.5q8 8 10 14q13 49 27 88q5 12 16 27 q5 7 18 21.5t20.5 26.5t10.5 26q0 6 3.5 14t4.5 12q9 31 9 47q-1 8 -5.5 10t-12.5 1t-11 0q-1 1 -3.5 -1.5t-4.5 -6.5t-2 -7q-2 -12 -2 -36zM778 711q0 -10 -1 -29t-1 -33.5t2 -27.5q7 -55 -4 -99q-2 -6 -2 -14.5t1 -18.5t1 -14q0 -8 4 -24q4 -15 2 -63.5t11 -63.5v-9 q2 -13 5 -39.5t5 -39.5q0 -6 10 -11q11 -3 12 -4.5t-4 -7.5q-10 -12 -12.5 -25.5t-1 -21t7 -25t6.5 -22.5q0 -1 1.5 -2t3.5 -2t3 -2q4 8 4 10q-8 25 -10 35q0 5 5.5 12.5t7.5 7.5q11 -3 14 0t1 10.5t-1 10.5q0 4 -1 11.5t-1 13t2 9.5q11 26 6 39q-2 7 1 11t11 0q4 -2 13 -2 q-2 4 -2 12q-3 15 -3 29q8 49 0 69q-8 14 -8 49q0 32 6 62q1 17 -2 20.5t-20 5.5q-4 0 -10 13q0 9 -1 27.5t-1 27.5q0 2 -0.5 10.5t0 12t2 10t5.5 11t11 7.5q1 1 0.5 4.5t-1.5 8.5l-1 4q-7 0 -10 2t-3.5 4t1.5 8t2 8q9 51 -10 105q-17 53 -15 79q0 18 -3.5 51.5t-4.5 45.5 l-6 6l-6 -2q-1 -3 -6.5 -16.5t-7.5 -22.5t-1 -17q0 -12 2 -33t2 -39t-4 -34q-5 -20 -10 -90q0 -1 2 -4t2 -4zM381 453h-2v-17q8 -12 16 -20q1 3 4 7t5 7.5t2 7.5q0 8 1.5 30.5t0 38t-6.5 30.5q-3 3 0 8q0 9 5 59q0 3 -7 10q-2 3 -7 9.5t-7 9.5q-6 7 -17.5 22.5t-17.5 22.5 q-1 3 -12 8q-8 -12 -8 -16q3 -16 10.5 -44.5t9.5 -39.5q0 -2 2 -6t2 -5q-3 -16 0 -31t10 -35t9 -28q5 -12 8 -28zM408 653q2 -6 8.5 -27.5t11.5 -31.5q4 0 6 2q18 32 2 59q-5 8 -16 15q-10 -15 -12 -17zM168 512q1 5 2.5 9.5t1.5 6.5q0 23 -2 33q0 5 -8 17q-11 -11 -12 -13 q-10 -10 -7 -16q3 -7 25 -37zM375 688h-3h1q-1 2 -1.5 4.5t-1 4t-1.5 1.5q-31 15 -33 37q-8 2 -12 2q1 -4 1 -11t0.5 -11.5t2 -10t4.5 -8.5q3 -4 9.5 -5t16.5 -1.5t17 -1.5zM90 416v12q-4 12 -4 18q-11 -17 -12 -20q-2 -8 2 -29q3 -12 8 -22l6 2q2 8 2 22zM627 981 q-2 4 -6 16q-7 0 -7 -2q-7 -16 -14 -41q-1 -2 0 -4.5t3 -5.5t3 -4q6 2 8 4q2 6 6.5 18.5t6.5 18.5zM86 467q2 10 10 25q4 5 4 9.5t-1.5 6.5t-5.5 6t-5 6q-2 2 -8 2l-2 -6q12 -12 0 -33v-14q0 -2 8 -2zM864 608l10 10q-1 1 -2 2.5l-2 3t-2 1.5q-2 -1 -6 -4.5t-6 -4.5z M893 133q6 6 6 8t-4 6l-6 -2q1 -2 1.5 -3.5t1 -4t1.5 -4.5zM590 993q6 12 6 13t-1 3t-1 3q-4 -2 -8 -6q0 -1 0.5 -2.5l1.5 -4.5zM891 178q-1 0 -3 1t-3 1l-2 -2l4 -4zM602 915q0 1 1 3.5t1 3.5q0 4 -4 4t-4 -4t6 -7zM76 743q2 -4 6 -8l6 6q0 5 -4 9q-6 -6 -8 -7zM881 444 q-1 0 -2 1t-2 1q0 -1 -1.5 -2t-1.5 -2q3 -2 5 -2q0 1 1 2t1 2zM360 719l7 4q0 1 -1 3t-1 3l-7 -2q0 -1 1 -4t1 -4zM731 1182q0 -2 2 -4q0 1 1 1.5l1 0.5q0 4 -2 6q0 -1 -1 -2t-1 -2zM166 174q2 0 2 -2q2 2 2 4q-2 0 -4 -2zM864 225l-2 -2h2v2zM844 100h2v4h-2v-4zM903 676 l-2 2l-2 -4h4v2zM573 799l-2 -2h2v2zM610 840q0 2 -2 4l-2 -2l4 -4v2zM526 647l2 2h-2v-2z" />
<glyph unicode="N" horiz-adv-x="708" d="M459 889q0 4 -1 13t-1 13q5 38 2 86q0 3 2 7.5t2 7.5q4 32 4 47q-4 25 6 35q4 6 2 22t-8 25h2q1 14 4 59t6 70q2 12 7.5 36t7.5 36q5 29 8 71q1 11 13.5 19t14.5 12h5q3 -5 6 -7.5t6 -1.5l4.5 1.5t5 4.5t4.5 5q2 1 6 3.5t6 4t5.5 1t7.5 -4.5q2 -2 5 -2t5 2q2 1 5.5 3.5 t5 3.5t4 2t5 -1t5.5 -6h4q14 8 19 6t11.5 -10.5t10.5 -9.5q4 0 4 -10q0 -21 -4 -31q-23 -117 -37 -283q-3 -42 -13 -231q-2 -29 -3 -88.5t-3 -89.5l-12 -111q-2 -13 -2.5 -37.5t-1.5 -32.5q-2 -26 -9 -79t-10.5 -95t-3.5 -80q0 -29 -3.5 -81.5t-4.5 -69.5q-2 -20 6 -53 q3 -15 -10 -21q-26 -10 -72 10q-3 1 -18 8.5t-25.5 10t-21.5 0.5q-26 0 -35 28q-82 222 -141 437q-36 122 -41 141q-1 2 -3 5t-3 5q-2 -4 -2 -10q-2 -27 -2 -80q4 -62 4 -92v-5v-5.5t-1 -4.5t-3.5 -5t-6.5 -3q-6 -1 -7.5 -3.5t0.5 -6t7 -6.5q6 -6 9 -14q0 -6 -2 -6 q-22 -11 -9 -21q20 -18 7 -53q-8 -31 6 -43q6 -6 6 -14l-1 -52q0 -53 1 -53q0 -20 3.5 -56t4.5 -48q0 -20 -8 -25q-2 -1 -5.5 -5.5t-6 -7t-8 -2.5t-11.5 5q-5 3 -15.5 8t-15.5 8l-6 2q-4 -12 -20 -4q-48 26 -54 31q-2 1 -3 3.5t-1.5 6t-1.5 4.5q-4 126 -8 195q0 9 -1 27.5 t-1 27.5v6q5 22 0.5 117t-4.5 117v157q-1 23 -4 69t-4 67q-3 94 -6 186q-3 84 0 168q0 39 4 117q3 62 67 53q35 -4 60 -14q19 -6 28.5 -24t4.5 -38q0 -27 10 -47q26 -87 30 -104q7 -23 15 -67t12 -60q4 -21 20 -89t23 -106q6 -23 6 -70q1 -5 2.5 -19t4.5 -24t8 -16 q13 -14 17 -46.5t13 -45.5q7 -11 11 -24.5t7.5 -37t4.5 -28.5q2 -9 5 -30t6.5 -36.5t8.5 -28.5q15 -34 15 -63q-21 48 -23 53l-6 6v-8q13 -44 20 -61q0 -1 11 -17q-1 3 -2 9.5t-2 9.5v8q2 2 6 5t6.5 5.5t3.5 5.5q2 35 10 95q1 10 1 29.5t1 29.5q1 8 4 23.5t4 19.5v33 q2 39 6.5 112.5t6.5 106.5v-2zM332 471q-2 2 -6.5 6t-6.5 6q-1 2 -4.5 8.5t-5.5 8.5l-5 -10t-5 -13q-3 -5 2 -14q1 -3 6.5 -21.5t11.5 -25.5q5 -5 5.5 -23t13.5 -22q2 0 2 -13q-3 -15 0.5 -28.5t11 -29.5t10.5 -26l9 -4q26 7 20 31q-1 4 -3 13.5t-3 14t-3.5 12.5t-5.5 13 t-7.5 11t-10.5 10q-2 1 -5 6t-3 6q-16 53 -12 78v24v15q0 2 1 4.5t1 3.5h-12q-4 0 -4 -8q1 -7 4 -18t4 -15zM137 586q0 -5 1.5 -15t1.5 -15.5v-13t-2 -13.5t-5 -11q-4 -4 -4 -14q4 -78 8 -121q0 -6 -2 -8q-7 -11 2 -35q1 -5 6.5 -18t6.5 -21q9 -50 12 -98q0 -1 1.5 -2 t3.5 -2t3 -2l2 6q0 5 0.5 16.5t0.5 17.5t-2 14.5t-7 14.5q-3 6 -2.5 15.5t2.5 11.5q5 1 7.5 4t3 5t0 7t-0.5 6q0 72 -2 107q-1 34 -5 101.5t-5 101.5q0 50 -10 73q-4 9 -9 11q0 -1 -1 -5t-1 -6q-1 -19 -2 -57t-2 -55zM520 688q2 -6 6 -22q1 4 3 11t3 11v8q1 11 4.5 32.5 t5.5 39.5t1 35t8 80q0 20 -2 32q0 3 -1 9.5t-1 9.5q0 4 4 23t4 30q2 31 5 92t5 92q2 45 10 111q0 6 -2 8q-6 9 -12 15q0 -2 -3 -6.5t-3 -6.5q-8 -40 -8 -59q-3 -146 -12 -293q0 -19 -3 -54t-4 -46q-1 -18 -1 -53t-1 -52q0 -5 -6 -47zM88 307h2q0 -21 4 -61q0 -3 4 -15 q4 12 4 15q0 10 1 29.5t1 35t-2 29.5q-1 8 3 22.5t3 26.5t-14 21v4q0 18 1 55t1 55q-4 98 -4 144q-1 23 -2 69t-2 70q0 4 -1 10.5t-1 9.5q-5 -7 -8 -20v-12q1 -29 2 -86t2 -86q4 -212 6 -316zM268 664q-2 5 -6 16t-6 16q-2 3 -5 10.5t-5 10.5q-4 -16 -4 -25q-1 -2 -0.5 -5 t2.5 -3q5 -6 7 -14t2.5 -19.5t0.5 -15.5q2 -13 18 -74q11 -27 21 -41q1 -1 10 -6q4 8 4 16q-2 8 -6 26t-6 26q-9 28 -14 34q-20 24 -13 48zM539 1260q-2 3 -5 9l-2 3q-12 0 -12 -4q-2 -10 -2 -31q-1 -5 0.5 -26t-2.5 -23q-4 -9 -6.5 -26t-5.5 -23q-4 -11 0.5 -34t-0.5 -34 q0 1 6 -2q6 0 6 6q1 4 2 14t2 15q1 11 19 156zM399 199q-4 0 -4 -2v-7q4 -8 4 -10q7 7 7 8q-4 34 -9 60q0 3 -6 5.5t-8 0.5q-8 -8 -8 -16q0 -2 3.5 -8t4.5 -9q6 -12 16 -22zM498 969h-4q5 -7 8 -17q10 10 10 15q2 13 -2 37v10q0 2 -1 6t-1 6q-8 -4 -8 -10q-2 -14 -2 -47z M246 756q-2 4 -10 12q-7 -7 -7 -8q7 -7 11 -19q3 6 6 15zM524 1317q8 -12 13 -17q5 10 4 13q0 2 -2 3t-4.5 2t-4.5 3q-4 -4 -6 -4zM309 569q0 -14 2 -20q0 -4 4 -8q0 1 1 4t1 4q0 8 -4 20q0 1 -2 2t-2 2v-4zM532 1339l7 7q0 2 -4 6l-5 -4q0 -5 2 -9zM178 649q2 0 4 2 q-2 2 -2 4q-1 0 -2 -1t-2 -1q0 -2 2 -4zM164 770q0 1 -1 2t-1 2l-2 -2v-4q1 0 2 1t2 1zM82 852l4 4q0 1 -1 3t-1 3l-4 -2q0 -1 1 -3.5t1 -4.5zM514 573l2 -4q4 0 4 4q0 1 -2 2q-1 0 -2 -1t-2 -1zM584 1149q-1 0 -2 1t-2 1l-2 -2q2 -2 2 -4zM334 696q-2 2 -4 2l-2 -2l4 -4 q2 0 2 4zM522 627l2 2h-2v-2zM221 825l-2 2h-2q0 -1 1 -2t1 -2zM172 111q-2 0 -4 2v-2l2 -5q0 1 1 2.5t1 2.5zM367 547l-2 2zM160 815l2 -2v4z" />
<glyph unicode="O" d="M524 1171q1 -5 6.5 -17.5t6.5 -20.5q6 -34 20 -132v-10q-8 -6 -10 -13t0 -12t6.5 -12.5t5.5 -11.5q8 -20 8 -65q6 -47 6 -93q0 -3 1.5 -12.5t1.5 -14.5t-5 -10.5t-16 -7.5q-2 0 -2 -22q0 -1 2 -1.5t5 -1t5 -1.5q8 -4 8 -11q1 -6 -0.5 -15t-1.5 -11h-2q-13 0 -15.5 -2.5 t-2.5 -16.5q-1 -25 -4 -73.5t-4 -71.5q0 -4 4 -16q10 10 10 14v31q0 4 6 10l8 -8q2 -4 2 -13q-14 -98 -20 -124q-11 -55 -33 -117q-8 -25 -41 -113q-41 -96 -47 -108q-23 -44 -70 -70q-26 -12 -61 -8q-13 2 -37.5 13t-30.5 13q-7 2 -21.5 5.5t-21.5 5.5q-23 9 -26 12 q-84 74 -101 174q-9 51 -26 166q-1 6 -9.5 70.5t-9.5 97.5q-1 17 5 180q2 37 10 111v6q-4 19 -5 42.5t0 39t3.5 44.5t3.5 40q11 173 82 350q14 33 39.5 58t46.5 36.5t61 28.5q67 29 148 16q15 -1 27.5 -13t15.5 -26q4 -19 11 -55t11 -55q1 -4 3 -7.5t5 -8t4 -7.5 q9 -23 9 -35q0 -22 8 -28q3 -3 4.5 -10.5t-0.5 -8.5q-16 -13 2 -31q20 -20 12 -45v2zM154 764h2v2zM555 786q-2 -4 -2 -12h2q0 8 -2 12q2 1 3.5 2t2.5 2t2 1q0 2 -2 2q-4 -4 -4 -7zM119 461q-2 -2 -2 -8q1 -3 2 -9.5t2 -9.5l6 2q-1 3 -2 9.5t-2 9.5l-6 6q14 0 16 -2 q14 -18 18 5q1 2 1 3q2 2 2 8q-3 83 -9 170q0 2 -1 5.5t-1 4.5q-1 1 -2 4.5t-2 4.5q0 -1 -1 -4t-1 -5q0 -28 -4 -94q0 -8 1 -31t-2 -39t-13 -30zM199 354q-1 0 -3 -1t-3 -1q2 -10 7 -30.5t7 -30.5q13 -62 20 -88q4 -12 12.5 -33t12.5 -33q8 -21 16 0q27 61 29 68q4 11 17 48 t20 58q3 10 10.5 34t11.5 37t8.5 33.5t6.5 37.5q18 133 18 223q0 124 -14 295q-4 39 -39 229q-1 8 -17 68q0 2 -2.5 5.5t-3.5 4.5l-8 -8q-3 -6 -10.5 -18.5t-11.5 -19.5t-9 -18.5t-8 -21.5q-5 -17 -21 -61.5t-20 -69.5q-7 -36 -13.5 -103.5t-10.5 -95.5q-2 -15 0 -27.5 t-1 -28t-14 -26.5v-12q1 -14 4.5 -43t4.5 -43v-55v-68l-7 -6q-2 1 -6 4t-6 4q0 -14 2 -18q18 -33 6 -78q-2 -6 -0.5 -28t0.5 -31q0 -9 7 -29t8 -23zM371 1321q1 0 3 1t3 1q-7 15 -15 20q-2 3 -8 3t-8 -3q-8 -13 -6 -22q2 -12 8 -35.5t8 -36.5q35 -185 41 -223 q4 -25 6.5 -55.5t3.5 -47.5t2 -59t1 -51q0 -37 2 -55q0 -5 10 -15q8 8 8 15v78q0 5 1 16.5t1 17.5q5 20 4 25q-8 92 -14 143q-1 12 -5 32.5t-6 37.5t-1 33q0 33 -19 84q-5 12 -20 96zM449 1133q5 -33 8 -46q1 -4 9 -38t9 -52q4 -92 8 -276v-64q0 -6 4 -14q3 6 7 10q2 6 2 21 q1 8 1.5 32.5t2.5 38.5q0 4 2.5 13.5t3 15.5t-2 13t-9.5 12q-5 5 -2 8q6 10 5.5 29.5t0.5 29.5q7 66 -11 166q-6 25 -10 78q-4 4 0 4q7 6 8.5 13.5t0.5 12.5t-5.5 14t-5.5 13q0 1 -6 41q-5 42 -10 58q-2 8 -9.5 24t-11 29t-0.5 27q0 7 -6 10q-6 0 -10 -4q-17 -23 -6 -52 q14 -33 14 -45q0 -30 21 -65q5 -14 2 -21q0 -8 -4 -36zM154 379q0 8 1 17t1 12q-1 3 -3 8t-3 8q-4 -2 -13.5 -5t-13.5 -5v-15q1 -7 7 -31t3 -40q-6 -35 6 -41q5 -2 8 -4t4 -4.5t1.5 -4t-0.5 -4.5t-2 -4.5t-3.5 -4.5t-3.5 -5q-3 -6 0 -14q4 -27 9 -45q3 -6 8 -11q5 10 4 11 q-4 16 -5.5 23t1 18.5t10.5 19.5q2 2 -2 10q-2 23 -7.5 63t-6.5 48zM88 776h2v25q0 6 -4 14q-8 -8 -8 -14q-4 -54 -4 -80l8 -8q1 1 3.5 4.5t2.5 5.5v53zM72 436h2v-28q0 -2 3.5 -6t4.5 -5q1 1 2 3t2 3.5t1.5 2.5t0.5 2q0 10 -4 26q-1 6 -3 17.5t-3 17.5q-3 -15 -6 -33z M78 354q-2 0 -2 -2q2 -5 7 -20.5t7 -24.5h2v45q-1 3 -2 9t-2 8q0 2 -4 6q-4 -4 -6 -8v-13zM74 543h-2q2 -10 2 -29q1 4 3 13.5t3 13.5q1 3 4 8t4 8q0 2 -1 7t-1 7q0 1 -3 2q-2 1 -3 2q-6 -12 -6 -14v-18zM479 604v-14q1 -2 2 -5t2 -5q1 2 3 5t3 5q3 3 0 8q0 17 -2 25 q-4 -15 -8 -19zM178 711q1 4 3.5 10t2.5 8l-6 12q-9 -14 -10 -16q0 -4 10 -14zM74 651h4q6 12 6 13q0 6 -2 10q-1 -1 -3 -2t-3.5 -2.5t-1.5 -3.5v-15zM524 582q-1 3 -3 8t-3 8q-4 -4 -4 -6q0 -7 4 -19q3 3 6 9zM516 801q3 -9 6 -15q1 1 2 3t2 3.5t1.5 2.5t0.5 2q-4 12 -6 16 zM80 614q6 6 6 11q-4 4 -6 4t-4 -2.5t-2 -3.5t1 -2.5t2.5 -3t2.5 -3.5zM94 866q-4 4 -12 8v-6l6 -6q1 1 3 2t3 2zM524 647q-1 2 -2 6t-2 6q0 -2 -1 -6.5t-1 -7.5q0 -2 1 -6t1 -6q1 2 2 7t2 7zM96 264q1 0 2 -1t2 -1q0 1 1 3t1 3q0 2 -1 6t-1 5q-1 -1 -3 -2q-3 -2 -3 -3 t1 -4.5t1 -5.5zM514 877l6 2q-2 4 -2 14h-4v-16zM422 1374q-1 3 -1 6t-1 4q0 3 -4 7q-2 -3 -2 -5q1 -1 2 -2.5l3 -4.5t3 -5zM115 221q-1 1 -1.5 3t-1 3t-1.5 2q-1 -1 -3 -2t-2 -2q-2 -1 3 -6q1 0 3 1t3 1zM520 760h6v6h-6v-6zM551 901q0 1 1 2t1 2t-1 2t-1 2l-4 -4zM190 127 l3 -4q2 0 2 2v4q-2 -2 -5 -2zM178 197q0 4 -2 4t-2 -2t2 -4zM86 838q-2 0 -4 2l-2 -2q2 -2 2 -4zM518 1143q2 0 2 2l-2 2h-2zM526 1083q0 -2 2 -2l2 2v2q-2 0 -4 -2zM516 549h2l-2 4h-2q0 -4 2 -4zM152 139q0 -1 -1 -2t-1 -2q2 -2 4 -2l2 2zM86 692v2l-2 -2v-2q2 0 2 2z M166 229v-2h2v2h-2zM86 938h2v2h-2v-2zM88 891q0 2 2 2l-2 2q-1 0 -2 -1t-2 -1q2 -2 4 -2zM539 451v2l-2 -2v-2zM537 1020l2 2h-2v-2z" />
<glyph unicode="P" horiz-adv-x="569" d="M209 489q-1 -33 -4 -100.5t-4 -103.5q0 -55 -2 -82q-2 -23 -7.5 -68t-7.5 -67q-1 -2 -1.5 -6.5t-1.5 -7.5t-3 -5q-11 -22 -22 -2q-5 8 -14.5 24.5t-14.5 24.5q-2 4 -10 8l-6 -12q0 -18 1 -55t1 -57q0 -6 -7 -13q-29 -11 -75 4q-11 4 -11 25q0 20 5 117l6 204q8 172 8 258 v168q1 69 2 210t2 210v168q0 24 8 78q0 6 1.5 12t5 12t5.5 10t7.5 10t7.5 8l8.5 8.5l7.5 7.5q21 17 31 0q10 -18 33 -7q7 3 21.5 10.5t21.5 10.5q87 36 180 -8q45 -20 80 -68q19 -29 55 -112q22 -56 33 -140q7 -77 -23 -194q-3 -14 -9 -41.5t-9 -42.5q-1 -1 -2 -4.5t-2 -5.5 t-2 -3q-12 -6 -19.5 -24.5t-11.5 -22.5q-13 -17 -33.5 -51.5t-40.5 -60.5t-45 -43q-3 -2 -16 -15q-16 -16 -27 2q-8 17 -16 -2q-1 -2 -4 -5.5t-5 -6.5t-3 -6q-8 -16 -27 -16q-28 -1 -36.5 -10.5t-10.5 -37.5v-84h2zM463 981zM141 475q0 -8 -2 -10h4q0 2 -1 5.5t-1 4.5 q13 -9 29 -16q2 -1 6 -0.5t6 2.5q4 16 6 26q-10 5 -14 5q-14 -6 -33 -17zM209 870h2v-106q1 -4 3 -12.5t3 -12.5q16 11 19 15q1 1 6 5.5t6.5 5.5t6.5 3.5t8 2.5t7.5 -1.5t8.5 -5.5q7 0 12 10q22 50 28 68q1 1 5.5 8.5t5.5 11t-2.5 8t-12.5 7.5q-2 0 -2 12q3 11 8.5 33 l8.5 34q27 79 30 183q3 127 -69 252q-3 6 -12.5 13.5t-12.5 6.5q-29 -12 -35 -31q-5 -15 -10 -69q-4 -48 -8 -140q0 -6 -2 -18t-2 -18v-265zM141 207q-1 2 -3.5 9.5t-4.5 12.5q-9 -12 -16 -26q-2 -2 -2 -6q-1 -4 -1 -12t-0.5 -13t-3 -11.5t-8.5 -10.5q0 -2 4.5 -9t8.5 -10 q1 -1 7.5 1.5t8.5 4.5q2 12 5.5 37t4.5 33zM254 672h8q0 2 1 7t1 7q0 4 -1 12.5t-1 12.5q1 4 10 22q-6 -6 -18 -14q-8 -8 -8 -12q1 -6 4 -17.5t4 -17.5zM129 276q1 2 3.5 5t2.5 4q-2 6 -6 14q-1 -1 -3 -2t-1 -2q0 -3 4 -19zM166 76q6 18 6 22l-6 6q-6 -6 -6 -10 q0 -2 2.5 -7.5t3.5 -10.5zM158 586q-1 2 -4 6t-4 6q-7 -7 -7 -8q1 -1 4.5 -4t4.5 -4q2 0 6 4zM299 702q-1 1 -2 3.5t-2 3.5l-6 -4q3 -6 6 -9q1 0 4 6zM412 1077l8 -8q1 1 2 3l1.5 3t0.5 2q-1 2 -4.5 3.5t-3.5 2.5q0 -2 -4 -6zM90 457q2 2 2 4l-4 4q-2 -2 -2 -6q0 -2 4 -2z M129 248h4l-4 4h-2zM141 541l2 4l-4 2l-2 -2zM426 1257l2 3h-4v-3h2zM68 80q2 2 2 4h-4v-2zM182 549v-2l2 2l-2 2v-2zM100 268v2q-2 0 -2 -2h2zM90 350q2 2 2 4h-2l-2 -2zM143 397v-4h2q0 2 2 2q-2 0 -4 2zM135 414v2v-2zM70 195l-2 -2l2 -3l2 3z" />
<glyph unicode="Q" horiz-adv-x="759" d="M662 451q4 -47 -11 -80q-5 -12 -11 -35.5t-7 -28.5q-3 -8 2 -18q7 -17 33 -76q12 -28 -11 -45q-23 -12 -20 -39q2 -8 -2 -10t-10 2q-7 5 -20.5 14.5t-20.5 14.5q-3 3 -10.5 3.5t-8.5 -1.5q-5 -6 -27.5 -37.5t-37.5 -46.5q-17 -20 -62 -39q-12 -9 -47 -13q-1 0 -5.5 -1 t-6.5 -1q-12 3 -39.5 6.5t-48 9.5t-37.5 19q-4 2 -16 6q-49 10 -81.5 41.5t-58.5 83.5q-5 10 -9.5 20t-8 22.5t-6.5 20t-6 23t-4.5 21t-4.5 23.5l-3.5 21t-3.5 24t-3 22q-4 22 -5 44t0 57.5t1 43.5q0 14 -1 40t-1 47t2 38q2 19 9.5 93.5t13.5 113.5q5 31 45 199 q29 107 49 155q25 71 65 146q3 6 7.5 12t10 11t9.5 8.5t11.5 8t11 7t12 7t10.5 5.5q37 18 90 35q9 9 12 18q25 42 45 56q2 1 6.5 4t7 4t6.5 1.5t8 -1t9 -4.5h13q36 4 55 4q36 3 57 -37q9 -9 6 -12q-4 -19 6 -51.5t9 -45.5q-1 -15 0.5 -31t5 -38.5t4.5 -32.5q21 -162 23 -180 q3 -16 8 -103q1 -4 1 -10t1 -8t3 -7.5t3 -9t1.5 -8.5t-1 -9.5t-4.5 -8.5q-2 0 -2 -3t2 -5q9 -9 10 -20.5t-2 -26.5t-2 -23q1 -18 1 -39t-0.5 -46.5t-0.5 -39.5v-4q6 -19 6.5 -41.5t-2 -39.5t-6 -41.5t-4.5 -39.5q-2 -24 -6 -62.5t-6 -55.5zM145 213zM516 725h4 q-1 26 -4 107.5t-6 125.5q-5 61 -16 176t-15 158q-5 30 -8 39q-2 6 -12 21v-21q-1 -1 -1.5 -3.5t-1 -3.5t-1.5 -1q-12 -39 -4 -61q3 -8 -2 -21q-9 -23 -19 -6q-10 8 -20 -2q-18 -26 -25 -66q-1 -3 -12 -32q-2 5 -4 15t-4 15q-2 4 -7 9q-1 -1 -2 -3.5t-2 -3.5q-1 -3 -3.5 -11 t-4 -11t-4 -9.5t-5 -9.5t-6.5 -7t-9 -7q-2 0 -7 -14q-14 -41 -22 -76q-17 -55 -25 -80q-1 -3 -4.5 -8.5t-6.5 -11.5t-5 -11q-1 -3 0 -12.5t0 -13.5q-3 -36 -8 -64q-2 -13 -11.5 -77.5t-13.5 -100.5q-17 -136 -10 -299q1 -6 0.5 -22t1.5 -21q12 -49 27 -96q20 -63 59 -96 q18 -26 35 -9q42 37 51 47q12 14 23 33.5t17 34t15.5 39t14.5 35.5q5 7 0 22q-21 42 -33 62q-7 16 -21.5 45t-21.5 45q-49 105 -64 131q-13 25 -5 48.5t34 29.5q15 0 23 2q45 10 82.5 -12t56.5 -68q1 -2 4 -5t4 -5q0 2 2 6t2 6v129zM524 1389q1 0 2 1t2 1q-3 8 -9 25.5 t-9 25.5q0 2 -2.5 7t-3.5 9q-1 -3 -3 -7t-3 -6.5t0 -4.5q0 -37 4 -103q1 -7 3 -20.5t3 -20.5q8 -121 14 -176q1 -8 5 -24.5t5 -22.5q1 -15 4.5 -56.5t7 -70t9.5 -55.5q4 -4 4 -8l8 8q2 11 -1 43t3 43q-7 20 -9.5 43t-3 53t-1.5 45q-1 6 0 20t0 21t-6 21.5t-6 21.5q-1 5 1 34 t-3 34q-4 17 -4 73q-1 5 -11 46zM580 1237q0 -2 -7 -2q9 -24 21 -45q2 -6 10 -6v12q0 4 -1 17t-1 20q-3 21 -7 65t-7 66q0 4 -8 12q0 3 -8 2l-9 -2q2 -6 6 -14q4 -12 4 -16v-35q1 -13 3.5 -37.5t3.5 -36.5zM604 1034q2 -39 6 -88q0 -6 2 -8l6 -6q5 5 5 6v37q0 7 -1 18.5 t-1 20t2 14.5q1 4 4 11.5t2 11t-8 6.5q-1 1 -1 6t1 8q7 13 6.5 17.5t-8 14.5t-9.5 15q-1 1 -5.5 2t-6.5 2q-2 -4 -2 -12q8 -54 8 -76zM156 305q1 -7 18 -96q1 -4 2 -11.5t2 -11.5q2 -6 10 -10q0 2 1 7t1 7q-3 15 -8 48t-8 51q-1 3 -4.5 10.5t-1.5 7.5h12v8q-2 0 -9.5 1.5 t-10.5 0.5q-4 0 -4 -12zM100 543v-21q2 -2 6 -10q1 1 4 5.5t3 6.5q0 6 -2 17t-2 14q0 19 -3 31q-1 -5 -3 -16.5t-3 -16.5v-10zM145 428q1 -3 4 -7.5t4.5 -8t2.5 -6.5q2 2 6.5 6t7.5 7t4 7q4 7 -1.5 11.5t-14.5 4.5q-1 0 -3 -2t-5 -6t-5 -6zM119 649v15q0 3 -2 6.5t-2 5.5 q-6 -6 -6 -12v-54q0 -2 6 -8q6 6 6 8q0 6 -1 19.5t-1 19.5zM582 1151q3 -2 8 -6t8 -5.5t6 -0.5q4 0 8 12q0 4 -8 12q-3 0 -5.5 -1.5t-7 -5t-9.5 -5.5zM633 881q-5 10 -8 22q-9 -13 -9 -18q-2 -3 9 -19q6 12 8 15zM164 356q-8 20 -8 27q-4 -12 -4 -27q0 -4 2 -8l2 -4 q3 1 8 12zM582 1409q-3 9 -7 25h-2q0 -21 2 -27q0 -1 1 -2t2 -2.5t2 -3.5q0 6 2 10zM616 827q1 -2 4.5 -6t4.5 -6q3 6 2 8q0 3 -4 23q-1 -3 -3.5 -9.5t-3.5 -9.5zM625 401q-3 3 -11 15q-1 -2 -3.5 -7.5t-2.5 -7.5q0 -4 6 -10q1 1 5 4.5t6 5.5zM96 451q2 -2 3.5 -4t2.5 -3.5 t2 -1.5q5 0 5 7t-3 10q-5 0 -10 -8zM109 483h-9q-2 -2 -2 -4l4 -4q6 6 7 8zM618 639q3 0 3 2h-3q-2 0 -2 -2h2zM121 727v-2l2 2h-2z" />
<glyph unicode="R" horiz-adv-x="667" d="M188 627q0 -33 -0.5 -93t-0.5 -108.5t1 -91.5q1 -30 7.5 -85t7.5 -75q1 -7 -4 -29q-2 -4 -7.5 -14.5t-7.5 -17.5q-9 -28 -23 -33.5t-40 8.5q-10 6 -33 10q-18 3 -30 14.5t-13 28.5q-8 74 -10 111q-9 136 -15 274q-2 59 -2 179q1 48 2.5 142.5t2.5 141.5q4 75 16 217 q4 101 10 150q5 46 25 100q11 31 53 27q65 -10 113 22q22 11 39 11q52 0 75 -1t62 -11t67 -31q3 -3 17.5 -13.5t21.5 -17.5q14 -14 17 -29q13 -87 -35 -143q-27 -29 -78.5 -91.5t-77.5 -91.5q-19 -22 -72 -71q-17 -13 -2 -23q50 -31 99 -106q14 -25 39 -74.5t37 -71.5 q4 -7 16 -28.5t18 -34.5q33 -70 41 -139q1 -10 7.5 -30t7.5 -30q0 -2 12 -80q3 -16 14.5 -71t16.5 -86q2 -12 4 -37t2 -27q1 -7 5 -24.5t5 -26.5q0 -8 -2 -25.5t-2 -25.5q-4 -51 -23 -76q-19 -22 -47 -12q-8 2 -21.5 6.5t-25 7.5t-22.5 4q-30 3 -33 33q-14 68 -14 86 q0 173 -43 330q-47 180 -117 317q-15 35 -35 68q-2 3 -8.5 7t-9.5 7q-1 -3 -4 -10t-3 -10v-207zM133 309h-2h2zM385 1366q-2 6 -6.5 21.5t-9 25t-11.5 12.5q-42 23 -86 2q-21 -10 -18 -32q0 -6 -2 -19t-2 -20q-2 -14 -2 -45t-2 -45q-5 -23 -19 -75.5t-20 -80.5q-1 -4 4 -25 q2 1 12 6.5t13 10.5q58 68 69 82q70 90 80 182zM76 352h-2q9 -86 18 -168q2 -6 12 -16q5 15 5 18q-1 28 -11 170q-1 8 -1.5 34t-2.5 40q-8 54 -4 195q0 28 -12 82q0 4 -8 8q0 -2 -2 -5t-2 -5q0 -17 -0.5 -49.5t-0.5 -52.5t1 -47.5t4 -51.5q3 -23 4 -48.5t1 -56.5t1 -47z M143 250q-1 0 -2 1t-2 1q-2 -2 -2 -4l2 -2z" />
<glyph unicode="S" horiz-adv-x="628" d="M406 492q0 135 -27 368q-2 20 -7 40.5t-16 51.5t-14 41q-9 35 -14 49q-16 27 -43 23q-74 -6 -138 31l-12 18q-5 9 -10 12q-12 1 -21 5.5t-14 9t-8 15t-4 15.5t-2.5 18t-1.5 17q-8 64 -4 156q3 58 43 127q5 9 22 18q10 3 30 10.5t33 11.5t30.5 8t34.5 3t34 -6 q19 -6 156 -37q51 -11 90 -84q11 -19 -2 -37q-3 -4 -15.5 -4t-19.5 4q-13 8 -42 30t-46 32q-14 9 -60 18q-1 0 -53 6q-28 0 -37 -24q-2 -2 -5 -8.5t-5 -8.5q-48 -48 -41 -145q4 -40 4 -57q2 -25 9 -33.5t30 -9.5q102 -6 191 -70l12 -12q8 -15 34 -61.5t39.5 -79t18.5 -68.5 q25 -156 27 -191q2 -28 3 -60t1.5 -70.5t1.5 -59.5q0 -16 1.5 -64t0.5 -75q-3 -41 -7 -74t-14 -77.5t-24.5 -78t-40 -65.5t-58.5 -50q-76 -44 -181 -19.5t-152 97.5q-59 88 -82 178q-26 91 8 203q15 46 47 105q18 34 70 41q15 4 49 8q23 2 31.5 -9.5t-0.5 -33.5 q-5 -10 -9 -12q-83 -104 -67 -261q2 -15 4 -46t4 -46q2 -7 27 -65q1 -3 4 -8.5t4 -8.5q13 -30 23.5 -34t41.5 8q54 22 62 24q38 11 49 66q27 141 27 285zM133 608h2h-2zM510 342h-4q-4 56 -8 90q0 2 -4 10q-9 -9 -9 -12q0 -10 1 -29.5t1 -35.5t-2 -31q-1 -8 -24 -191 q0 -4 1 -9t2.5 -11.5t2.5 -9.5q15 20 16 26q16 106 27 203zM459 283q0 2 -2 2q0 3 1 9t1 9q0 2 -4 14l-6 -12q-17 -84 -27 -151q-1 -3 0.5 -10.5t1.5 -10.5q14 14 16 17q1 1 2 5.5t2 6.5q2 21 7.5 61t7.5 60zM70 438q2 -10 2 -18l6 6q28 72 43 123q2 4 -2 12q-2 -4 -8 -10 q-11 -24 -21 -55q-4 -11 -11 -31.5t-9 -26.5zM444 367l2 -2v-7q1 -4 4.5 -11t4.5 -11q1 4 4 11t4 11q0 5 -2 7q-1 5 -3 16t-3 16q-10 -25 -11 -30zM104 590q6 -6 7 -4q1 0 3.5 2t2.5 4l-4 4q-6 0 -9 -6z" />
<glyph unicode="T" horiz-adv-x="557" d="M-10 1436q12 3 42.5 10t47.5 10q18 5 52 14.5t52 14.5q16 5 21 16q20 32 39.5 39.5t52.5 -8.5q15 -7 29.5 -8.5t34.5 0.5t28 2q63 0 195 4q3 0 9 -2t9 -2q27 -8 25 -27q0 -12 -9.5 -22t-21.5 -13q-31 -6 -95 -19.5t-95 -19.5q-25 -6 -30.5 -12t-8.5 -31q0 -4 -1.5 -24 t-3.5 -29q-5 -34 -16 -101.5t-16 -101.5q-4 -40 -4 -63q-5 -64 -15.5 -190t-15.5 -189q-1 -3 -1 -19.5t-3 -23.5q-14 -29 0 -43v-6q-7 -24 -7 -70.5t-3 -66.5q-5 -33 -5 -117q-2 -45 -5 -135t-5 -135q-3 -30 -12 -56q-6 -12 -16 -12q-3 0 -17 14q-1 1 -2 5t-2 6 q-6 -3 -10 -11q-12 -21 -29 -4q-18 18 -43 21q-17 3 -27 20.5t-8 38.5q3 31 8.5 94t8.5 95q1 13 1 38.5t1 38.5q2 40 6 121t6 121q2 34 7 100.5t7 100.5q2 32 6.5 92.5t6.5 87.5q3 47 10 135.5t10 130.5q2 35 10 96q0 15 -4 20.5t-18 2.5q-45 -10 -80 -10q-8 0 -16.5 2 t-19 5.5t-15.5 4.5q-12 3 -39.5 8t-42.5 8l-12 -6q-19 -14 -27 10q-3 14 4 28t21 18q13 5 49 10q0 -4 2 -6zM205 135q4 -46 4 -67q3 -18 18 -11q1 0 3.5 5t2.5 8q0 100 3 120q3 15 5 30.5t3 33t1.5 30t0.5 33t0.5 30t-0.5 33t-1.5 30t-1.5 32.5t-1 31q0 8 -2 12q0 4 -7 4 q-4 0 -4 -4q-2 -4 -2 -12v-154q0 -11 -4.5 -32t-5.5 -29q-4 -37 -8 -111l-6 -12h-6h8zM154 254h2q0 -12 -1 -33t-1 -33l6 -12q1 1 4.5 5.5t3.5 6.5q2 11 4 34t4 34q1 9 4 24t4 21q2 4 2 16q0 5 -2 19.5t-2 21t2.5 17.5t8.5 20v15q-1 5 -2.5 15.5t-2.5 16.5q-1 41 7 118 t8 112q-1 17 0.5 46t1.5 38q3 8 -4 14l-8 8q-1 -2 -4 -5.5t-3 -4.5q-1 -20 -4 -54t-5 -62t-3 -52q-8 -112 -20 -346zM186 850q5 -5 9 -8l4 -4l4 6q0 8 -4 8q-2 2 -13 -2zM211 940l8 8q0 1 -1 3t-1 3q-1 -1 -3 -1.5t-3 -1t-2 -1.5t2 -10zM246 588q0 -4 2 -4t4 2l-4 4z M152 633l4 4q-2 0 -2 2l-4 -4q2 0 2 -2z" />
<glyph unicode="U" horiz-adv-x="759" d="M35 516q0 17 -1 49t-1 58t2 49q4 63 20 180q13 156 27 293q3 36 13.5 102t13.5 94v35q-3 50 14 72t65 31q34 8 70 -18t39 -64q3 -48 -4 -103q-6 -37 -20.5 -111.5t-20.5 -111.5q-18 -135 -25 -227q-21 -173 -26 -301q-3 -18 -0.5 -105.5t2.5 -103.5q1 -8 5 -28t5 -30 q17 17 37 41q37 42 69 146q11 37 28 102.5t32 119t31 99.5q15 51 29.5 147.5t21.5 129.5q6 53 24 102q8 21 12.5 47.5t6 45t2.5 50.5t2 46q1 7 1 22.5t1 22.5q0 46 51 53q51 4 74 -8q14 -7 20 -19q59 -91 37 -188q-3 -13 -4 -27.5t-1 -32.5t-1 -28q-1 -17 -4.5 -48.5 t-5.5 -57.5t-2 -50q-2 -33 -5 -99t-5 -99q-2 -39 -10.5 -149.5t-10.5 -170.5q-4 -76 0 -229q1 -16 4.5 -68t3.5 -80q0 -10 -6.5 -22.5t-15.5 -16.5q-13 -9 -47 0q-22 10 -54 31q-10 6 -16 16q-3 10 -3.5 12t-3.5 7.5t-8.5 4.5t-13.5 -7q-6 -4 -18 11.5t-14 29.5 q-1 19 -3.5 55.5t-3.5 54.5q0 12 0.5 36t0.5 44.5t-1 38.5q0 1 -6 19q-1 -3 -5 -8.5t-5 -8.5q-20 -84 -100 -207q-9 -15 -24.5 -27t-39.5 -26t-35 -22q-6 -6 -18 -2q-8 3 -24 7t-25.5 7.5t-20 13t-14.5 23.5q-2 11 -8.5 15t-14.5 -11q-2 -1 -8 -0.5t-8 2.5q-10 21 -12 27 q-44 142 -41 323zM537 373q-2 -4 -2 -11q4 -34 8 -51q1 9 5 25.5t5 25.5q3 56 16 203q2 38 6.5 116t6.5 116q0 3 -1 8t-1 8q-11 -11 -11 -12q-2 -9 -5 -31t-5 -31q-22 -133 -22 -366zM115 520h2v-61q0 -2 2.5 -5.5t3.5 -4.5q1 1 2 3l1.5 3t0.5 2q2 33 5 97t5 97q0 2 -2 7.5 t-2 7.5q-6 -12 -6 -15q-1 -7 -12 -131zM86 530q-1 5 -2 17t-2 18q0 1 -1 2.5t-2.5 3.5t-2.5 4q-8 -8 -8 -10q0 -67 2 -102q0 -2 6 -8q2 4 2 8q3 37 8 67zM496 291q6 6 6 10v6l-8 -2q0 -2 1 -6.5t1 -7.5zM508 541h2q4 4 4 8q0 2 -1 6t-1 6q-4 -8 -4 -10v-10zM510 449 q0 2 -1 4.5t-1 3.5q-5 -3 -8 -8q0 -1 4 -9q6 6 6 9zM121 403l6 3q0 6 -2 10l-4 -4v-9zM498 336h6q0 1 -1 3t-1 3q-1 0 -2 -1t-2 -1v-4zM86 694v6q0 3 -2 5q-2 -2 -2 -7zM80 653q0 1 1 2t1 2t-4 5l-4 -5q4 -4 6 -4zM82 610l-4 4l-2 -2v-6q1 1 3 2t3 2zM516 664l2 2l-2 2 q0 -2 -2 -4h2zM436 705q-2 0 -2 2l-2 -2q0 -3 2 -3q0 1 2 3zM541 270v-2h2zM442 430h2v4l-2 -2v-2z" />
<glyph unicode="V" horiz-adv-x="702" d="M223 1325q0 -129 2 -195q1 -17 4 -48t4 -48q2 -27 4.5 -82t4.5 -82q4 -47 16 -153q1 -12 4 -34t4 -34q4 -12 4 -14q8 4 11 14q5 21 13 66.5t13 66.5q8 47 20.5 102.5t22 94t26.5 103.5t25 96q10 31 68 249q3 27 12 60q12 20 23 31q7 5 24 8v-23q2 -4 8 -7l5 -3 q1 -1 4.5 1t5.5 5q7 9 14 14.5t16.5 7t15 2t17.5 0t17 -0.5q19 0 27.5 -14.5t3.5 -37.5q-3 -10 -9 -35t-12 -40q-4 -13 -15.5 -36t-13.5 -28q-34 -135 -51 -186q-22 -83 -35 -127q-3 -13 -6 -34l-4 -28q-17 -106 -39 -215q-1 -13 -10 -47q-1 -7 -6.5 -22.5t-6.5 -23.5t3 -27 q5 -3 0 -17q-2 -15 -15.5 -100.5t-19.5 -130.5q-15 -84 -39 -271q-4 -29 -16 -84q-3 -8 -10 -13.5t-13 -4.5q-36 3 -74 12q-41 16 -63 23q-34 11 -37 49q-8 55 -31 254q-20 153 -39 332q-37 309 -47 401q-5 43 -9.5 120.5t-6.5 102.5q-6 50 -6 103q0 10 12 22q34 23 85.5 16 t74.5 -32q13 -11 18 -47v-31h2zM504 1266q1 5 4.5 14t5.5 16t2 11q1 3 12 14q4 -12 4 -18q-2 -11 -6 -35.5t-6 -36.5q0 -2 8 -14q11 11 11 12q9 53 18 102q1 3 -2 7.5t-6 4.5q-13 3 -15 13.5t3 23.5q1 8 3 23.5t3 23.5q1 5 2 17t2 16q-9 -5 -31 -22q0 -4 -4 -8 q-15 -47 -39 -132q-1 -6 -3.5 -24t-4.5 -26t-7.5 -19.5t-15.5 -18.5q-2 -4 -2 -16q-4 -12 -14 -55q-4 -20 -15.5 -55.5t-15.5 -53.5q-14 -65 -26 -133q-5 -27 -21 -92q-11 -70 -16 -113v-22q7 10 10 20q28 97 29 101q1 3 10.5 36t13.5 50q1 3 -10 20q35 27 31 61q-2 4 2 15 q61 220 76 276q0 1 4.5 7.5t5.5 9.5zM487 1079q5 5 5 8v7q-5 0 -9 -4q0 -3 4 -11zM569 1386q0 -4 4 -4q2 0 2 4q-1 1 -2 2.5t-2 2.5q-2 -2 -2 -5zM483 1057l2 2h-2v-2zM328 643v4l-2 -2z" />
<glyph unicode="W" horiz-adv-x="1062" d="M96 182q3 78 0 156q0 11 -6 164q-12 198 -22 295q0 18 -4 54.5t-5 51.5q-2 34 -6.5 131t-9.5 154q-4 30 -8 94q0 23 10 44t27 28q43 29 78 37q24 2 59 -15q13 -3 23.5 -12.5t11.5 -20.5q3 -9 3.5 -21.5t0 -21.5t-2 -26t-1.5 -23t-2.5 -22t-1.5 -21q-3 -39 -5.5 -115.5 t-5.5 -115.5q-3 -32 3 -88t6 -78q1 -15 4 -39.5t4 -34.5q0 -3 2 -9t2 -9q8 12 12 20q14 50 23 88q18 72 52.5 201.5t47.5 179.5q1 4 7.5 23.5t8.5 32.5q3 12 11.5 17.5t17.5 2.5q21 7 39 16q7 0 20 7t20.5 9t20.5 -7q3 -1 18.5 -2t22.5 -7q6 -8 10 -19.5t6 -19t5 -22.5 l4 -20q12 -140 20 -215q1 -9 2.5 -32t2.5 -34q6 -53 16 -111q3 -27 7 -81.5t7 -81.5q1 -12 5.5 -34.5t5.5 -31.5q0 -8 2 -8q8 8 8 10q1 4 12 59q12 52 33.5 152.5t32.5 146.5q69 261 110 404q4 12 8.5 26t11 31t9.5 27q10 20 25.5 29t33.5 2q1 0 4 -1t4 -1q19 16 43 16 q4 1 12 3.5t12 3t11 -0.5q19 -1 23.5 -16t-6.5 -35q-32 -42 -64 -143q-1 -6 -5.5 -27.5t-7 -31.5t-8 -26t-12.5 -28q-11 -15 -14 -42.5t-8 -37.5q-7 -15 -12.5 -46t-8.5 -40q-7 -20 -13.5 -63.5t-14.5 -67.5q-6 -9 -12.5 -29.5t-8.5 -25.5l-4 -9q9 -9 0.5 -48t-8.5 -46 q0 -8 -2 -16.5t-4.5 -14.5t-7 -17t-7.5 -17q-13 -21 -6 -35q8 -5 0 -19q-3 -12 -6 -43.5t-10 -48.5q-6 -13 -7 -37t-3 -34q-3 -20 -10.5 -61.5t-10.5 -61.5q0 -23 -4 -31q-4 -25 -10 -66.5t-10.5 -75.5t-8.5 -65v-6q-6 -30 -8 -33q-24 -12 -35 -12q-8 1 -24.5 1t-29 2.5 t-21.5 10.5q-9 9 -27 2q-28 -6 -31 25q-4 24 -12 66.5t-14.5 79t-10.5 69.5q-20 156 -47 422q-9 54 -18 176q-1 3 -4 8t-4 8q-6 -9 -6 -18q-38 -131 -56 -199q-10 -33 -26.5 -95t-24.5 -89q-5 -23 -22.5 -87t-24.5 -99q-11 -41 -14 -93q-4 -14 -9.5 -42t-9.5 -42 q-6 -27 -49 -30q-24 9 -27 12q-25 5 -32 4q-32 -8 -47.5 4t-12.5 45zM721 608v-2v-2v4zM702 500q-4 0 -4 2q0 -2 4 -2v-2v2zM735 514v-14h2q-2 4 -2 14q15 7 17 14q1 4 2 9q2 21 16.5 77t11.5 88q0 5 4 9q27 30 17 63q0 15 4 23q4 16 19.5 65t21.5 76q3 8 6.5 34t11.5 40 q-7 10 8 49q4 12 10.5 44.5t14.5 51.5q11 24 29 117q6 17 20 90q2 4 -2 12q0 -8 -8 -12q-20 -42 -27 -68q-8 -39 -26 -106.5t-23 -87.5q-5 -24 -21 -86t-22 -96q-12 -69 -22 -111q-4 -16 -25 -123q-6 -23 -37 -172zM854 1108l-6 8q-6 9 -10 10q-21 -3 -27 -28q0 -13 -2 -21 q0 -44 -10 -69q-19 -49 -19 -93q-1 -15 -8 -40t-8 -33q1 -11 -6 -34.5t-8 -31.5q-1 -4 2 -10q12 0 12 4q8 8 12 27q1 4 2 13.5t2 14.5q10 46 32 127.5t28 106.5q1 3 3.5 10t2.5 10q3 9 8 29zM850 1147q5 8 8 16q13 29 21 56q19 56 24 94q3 5 -8 22q-6 -6 -6 -18 q-14 -35 -17 -70q-21 -60 -24 -84q-2 -2 2 -16zM739 723q1 -3 2 -5.5t3.5 -6t3.5 -6.5q1 6 5 17t5 15q1 2 0 3.5t-4 3.5l-2 1q-8 -12 -13 -22zM727 575q-3 0 -10 3.5t-8 3.5q0 -5 -4 -21q0 -3 10 -6q1 3 5 8.5t7 11.5zM911 1348q0 2 2 7t2 7q-2 2 -2 4q-3 -3 -7 -6t-5 -4 q0 -5 10 -8zM737 670q4 8 8 12q-2 5 -12 8v-6q0 -10 4 -14zM950 1395l4 4v8l-4 -2v-10zM281 600q4 4 4 0v4h-2q0 -2 -2 -4zM672 545h2v4q-2 -2 -4 -2zM725 428h-4l2 -2z" />
<glyph unicode="X" horiz-adv-x="604" d="M133 528q1 4 4 17.5t6 19.5q40 70 15 156q-37 131 -103 397q-17 66 -35 166q-10 45 -26 135q-5 18 16 27q54 22 131 4q67 -21 64 -84q0 -38 20 -80q7 -19 11 -63q2 -38 14 -103q1 -10 3 -21t5 -24.5t4 -21.5q5 -14 8 -19q2 3 6.5 8.5t6.5 8.5q4 6 12 22q35 99 84 227 q40 108 53 132q4 9 19 15.5t28 6.5q38 4 62 -18q18 -20 26.5 -30t15.5 -29t3 -38q0 -18 -4 -24q-26 -45 -58 -135.5t-41 -112.5q-8 -19 -34.5 -78.5t-43 -99.5t-30.5 -80q-1 -4 -8.5 -25.5t-9.5 -28.5t-7 -25.5t-5.5 -29t-1 -26.5t3 -30t9.5 -28q5 -15 2 -18 q-3 -15 -2 -21.5t6.5 -19.5t6.5 -18q4 -14 13 -41.5t13 -42.5q28 -120 31 -131q5 -21 -14 -29l2 4q-1 2 -2 6t-2 6h-2q0 -4 4 -12v-4q9 -14 12 -14q21 3 25 -19q8 -31 14 -65q-3 5 -9.5 15t-9.5 15q-6 6 -12 9q-4 -8 -4 -15q4 -18 10 -31q2 -3 8 -7t7 -5q3 5 8 19 q2 -3 15.5 -25t17.5 -37q4 -19 36 -76l3 -6l3.5 -7t0.5 -5q0 -1 -17 -29q-3 3 -9 10.5t-9 10.5q-2 2 -17 12q0 -12 -2 -18q0 -17 -2 -17q-3 0 -8 -1t-9 -1t-7 2q-8 7 -23 31q-10 13 -18 13t-17 -13q-6 -6 -8 -6q-35 17 -37 18q-5 2 -8 4.5t-4 6.5t-2 7t-1.5 9t-0.5 8 q-31 104 -41 145q-5 16 -15.5 48.5t-15.5 48.5q-11 36 -20 59q0 1 -13 14q-4 -4 -12 -16q-37 -96 -49 -127q-17 -47 -86 -242q-4 -12 -8 -36q-6 -21 -22.5 -30t-37.5 -3q-9 2 -30 8t-33 8q-11 3 -19 9.5t-18 19.5t-12 16q-7 8 -3.5 16t13.5 13q0 -8 2 -12q6 0 10 4 q6 9 21 39q37 101 57 163q1 0 3 -1t3 -1q-1 0 -3 1t-3 1q33 82 57 134q2 5 23 26q-1 -2 -4 -5t-4 -5t-2 -7.5t-2 -8.5h10q4 12 4 18q0 1 -1 3.5t-1 4.5q-2 0 -2 4q-6 7 10 19t-4 20q4 8 13.5 24.5t13.5 24.5q6 -4 16 -14q1 3 4 9t4 9q2 3 5.5 11t6.5 12.5t7 5.5q12 6 6 21 v20q0 1 -1 4.5t-1 5.5q-1 -1 -4 -3t-4 -3q-22 -33 -23 -35zM426 121q0 -6 2 -6l12 -6l2 2q-6 6 -10 8q-2 2 -8 2v-2zM270 487q17 -96 23 -118q2 -10 41 -123q4 -13 12 -37.5t12 -36.5q2 -3 7.5 -9t7.5 -9l12 18q11 23 14 23q16 4 17.5 11.5t-6.5 16.5q-5 7 -14.5 17.5 t-12.5 13.5q-2 3 -7 9.5t-7.5 10.5t-1.5 7q3 9 3 18.5t-1.5 21t-1.5 17.5q3 23 -2 39q-5 26 -19 57q-5 10 -10 10q-19 -2 -23 19q-2 8 -5 25.5t-5 25.5q-2 6 -12 16q-2 -2 -7.5 -6t-7.5 -6q-6 -18 -6 -31zM170 358q-2 3 -8 10.5t-8 10.5q-2 -4 -7 -11t-6 -10q-3 -7 -7 -20.5 t-7 -20.5q-6 -19 -23 -64t-24 -69q-1 -1 1 -6q1 -4 1 -6q2 1 4.5 1.5t4 1t1.5 1.5q18 32 23 43q8 20 24.5 59.5t24.5 59.5q4 12 6 20zM106 319q3 4 6 9.5t5.5 8.5t4.5 6.5t3 6.5q2 3 -10 15q-2 -5 -6.5 -15.5t-6.5 -15.5q0 -1 0.5 -3t1.5 -5.5t2 -6.5zM59 182q11 16 11 17 l-4 4q-12 -12 -13 -15zM475 90q2 3 4 6.5t3 5t1 2.5q-1 3 -5 8.5t-5 8.5q-10 -10 -10 -12q2 -5 12 -19zM399 375q-8 12 -12 16l-4 -4q2 -4 6 -12.5t6 -12.5q0 1 4 13zM135 383q8 12 10 14l-8 4q-2 -2 -5 -6t-5 -6q4 -4 8 -6zM360 459q3 -3 8 -7t7 -6l4 7q-8 8 -12 14l-3 -3 q-2 -4 -4 -5zM86 252l-2 6q-4 -2 -6 -4l2 -4q1 0 3 1t3 1zM184 406q6 3 6 6q1 1 -0.5 3t-1.5 3q-6 0 -6 -4q-1 -1 -0.5 -2t1.5 -2.5t1 -3.5zM68 317v2h-2l-3 -2h5zM96 295h2v2h-2v-2zM426 160q1 1 2 3l1.5 3t0.5 2q-2 2 -4 2l-4 -4q0 -2 4 -6zM20 205q0 2 -2 4l-2 -2v-4 q4 0 4 2z" />
<glyph unicode="Y" horiz-adv-x="741" d="M27 754q1 58 2 174t2 174q0 108 6 219q3 53 22 84q19 33 70 25q58 -4 80 -52q5 -8 10 -43q-1 -5 -3 -18l-3 -19.5t-2.5 -18.5t-1 -20t2.5 -19.5t5 -22.5q5 -4 0.5 -26.5t-4.5 -27.5q-34 -175 -20 -424q3 -27 14 -51q3 4 14 14t15 17q62 111 98 184q52 117 82 205 q2 5 10 29.5t10.5 32t9 28.5t9 33t6.5 30t6.5 34t3.5 32q6 86 59 113q4 4 11 4q17 -10 53 -8.5t53 -10.5q28 -19 33.5 -40.5t-0.5 -59.5q-3 -63 -33 -348q-15 -144 -22 -238q-11 -264 -13 -282q0 -10 -0.5 -43.5t-1.5 -49t-5 -40.5t-11 -45q-2 -5 -0.5 -23t0.5 -25 q0 -61 2 -92q-2 -16 2 -53q5 -34 -2.5 -49t-32.5 -19q-17 -3 -39 15q-18 8 -46 27t-34 22q-29 12 -26 45l6 129q6 48 6 49q12 154 16 227q2 37 7 224q2 5 -7 22q-1 -1 -7 -4.5t-7 -7.5q-13 -21 -34 -61.5t-33 -59.5q-22 -38 -82 -129q-19 -28 -53.5 -35.5t-63.5 11.5 q-24 21 -62 36q-32 9 -45 58q-10 42 -16 82q-4 18 -7.5 49t-4.5 37h-4zM489 653q-8 28 -8 41q-4 0 -4 -2q4 -22 12 -39q-13 0 -21.5 -11.5t-2.5 -27.5q7 -38 -1 -102.5t-7 -87.5q1 -44 -5.5 -124t-7.5 -110q0 -29 2 -43q0 -3 11 -8q3 10 22 54q-3 10 0 20q1 -2 5 -5.5 t5 -6.5q13 -6 15 -11q2 5 3.5 13t2.5 10q1 23 4.5 94t3.5 109q6 74 6 219q0 3 -3 11.5t-3 10.5q-2 -4 -6.5 -10.5t-5.5 -9.5q-2 -12 -3 -37t-3 -37q-1 -2 -3 -8t-3 -8q0 1 -5.5 6.5t-5.5 9.5q3 47 6 90zM530 834q0 5 -1 13.5t-1 12.5q0 3 -1 5.5t-2.5 6t-2.5 5.5 q-8 -8 -8 -15q-1 -12 -2.5 -35t-2.5 -41t-1 -34q0 -10 1 -33t1 -33q0 -5 10 -12q0 -2 1.5 -0.5t0.5 2.5q17 38 17 49q0 23 -4 61t-5 48zM553 262q-2 0 -2 -4q2 -2 4 -2q2 2 2 4q-2 2 -4 2zM477 801l4 -4q0 1 1 3t1 3q-2 2 -4 2q-2 -2 -2 -4zM483 733l-4 4v-2q0 -1 1 -2t1 -2 q2 0 2 2z" />
<glyph unicode="Z" horiz-adv-x="604" d="M309 158q68 -8 142 18q4 2 9 2t10.5 -1t8.5 -1l10 -5t13 -3q14 0 30 -16.5t19 -18.5q3 -1 3.5 -8t-1.5 -8q-33 -25 -49 -29q-85 -21 -221 -25h-86h-13q-70 -9 -116 39q-7 5 -24 13t-24 12q-30 20 -35 39t9 55q44 119 72 205q11 43 33 123.5t26 93.5q7 32 23.5 100.5 t23.5 104.5q9 46 27.5 139t27.5 139q19 103 33 203q1 23 -3 28t-24 7q-68 3 -149 29q-9 4 -20 6.5t-25 5t-23 4.5q-4 0 -10 6.5t-6 11.5q0 17 12 29q9 9 21.5 13t20.5 5t24 0t20 -1q26 -1 80 -6.5t80 -6.5h73t89 -4q33 -5 53.5 -32.5t11.5 -67.5q-9 -39 -27.5 -123 t-29.5 -127q-5 -21 -29.5 -102.5t-33.5 -126.5q-7 -27 -22 -90.5t-24 -96.5q-21 -87 -55 -201q-7 -36 -22 -96q-6 -23 -19 -66t-18 -59q-3 -8 -19 -82q-8 -28 19 -28h104zM231 836v16q0 2 -2.5 8t-3.5 8q-2 -3 -6 -7t-6 -7q-2 -4 -6 -16q-7 -37 -41 -185q-32 -164 -86 -291 q-2 -6 -2 -20q-6 -21 -6 -43q-1 -8 -7.5 -32.5t-7.5 -37.5q0 -6 7 -17.5t8 -16.5q3 3 8 7t8.5 7.5t5.5 7.5q14 53 21 86q19 61 22 78q7 21 18.5 67t18.5 68q10 30 20.5 92.5t20.5 93.5q7 18 10 41t4 52.5t2 40.5zM244 606q1 0 2.5 -1t3.5 -1l2 4q-1 1 -3 2t-3 2q0 -2 -2 -6z " />
<glyph unicode="[" horiz-adv-x="559" d="M287 -84q58 16 127 33q2 0 4.5 1t3.5 1q20 -7 73.5 -7.5t79.5 -15.5q18 -12 15 -18q-8 -31 22 -41q5 -1 15 -12q-3 -1 -8.5 -5.5t-8.5 -5.5q-18 -4 -74 -18.5t-87 -20.5q-27 -5 -58.5 -10t-70.5 -11t-60 -9q-30 -10 -35 -15q-51 -41 -94 -20q-34 15 -70 51 q-49 49 -49 123q1 85 -2.5 243.5t-3.5 225.5q0 103 12 307q5 54 17 153.5t16 135.5q5 52 14.5 155.5t14.5 155.5q5 49 29 236q5 50 4 61q0 28 9.5 36t37.5 5q6 -1 35.5 -3.5t41 -4t34.5 -5t40.5 -9t34.5 -13.5q5 -3 19 -2.5t22 -1.5q27 -11 31 -20q4 -6 20 -55q-5 -1 -16 -5 t-20 -6t-17 -2q-25 2 -80 10q-25 3 -31 -22q-3 -24 -12 -74t-12 -76q-22 -144 -29 -233q-3 -30 -6 -89t-6 -89q-3 -25 -12.5 -75.5t-12.5 -76.5q-6 -49 -10 -147q-4 -54 -8 -166q-1 -22 0 -67t0 -68q-1 -12 -6 -36.5t-6 -37.5q-3 -27 0 -57q0 -79 6 -158q0 -17 2 -51t2 -51 q3 -30 33 -27q25 2 90 10v-6zM575 -98l3 2h-3v-2z" />
<glyph unicode="\" horiz-adv-x="612" d="M594 174v-16q12 -84 -6 -127q-10 -29 -19 -29q-19 0 -28 -22q-3 -13 -19.5 -20.5t-29.5 -2.5q-11 4 -15.5 10.5t-4.5 14.5t1 18q2 24 -2 72q-13 63 -29 110q-20 71 -49 146q-9 25 -20.5 52.5t-26 60t-22.5 51.5q-27 78 -43 120q-23 68 -68.5 191.5t-56.5 154.5 q-2 8 -2 25.5t-2 24.5q-7 19 -23 56.5t-23 55.5q-17 44 -79 201q-21 66 -33 92q-29 73 12 127q26 34 45 45q11 10 47 14q3 0 8 -8.5t7 -13.5q11 -31 69 -178q108 -287 129 -346q78 -212 115 -318q3 -10 17 -47t20 -57q2 -6 67 -203q57 -172 64 -254zM326 678q-2 2 -2 4 q-7 7 -15 23v-3q7 -15 17 -22q0 -25 2 -35q50 -151 63 -184q5 -20 6 -23q1 -2 3 -4t4.5 -3.5t3.5 -2.5v14v11q-17 40 -64 170q-1 6 -9 13t-9 9v33zM569 135l-18 63t-21.5 76t-15.5 64q-6 31 -43 131q-51 138 -55 149q-4 4 -4 13q-8 50 -43 139.5t-39 101.5q-4 13 -29 89 q-4 12 -13.5 35t-13.5 34q-3 5 -10.5 24.5t-13.5 28.5q-1 3 -8 10t-9 11q0 -4 -1.5 -13t-0.5 -14q5 -12 14.5 -36.5t14.5 -36.5q7 -20 19.5 -59t19.5 -60q9 -25 29.5 -76t29.5 -76q2 -10 2 -31q7 -33 17 -63q9 -27 28 -77t33 -90t25 -77q7 -20 29 -77t34.5 -98.5t18.5 -82.5 q0 -2 12 -55q0 -1 2.5 -5t3.5 -7q6 9 6 12q-2 18 -2 51q2 0 2 2zM287 764q6 6 6 10q-6 18 -41 111q0 4 -8 8v-12q2 -6 37 -103q4 -8 6 -14zM215 967q6 15 6 16q0 3 -2.5 11t-3.5 10q-1 -2 -5.5 -5t-4.5 -4q3 -5 10 -28zM442 324q1 -1 2 -4t2 -5l3 7q0 1 -5 6q0 -1 -1 -2 t-1 -2zM233 940q-3 -9 -2 -10q0 -1 5 -6q0 1 1 3t1 3t-2 4t-3 6zM301 731v8q0 6 -6 6v-8q0 -3 6 -6z" />
<glyph unicode="]" horiz-adv-x="559" d="M346 -84v6q65 -8 90 -10q30 -3 33 27q0 17 2 51t2 51q6 79 6 158q3 30 0 57q-1 12 -6 37t-6 37q-1 22 0 67t0 68q-4 112 -8 166q-4 98 -10 147q-3 26 -12.5 76.5t-12.5 75.5q-3 30 -6 89.5t-6 88.5q-7 89 -29 233q-3 26 -12.5 76t-12.5 74q-5 25 -30 22q-55 -8 -80 -10 q-8 0 -17 2t-20 6t-16 5q16 49 20 55q4 9 31 20q6 2 22 1.5t19 2.5q17 8 34.5 13.5t40.5 9t34.5 5t41 4t35.5 3.5q28 3 37.5 -5t9.5 -36q-1 -11 4 -61q24 -187 29 -236q5 -52 14.5 -155.5t14.5 -155.5q3 -31 15 -132.5t17 -156.5q13 -221 13 -307q0 -67 -3.5 -225.5 t-2.5 -243.5q0 -73 -50 -123q-37 -37 -69 -51q-43 -21 -94 20q-5 5 -35 15q-21 3 -60 9t-70.5 11t-58.5 10q-31 6 -87 20.5t-74 18.5q-3 1 -8.5 5.5t-8.5 5.5q11 11 14 12q31 10 23 41q-3 6 14 18q26 15 80 15.5t74 7.5q1 0 3.5 -1t4.5 -1q69 -17 127 -33zM57 -98v2h-2z" />
<glyph unicode="^" horiz-adv-x="456" d="M428 1284q-2 -1 -5 -3t-5 -3t-4 0q-61 2 -113 65q-16 18 -53 64q-14 14 -25 -2q-9 -14 -27.5 -43t-27.5 -43q-51 -79 -64 -94q-10 -13 -18 -39q-3 -12 -14 -18t-25 -3q-43 7 -65 60q-2 3 -7 18q-5 17 9 31q19 17 61 69q54 67 61 78q28 44 58 95q9 16 17.5 19.5t23.5 -1.5 q76 -26 98 -74q20 -42 78 -92q26 -18 33 -31q5 -8 8.5 -27.5t5.5 -25.5z" />
<glyph unicode="_" horiz-adv-x="552" d="M180 158q82 4 121 4q33 1 56 -6.5t53 -8.5q12 0 24 -2.5t28 -7t23 -6.5q15 -4 22.5 -26.5t-1.5 -34.5q-7 -7 -19 -7q-6 0 -17.5 2.5t-16.5 2.5q-20 0 -20 -6q0 -4 5 -11q4 0 -4 -8q-5 -1 -18 -4.5t-18.5 -3.5t-18.5 6q-6 0 -8 -2q-8 -7 -18 -9.5t-25 -2.5h-19 q-30 -3 -49.5 0t-48.5 0q-49 -4 -131 -35q-28 -10 -46.5 2t-23.5 43q-8 43 0 65q8 24 19 33q3 3 30 8q17 2 53 7.5t54 7.5h14z" />
<glyph unicode="`" horiz-adv-x="378" d="M92 1860q2 1 5 4t5 4q17 14 37 6q0 -2 2 -4q-1 -10 -1.5 -12.5t6.5 -7t8 -5.5q12 -15 41 -49t43 -53q30 -37 55 -86q13 -22 24 -33q6 -6 -4 -16q-5 -11 -10 -11q-33 0 -51 13q-7 6 -16 12.5t-21 13.5t-18 11q-10 5 -19.5 11.5t-23.5 19.5l-15 14q-14 11 -36 32t-31 29 q-9 9 -17 21q-13 13 4 43q15 30 33 43zM240 1671q-4 9 -14 23.5t-13 19.5l-4 4v-6q20 -27 24 -43q5 -17 31 -47q0 2 2 2t4 -2l-2 6q-5 7 -14 21.5t-14 21.5z" />
<glyph unicode="a" d="M-12 70q8 113 14 166q2 29 6 87.5t6 88.5q1 13 6.5 73.5t6.5 92.5q2 25 3 75.5t3 75.5q8 176 16 262q15 148 43 348q4 22 10.5 45.5t16.5 54.5t14 44q2 8 10 20q13 18 23 4q3 -1 9 -1t9 1q21 18 43 13q3 -1 16 5t19 -1q3 -2 13 -3t14 -3q82 -43 141 -142q9 -21 21 -39 q7 -11 12 -21.5t9 -25t5.5 -21.5t5 -26t4.5 -22q15 -95 27 -189q11 -104 16 -168q2 -35 3.5 -103.5t3.5 -103.5q0 -15 1 -31t2.5 -36t2.5 -31q6 -87 6 -88l-6 -141q0 -84 -2 -125l-6 -105q0 -5 -5 -20q-5 -10 -18 -4q-5 2 -17.5 4t-17.5 4q-18 3 -33 12q-38 19 -61 37 q-16 12 -12 31q0 19 3.5 54t4.5 46q12 134 16 197q1 15 1 31t-0.5 35.5t-0.5 29.5q0 9 -4 12t-10 -2q-15 -11 -31.5 -17.5t-43.5 -12t-34 -7.5q-32 -8 -77 -4q-9 1 -13 -1t-5.5 -5t-2.5 -10q-4 -108 -8 -162q-12 -112 -16 -174q0 -16 1 -33.5t2.5 -39.5t2.5 -35 q0 -44 -37 -56q-31 -8 -41 -22q-9 -13 -29 -13.5t-33 9.5q-31 18 -28 63q0 15 2 23h-2zM432 754l4 8q-1 -2 -2 -5t-2 -5q0 -3 -1 -10.5t-1 -10.5h4q0 3 -1 10t-1 11v2zM154 1448q0 1 1 3.5t1 4.5v-8q-14 -28 -17 -37q-1 -5 -4 -21t-6 -24q-27 -91 -43 -276q-1 -21 -4 -59.5 t-5 -70t-3 -59.5q-4 -43 -4 -131v-43h2q0 7 -1 21.5t-1 21.5q10 20 10 25q1 10 2 31.5t2 31.5q4 73 16 207q1 10 3 29.5t3 29.5q2 19 5.5 55t5.5 52q1 10 3 28t4 32.5t5 27.5q2 11 7.5 31.5t9 33.5t6 31t2.5 33zM178 666v-41q-2 -12 4 -17t19 -2q14 3 41.5 8.5t40.5 8.5 q44 11 94 30q4 1 8 8.5t4 12.5t-6 194q0 36 -6 52q-4 15 -5 45.5t-5 46.5q-6 22 -7.5 64t-3.5 57q-8 51 -32 149q-16 66 -54 115q-11 18 -20 -2q-17 -40 -25 -119q-24 -202 -32 -307q-4 -40 -9 -168q-1 -15 -2 -43t-2 -50.5t-2 -41.5zM459 768v-17t-4 -24.5t-15 -13.5 q-6 -2 -6 -27q13 -4 19 -4q13 3 17.5 -2.5t2.5 -15.5q-1 -2 -1.5 -8.5t-1.5 -9.5t-6 -5.5t-15 2.5q0 4 -9 -8l-2 -2q-4 -28 -4 -43q0 -26 9 -30q7 -2 18 1l10 -10q-2 -1 -4 -2.5t-3.5 -2.5t-2.5 -1q-21 5 -21 -17q0 -4 -1 -10.5t-1 -9.5q0 -10 -2.5 -31.5t-1.5 -37.5t8 -31 q3 -3 -2 -13q0 -1 -4 -6.5t-4 -7.5v-121q0 -6 8 -14q12 -19 13 -21q3 -5 7 -15.5t7 -14.5q2 -3 16 -17q9 14 9 19q1 16 2 46.5t2 45.5q13 126 8 225q-1 21 0 62t0 61q-6 105 -15 215q-4 52 -8 80q0 2 -2 3.5t-5 3t-5 3.5q-10 -10 -10 -12v-162zM84 702q-10 5 -12 5 q-4 0 -4 -9q0 -2 4 -10q2 4 12 14zM496 111l2 2h-2v-2z" />
<glyph unicode="b" horiz-adv-x="731" d="M211 408q9 -61 -4 -125q-1 -9 2.5 -27t3.5 -25q0 -13 -1 -37t-1 -36q0 -15 1 -46.5t1 -48.5q-5 -38 -6 -40q-22 -63 -88 -31q-20 8 -39 8q-20 2 -31 14.5t-10 34.5q4 61 8 187q1 57 2 172.5t2 173.5q0 24 -14 28q-1 0 -14 13q-19 18 -22.5 24.5t1.5 11.5t29 15 q19 8 22 28q0 48 4 146q0 16 1 48t1 48q4 94 2 139q0 31 -1 95t-1 96q0 13 4 33q0 5 -0.5 8t-3 5t-8.5 1q-23 -4 -28 14q-11 27 6 41q4 3 28 24.5t39 29.5q73 38 119 51q25 9 107 18q116 10 198 -33q81 -46 113 -123q4 -12 0 -40q-3 -19 -10.5 -56.5t-10.5 -56.5 q-1 -2 -4.5 -6.5t-5.5 -7.5q-8 -15 -10 -25q-15 -45 -17 -53q-5 -19 -12 -38t-18 -38.5t-18.5 -32t-22.5 -35.5t-21 -32q-15 -23 -32.5 -45t-47 -54.5t-36.5 -40.5q-11 -14 -32.5 -36t-29.5 -31q-6 -7 -2 -13t16 -6q19 0 56 1t55 1q14 -1 39.5 -0.5t46.5 -0.5t39 -5 q42 -10 67 -31.5t31 -64.5q11 -69 0 -111q-3 -14 -7 -46.5t-9 -49.5q-12 -44 -55 -149q-7 -17 -47 -105q-3 -6 -13.5 -17t-13.5 -14q-11 -16 -12 -20q-16 -43 -68 -59q-77 -20 -149 24q-7 2 -15 14q-2 4 -2 17q2 0 6.5 -1t7.5 -1q3 1 10 1t12 1t9 4q19 13 35 35 q86 134 117 217q20 55 33 98q0 1 2 11.5t4 15.5q10 28 6.5 78t-17.5 77q-12 21 -36 21q-66 -2 -197 -2q-22 -2 -27.5 -7t-5.5 -26q-1 -28 -3 -85t-3 -85q0 -12 -6 -24h2zM182 317q0 3 2 5l-2 2v-7q-2 -4 -6 -11t-6 -11l4 -4q1 5 4 11.5t4 8.5v6zM158 121l2 -2l-2 2l6 -12 q1 -2 4 -5.5t4 -5.5q1 2 4 6.5t4 6.5q2 6 2 18q0 15 1 44t1 44q0 12 -6 21h-14v-21q-1 -17 -3 -48t-3 -48zM223 911h4q0 -6 -1 -18.5t-1 -18.5q0 -3 2 -9t2 -9q16 11 17 12q40 50 78 99q66 88 102 182q40 105 27 166q-10 45 -29 76q-24 34 -72 28q-53 -5 -127 -41 q-24 -13 -8 -39q19 -38 19 -47q4 -39 0 -118q-2 -44 -6.5 -131.5t-6.5 -131.5zM96 358q1 -6 4 -14.5t4 -11.5q2 3 5.5 8t5.5 8q0 2 2 2q11 8 2 15q-6 6 -15 12q-1 -3 -4 -9.5t-4 -9.5zM109 518h2v-14q8 8 10 14v45q0 1 -1 4t-1 4q-8 -4 -10 -6v-47zM184 59q-9 13 -10 17 q-1 -2 -2.5 -4t-2.5 -3.5t-1 -2.5t6 -19q2 2 5 6t5 6zM121 463l-8 4q-5 -6 -13 -23q2 -4 4 -6q2 2 7.5 10t9.5 15zM180 248q1 2 2 5l1.5 4.5t0.5 2.5l-8 8q-1 -1 -2 -3l-1.5 -3t-0.5 -2zM98 252q5 8 6 8v12q-1 -1 -3 -2t-3 -2v-16z" />
<glyph unicode="c" horiz-adv-x="720" d="M6 303v141q0 14 1 39t1 37q-1 10 -4.5 39t-3.5 45q0 30 4 96q18 223 29 301q22 184 88 332q67 150 217 183q71 14 121 -3q5 -2 15.5 -2t14.5 -2q50 -19 58 -65q15 -80 6 -156q-8 -62 -8 -92q-3 -21 -19 -29q-44 -33 -94 -63q-4 -4 -16 -8q-4 12 -4 18v16q-12 30 -16 62 t-4.5 75.5t-2.5 63.5v15q-2 6 -12 22q-15 -10 -19 -16q-52 -69 -102 -226q-34 -106 -47 -237q-1 -8 -4 -22t-4 -19q-2 -16 -9.5 -66t-9.5 -77q-3 0 -2 -49l2 -50q-1 -29 -2 -88t-2 -88q0 -6 -6 -12q-2 -4 -8 -10.5t-8 -10.5q-2 0 -1 -9l1 -9l10 10l6 6q1 -1 3.5 -4.5 t2.5 -5.5q0 -14 1 -43t1 -45q0 -1 -1 -3t-1 -3q11 -57 27 -119l6 -18q14 -27 35 -9q44 39 57 56q147 162 205 266q98 172 135 264q11 27 21 41q2 4 8.5 8.5t7.5 5.5q10 -15 10 -18q-3 -17 -7.5 -51.5t-8 -55t-12 -48.5t-21.5 -50q-11 -18 -53 -96q-7 -11 0 -37q9 -58 18 -76 q5 -9 -4 -18q-9 -12 -26.5 -36.5t-26.5 -37.5q-29 -44 -39 -55q-39 -52 -76 -94q-7 -9 -35 -23q-12 -5 -35 -18.5t-42.5 -20.5t-40.5 -4q-28 2 -99 19q-10 2 -35 10q-78 20 -108 84q-29 74 -33 143zM164 344q-2 4 -2 10h-4q1 -2 3 -5t3 -5l-10 -10q1 0 2 -1t2 -1zM88 569h2 q0 33 -2 47q0 5 -6 17q-10 -10 -12 -15q-2 -4 2 -16q0 -6 1 -18.5t1 -18.5q-3 -47 -6 -96q0 -2 -1.5 -11.5t-3.5 -13.5q-1 -2 -5 -7t-5.5 -7.5t-2 -6.5t3.5 -7t12 -6v-9q0 -52 2 -79q0 -91 26 -168q2 -4 12 -15q0 3 2.5 8.5t2.5 8.5q-2 16 -7.5 49t-7.5 51q-1 6 0.5 17.5 t1.5 15.5q2 -4 3.5 -9.5t4 -12.5t3.5 -11q4 -17 12 -49.5t12 -48.5q1 -4 12 -15v17q-2 13 -8.5 44t-10 54t-3.5 45q0 74 -2 113q0 16 -6 17q-2 0 -6 -1q-13 -5 -17 1t-4 18v118zM41 641h2v-8q1 -2 2 -6t2 -6q2 2 6 10q2 2 2 8q2 10 2 31l-6 2q-2 -5 -5 -15.5t-5 -15.5z M100 788h-2v11l-6 12q-1 -2 -3 -5t-3 -5q-2 -2 -2 -8q1 -5 4 -14.5t4 -14.5q1 4 4 12t4 12zM88 649l4 13l-4 8l-6 -6q0 -6 6 -15zM104 485l5 4q0 1 -1.5 3.5t-1.5 3.5l-4 -2q0 -5 2 -9zM86 721q1 2 2 4.5t1.5 3.5t0.5 2q1 1 -4 6q-4 -4 -4 -8zM51 369v2h-2z" />
<glyph unicode="d" horiz-adv-x="624" d="M82 1487q125 12 219 -49q82 -54 107 -105q9 -20 26.5 -54t31 -62.5t23.5 -53.5q54 -135 62 -194q2 -15 11 -45.5t11 -46.5q7 -36 7 -95q0 -3 -3 -11t-4 -11l-3 -6t-3 -7t0 -6q5 -19 -2.5 -52t-7.5 -40q-1 -36 -33 -137q-6 -18 -19.5 -55t-19.5 -56q-2 -5 -5 -16t-5 -16 q-3 -7 -11.5 -18t-10.5 -15q-4 -4 -9 -14q-2 -2 -3.5 -5t-2.5 -5.5t-2 -2.5q-8 -1 -9 -4.5t3 -9.5q3 -7 -0.5 -9t-9.5 3h-12q0 -8 2 -10q19 -28 -7 -54q-15 -18 -30 -39q-17 -21 -48.5 -61.5t-48.5 -61.5q-6 -9 -12 -12q-2 -1 -16 -6q1 2 1.5 9t2.5 9q7 11 23 30.5t20 23.5 q1 2 18 41q1 1 -1.5 4.5t-4.5 3.5q-2 -1 -7 -2t-7 -2t-5 -3.5t-4 -6t-1 -9.5q1 -20 -41 -72t-62 -55q-58 -11 -98 9q-22 10 -6 26q19 19 -10 27q-27 7 -34 17t-5 40q6 84 14 266q2 46 5 129.5t6 152.5t7 130q2 45 8.5 139t8.5 142q1 49 3 147.5t3 147.5q0 23 -21 26 q-2 0 -61 12q-9 1 -14.5 2.5t-10.5 7.5t-4 15q1 13 11 22t24 9q12 1 38 2t38 2zM111 512q12 12 16 18q-2 3 -2 5q-2 -3 -6 -10.5t-6 -10.5v-2q-6 9 -6.5 18.5t2 17t6 18.5t4.5 18v14q-5 1 -7.5 3t-4 6t-1.5 5v7v6q1 8 2.5 23.5t2.5 23.5q0 2 -3 5t-4 5q-4 -4 -4 -10 q-8 -105 -10 -162q0 -5 3.5 -11.5t6.5 -6.5q16 0 11 20zM109 203q-1 -1 -3.5 -2t-3.5 -2l2 -2q0 1 5 6q4 41 8 63q0 11 -4 13q-14 9 -14 27t7 26t10 24.5t5 20.5q5 6 2.5 12t-12.5 6t-10 6t5 9q27 14 19 53q0 3 -2.5 7.5t-3.5 4.5q-25 5 -27 -12q0 -2 -1 -5t-1 -5 q-4 -138 -8 -209q-2 -20 3.5 -29t23.5 -12zM311 238v8q20 6 8 30q0 5 3 11q4 12 13 34t13 33q1 4 2 12t2 11q0 6 -4 10q0 -1 -3.5 -2.5t-4.5 -3.5q-3 -6 -19 -35.5t-24 -46.5q-2 -3 -19 -37t-28 -49q-44 -60 -49 -119v-16q8 8 10 8q34 3 29 37q-1 2 1.5 5t7.5 7t7 6 q-4 11 -2.5 15.5t8.5 12t8 11.5q5 33 41 58q-4 -8 -4 -11v-14q4 0 6 2q0 2 1 6t1 6q0 3 -4 11zM408 879q-4 108 -72 270q-8 18 -26 50t-25 46q-5 5 -9 17q-8 -12 -8 -19q-20 -167 -22 -196q-9 -142 -15 -304q-1 -19 -4 -55.5t-4 -54.5q-2 -55 -10 -150v-57q-2 -43 -2 -129 v-31q0 -2 1 -7.5t1 -8.5l12 12q1 1 2 3t2 3q100 168 144 340q41 146 35 271zM375 305q5 -13 10 -18l8 8q24 41 25 45q17 35 28 68q23 61 64 186q0 2 -1 7t-1 7q-1 -2 -4 -5t-4 -5q-1 -4 -11 -35q0 -4 -8 -8q0 1 -1 4.5t-1 5.5q-1 2 -2 7.5t-2 7.5q-12 -6 -14 -11 q-22 -51 -25 -59q-6 -21 -20 -96q-3 -11 -17 -49zM168 311q0 17 -2 23l-6 6q0 -1 -1 -3t-1 -3q-4 -46 -4 -72q0 -2 4 -6l6 6q4 32 4 49zM133 31q10 -6 12 -4l21 28l-10 6q-9 -9 -23 -30zM172 416q0 6 -1 14t-1 10q-8 -16 -8 -24q-1 -2 4 -17q1 2 2.5 6t2.5 6.5t1 4.5z M172 379q-2 2 -6 5t-6 5q-4 -4 -6 -4l12 -12q0 3 6 6zM152 174q2 -4 2 -10q2 4 2 12q3 3 -2 8q0 -6 -2 -10zM154 229q1 0 2 -1t2 -1v4v2zM360 414l2 2l-2 2q0 -1 -1 -2t-1 -2h2z" />
<glyph unicode="e" horiz-adv-x="585" d="M23 344q1 18 5 100t7 129q4 116 8 172q2 35 5 98.5t6 116.5t7 99q3 59 21 235q1 7 1.5 19.5t1.5 23t3 19.5q7 30 30 42.5t54 4.5q13 -4 21 0q7 8 14.5 13t18 8t17.5 4t21 2t19 2q62 11 149 14q11 1 72 -4q9 -1 14 -15t0 -22q-13 -17 -20 -19q-12 -4 -55 -20t-72 -23.5 t-60 -9.5q-20 0 -28 2q-20 5 -24 2t3 -22q15 -33 4 -92q-7 -52 -16 -149t-12 -128q-2 -15 3.5 -19.5t22.5 1.5q65 21 111 41q31 14 51 -13q12 -16 4 -32q-4 -5 -16.5 -24.5t-18.5 -27.5t-19.5 -19t-27.5 -15q-53 -17 -98 -17q-21 0 -21 -14v-156q-1 -17 -3 -46t-3 -53t0 -46 q0 -19 -3 -77t-1 -91q14 -112 51 -188q13 -26 45 -29q78 0 172 41q12 5 31 -1t25 -18q8 -10 -2 -34q-27 -50 -95 -64q-24 -6 -67 -10q-95 -12 -180 28q-132 60 -158 189q-3 14 -8.5 44t-9.5 48zM125 307q4 -8 6 -14q0 2 3 9.5t3 12.5q0 20 1 62.5t1 64.5q0 25 2 39 q0 5 -6 11q0 -5 -4 -9q-4 -12 -2 -18q-4 -102 -4 -158zM147 735q0 1 -4 13q-4 -8 -4 -15q-4 -43 -8 -137q-1 -3 0 -6t3 -6.5t3 -5.5q1 3 3 8t3 8q4 90 4 141zM150 829l2 5q0 1 -1 2t-1 2q-1 -1 -3 -2t-2 -2zM139 547l4 2q2 2 -2 6q0 -1 -1 -2t-1 -2v-4z" />
<glyph unicode="f" horiz-adv-x="569" d="M-4 303q2 57 8 171t8 171q2 36 4 107.5t4 107.5q3 135 15 266q5 57 17 162.5t16 143.5q4 24 8 36q3 21 20.5 32.5t38.5 6.5q3 0 13 -1.5t14 -2t11.5 -3t12 -5.5t9.5 -8t8 -12q3 -5 16 -5q17 5 35.5 8t41.5 4.5t35.5 2t42 1.5t36.5 1q45 2 110 -8q17 -3 33 -23 q8 -13 8 -35q-1 -6 -9.5 -11t-14.5 -5q-70 -13 -269 -39q-28 -3 -30 -31q-5 -44 -16.5 -125.5t-14.5 -101.5q-2 -23 -7 -70t-7 -71q-3 -36 5 -43.5t42 0.5q22 6 59.5 20.5t50.5 18.5q33 11 86 26q11 3 25.5 -3.5t15.5 -16.5q4 -21 -10 -35q-4 -3 -24.5 -20.5t-27 -23 t-24 -19t-28.5 -20t-27.5 -14.5t-32.5 -14q-17 -6 -94 -41q-15 -7 -19 -24q-1 -37 -1 -110.5t-1 -110.5q0 -74 -4 -109q0 -18 -1 -54t-1 -55q0 -10 2 -14q11 -28 16 -80.5t9 -70.5q6 -32 -19 -48l-30 -24q-13 -13 -13 -25q0 -23 -24 -30q-11 -4 -25 -2t-20 18 q-47 92 -78 158q-2 8 -2 28q0 49 2 74h-4zM92 438v-24q-6 -131 -6 -133q0 -8 1 -24t1 -24q0 -1 2.5 -3.5t3.5 -4.5q2 4 2 11q4 68 8 196q0 9 -1 27.5t-1 27.5q0 3 -4 11q-6 -6 -6 -9v-51zM96 631q0 -21 2 -31l6 -6q2 0 4.5 2.5t2.5 3.5q0 19 4 59q0 2 -2.5 5.5t-3.5 3.5 q-2 0 -5.5 -2.5t-3.5 -3.5q-4 -20 -4 -31zM117 723v8q0 2 -2 6.5t-2 7.5q-1 -2 -2 -7t-2 -7q-3 -9 -3 -16q1 -5 3.5 -15.5t3.5 -15.5q4 20 4 29v10zM98 539q3 -9 6 -15q5 10 5 11q0 2 -5 12q-1 -1 -3 -4t-3 -4zM119 909h2l-2 4q-2 0 -2 -2q2 0 2 -2z" />
<glyph unicode="g" horiz-adv-x="733" d="M565 211q-3 -6 -9 -18.5t-9 -18.5q-63 -79 -74 -90q-4 -4 -8.5 -6.5t-11 -6t-9.5 -5.5q-38 -27 -75 -41q-40 -18 -60 -11q-21 3 -162 35q-66 22 -94 111q-7 21 -11.5 42t-7 46.5t-3.5 41t-2 47.5t-2 44q-2 20 -3 69t-4 76t-4.5 55.5t-2.5 51.5t0 56.5t1.5 51t3.5 56.5 t4 51.5t4.5 56.5t4.5 53q12 166 63 330q48 125 121 172q60 39 117 54t121 -1q52 -12 65 -24q19 -14 21 -31q28 -79 18 -174q-2 -15 -4 -45.5t-4 -46.5q-6 -23 -14 -29q-35 -29 -95 -67l-18 -6q0 4 -1 9l-1 5q-1 3 -1 9t-1 9q-14 30 -19 64t-7 77t-5 66v6q-3 14 -14 29 q-17 -12 -23 -21q-71 -111 -100 -266q-13 -57 -35 -215q-16 -107 -20 -172q-1 -19 1 -60.5t1 -62.5q0 -20 -3 -56t-4 -46l-2 -5q-1 -4 0 -5q6 -11 6.5 -23.5t-0.5 -19t-8 -22.5t-8 -19q-2 -10 -2 -62q0 -3 4.5 -6.5t7.5 -3.5q12 0 18.5 -5.5t0.5 -12.5q-5 -6 -5.5 -12 t1 -9.5t5.5 -10t5 -9.5q3 -10 8 -34.5t8 -35.5q3 -25 11 -41q17 -45 49 -8q32 25 53 51q15 18 50.5 62t54.5 68.5t45 62t45 71.5q55 104 73 148q21 37 11.5 48.5t-64.5 10.5q-13 -1 -51 11.5t-53 11.5q-17 0 -23 6q-9 8 -7 19t11 22q18 22 69 36.5t93 16.5q61 3 94.5 -18.5 t34.5 -81.5q0 -5 4 -42.5t-2 -41.5q-20 -58 -51 -199q-2 -13 -22 -36.5t-23 -31.5q-2 -12 -8.5 -24.5t-18 -29t-14.5 -21.5q-16 -20 -25 -29h2h-2zM104 543q-2 18 -2 55l-4 8q-6 0 -10 -4q-6 -12 -6 -22q0 -42 2 -62q1 -11 -3 -27.5t-5 -26t6 -28.5q3 -8 -4 -18 q-20 -29 -2 -43q6 -6 2 -10q-6 -6 -7.5 -13.5t-0.5 -12t4 -13.5t4 -13q5 -18 20 -118q16 -61 31 -95q0 -2 1.5 -3.5t3.5 -2.5t3 -2q8 4 8 10q0 9 -4 25q-2 13 -8 43.5t-8 48.5v10q1 -1 3.5 -4.5t2.5 -5.5q4 -14 13.5 -43.5t13.5 -46.5q2 -3 8 -13.5t8 -13.5q2 -2 10 -2l1 5 q1 5 1 8q-14 35 -20 69q-6 35 -10 105q-6 60 -9 116q0 14 -7.5 17.5t-16.5 -4.5q-6 -3 -9.5 -2.5t-4.5 3t0 5.5q5 20 16 31q14 20 7 26q-2 1 -5 0q-10 -2 -15.5 0t-6 6.5t-1 10t-0.5 10.5v37zM49 616q9 -16 12 -26q8 17 7 22v37h-5q-7 -22 -14 -33zM106 766h-2q0 2 1 5.5 t1 4.5q-8 15 -8 17q-3 -9 -6 -15v-8q2 -10 6 -31q1 6 4 15zM102 711q-4 2 -8 6q0 -1 -2 -4.5t-2 -5.5q-1 -1 0 -2.5t2.5 -3.5t1.5 -3q1 1 4 5.5t4 7.5zM96 625q2 2 4 4.5t3 3.5t1 2l-8 8q-4 -4 -4 -6zM475 305v2h-2zM569 336l2 -2v2h-2z" />
<glyph unicode="h" horiz-adv-x="686" d="M18 94q1 67 2.5 201t2.5 201q0 19 4 69q3 33 -31 39q-3 1 -12.5 2.5t-14 3t-8 7.5t-2.5 16q0 12 7.5 16t16 2.5t15.5 1.5q3 2 15 2.5t14 3.5q6 10 6 37q2 75 7 225.5t7 225.5q4 236 10 354q1 13 23 62q2 3 10 3t12 -3q20 -12 43 -31q36 -28 62 -57q12 -12 12 -37 q-2 -44 -7 -135t-7 -138q-6 -141 -6 -143q0 -11 2 -33.5t2 -34.5v-231q0 -25 5 -28.5t28 3.5q38 13 167 62q22 13 25 33q14 126 33 274q6 47 19.5 133.5t17.5 114.5q4 61 12 92q1 10 20 43q4 -4 19 -15.5t18 -19.5q53 -118 60 -141q12 -46 8 -70q-5 -46 -17 -130.5 t-16 -115.5q-1 -11 -18 -260q-1 -13 -29 -217q-1 -19 -2 -57.5t-2 -58.5q0 -3 0.5 -9.5t0.5 -10t-1 -8.5t-4 -8.5t-8 -6.5q-6 -6 -2 -13q12 -57 -19 -108q-4 -8 -11.5 -30.5t-14.5 -33.5q-3 -7 -8 -11.5t-11.5 -6.5t-10 -3t-11.5 -2t-9 -1q-27 0 -33.5 -0.5t-34 3.5t-34.5 5 q-2 0 -6.5 3.5t-5.5 4.5l10 10q23 15 29 51q21 141 26 199q5 48 19 250q0 2 1 6t1 6q-4 16 -4 25q-3 -1 -9.5 -3t-10.5 -4t-5 -5q-6 -12 -16 -20t-18.5 -11.5t-24.5 -8.5t-23 -8q-17 -6 -49.5 -18t-48.5 -18q-6 -2 -12 -19q-15 -231 -17 -266q-1 -18 2.5 -50t3.5 -46 q-4 -60 -8 -90q-4 -44 -8 -62q-3 -9 -6.5 -18.5t-8.5 -20.5t-8 -18q0 -2 -4.5 -2t-5.5 2q-8 8 -11.5 6.5t-8.5 -10.5q-11 -16 -21 -13q-33 0 -53 14.5t-19 45.5q0 10 -1 30.5t-1 30.5zM119 70zM479 707q0 2 -8 18q-6 -12 -12 -27q-2 -4 -2 -14q-4 -32 -8 -88 q-1 -12 -2.5 -35.5t-2.5 -34.5q-2 -33 -2 -98q-4 -86 -10 -129q-1 -9 -18 -156q0 -4 4 -16q1 1 4.5 5.5t3.5 6.5q2 9 4 26t2 19q3 29 8.5 93t8.5 96q4 47 16 157q1 20 6.5 81t7.5 96zM471 823v-10q2 -3 5 -9t5 -9q1 2 4.5 8.5t3.5 9.5q1 9 2.5 27.5t2.5 27.5q1 11 3 32.5 t3 33.5q0 2 -8 14q-1 -2 -4.5 -6t-4.5 -6q-12 -109 -12 -113zM59 385h2q-2 -2 -2 -8q1 -3 2 -9.5t2 -9.5q11 16 11 17q2 4 2 12q4 50 2 74q0 1 -6 31q-1 -3 -8 -13t-7 -16q0 -14 1 -39.5t1 -38.5zM66 711h2q1 -5 2 -15.5t2 -15.5q0 -2 3.5 -5t4.5 -5q0 1 3.5 5.5t4.5 8.5 q1 18 2 54.5t2 54.5q2 7 -2 26q0 2 -4 6q-2 -2 -2 -6q-11 -49 -18 -108zM117 477q0 -23 -1 -69t-1 -70q0 -4 4 -12q4 8 4 12q3 102 6 201q3 9 -4 16q0 -2 -3 -7.5t-3 -8.5q-2 -20 -2 -62zM489 985q1 -2 4.5 -7t4.5 -7q0 1 3 7t3 9q3 14 8 44t8 46q1 3 0 6.5t-3 8t-3 6.5 q-1 -3 -5 -8.5t-5 -6.5q-3 -17 -7.5 -49.5t-7.5 -48.5zM59 561q3 -8 6 -20.5t5 -16.5q0 -2 6 -8q1 3 3.5 6t2.5 4q4 23 0 33q0 3 -5.5 7.5t-6.5 6.5q-6 -10 -11 -12zM125 221h2q-2 16 -10 43q-1 -8 -3 -23.5t-3 -23.5v-6q4 -9 8 -31q3 15 6 33v8zM72 860q-1 -1 -4 -5.5 t-5 -6.5q3 0 10.5 -1t10.5 -1q1 0 3.5 5.5t2.5 8.5q-1 2 -4.5 6.5t-5.5 7.5q-1 -2 -4 -7t-4 -7zM84 915q0 -3 1 -8t1 -8q1 3 4 9.5t4 9.5q0 2 -4 10q-1 -2 -3 -6.5t-3 -6.5zM66 309q2 3 4 5t2 3q0 9 -2 13l-7 -2q0 -7 3 -19zM119 92q1 1 2 3l1.5 3t0.5 2q0 7 -2 11v-5 q-2 -4 -2 -14zM61 283q2 2 2 6h-2q0 -1 -1 -2t-1 -2q2 0 2 -2zM119 23h2v2z" />
<glyph unicode="i" horiz-adv-x="385" d="M57 311q4 70 13.5 206t13.5 202q3 38 7 110.5t7 110.5q6 100 21 203q9 79 28 223q1 5 0 15t0 14q4 26 27 43.5t51 15.5q53 -6 83.5 -48t21.5 -99q-3 -17 -10.5 -52t-10.5 -53q-9 -61 -12 -127q-2 -23 -6 -62t-7 -72t-5 -62q-1 -18 1.5 -52t2.5 -47q0 -7 -4 -18.5 t-5 -16.5q-9 -79 -12 -159q0 -3 -6 -150q0 -5 -1 -15t-1 -15q-4 -70 -4 -101q0 -5 6 -15.5t6 -15.5q0 -90 -4 -135q0 -4 -8 -11t-14 -9q-3 0 -13 -2.5t-16 -3t-13.5 3t-11.5 12.5q-2 1 -5 1t-5 -1q-16 -3 -23 -1.5t-20 8.5t-18 9q-44 19 -48 82q-2 14 -2 84h-4zM197 590 l4 12q-13 9 -15.5 24t0.5 31q1 15 3.5 49.5t3.5 53.5q0 2 -2.5 5t-2.5 5q-6 -6 -8 -10q-16 -111 -18 -160q-6 -72 -10 -221q0 -17 4 -45q0 -2 2.5 -5.5t3.5 -4.5q0 2 2 5t2 5q2 23 2 67q0 3 0.5 13.5t1.5 16.5t5 13.5t11 12.5q4 4 4 18q1 10 2.5 31t2.5 31q0 9 1 27t1 26z M152 268q1 -2 4.5 -8t5.5 -10v22v15q0 4 -2 6q-1 -1 -4 -3t-4 -3v-19z" />
<glyph unicode="j" horiz-adv-x="655" d="M422 72q-3 -4 -9.5 -12.5t-9.5 -12.5v2q-13 -32 -44.5 -43.5t-65.5 0.5q-13 6 -40 15.5t-40 15.5q-20 8 -123 53q-31 11 -65 21q-44 15 -56.5 51t11.5 76q30 50 88 92q12 8 104 69q31 19 51 -4q22 -29 -4 -55q-4 -4 -12 -11.5t-12 -11.5q-62 -46 -76 -110 q-5 -24 5.5 -43.5t33.5 -28.5q12 -5 36 -14.5t37 -14.5q18 -9 25 11q43 109 47 125q28 121 39 299q4 62 5.5 136.5t2 128t1.5 140t1 131.5q2 98 2 299q0 3 -1 9t-1 8q0 17 -18 14q-7 -1 -42.5 -8.5t-53.5 -9.5q-31 -5 -64 8q-6 3 -15 4t-20 1t-16 1q-6 1 -18 1t-17 1 q-12 4 -16 16q0 14 10 19q26 12 55 18q14 4 41.5 12t49.5 13.5t42 9.5q99 17 172 20q54 2 160 -10q10 -1 55 -16q26 -9 21 -23q-3 -11 -21 -16q-36 -4 -104 -8q-8 -1 -24.5 -2t-24.5 -2q-4 0 -8 -4q2 -7 4 -7q18 -7 27.5 -19.5t11 -26.5t2 -30.5t0.5 -31.5q1 -13 -1.5 -36 t-2.5 -32q1 -17 -1 -36t-5.5 -43.5t-4.5 -36.5q-3 -25 -8 -162q0 -11 0.5 -32t0.5 -34t-1 -31t-4 -32q-5 -25 -3 -73t-3 -71q-1 -9 1.5 -27t2.5 -24q-1 -11 -1 -30.5t-1 -34.5t-4 -29q-5 -19 -6.5 -38.5t-2.5 -51.5t-1 -39q-1 -10 -1.5 -40.5t-2.5 -47.5q-5 -39 -23 -92 q-1 -5 -9 -14t-9 -13q-2 -9 -8 -27t-9 -32.5t0 -28.5q1 -3 1 -6.5t-1 -6.5t-2 -3q-9 -3 -13 -8t-3 -9.5t3.5 -12.5t2.5 -11zM465 557h-4v31q0 3 -6 6q-4 -2 -4 -4q-2 -4 -2 -12q-1 -1 -3.5 -4.5t-3.5 -4.5q0 1 -1 4.5t-1 4.5q-2 41 -2 118v39q-1 5 -4 15.5t-4 15.5 q-4 -18 -8 -29q0 -3 -2.5 -8.5t-1.5 -7.5q4 -8 4 -17.5t-2 -21t-2 -18.5q0 -10 1 -31t1 -31q0 -16 -7.5 -51.5t-6.5 -56.5q1 -24 -3 -73t-4 -56q-1 -8 -4.5 -77.5t-7.5 -105.5q-1 -8 1.5 -22.5t1.5 -26t-9 -20.5q-3 -3 4 -11q8 0 8 4q12 24 21 48q7 24 17.5 71.5t12.5 53.5 q13 59 21 165v113zM432 782q4 16 4 17q-1 2 -3 5t-3 5q-4 -8 -4 -12q-1 -1 6 -15zM453 639q2 -4 6 -8q1 2 3 7t3 7q0 1 -2 3t-2 3q-4 -4 -8 -12zM473 393l8 -8l6 4q0 6 -4 10q-1 -1 -4.5 -2.5t-5.5 -3.5zM479 367v2q0 2 -2 2v-2zM465 317h-2l2 -2v2zM485 520h2v2q-2 0 -4 -2 h2z" />
<glyph unicode="k" horiz-adv-x="686" d="M201 309q10 -13 10.5 -21.5t-4.5 -21.5q-2 -5 4 -35q1 -3 4 -8.5t4 -8.5t-0.5 -7t-7.5 -8q-1 0 -1 -2.5t1 -3.5q11 -30 14.5 -88t5.5 -70q3 -15 -7 -23t-25 -2q-14 7 -9 19q2 7 -2 20q-5 10 -14 6q-2 0 -12 -10v-10q0 -18 -4 -20t-21 5q-25 12 -51 19q-39 9 -39 45 q1 25 1.5 103t2.5 120q2 17 -1 48.5t-1 47.5q2 15 2 32t-1 37.5t-1 31.5v231q0 76 -4 232v223q-2 57 -2 170q0 13 1 41t1 43q0 35 39 43q27 4 82 0q32 -6 43 -39q3 -8 8 -16q13 -18 10 -46q-1 -8 -5 -30.5t-4.5 -30l-2 -30t1.5 -31.5q14 -101 4 -177q-1 -5 0.5 -12t1.5 -10 q2 2 9.5 7.5t9.5 8.5q17 37 49.5 109.5t48.5 109.5q51 101 72 136q10 20 38.5 25t53.5 -7q32 -14 43 -20q15 -6 24.5 -31t1.5 -39q-2 -5 -34 -66q-4 -4 -4 -6q-7 -30 -23.5 -59.5t-39.5 -62.5t-34 -52l-30 -69q-3 -5 -15.5 -23t-17.5 -27t-13.5 -28.5t-13.5 -28.5 q-7 -12 -22.5 -37.5t-22.5 -38.5q-6 -10 -14 -30q-11 -26 6 -52q50 -64 100 -186q13 -28 37 -84.5t37 -83.5q5 -12 13.5 -36.5t13.5 -37.5q3 -7 20 -41q27 -53 39 -79q1 -2 9.5 -22.5t13.5 -29.5q8 -17 24.5 -51t24.5 -51l16.5 -33t20.5 -43q2 -5 2.5 -14t1.5 -12 q-5 3 -13 8t-10 6q-4 3 -10 10t-10 10q-7 4 -15 0q-2 -2 -2 -14q1 -3 6 -23l-22 11q-12 9 -27 18q-13 13 -20 0q0 -6 -10 -6q-15 3 -30 16.5t-18 28.5q-12 63 -67 174q-10 21 -29 59.5t-34 69.5t-29 58t-39.5 82t-38.5 83q-4 13 -8 17q-1 2 -11 12q-1 -2 -4 -5t-4.5 -5 t-1.5 -4q-2 -14 -2 -43v-88q-3 -12 -6 -21q0 -6 -8 -6q-2 0 -6 8q0 13 -2 17h-17l-2 -4q-4 1 -8.5 4t-5.5 4q0 -1 -1 -4t-1 -4q4 -9 0.5 -31t1.5 -35q2 -12 2.5 -14t-2 -16.5t-2.5 -16.5q-1 -4 -5 -15t-5 -15t0 -11q6 -11 2 -40.5t10 -39.5q4 -4 4 -22v-17q1 -5 3 -15.5 t3 -15.5q20 24 21 33q0 2 6 133v-2zM109 776q-6 12 -7 15q-1 -1 -3 -4.5t-3 -4.5q2 -1 6.5 -3t6.5 -3q-3 -3 -3 -4q-4 -8 -4 -10l2 -2q0 2 1 6t1 6q0 1 1.5 2t1.5 2zM94 197q0 -19 2 -29q0 -4 4 -8q6 0 6 4q2 8 6 22.5t6 24t1.5 22t-6.5 23.5q-3 6 0 16q0 29 1 89.5t1 91.5 q0 29 -1 87t-1 87q0 17 -1 51t-1 51q0 2 -3.5 6.5t-3.5 5.5l-4 -5q-4 -5 -4 -9v-74q-5 -118 -4 -141q2 -27 1.5 -93t2.5 -93q3 -11 0.5 -64.5t-2.5 -64.5zM182 520q1 -2 2 -7t2.5 -9t3.5 -8q0 -2 9 -7q0 1 1 4.5t1 4.5q-1 6 -2 18.5t-2 18.5q0 4 -4 12q-1 -2 -4.5 -5 t-4.5 -5t-1 -7.5t-1 -9.5zM561 137q4 -4 12 -8q3 4 5 6q-1 1 -4.5 3t-4.5 3zM186 578q2 3 5 6.5t4 5.5q0 1 -2.5 3t-2.5 3q-8 -4 -10 -8q0 -1 6 -10zM178 637q0 2 2 2q-2 0 -4 2v-2zM571 92l2 2v2q-2 0 -2 -2v-2zM518 74l-2 2v-2h2z" />
<glyph unicode="l" horiz-adv-x="501" d="M319 76q68 -7 125 -15q22 -3 37 -26q9 -9 2.5 -23t-20.5 -16q-17 -1 -106 -9.5t-136 -9.5q-10 0 -22.5 4t-21 8t-23 12t-21.5 11q-30 15 -39 15q-33 0 -76 43q-4 4 -4 22q2 42 7.5 122.5t7.5 119.5q2 53 5 160.5t5 160.5q1 35 3 99t4 116.5t5 98.5q2 44 8.5 129.5 t8.5 126.5q1 33 0 98t0 96q0 35 8 56q3 11 20 20q51 12 99 -2q5 -2 15 -5t15 -5q1 -1 9 -6t11.5 -8.5t4.5 -8.5q16 -58 18 -90q0 -17 -4.5 -49.5t-5.5 -44.5q-2 -35 -6 -104.5t-6 -104.5q-1 -22 -5 -64.5t-5 -62.5q-1 -16 -6.5 -83.5t-6.5 -104.5q-2 -40 -4 -120t-4 -120 q0 -13 -5.5 -35.5t-6.5 -32.5q0 -8 1.5 -32t0.5 -37q-1 -7 0 -27t-1.5 -33.5t-10.5 -25.5v-6q11 -32 9.5 -87t2.5 -87q5 -20 12.5 -27.5t26.5 -7.5q25 -2 75 -2v4zM145 197q1 3 5 8t6 9.5t2 8.5q6 79 6 156q-1 7 -1 21.5t-0.5 23t-3 21t-7.5 22.5q-4 8 -4.5 19.5t1 28 t1.5 24.5q0 2 -5 12q-1 -1 -6 -4.5t-6 -5.5q0 -1 -2 -13t-4 -18q-2 -5 -7 -18t-7 -20t-2 -18.5t6 -21.5v-6q-4 -94 -8 -143q0 -5 -2.5 -16t-2.5 -17q-2 -43 -6 -133q0 -7 2 -11q9 -28 33 -8q25 25 25 84q0 2 -13 15zM164 520l-2 2v-2h2z" />
<glyph unicode="m" horiz-adv-x="1005" d="M150 487q-5 -7 -8.5 -14.5t-5.5 -13.5t-3.5 -16t-1.5 -14.5t-1 -16.5t-1 -15q-3 -25 2 -112q1 -8 21 -43q0 -3 4 -4.5t6 0.5q6 3 6 10q-11 9 -1.5 28.5t7.5 26.5q-1 1 6 8l6 -6q0 -3 1.5 -11t0.5 -13q-6 -55 5 -107q6 -24 0 -28t-29 6q-14 5 -17 4q-10 -2 -19.5 0.5 t-20 8t-17.5 7.5q-42 15 -45 70q-2 74 -10 227q-1 47 -4 138.5t-4 135.5q0 18 0.5 50.5t0.5 59t-1 50.5q0 17 -1.5 70.5t-0.5 81.5q0 1 6 235q1 12 0.5 44.5t1.5 45.5q4 49 16 80q3 9 14.5 17t20.5 10q48 8 87 -14t46 -68q3 -21 25 -39q25 -21 49 -84q14 -37 45 -145 q29 -94 41 -140q11 -38 26 -108q18 -111 21 -146q1 -7 -3.5 -23t-4.5 -20l-2 -10q11 -5 14 -2q14 12 14 -8q1 -2 4.5 -6t4.5 -6q10 10 10 12q14 45 26 96q6 22 19.5 68t19.5 69q9 30 15 60q13 54 30 69q3 3 9 15q26 108 92 237q5 10 11 30t9 28q4 9 10.5 18t14.5 20t12 17 l6 6q20 39 80 27q17 -4 23 2q33 22 77 -4q41 -26 31 -82q-1 -7 0.5 -21.5t1.5 -19.5q-2 -45 -7 -135.5t-7 -135.5q-8 -192 -14 -286q-1 -27 -11 -154q-5 -105 -2 -135q1 -9 2.5 -24.5t2.5 -28.5t1 -25q0 -14 2.5 -90t-0.5 -90q0 -13 2.5 -36t2.5 -34q2 -17 -5 -47 q-1 -3 -6.5 -8.5l-7.5 -7.5q-6 8 -14 20q-2 4 -2 15q-3 -3 -8 -13q-3 -9 -10.5 -26.5t-10.5 -26.5q0 -4 -4 -4q-2 0 -6 4q-2 5 -5 14.5t-5 14.5q-1 2 -13 8q-1 -1 -4.5 -5.5t-3.5 -6.5q4 -26 8 -37q1 -5 7 -16.5t8 -16.5q3 -7 7.5 -9.5t12.5 -2.5h10q3 -1 15 -13 q-8 -8 -15 -8q-39 -7 -53 25q-29 65 -33 86q-42 181 -39 352q0 64 5 361q2 112 10 317q0 5 -2 14.5t-2 14.5q-2 -3 -9.5 -13t-9.5 -16q-47 -173 -53 -197q-1 -5 -4 -21t-6 -24q-7 -17 -33 -125q-5 -17 -16.5 -61.5t-18.5 -67.5q-3 -11 -6.5 -39t-10 -47.5t-20.5 -35.5 q-1 -2 0 -10t0 -11q0 -51 -2 -61q-13 -52 -6 -125q2 -29 2 -86q0 -4 -4.5 -12t-5.5 -11q-3 3 -9.5 8.5t-9.5 8.5l-12 12q-3 -6 -6 -15q-4 -13 -11 -15.5t-20 5.5q-30 20 -57 35h-10q-25 -12 -31 16q-10 49 -28 141t-25 128q-10 51 -32.5 145.5t-29.5 124.5q-20 94 -32 141 q-6 26 -29 101q0 2 -6 8q-1 -2 -3 -5t-3 -5q-2 -6 -2 -19v-219q0 -14 -4 -38t-5 -32q0 -5 -2.5 -31.5t0.5 -31.5q11 -75 2 -121q-1 -5 0.5 -15t1.5 -14q-1 -2 -4 -6t-4 -6q-8 4 -10 8q-4 12 -6.5 12t-13.5 -12v21h-3q0 -3 1.5 -9.5t1.5 -9.5zM711 1260q-7 -3 -20.5 -9.5 t-20.5 -9.5q-2 -1 -2 -5.5t2 -4.5q5 -2 7.5 -4t2 -5.5t-0.5 -5t-2.5 -6.5t-2.5 -6q-7 -18 -10 -35q-4 -22 -17 -22q-9 0 -12 -1.5t-1.5 -5t7.5 -10.5q20 -20 -8 -30q-3 0 -5.5 -3t-2.5 -5q11 -30 0 -52q-1 -2 0.5 -4.5t4 -6t3.5 -5.5q8 8 10 14q13 49 27 88q5 12 16 27 q5 7 18 21.5t20.5 26.5t10.5 26q0 6 3.5 14t4.5 12q9 31 9 47q-1 8 -5.5 10t-12.5 1t-11 0q-1 1 -3.5 -1.5t-4.5 -6.5t-2 -7q-2 -12 -2 -36zM778 711q0 -10 -1 -29t-1 -33.5t2 -27.5q7 -55 -4 -99q-2 -6 -2 -14.5t1 -18.5t1 -14q0 -8 4 -24q4 -15 2 -63.5t11 -63.5v-9 q2 -13 5 -39.5t5 -39.5q0 -6 10 -11q11 -3 12 -4.5t-4 -7.5q-10 -12 -12.5 -25.5t-1 -21t7 -25t6.5 -22.5q0 -1 1.5 -2t3.5 -2t3 -2q4 8 4 10q-8 25 -10 35q0 5 5.5 12.5t7.5 7.5q11 -3 14 0t1 10.5t-1 10.5q0 4 -1 11.5t-1 13t2 9.5q11 26 6 39q-2 7 1 11t11 0q4 -2 13 -2 q-2 4 -2 12q-3 15 -3 29q8 49 0 69q-8 14 -8 49q0 32 6 62q1 17 -2 20.5t-20 5.5q-4 0 -10 13q0 9 -1 27.5t-1 27.5q0 2 -0.5 10.5t0 12t2 10t5.5 11t11 7.5q1 1 0.5 4.5t-1.5 8.5l-1 4q-7 0 -10 2t-3.5 4t1.5 8t2 8q9 51 -10 105q-17 53 -15 79q0 18 -3.5 51.5t-4.5 45.5 l-6 6l-6 -2q-1 -3 -6.5 -16.5t-7.5 -22.5t-1 -17q0 -12 2 -33t2 -39t-4 -34q-5 -20 -10 -90q0 -1 2 -4t2 -4zM381 453h-2v-17q8 -12 16 -20q1 3 4 7t5 7.5t2 7.5q0 8 1.5 30.5t0 38t-6.5 30.5q-3 3 0 8q0 9 5 59q0 3 -7 10q-2 3 -7 9.5t-7 9.5q-6 7 -17.5 22.5t-17.5 22.5 q-1 3 -12 8q-8 -12 -8 -16q3 -16 10.5 -44.5t9.5 -39.5q0 -2 2 -6t2 -5q-3 -16 0 -31t10 -35t9 -28q5 -12 8 -28zM408 653q2 -6 8.5 -27.5t11.5 -31.5q4 0 6 2q18 32 2 59q-5 8 -16 15q-10 -15 -12 -17zM168 512q1 5 2.5 9.5t1.5 6.5q0 23 -2 33q0 5 -8 17q-11 -11 -12 -13 q-10 -10 -7 -16q3 -7 25 -37zM375 688h-3h1q-1 2 -1.5 4.5t-1 4t-1.5 1.5q-31 15 -33 37q-8 2 -12 2q1 -4 1 -11t0.5 -11.5t2 -10t4.5 -8.5q3 -4 9.5 -5t16.5 -1.5t17 -1.5zM90 416v12q-4 12 -4 18q-11 -17 -12 -20q-2 -8 2 -29q3 -12 8 -22l6 2q2 8 2 22zM627 981 q-2 4 -6 16q-7 0 -7 -2q-7 -16 -14 -41q-1 -2 0 -4.5t3 -5.5t3 -4q6 2 8 4q2 6 6.5 18.5t6.5 18.5zM86 467q2 10 10 25q4 5 4 9.5t-1.5 6.5t-5.5 6t-5 6q-2 2 -8 2l-2 -6q12 -12 0 -33v-14q0 -2 8 -2zM864 608l10 10q-1 1 -2 2.5l-2 3t-2 1.5q-2 -1 -6 -4.5t-6 -4.5z M893 133q6 6 6 8t-4 6l-6 -2q1 -2 1.5 -3.5t1 -4t1.5 -4.5zM590 993q6 12 6 13t-1 3t-1 3q-4 -2 -8 -6q0 -1 0.5 -2.5l1.5 -4.5zM891 178q-1 0 -3 1t-3 1l-2 -2l4 -4zM602 915q0 1 1 3.5t1 3.5q0 4 -4 4t-4 -4t6 -7zM76 743q2 -4 6 -8l6 6q0 5 -4 9q-6 -6 -8 -7zM881 444 q-1 0 -2 1t-2 1q0 -1 -1.5 -2t-1.5 -2q3 -2 5 -2q0 1 1 2t1 2zM360 719l7 4q0 1 -1 3t-1 3l-7 -2q0 -1 1 -4t1 -4zM731 1182q0 -2 2 -4q0 1 1 1.5l1 0.5q0 4 -2 6q0 -1 -1 -2t-1 -2zM166 174q2 0 2 -2q2 2 2 4q-2 0 -4 -2zM864 225l-2 -2h2v2zM844 100h2v4h-2v-4zM903 676 l-2 2l-2 -4h4v2zM573 799l-2 -2h2v2zM610 840q0 2 -2 4l-2 -2l4 -4v2zM526 647l2 2h-2v-2z" />
<glyph unicode="n" horiz-adv-x="708" d="M459 889q0 4 -1 13t-1 13q5 38 2 86q0 3 2 7.5t2 7.5q4 32 4 47q-4 25 6 35q4 6 2 22t-8 25h2q1 14 4 59t6 70q2 12 7.5 36t7.5 36q5 29 8 71q1 11 13.5 19t14.5 12h5q3 -5 6 -7.5t6 -1.5l4.5 1.5t5 4.5t4.5 5q2 1 6 3.5t6 4t5.5 1t7.5 -4.5q2 -2 5 -2t5 2q2 1 5.5 3.5 t5 3.5t4 2t5 -1t5.5 -6h4q14 8 19 6t11.5 -10.5t10.5 -9.5q4 0 4 -10q0 -21 -4 -31q-23 -117 -37 -283q-3 -42 -13 -231q-2 -29 -3 -88.5t-3 -89.5l-12 -111q-2 -13 -2.5 -37.5t-1.5 -32.5q-2 -26 -9 -79t-10.5 -95t-3.5 -80q0 -29 -3.5 -81.5t-4.5 -69.5q-2 -20 6 -53 q3 -15 -10 -21q-26 -10 -72 10q-3 1 -18 8.5t-25.5 10t-21.5 0.5q-26 0 -35 28q-82 222 -141 437q-36 122 -41 141q-1 2 -3 5t-3 5q-2 -4 -2 -10q-2 -27 -2 -80q4 -62 4 -92v-5v-5.5t-1 -4.5t-3.5 -5t-6.5 -3q-6 -1 -7.5 -3.5t0.5 -6t7 -6.5q6 -6 9 -14q0 -6 -2 -6 q-22 -11 -9 -21q20 -18 7 -53q-8 -31 6 -43q6 -6 6 -14l-1 -52q0 -53 1 -53q0 -20 3.5 -56t4.5 -48q0 -20 -8 -25q-2 -1 -5.5 -5.5t-6 -7t-8 -2.5t-11.5 5q-5 3 -15.5 8t-15.5 8l-6 2q-4 -12 -20 -4q-48 26 -54 31q-2 1 -3 3.5t-1.5 6t-1.5 4.5q-4 126 -8 195q0 9 -1 27.5 t-1 27.5v6q5 22 0.5 117t-4.5 117v157q-1 23 -4 69t-4 67q-3 94 -6 186q-3 84 0 168q0 39 4 117q3 62 67 53q35 -4 60 -14q19 -6 28.5 -24t4.5 -38q0 -27 10 -47q26 -87 30 -104q7 -23 15 -67t12 -60q4 -21 20 -89t23 -106q6 -23 6 -70q1 -5 2.5 -19t4.5 -24t8 -16 q13 -14 17 -46.5t13 -45.5q7 -11 11 -24.5t7.5 -37t4.5 -28.5q2 -9 5 -30t6.5 -36.5t8.5 -28.5q15 -34 15 -63q-21 48 -23 53l-6 6v-8q13 -44 20 -61q0 -1 11 -17q-1 3 -2 9.5t-2 9.5v8q2 2 6 5t6.5 5.5t3.5 5.5q2 35 10 95q1 10 1 29.5t1 29.5q1 8 4 23.5t4 19.5v33 q2 39 6.5 112.5t6.5 106.5v-2zM332 471q-2 2 -6.5 6t-6.5 6q-1 2 -4.5 8.5t-5.5 8.5l-5 -10t-5 -13q-3 -5 2 -14q1 -3 6.5 -21.5t11.5 -25.5q5 -5 5.5 -23t13.5 -22q2 0 2 -13q-3 -15 0.5 -28.5t11 -29.5t10.5 -26l9 -4q26 7 20 31q-1 4 -3 13.5t-3 14t-3.5 12.5t-5.5 13 t-7.5 11t-10.5 10q-2 1 -5 6t-3 6q-16 53 -12 78v24v15q0 2 1 4.5t1 3.5h-12q-4 0 -4 -8q1 -7 4 -18t4 -15zM137 586q0 -5 1.5 -15t1.5 -15.5v-13t-2 -13.5t-5 -11q-4 -4 -4 -14q4 -78 8 -121q0 -6 -2 -8q-7 -11 2 -35q1 -5 6.5 -18t6.5 -21q9 -50 12 -98q0 -1 1.5 -2 t3.5 -2t3 -2l2 6q0 5 0.5 16.5t0.5 17.5t-2 14.5t-7 14.5q-3 6 -2.5 15.5t2.5 11.5q5 1 7.5 4t3 5t0 7t-0.5 6q0 72 -2 107q-1 34 -5 101.5t-5 101.5q0 50 -10 73q-4 9 -9 11q0 -1 -1 -5t-1 -6q-1 -19 -2 -57t-2 -55zM520 688q2 -6 6 -22q1 4 3 11t3 11v8q1 11 4.5 32.5 t5.5 39.5t1 35t8 80q0 20 -2 32q0 3 -1 9.5t-1 9.5q0 4 4 23t4 30q2 31 5 92t5 92q2 45 10 111q0 6 -2 8q-6 9 -12 15q0 -2 -3 -6.5t-3 -6.5q-8 -40 -8 -59q-3 -146 -12 -293q0 -19 -3 -54t-4 -46q-1 -18 -1 -53t-1 -52q0 -5 -6 -47zM88 307h2q0 -21 4 -61q0 -3 4 -15 q4 12 4 15q0 10 1 29.5t1 35t-2 29.5q-1 8 3 22.5t3 26.5t-14 21v4q0 18 1 55t1 55q-4 98 -4 144q-1 23 -2 69t-2 70q0 4 -1 10.5t-1 9.5q-5 -7 -8 -20v-12q1 -29 2 -86t2 -86q4 -212 6 -316zM268 664q-2 5 -6 16t-6 16q-2 3 -5 10.5t-5 10.5q-4 -16 -4 -25q-1 -2 -0.5 -5 t2.5 -3q5 -6 7 -14t2.5 -19.5t0.5 -15.5q2 -13 18 -74q11 -27 21 -41q1 -1 10 -6q4 8 4 16q-2 8 -6 26t-6 26q-9 28 -14 34q-20 24 -13 48zM539 1260q-2 3 -5 9l-2 3q-12 0 -12 -4q-2 -10 -2 -31q-1 -5 0.5 -26t-2.5 -23q-4 -9 -6.5 -26t-5.5 -23q-4 -11 0.5 -34t-0.5 -34 q0 1 6 -2q6 0 6 6q1 4 2 14t2 15q1 11 19 156zM399 199q-4 0 -4 -2v-7q4 -8 4 -10q7 7 7 8q-4 34 -9 60q0 3 -6 5.5t-8 0.5q-8 -8 -8 -16q0 -2 3.5 -8t4.5 -9q6 -12 16 -22zM498 969h-4q5 -7 8 -17q10 10 10 15q2 13 -2 37v10q0 2 -1 6t-1 6q-8 -4 -8 -10q-2 -14 -2 -47z M246 756q-2 4 -10 12q-7 -7 -7 -8q7 -7 11 -19q3 6 6 15zM524 1317q8 -12 13 -17q5 10 4 13q0 2 -2 3t-4.5 2t-4.5 3q-4 -4 -6 -4zM309 569q0 -14 2 -20q0 -4 4 -8q0 1 1 4t1 4q0 8 -4 20q0 1 -2 2t-2 2v-4zM532 1339l7 7q0 2 -4 6l-5 -4q0 -5 2 -9zM178 649q2 0 4 2 q-2 2 -2 4q-1 0 -2 -1t-2 -1q0 -2 2 -4zM164 770q0 1 -1 2t-1 2l-2 -2v-4q1 0 2 1t2 1zM82 852l4 4q0 1 -1 3t-1 3l-4 -2q0 -1 1 -3.5t1 -4.5zM514 573l2 -4q4 0 4 4q0 1 -2 2q-1 0 -2 -1t-2 -1zM584 1149q-1 0 -2 1t-2 1l-2 -2q2 -2 2 -4zM334 696q-2 2 -4 2l-2 -2l4 -4 q2 0 2 4zM522 627l2 2h-2v-2zM221 825l-2 2h-2q0 -1 1 -2t1 -2zM172 111q-2 0 -4 2v-2l2 -5q0 1 1 2.5t1 2.5zM367 547l-2 2zM160 815l2 -2v4z" />
<glyph unicode="o" d="M524 1171q1 -5 6.5 -17.5t6.5 -20.5q6 -34 20 -132v-10q-8 -6 -10 -13t0 -12t6.5 -12.5t5.5 -11.5q8 -20 8 -65q6 -47 6 -93q0 -3 1.5 -12.5t1.5 -14.5t-5 -10.5t-16 -7.5q-2 0 -2 -22q0 -1 2 -1.5t5 -1t5 -1.5q8 -4 8 -11q1 -6 -0.5 -15t-1.5 -11h-2q-13 0 -15.5 -2.5 t-2.5 -16.5q-1 -25 -4 -73.5t-4 -71.5q0 -4 4 -16q10 10 10 14v31q0 4 6 10l8 -8q2 -4 2 -13q-14 -98 -20 -124q-11 -55 -33 -117q-8 -25 -41 -113q-41 -96 -47 -108q-23 -44 -70 -70q-26 -12 -61 -8q-13 2 -37.5 13t-30.5 13q-7 2 -21.5 5.5t-21.5 5.5q-23 9 -26 12 q-84 74 -101 174q-9 51 -26 166q-1 6 -9.5 70.5t-9.5 97.5q-1 17 5 180q2 37 10 111v6q-4 19 -5 42.5t0 39t3.5 44.5t3.5 40q11 173 82 350q14 33 39.5 58t46.5 36.5t61 28.5q67 29 148 16q15 -1 27.5 -13t15.5 -26q4 -19 11 -55t11 -55q1 -4 3 -7.5t5 -8t4 -7.5 q9 -23 9 -35q0 -22 8 -28q3 -3 4.5 -10.5t-0.5 -8.5q-16 -13 2 -31q20 -20 12 -45v2zM154 764h2v2zM555 786q-2 -4 -2 -12h2q0 8 -2 12q2 1 3.5 2t2.5 2t2 1q0 2 -2 2q-4 -4 -4 -7zM119 461q-2 -2 -2 -8q1 -3 2 -9.5t2 -9.5l6 2q-1 3 -2 9.5t-2 9.5l-6 6q14 0 16 -2 q14 -18 18 5q1 2 1 3q2 2 2 8q-3 83 -9 170q0 2 -1 5.5t-1 4.5q-1 1 -2 4.5t-2 4.5q0 -1 -1 -4t-1 -5q0 -28 -4 -94q0 -8 1 -31t-2 -39t-13 -30zM199 354q-1 0 -3 -1t-3 -1q2 -10 7 -30.5t7 -30.5q13 -62 20 -88q4 -12 12.5 -33t12.5 -33q8 -21 16 0q27 61 29 68q4 11 17 48 t20 58q3 10 10.5 34t11.5 37t8.5 33.5t6.5 37.5q18 133 18 223q0 124 -14 295q-4 39 -39 229q-1 8 -17 68q0 2 -2.5 5.5t-3.5 4.5l-8 -8q-3 -6 -10.5 -18.5t-11.5 -19.5t-9 -18.5t-8 -21.5q-5 -17 -21 -61.5t-20 -69.5q-7 -36 -13.5 -103.5t-10.5 -95.5q-2 -15 0 -27.5 t-1 -28t-14 -26.5v-12q1 -14 4.5 -43t4.5 -43v-55v-68l-7 -6q-2 1 -6 4t-6 4q0 -14 2 -18q18 -33 6 -78q-2 -6 -0.5 -28t0.5 -31q0 -9 7 -29t8 -23zM371 1321q1 0 3 1t3 1q-7 15 -15 20q-2 3 -8 3t-8 -3q-8 -13 -6 -22q2 -12 8 -35.5t8 -36.5q35 -185 41 -223 q4 -25 6.5 -55.5t3.5 -47.5t2 -59t1 -51q0 -37 2 -55q0 -5 10 -15q8 8 8 15v78q0 5 1 16.5t1 17.5q5 20 4 25q-8 92 -14 143q-1 12 -5 32.5t-6 37.5t-1 33q0 33 -19 84q-5 12 -20 96zM449 1133q5 -33 8 -46q1 -4 9 -38t9 -52q4 -92 8 -276v-64q0 -6 4 -14q3 6 7 10q2 6 2 21 q1 8 1.5 32.5t2.5 38.5q0 4 2.5 13.5t3 15.5t-2 13t-9.5 12q-5 5 -2 8q6 10 5.5 29.5t0.5 29.5q7 66 -11 166q-6 25 -10 78q-4 4 0 4q7 6 8.5 13.5t0.5 12.5t-5.5 14t-5.5 13q0 1 -6 41q-5 42 -10 58q-2 8 -9.5 24t-11 29t-0.5 27q0 7 -6 10q-6 0 -10 -4q-17 -23 -6 -52 q14 -33 14 -45q0 -30 21 -65q5 -14 2 -21q0 -8 -4 -36zM154 379q0 8 1 17t1 12q-1 3 -3 8t-3 8q-4 -2 -13.5 -5t-13.5 -5v-15q1 -7 7 -31t3 -40q-6 -35 6 -41q5 -2 8 -4t4 -4.5t1.5 -4t-0.5 -4.5t-2 -4.5t-3.5 -4.5t-3.5 -5q-3 -6 0 -14q4 -27 9 -45q3 -6 8 -11q5 10 4 11 q-4 16 -5.5 23t1 18.5t10.5 19.5q2 2 -2 10q-2 23 -7.5 63t-6.5 48zM88 776h2v25q0 6 -4 14q-8 -8 -8 -14q-4 -54 -4 -80l8 -8q1 1 3.5 4.5t2.5 5.5v53zM72 436h2v-28q0 -2 3.5 -6t4.5 -5q1 1 2 3t2 3.5t1.5 2.5t0.5 2q0 10 -4 26q-1 6 -3 17.5t-3 17.5q-3 -15 -6 -33z M78 354q-2 0 -2 -2q2 -5 7 -20.5t7 -24.5h2v45q-1 3 -2 9t-2 8q0 2 -4 6q-4 -4 -6 -8v-13zM74 543h-2q2 -10 2 -29q1 4 3 13.5t3 13.5q1 3 4 8t4 8q0 2 -1 7t-1 7q0 1 -3 2q-2 1 -3 2q-6 -12 -6 -14v-18zM479 604v-14q1 -2 2 -5t2 -5q1 2 3 5t3 5q3 3 0 8q0 17 -2 25 q-4 -15 -8 -19zM178 711q1 4 3.5 10t2.5 8l-6 12q-9 -14 -10 -16q0 -4 10 -14zM74 651h4q6 12 6 13q0 6 -2 10q-1 -1 -3 -2t-3.5 -2.5t-1.5 -3.5v-15zM524 582q-1 3 -3 8t-3 8q-4 -4 -4 -6q0 -7 4 -19q3 3 6 9zM516 801q3 -9 6 -15q1 1 2 3t2 3.5t1.5 2.5t0.5 2q-4 12 -6 16 zM80 614q6 6 6 11q-4 4 -6 4t-4 -2.5t-2 -3.5t1 -2.5t2.5 -3t2.5 -3.5zM94 866q-4 4 -12 8v-6l6 -6q1 1 3 2t3 2zM524 647q-1 2 -2 6t-2 6q0 -2 -1 -6.5t-1 -7.5q0 -2 1 -6t1 -6q1 2 2 7t2 7zM96 264q1 0 2 -1t2 -1q0 1 1 3t1 3q0 2 -1 6t-1 5q-1 -1 -3 -2q-3 -2 -3 -3 t1 -4.5t1 -5.5zM514 877l6 2q-2 4 -2 14h-4v-16zM422 1374q-1 3 -1 6t-1 4q0 3 -4 7q-2 -3 -2 -5q1 -1 2 -2.5l3 -4.5t3 -5zM115 221q-1 1 -1.5 3t-1 3t-1.5 2q-1 -1 -3 -2t-2 -2q-2 -1 3 -6q1 0 3 1t3 1zM520 760h6v6h-6v-6zM551 901q0 1 1 2t1 2t-1 2t-1 2l-4 -4zM190 127 l3 -4q2 0 2 2v4q-2 -2 -5 -2zM178 197q0 4 -2 4t-2 -2t2 -4zM86 838q-2 0 -4 2l-2 -2q2 -2 2 -4zM518 1143q2 0 2 2l-2 2h-2zM526 1083q0 -2 2 -2l2 2v2q-2 0 -4 -2zM516 549h2l-2 4h-2q0 -4 2 -4zM152 139q0 -1 -1 -2t-1 -2q2 -2 4 -2l2 2zM86 692v2l-2 -2v-2q2 0 2 2z M166 229v-2h2v2h-2zM86 938h2v2h-2v-2zM88 891q0 2 2 2l-2 2q-1 0 -2 -1t-2 -1q2 -2 4 -2zM539 451v2l-2 -2v-2zM537 1020l2 2h-2v-2z" />
<glyph unicode="p" horiz-adv-x="569" d="M209 489q-1 -33 -4 -100.5t-4 -103.5q0 -55 -2 -82q-2 -23 -7.5 -68t-7.5 -67q-1 -2 -1.5 -6.5t-1.5 -7.5t-3 -5q-11 -22 -22 -2q-5 8 -14.5 24.5t-14.5 24.5q-2 4 -10 8l-6 -12q0 -18 1 -55t1 -57q0 -6 -7 -13q-29 -11 -75 4q-11 4 -11 25q0 20 5 117l6 204q8 172 8 258 v168q1 69 2 210t2 210v168q0 24 8 78q0 6 1.5 12t5 12t5.5 10t7.5 10t7.5 8l8.5 8.5l7.5 7.5q21 17 31 0q10 -18 33 -7q7 3 21.5 10.5t21.5 10.5q87 36 180 -8q45 -20 80 -68q19 -29 55 -112q22 -56 33 -140q7 -77 -23 -194q-3 -14 -9 -41.5t-9 -42.5q-1 -1 -2 -4.5t-2 -5.5 t-2 -3q-12 -6 -19.5 -24.5t-11.5 -22.5q-13 -17 -33.5 -51.5t-40.5 -60.5t-45 -43q-3 -2 -16 -15q-16 -16 -27 2q-8 17 -16 -2q-1 -2 -4 -5.5t-5 -6.5t-3 -6q-8 -16 -27 -16q-28 -1 -36.5 -10.5t-10.5 -37.5v-84h2zM463 981zM141 475q0 -8 -2 -10h4q0 2 -1 5.5t-1 4.5 q13 -9 29 -16q2 -1 6 -0.5t6 2.5q4 16 6 26q-10 5 -14 5q-14 -6 -33 -17zM209 870h2v-106q1 -4 3 -12.5t3 -12.5q16 11 19 15q1 1 6 5.5t6.5 5.5t6.5 3.5t8 2.5t7.5 -1.5t8.5 -5.5q7 0 12 10q22 50 28 68q1 1 5.5 8.5t5.5 11t-2.5 8t-12.5 7.5q-2 0 -2 12q3 11 8.5 33 l8.5 34q27 79 30 183q3 127 -69 252q-3 6 -12.5 13.5t-12.5 6.5q-29 -12 -35 -31q-5 -15 -10 -69q-4 -48 -8 -140q0 -6 -2 -18t-2 -18v-265zM141 207q-1 2 -3.5 9.5t-4.5 12.5q-9 -12 -16 -26q-2 -2 -2 -6q-1 -4 -1 -12t-0.5 -13t-3 -11.5t-8.5 -10.5q0 -2 4.5 -9t8.5 -10 q1 -1 7.5 1.5t8.5 4.5q2 12 5.5 37t4.5 33zM254 672h8q0 2 1 7t1 7q0 4 -1 12.5t-1 12.5q1 4 10 22q-6 -6 -18 -14q-8 -8 -8 -12q1 -6 4 -17.5t4 -17.5zM129 276q1 2 3.5 5t2.5 4q-2 6 -6 14q-1 -1 -3 -2t-1 -2q0 -3 4 -19zM166 76q6 18 6 22l-6 6q-6 -6 -6 -10 q0 -2 2.5 -7.5t3.5 -10.5zM158 586q-1 2 -4 6t-4 6q-7 -7 -7 -8q1 -1 4.5 -4t4.5 -4q2 0 6 4zM299 702q-1 1 -2 3.5t-2 3.5l-6 -4q3 -6 6 -9q1 0 4 6zM412 1077l8 -8q1 1 2 3l1.5 3t0.5 2q-1 2 -4.5 3.5t-3.5 2.5q0 -2 -4 -6zM90 457q2 2 2 4l-4 4q-2 -2 -2 -6q0 -2 4 -2z M129 248h4l-4 4h-2zM141 541l2 4l-4 2l-2 -2zM426 1257l2 3h-4v-3h2zM68 80q2 2 2 4h-4v-2zM182 549v-2l2 2l-2 2v-2zM100 268v2q-2 0 -2 -2h2zM90 350q2 2 2 4h-2l-2 -2zM143 397v-4h2q0 2 2 2q-2 0 -4 2zM135 414v2v-2zM70 195l-2 -2l2 -3l2 3z" />
<glyph unicode="q" horiz-adv-x="759" d="M662 451q4 -47 -11 -80q-5 -12 -11 -35.5t-7 -28.5q-3 -8 2 -18q7 -17 33 -76q12 -28 -11 -45q-23 -12 -20 -39q2 -8 -2 -10t-10 2q-7 5 -20.5 14.5t-20.5 14.5q-3 3 -10.5 3.5t-8.5 -1.5q-5 -6 -27.5 -37.5t-37.5 -46.5q-17 -20 -62 -39q-12 -9 -47 -13q-1 0 -5.5 -1 t-6.5 -1q-12 3 -39.5 6.5t-48 9.5t-37.5 19q-4 2 -16 6q-49 10 -81.5 41.5t-58.5 83.5q-5 10 -9.5 20t-8 22.5t-6.5 20t-6 23t-4.5 21t-4.5 23.5l-3.5 21t-3.5 24t-3 22q-4 22 -5 44t0 57.5t1 43.5q0 14 -1 40t-1 47t2 38q2 19 9.5 93.5t13.5 113.5q5 31 45 199 q29 107 49 155q25 71 65 146q3 6 7.5 12t10 11t9.5 8.5t11.5 8t11 7t12 7t10.5 5.5q37 18 90 35q9 9 12 18q25 42 45 56q2 1 6.5 4t7 4t6.5 1.5t8 -1t9 -4.5h13q36 4 55 4q36 3 57 -37q9 -9 6 -12q-4 -19 6 -51.5t9 -45.5q-1 -15 0.5 -31t5 -38.5t4.5 -32.5q21 -162 23 -180 q3 -16 8 -103q1 -4 1 -10t1 -8t3 -7.5t3 -9t1.5 -8.5t-1 -9.5t-4.5 -8.5q-2 0 -2 -3t2 -5q9 -9 10 -20.5t-2 -26.5t-2 -23q1 -18 1 -39t-0.5 -46.5t-0.5 -39.5v-4q6 -19 6.5 -41.5t-2 -39.5t-6 -41.5t-4.5 -39.5q-2 -24 -6 -62.5t-6 -55.5zM145 213zM516 725h4 q-1 26 -4 107.5t-6 125.5q-5 61 -16 176t-15 158q-5 30 -8 39q-2 6 -12 21v-21q-1 -1 -1.5 -3.5t-1 -3.5t-1.5 -1q-12 -39 -4 -61q3 -8 -2 -21q-9 -23 -19 -6q-10 8 -20 -2q-18 -26 -25 -66q-1 -3 -12 -32q-2 5 -4 15t-4 15q-2 4 -7 9q-1 -1 -2 -3.5t-2 -3.5q-1 -3 -3.5 -11 t-4 -11t-4 -9.5t-5 -9.5t-6.5 -7t-9 -7q-2 0 -7 -14q-14 -41 -22 -76q-17 -55 -25 -80q-1 -3 -4.5 -8.5t-6.5 -11.5t-5 -11q-1 -3 0 -12.5t0 -13.5q-3 -36 -8 -64q-2 -13 -11.5 -77.5t-13.5 -100.5q-17 -136 -10 -299q1 -6 0.5 -22t1.5 -21q12 -49 27 -96q20 -63 59 -96 q18 -26 35 -9q42 37 51 47q12 14 23 33.5t17 34t15.5 39t14.5 35.5q5 7 0 22q-21 42 -33 62q-7 16 -21.5 45t-21.5 45q-49 105 -64 131q-13 25 -5 48.5t34 29.5q15 0 23 2q45 10 82.5 -12t56.5 -68q1 -2 4 -5t4 -5q0 2 2 6t2 6v129zM524 1389q1 0 2 1t2 1q-3 8 -9 25.5 t-9 25.5q0 2 -2.5 7t-3.5 9q-1 -3 -3 -7t-3 -6.5t0 -4.5q0 -37 4 -103q1 -7 3 -20.5t3 -20.5q8 -121 14 -176q1 -8 5 -24.5t5 -22.5q1 -15 4.5 -56.5t7 -70t9.5 -55.5q4 -4 4 -8l8 8q2 11 -1 43t3 43q-7 20 -9.5 43t-3 53t-1.5 45q-1 6 0 20t0 21t-6 21.5t-6 21.5q-1 5 1 34 t-3 34q-4 17 -4 73q-1 5 -11 46zM580 1237q0 -2 -7 -2q9 -24 21 -45q2 -6 10 -6v12q0 4 -1 17t-1 20q-3 21 -7 65t-7 66q0 4 -8 12q0 3 -8 2l-9 -2q2 -6 6 -14q4 -12 4 -16v-35q1 -13 3.5 -37.5t3.5 -36.5zM604 1034q2 -39 6 -88q0 -6 2 -8l6 -6q5 5 5 6v37q0 7 -1 18.5 t-1 20t2 14.5q1 4 4 11.5t2 11t-8 6.5q-1 1 -1 6t1 8q7 13 6.5 17.5t-8 14.5t-9.5 15q-1 1 -5.5 2t-6.5 2q-2 -4 -2 -12q8 -54 8 -76zM156 305q1 -7 18 -96q1 -4 2 -11.5t2 -11.5q2 -6 10 -10q0 2 1 7t1 7q-3 15 -8 48t-8 51q-1 3 -4.5 10.5t-1.5 7.5h12v8q-2 0 -9.5 1.5 t-10.5 0.5q-4 0 -4 -12zM100 543v-21q2 -2 6 -10q1 1 4 5.5t3 6.5q0 6 -2 17t-2 14q0 19 -3 31q-1 -5 -3 -16.5t-3 -16.5v-10zM145 428q1 -3 4 -7.5t4.5 -8t2.5 -6.5q2 2 6.5 6t7.5 7t4 7q4 7 -1.5 11.5t-14.5 4.5q-1 0 -3 -2t-5 -6t-5 -6zM119 649v15q0 3 -2 6.5t-2 5.5 q-6 -6 -6 -12v-54q0 -2 6 -8q6 6 6 8q0 6 -1 19.5t-1 19.5zM582 1151q3 -2 8 -6t8 -5.5t6 -0.5q4 0 8 12q0 4 -8 12q-3 0 -5.5 -1.5t-7 -5t-9.5 -5.5zM633 881q-5 10 -8 22q-9 -13 -9 -18q-2 -3 9 -19q6 12 8 15zM164 356q-8 20 -8 27q-4 -12 -4 -27q0 -4 2 -8l2 -4 q3 1 8 12zM582 1409q-3 9 -7 25h-2q0 -21 2 -27q0 -1 1 -2t2 -2.5t2 -3.5q0 6 2 10zM616 827q1 -2 4.5 -6t4.5 -6q3 6 2 8q0 3 -4 23q-1 -3 -3.5 -9.5t-3.5 -9.5zM625 401q-3 3 -11 15q-1 -2 -3.5 -7.5t-2.5 -7.5q0 -4 6 -10q1 1 5 4.5t6 5.5zM96 451q2 -2 3.5 -4t2.5 -3.5 t2 -1.5q5 0 5 7t-3 10q-5 0 -10 -8zM109 483h-9q-2 -2 -2 -4l4 -4q6 6 7 8zM618 639q3 0 3 2h-3q-2 0 -2 -2h2zM121 727v-2l2 2h-2z" />
<glyph unicode="r" horiz-adv-x="667" d="M188 627q0 -33 -0.5 -93t-0.5 -108.5t1 -91.5q1 -30 7.5 -85t7.5 -75q1 -7 -4 -29q-2 -4 -7.5 -14.5t-7.5 -17.5q-9 -28 -23 -33.5t-40 8.5q-10 6 -33 10q-18 3 -30 14.5t-13 28.5q-8 74 -10 111q-9 136 -15 274q-2 59 -2 179q1 48 2.5 142.5t2.5 141.5q4 75 16 217 q4 101 10 150q5 46 25 100q11 31 53 27q65 -10 113 22q22 11 39 11q52 0 75 -1t62 -11t67 -31q3 -3 17.5 -13.5t21.5 -17.5q14 -14 17 -29q13 -87 -35 -143q-27 -29 -78.5 -91.5t-77.5 -91.5q-19 -22 -72 -71q-17 -13 -2 -23q50 -31 99 -106q14 -25 39 -74.5t37 -71.5 q4 -7 16 -28.5t18 -34.5q33 -70 41 -139q1 -10 7.5 -30t7.5 -30q0 -2 12 -80q3 -16 14.5 -71t16.5 -86q2 -12 4 -37t2 -27q1 -7 5 -24.5t5 -26.5q0 -8 -2 -25.5t-2 -25.5q-4 -51 -23 -76q-19 -22 -47 -12q-8 2 -21.5 6.5t-25 7.5t-22.5 4q-30 3 -33 33q-14 68 -14 86 q0 173 -43 330q-47 180 -117 317q-15 35 -35 68q-2 3 -8.5 7t-9.5 7q-1 -3 -4 -10t-3 -10v-207zM133 309h-2h2zM385 1366q-2 6 -6.5 21.5t-9 25t-11.5 12.5q-42 23 -86 2q-21 -10 -18 -32q0 -6 -2 -19t-2 -20q-2 -14 -2 -45t-2 -45q-5 -23 -19 -75.5t-20 -80.5q-1 -4 4 -25 q2 1 12 6.5t13 10.5q58 68 69 82q70 90 80 182zM76 352h-2q9 -86 18 -168q2 -6 12 -16q5 15 5 18q-1 28 -11 170q-1 8 -1.5 34t-2.5 40q-8 54 -4 195q0 28 -12 82q0 4 -8 8q0 -2 -2 -5t-2 -5q0 -17 -0.5 -49.5t-0.5 -52.5t1 -47.5t4 -51.5q3 -23 4 -48.5t1 -56.5t1 -47z M143 250q-1 0 -2 1t-2 1q-2 -2 -2 -4l2 -2z" />
<glyph unicode="s" horiz-adv-x="671" d="M440 590q-14 141 -26 231q-1 11 -3 21.5t-6.5 23t-6.5 19.5t-9 22t-9 19t-10.5 21.5t-9.5 19.5q-14 32 -61 49q-47 19 -86 41l-102 67q-5 0 -5 4q-5 9 -15 25t-16 27t-11.5 26.5t-5 31t7.5 32.5q10 27 26.5 81.5t24.5 78.5q14 45 65 75q38 22 113 41q46 12 85 -2.5 t64 -54.5q14 -22 56 -94q10 -18 11.5 -42.5t-1.5 -43.5q0 -7 -2 -9q-11 -11 -32.5 -34.5t-33.5 -34.5q-4 -4 -20 -12q-19 -6 -30 2.5t-7 27.5q10 65 -25 148q-6 16 -14.5 22t-18.5 1t-20 -19q-5 -6 -18 -18.5t-19 -20.5q-19 -25 -28 -53q-18 -49 -33 -99q-11 -33 -3.5 -52 t40.5 -36q13 -6 36.5 -13t30.5 -9q45 -19 64 -31q50 -22 67 -39q26 -22 72 -80q10 -15 27.5 -44.5t23.5 -39.5q14 -24 23 -100q13 -75 20 -172q1 -13 -4 -88q-1 -11 -1 -31t-1 -36t-4 -31q-3 -18 -12.5 -55.5t-12.5 -57.5q-16 -90 -55 -164q-6 -13 -21.5 -36.5t-21.5 -35.5 q-9 -20 -25 -30.5t-41 -18.5t-36 -14q-18 -11 -38.5 -12t-35.5 4t-37 16q-10 6 -43 16q-100 27 -168 113q-5 7 -10 27q-33 85 4 219q32 113 37 129q15 45 24.5 69t28 57.5t41.5 57.5q56 56 109 56q15 0 33.5 -13.5t23.5 -27.5q0 -17 -4 -23q-8 -18 -23 -41 q-18 -23 -33 -54.5t-20.5 -48t-19.5 -59.5q-9 -30 -26.5 -86t-24.5 -78q-2 -7 -7 -47v-139q0 -45 41 -27q5 2 58 25q38 20 67 76q66 132 78 276q4 39 8 109h2zM305 705zM270 662v-3h2zM125 537h2v2q-2 0 -4 -2h2zM492 1356h2l-2 2v-2z" />
<glyph unicode="t" horiz-adv-x="557" d="M-10 1436q12 3 42.5 10t47.5 10q18 5 52 14.5t52 14.5q16 5 21 16q20 32 39.5 39.5t52.5 -8.5q15 -7 29.5 -8.5t34.5 0.5t28 2q63 0 195 4q3 0 9 -2t9 -2q27 -8 25 -27q0 -12 -9.5 -22t-21.5 -13q-31 -6 -95 -19.5t-95 -19.5q-25 -6 -30.5 -12t-8.5 -31q0 -4 -1.5 -24 t-3.5 -29q-5 -34 -16 -101.5t-16 -101.5q-4 -40 -4 -63q-5 -64 -15.5 -190t-15.5 -189q-1 -3 -1 -19.5t-3 -23.5q-14 -29 0 -43v-6q-7 -24 -7 -70.5t-3 -66.5q-5 -33 -5 -117q-2 -45 -5 -135t-5 -135q-3 -30 -12 -56q-6 -12 -16 -12q-3 0 -17 14q-1 1 -2 5t-2 6 q-6 -3 -10 -11q-12 -21 -29 -4q-18 18 -43 21q-17 3 -27 20.5t-8 38.5q3 31 8.5 94t8.5 95q1 13 1 38.5t1 38.5q2 40 6 121t6 121q2 34 7 100.5t7 100.5q2 32 6.5 92.5t6.5 87.5q3 47 10 135.5t10 130.5q2 35 10 96q0 15 -4 20.5t-18 2.5q-45 -10 -80 -10q-8 0 -16.5 2 t-19 5.5t-15.5 4.5q-12 3 -39.5 8t-42.5 8l-12 -6q-19 -14 -27 10q-3 14 4 28t21 18q13 5 49 10q0 -4 2 -6zM205 135q4 -46 4 -67q3 -18 18 -11q1 0 3.5 5t2.5 8q0 100 3 120q3 15 5 30.5t3 33t1.5 30t0.5 33t0.5 30t-0.5 33t-1.5 30t-1.5 32.5t-1 31q0 8 -2 12q0 4 -7 4 q-4 0 -4 -4q-2 -4 -2 -12v-154q0 -11 -4.5 -32t-5.5 -29q-4 -37 -8 -111l-6 -12h-6h8zM154 254h2q0 -12 -1 -33t-1 -33l6 -12q1 1 4.5 5.5t3.5 6.5q2 11 4 34t4 34q1 9 4 24t4 21q2 4 2 16q0 5 -2 19.5t-2 21t2.5 17.5t8.5 20v15q-1 5 -2.5 15.5t-2.5 16.5q-1 41 7 118 t8 112q-1 17 0.5 46t1.5 38q3 8 -4 14l-8 8q-1 -2 -4 -5.5t-3 -4.5q-1 -20 -4 -54t-5 -62t-3 -52q-8 -112 -20 -346zM186 850q5 -5 9 -8l4 -4l4 6q0 8 -4 8q-2 2 -13 -2zM211 940l8 8q0 1 -1 3t-1 3q-1 -1 -3 -1.5t-3 -1t-2 -1.5t2 -10zM246 588q0 -4 2 -4t4 2l-4 4z M152 633l4 4q-2 0 -2 2l-4 -4q2 0 2 -2z" />
<glyph unicode="u" horiz-adv-x="643" d="M70 424q-27 195 -31 508q-4 61 -4 129.5t2 153.5t2 131q0 32 4 86q3 30 21.5 46.5t48.5 14.5q51 -11 80 -16q45 -12 45 -56q11 -118 -9 -186q-5 -20 -7.5 -42t-4 -50t-2.5 -41q-1 -17 -1 -56t-1.5 -69t-5.5 -57q-4 -47 6 -242q2 -27 5 -83t5 -83q6 -111 35 -215 q3 -8 25 -41q3 3 10 9t12 11.5t8 10.5q3 10 16.5 48t16.5 58q5 28 15.5 78t18.5 91t13 79q5 49 14 145t13 140q12 110 18 217q3 61 -4 143q-2 19 3 29.5t24 17.5q2 2 18 2q3 0 13 -2t16 -2q25 -8 30 -20q1 -3 1 -6q4 -22 14 -27q33 -20 41.5 -39t3.5 -57q-8 -44 0 -72 q2 -18 2.5 -19t-2 -22t-2.5 -22q-1 -11 -18 -256q-12 -89 -23 -213q-1 -7 -0.5 -25.5t-1.5 -24.5q-3 -34 -6 -75q-5 -27 -13 -77.5t-10 -64.5q-10 -41 -28 -67q-22 -50 -60 -105q-7 -10 -30 -10q-5 -2 -22 -6.5t-24 -9.5q-28 -19 -49.5 -19t-50.5 17q-6 5 -31 14 q-63 10 -90 65q-13 20 -23 44t-16.5 41.5t-12 44.5t-7.5 37.5t-6 37.5t-4 29zM514 1180q0 6 -4 6q-8 16 -12 20q-8 -16 -9 -20q-4 -50 -6 -74q-3 -22 0 -47q3 -6 13 -16q1 1 3.5 4t4 5.5t0.5 6.5q4 74 8 109q2 2 2 6zM489 934q0 4 -1 11.5t-1 12.5q0 3 -4 3h-6 q0 -10 -2 -28.5t-2 -27.5q0 -1 3.5 -3.5t4.5 -4.5q8 8 8 10v27zM489 1030h-2l-2 -2q1 0 2 -1t2 -1v4zM469 856q4 -2 6 -2t0 2h-6z" />
<glyph unicode="v" horiz-adv-x="702" d="M223 1325q0 -129 2 -195q1 -17 4 -48t4 -48q2 -27 4.5 -82t4.5 -82q4 -47 16 -153q1 -12 4 -34t4 -34q4 -12 4 -14q8 4 11 14q5 21 13 66.5t13 66.5q8 47 20.5 102.5t22 94t26.5 103.5t25 96q10 31 68 249q3 27 12 60q12 20 23 31q7 5 24 8v-23q2 -4 8 -7l5 -3 q1 -1 4.5 1t5.5 5q7 9 14 14.5t16.5 7t15 2t17.5 0t17 -0.5q19 0 27.5 -14.5t3.5 -37.5q-3 -10 -9 -35t-12 -40q-4 -13 -15.5 -36t-13.5 -28q-34 -135 -51 -186q-22 -83 -35 -127q-3 -13 -6 -34l-4 -28q-17 -106 -39 -215q-1 -13 -10 -47q-1 -7 -6.5 -22.5t-6.5 -23.5t3 -27 q5 -3 0 -17q-2 -15 -15.5 -100.5t-19.5 -130.5q-15 -84 -39 -271q-4 -29 -16 -84q-3 -8 -10 -13.5t-13 -4.5q-36 3 -74 12q-41 16 -63 23q-34 11 -37 49q-8 55 -31 254q-20 153 -39 332q-37 309 -47 401q-5 43 -9.5 120.5t-6.5 102.5q-6 50 -6 103q0 10 12 22q34 23 85.5 16 t74.5 -32q13 -11 18 -47v-31h2zM504 1266q1 5 4.5 14t5.5 16t2 11q1 3 12 14q4 -12 4 -18q-2 -11 -6 -35.5t-6 -36.5q0 -2 8 -14q11 11 11 12q9 53 18 102q1 3 -2 7.5t-6 4.5q-13 3 -15 13.5t3 23.5q1 8 3 23.5t3 23.5q1 5 2 17t2 16q-9 -5 -31 -22q0 -4 -4 -8 q-15 -47 -39 -132q-1 -6 -3.5 -24t-4.5 -26t-7.5 -19.5t-15.5 -18.5q-2 -4 -2 -16q-4 -12 -14 -55q-4 -20 -15.5 -55.5t-15.5 -53.5q-14 -65 -26 -133q-5 -27 -21 -92q-11 -70 -16 -113v-22q7 10 10 20q28 97 29 101q1 3 10.5 36t13.5 50q1 3 -10 20q35 27 31 61q-2 4 2 15 q61 220 76 276q0 1 4.5 7.5t5.5 9.5zM487 1079q5 5 5 8v7q-5 0 -9 -4q0 -3 4 -11zM569 1386q0 -4 4 -4q2 0 2 4q-1 1 -2 2.5t-2 2.5q-2 -2 -2 -5zM483 1057l2 2h-2v-2zM328 643v4l-2 -2z" />
<glyph unicode="w" horiz-adv-x="1062" d="M96 182q3 78 0 156q0 11 -6 164q-12 198 -22 295q0 18 -4 54.5t-5 51.5q-2 34 -6.5 131t-9.5 154q-4 30 -8 94q0 23 10 44t27 28q43 29 78 37q24 2 59 -15q13 -3 23.5 -12.5t11.5 -20.5q3 -9 3.5 -21.5t0 -21.5t-2 -26t-1.5 -23t-2.5 -22t-1.5 -21q-3 -39 -5.5 -115.5 t-5.5 -115.5q-3 -32 3 -88t6 -78q1 -15 4 -39.5t4 -34.5q0 -3 2 -9t2 -9q8 12 12 20q14 50 23 88q18 72 52.5 201.5t47.5 179.5q1 4 7.5 23.5t8.5 32.5q3 12 11.5 17.5t17.5 2.5q21 7 39 16q7 0 20 7t20.5 9t20.5 -7q3 -1 18.5 -2t22.5 -7q6 -8 10 -19.5t6 -19t5 -22.5 l4 -20q12 -140 20 -215q1 -9 2.5 -32t2.5 -34q6 -53 16 -111q3 -27 7 -81.5t7 -81.5q1 -12 5.5 -34.5t5.5 -31.5q0 -8 2 -8q8 8 8 10q1 4 12 59q12 52 33.5 152.5t32.5 146.5q69 261 110 404q4 12 8.5 26t11 31t9.5 27q10 20 25.5 29t33.5 2q1 0 4 -1t4 -1q19 16 43 16 q4 1 12 3.5t12 3t11 -0.5q19 -1 23.5 -16t-6.5 -35q-32 -42 -64 -143q-1 -6 -5.5 -27.5t-7 -31.5t-8 -26t-12.5 -28q-11 -15 -14 -42.5t-8 -37.5q-7 -15 -12.5 -46t-8.5 -40q-7 -20 -13.5 -63.5t-14.5 -67.5q-6 -9 -12.5 -29.5t-8.5 -25.5l-4 -9q9 -9 0.5 -48t-8.5 -46 q0 -8 -2 -16.5t-4.5 -14.5t-7 -17t-7.5 -17q-13 -21 -6 -35q8 -5 0 -19q-3 -12 -6 -43.5t-10 -48.5q-6 -13 -7 -37t-3 -34q-3 -20 -10.5 -61.5t-10.5 -61.5q0 -23 -4 -31q-4 -25 -10 -66.5t-10.5 -75.5t-8.5 -65v-6q-6 -30 -8 -33q-24 -12 -35 -12q-8 1 -24.5 1t-29 2.5 t-21.5 10.5q-9 9 -27 2q-28 -6 -31 25q-4 24 -12 66.5t-14.5 79t-10.5 69.5q-20 156 -47 422q-9 54 -18 176q-1 3 -4 8t-4 8q-6 -9 -6 -18q-38 -131 -56 -199q-10 -33 -26.5 -95t-24.5 -89q-5 -23 -22.5 -87t-24.5 -99q-11 -41 -14 -93q-4 -14 -9.5 -42t-9.5 -42 q-6 -27 -49 -30q-24 9 -27 12q-25 5 -32 4q-32 -8 -47.5 4t-12.5 45zM721 608v-2v-2v4zM702 500q-4 0 -4 2q0 -2 4 -2v-2v2zM735 514v-14h2q-2 4 -2 14q15 7 17 14q1 4 2 9q2 21 16.5 77t11.5 88q0 5 4 9q27 30 17 63q0 15 4 23q4 16 19.5 65t21.5 76q3 8 6.5 34t11.5 40 q-7 10 8 49q4 12 10.5 44.5t14.5 51.5q11 24 29 117q6 17 20 90q2 4 -2 12q0 -8 -8 -12q-20 -42 -27 -68q-8 -39 -26 -106.5t-23 -87.5q-5 -24 -21 -86t-22 -96q-12 -69 -22 -111q-4 -16 -25 -123q-6 -23 -37 -172zM854 1108l-6 8q-6 9 -10 10q-21 -3 -27 -28q0 -13 -2 -21 q0 -44 -10 -69q-19 -49 -19 -93q-1 -15 -8 -40t-8 -33q1 -11 -6 -34.5t-8 -31.5q-1 -4 2 -10q12 0 12 4q8 8 12 27q1 4 2 13.5t2 14.5q10 46 32 127.5t28 106.5q1 3 3.5 10t2.5 10q3 9 8 29zM850 1147q5 8 8 16q13 29 21 56q19 56 24 94q3 5 -8 22q-6 -6 -6 -18 q-14 -35 -17 -70q-21 -60 -24 -84q-2 -2 2 -16zM739 723q1 -3 2 -5.5t3.5 -6t3.5 -6.5q1 6 5 17t5 15q1 2 0 3.5t-4 3.5l-2 1q-8 -12 -13 -22zM727 575q-3 0 -10 3.5t-8 3.5q0 -5 -4 -21q0 -3 10 -6q1 3 5 8.5t7 11.5zM911 1348q0 2 2 7t2 7q-2 2 -2 4q-3 -3 -7 -6t-5 -4 q0 -5 10 -8zM737 670q4 8 8 12q-2 5 -12 8v-6q0 -10 4 -14zM950 1395l4 4v8l-4 -2v-10zM281 600q4 4 4 0v4h-2q0 -2 -2 -4zM672 545h2v4q-2 -2 -4 -2zM725 428h-4l2 -2z" />
<glyph unicode="x" horiz-adv-x="604" d="M133 528q1 4 4 17.5t6 19.5q40 70 15 156q-37 131 -103 397q-17 66 -35 166q-10 45 -26 135q-5 18 16 27q54 22 131 4q67 -21 64 -84q0 -38 20 -80q7 -19 11 -63q2 -38 14 -103q1 -10 3 -21t5 -24.5t4 -21.5q5 -14 8 -19q2 3 6.5 8.5t6.5 8.5q4 6 12 22q35 99 84 227 q40 108 53 132q4 9 19 15.5t28 6.5q38 4 62 -18q18 -20 26.5 -30t15.5 -29t3 -38q0 -18 -4 -24q-26 -45 -58 -135.5t-41 -112.5q-8 -19 -34.5 -78.5t-43 -99.5t-30.5 -80q-1 -4 -8.5 -25.5t-9.5 -28.5t-7 -25.5t-5.5 -29t-1 -26.5t3 -30t9.5 -28q5 -15 2 -18 q-3 -15 -2 -21.5t6.5 -19.5t6.5 -18q4 -14 13 -41.5t13 -42.5q28 -120 31 -131q5 -21 -14 -29l2 4q-1 2 -2 6t-2 6h-2q0 -4 4 -12v-4q9 -14 12 -14q21 3 25 -19q8 -31 14 -65q-3 5 -9.5 15t-9.5 15q-6 6 -12 9q-4 -8 -4 -15q4 -18 10 -31q2 -3 8 -7t7 -5q3 5 8 19 q2 -3 15.5 -25t17.5 -37q4 -19 36 -76l3 -6l3.5 -7t0.5 -5q0 -1 -17 -29q-3 3 -9 10.5t-9 10.5q-2 2 -17 12q0 -12 -2 -18q0 -17 -2 -17q-3 0 -8 -1t-9 -1t-7 2q-8 7 -23 31q-10 13 -18 13t-17 -13q-6 -6 -8 -6q-35 17 -37 18q-5 2 -8 4.5t-4 6.5t-2 7t-1.5 9t-0.5 8 q-31 104 -41 145q-5 16 -15.5 48.5t-15.5 48.5q-11 36 -20 59q0 1 -13 14q-4 -4 -12 -16q-37 -96 -49 -127q-17 -47 -86 -242q-4 -12 -8 -36q-6 -21 -22.5 -30t-37.5 -3q-9 2 -30 8t-33 8q-11 3 -19 9.5t-18 19.5t-12 16q-7 8 -3.5 16t13.5 13q0 -8 2 -12q6 0 10 4 q6 9 21 39q37 101 57 163q1 0 3 -1t3 -1q-1 0 -3 1t-3 1q33 82 57 134q2 5 23 26q-1 -2 -4 -5t-4 -5t-2 -7.5t-2 -8.5h10q4 12 4 18q0 1 -1 3.5t-1 4.5q-2 0 -2 4q-6 7 10 19t-4 20q4 8 13.5 24.5t13.5 24.5q6 -4 16 -14q1 3 4 9t4 9q2 3 5.5 11t6.5 12.5t7 5.5q12 6 6 21 v20q0 1 -1 4.5t-1 5.5q-1 -1 -4 -3t-4 -3q-22 -33 -23 -35zM426 121q0 -6 2 -6l12 -6l2 2q-6 6 -10 8q-2 2 -8 2v-2zM270 487q17 -96 23 -118q2 -10 41 -123q4 -13 12 -37.5t12 -36.5q2 -3 7.5 -9t7.5 -9l12 18q11 23 14 23q16 4 17.5 11.5t-6.5 16.5q-5 7 -14.5 17.5 t-12.5 13.5q-2 3 -7 9.5t-7.5 10.5t-1.5 7q3 9 3 18.5t-1.5 21t-1.5 17.5q3 23 -2 39q-5 26 -19 57q-5 10 -10 10q-19 -2 -23 19q-2 8 -5 25.5t-5 25.5q-2 6 -12 16q-2 -2 -7.5 -6t-7.5 -6q-6 -18 -6 -31zM170 358q-2 3 -8 10.5t-8 10.5q-2 -4 -7 -11t-6 -10q-3 -7 -7 -20.5 t-7 -20.5q-6 -19 -23 -64t-24 -69q-1 -1 1 -6q1 -4 1 -6q2 1 4.5 1.5t4 1t1.5 1.5q18 32 23 43q8 20 24.5 59.5t24.5 59.5q4 12 6 20zM106 319q3 4 6 9.5t5.5 8.5t4.5 6.5t3 6.5q2 3 -10 15q-2 -5 -6.5 -15.5t-6.5 -15.5q0 -1 0.5 -3t1.5 -5.5t2 -6.5zM59 182q11 16 11 17 l-4 4q-12 -12 -13 -15zM475 90q2 3 4 6.5t3 5t1 2.5q-1 3 -5 8.5t-5 8.5q-10 -10 -10 -12q2 -5 12 -19zM399 375q-8 12 -12 16l-4 -4q2 -4 6 -12.5t6 -12.5q0 1 4 13zM135 383q8 12 10 14l-8 4q-2 -2 -5 -6t-5 -6q4 -4 8 -6zM360 459q3 -3 8 -7t7 -6l4 7q-8 8 -12 14l-3 -3 q-2 -4 -4 -5zM86 252l-2 6q-4 -2 -6 -4l2 -4q1 0 3 1t3 1zM184 406q6 3 6 6q1 1 -0.5 3t-1.5 3q-6 0 -6 -4q-1 -1 -0.5 -2t1.5 -2.5t1 -3.5zM68 317v2h-2l-3 -2h5zM96 295h2v2h-2v-2zM426 160q1 1 2 3l1.5 3t0.5 2q-2 2 -4 2l-4 -4q0 -2 4 -6zM20 205q0 2 -2 4l-2 -2v-4 q4 0 4 2z" />
<glyph unicode="y" horiz-adv-x="741" d="M27 754q1 58 2 174t2 174q0 108 6 219q3 53 22 84q19 33 70 25q58 -4 80 -52q5 -8 10 -43q-1 -5 -3 -18l-3 -19.5t-2.5 -18.5t-1 -20t2.5 -19.5t5 -22.5q5 -4 0.5 -26.5t-4.5 -27.5q-34 -175 -20 -424q3 -27 14 -51q3 4 14 14t15 17q62 111 98 184q52 117 82 205 q2 5 10 29.5t10.5 32t9 28.5t9 33t6.5 30t6.5 34t3.5 32q6 86 59 113q4 4 11 4q17 -10 53 -8.5t53 -10.5q28 -19 33.5 -40.5t-0.5 -59.5q-3 -63 -33 -348q-15 -144 -22 -238q-11 -264 -13 -282q0 -10 -0.5 -43.5t-1.5 -49t-5 -40.5t-11 -45q-2 -5 -0.5 -23t0.5 -25 q0 -61 2 -92q-2 -16 2 -53q5 -34 -2.5 -49t-32.5 -19q-17 -3 -39 15q-18 8 -46 27t-34 22q-29 12 -26 45l6 129q6 48 6 49q12 154 16 227q2 37 7 224q2 5 -7 22q-1 -1 -7 -4.5t-7 -7.5q-13 -21 -34 -61.5t-33 -59.5q-22 -38 -82 -129q-19 -28 -53.5 -35.5t-63.5 11.5 q-24 21 -62 36q-32 9 -45 58q-10 42 -16 82q-4 18 -7.5 49t-4.5 37h-4zM489 653q-8 28 -8 41q-4 0 -4 -2q4 -22 12 -39q-13 0 -21.5 -11.5t-2.5 -27.5q7 -38 -1 -102.5t-7 -87.5q1 -44 -5.5 -124t-7.5 -110q0 -29 2 -43q0 -3 11 -8q3 10 22 54q-3 10 0 20q1 -2 5 -5.5 t5 -6.5q13 -6 15 -11q2 5 3.5 13t2.5 10q1 23 4.5 94t3.5 109q6 74 6 219q0 3 -3 11.5t-3 10.5q-2 -4 -6.5 -10.5t-5.5 -9.5q-2 -12 -3 -37t-3 -37q-1 -2 -3 -8t-3 -8q0 1 -5.5 6.5t-5.5 9.5q3 47 6 90zM530 834q0 5 -1 13.5t-1 12.5q0 3 -1 5.5t-2.5 6t-2.5 5.5 q-8 -8 -8 -15q-1 -12 -2.5 -35t-2.5 -41t-1 -34q0 -10 1 -33t1 -33q0 -5 10 -12q0 -2 1.5 -0.5t0.5 2.5q17 38 17 49q0 23 -4 61t-5 48zM553 262q-2 0 -2 -4q2 -2 4 -2q2 2 2 4q-2 2 -4 2zM477 801l4 -4q0 1 1 3t1 3q-2 2 -4 2q-2 -2 -2 -4zM483 733l-4 4v-2q0 -1 1 -2t1 -2 q2 0 2 2z" />
<glyph unicode="z" horiz-adv-x="604" d="M309 158q68 -8 142 18q4 2 9 2t10.5 -1t8.5 -1l10 -5t13 -3q14 0 30 -16.5t19 -18.5q3 -1 3.5 -8t-1.5 -8q-33 -25 -49 -29q-85 -21 -221 -25h-86h-13q-70 -9 -116 39q-7 5 -24 13t-24 12q-30 20 -35 39t9 55q44 119 72 205q11 43 33 123.5t26 93.5q7 32 23.5 100.5 t23.5 104.5q9 46 27.5 139t27.5 139q19 103 33 203q1 23 -3 28t-24 7q-68 3 -149 29q-9 4 -20 6.5t-25 5t-23 4.5q-4 0 -10 6.5t-6 11.5q0 17 12 29q9 9 21.5 13t20.5 5t24 0t20 -1q26 -1 80 -6.5t80 -6.5h73t89 -4q33 -5 53.5 -32.5t11.5 -67.5q-9 -39 -27.5 -123 t-29.5 -127q-5 -21 -29.5 -102.5t-33.5 -126.5q-7 -27 -22 -90.5t-24 -96.5q-21 -87 -55 -201q-7 -36 -22 -96q-6 -23 -19 -66t-18 -59q-3 -8 -19 -82q-8 -28 19 -28h104zM231 836v16q0 2 -2.5 8t-3.5 8q-2 -3 -6 -7t-6 -7q-2 -4 -6 -16q-7 -37 -41 -185q-32 -164 -86 -291 q-2 -6 -2 -20q-6 -21 -6 -43q-1 -8 -7.5 -32.5t-7.5 -37.5q0 -6 7 -17.5t8 -16.5q3 3 8 7t8.5 7.5t5.5 7.5q14 53 21 86q19 61 22 78q7 21 18.5 67t18.5 68q10 30 20.5 92.5t20.5 93.5q7 18 10 41t4 52.5t2 40.5zM244 606q1 0 2.5 -1t3.5 -1l2 4q-1 1 -3 2t-3 2q0 -2 -2 -6z " />
<glyph unicode="{" horiz-adv-x="442" d="M373 -104q1 -62 -33.5 -91t-95.5 -18q-156 33 -264 207q-27 45 -30.5 97t7.5 99q21 97 70 281q15 59 28 90q13 30 31 129q2 11 8.5 30t7.5 28q5 29 9 108q2 16 -21 21q-63 14 -63 86q0 29 24 32q49 8 99 54q51 40 22 100q-49 96 -63 137q-64 169 69 270q5 4 17 15t18 16 q75 58 188 6q10 -3 18.5 -18.5t8.5 -28.5q0 -7 -14 -17.5t-25 -10.5q-98 -10 -170 -121q-20 -31 -20 -88q0 -27 8.5 -56.5t17 -46.5t25.5 -49q5 -10 22 -37.5t25 -44.5q19 -38 10 -70.5t-43 -52.5q-25 -13 -26.5 -22t14.5 -35q22 -33 22 -64q-2 -47 -14 -155 q-4 -26 -29 -158q-1 -8 -6.5 -21t-7.5 -20q-8 -26 -28 -100.5t-35 -114.5q-16 -41 -30.5 -118t-19.5 -95q-16 -61 29 -115q19 -20 29.5 -20t27.5 20q14 15 41.5 47t42.5 48q13 14 27 10t21 -25q6 -14 19 -40t19 -40q1 -2 13 -38z" />
<glyph unicode="|" horiz-adv-x="407" d="M53 406q9 199 15 266q8 98 45 420q3 36 13.5 104.5t12.5 87.5q4 34 12.5 101.5t12.5 101.5q0 19 -4 55q-3 40 15.5 53.5t55.5 -0.5q51 -20 75.5 -63.5t15.5 -97.5q-1 -10 0.5 -31.5t1.5 -28.5q0 -84 -2 -127q-2 -26 -6.5 -73t-6.5 -66q-3 -25 -9 -72.5t-9 -72.5 q-2 -2 -2 -9q-2 -65 -19.5 -183.5t-21.5 -164.5q-20 -210 -25 -252q-2 -28 -10 -76.5t-10 -66.5q-2 -35 -2 -107q-1 -3 0.5 -11.5t-0.5 -13t-11 -7.5q-12 -5 -30.5 -1t-24.5 13q-2 2 -5.5 9t-5.5 10t-8 6t-14 4q-14 3 -24 43q-3 11 -6 22.5t-5 21t-3.5 22.5t-2.5 21t-2 23 t-1.5 21.5t-0.5 23v21.5v23.5v21.5v29h-4zM88 324q2 -23 5 -69.5t5 -70.5q1 -6 7.5 -15t7.5 -11q6 24 6 28q-1 17 -3 50.5t-3 61.5t0 52q0 28 3.5 80t4.5 68q4 52 8 164v16q-10 -15 -10 -16q-15 -109 -17 -138q-5 -53 -14 -200zM154 418h-2q0 -19 2 -27q0 -4 4 -8q4 4 4 8 q1 12 2 38t2 38q12 158 16 225q0 11 -4 27q-2 -3 -5 -11.5t-5 -11.5q-1 -5 -5 -15t-5 -15q-1 -11 -6.5 -68.5t-6.5 -87.5q-1 -18 3.5 -50.5t5.5 -41.5zM170 1004q-1 3 -2.5 6t-4 7t-3.5 7q-1 -3 -4.5 -10.5t-3.5 -12.5q-1 -4 -7 -38q-7 -92 -22 -254q0 -3 6 -9q4 4 4 7 q1 13 4 37t4 36q1 6 1.5 17.5t1.5 21t3 17.5q3 17 9.5 51.5t10.5 62.5t3 54zM162 322q0 2 -3.5 13t-4.5 17q-5 -31 -4 -39q0 -10 8 -30q0 7 4 39zM180 768h2l2 2q-2 0 -2 2q0 -1 -1 -2t-1 -2z" />
<glyph unicode="}" horiz-adv-x="442" d="M2 -104q1 2 4.5 16.5t7.5 21.5q6 14 19.5 40.5t19.5 39.5q7 21 20.5 25t26.5 -10q15 -16 42 -48t42 -47q17 -20 28 -20t30 20q44 54 28 115q-5 19 -19 95.5t-30 117.5q-15 40 -35 114.5t-28 100.5q-2 7 -8 20.5t-7 20.5q-19 101 -28 158q-14 121 -15 155q0 29 23 64 q12 20 14 27t-3 14t-23 16q-34 20 -43 52.5t10 70.5q8 17 25 44.5t22 37.5q17 32 25.5 49t17 46.5t8.5 56.5q0 57 -20 88q-72 111 -170 121q-11 0 -25 10.5t-14 17.5q0 13 8 28.5t18 18.5q113 52 189 -6q6 -5 18 -16t17 -15q133 -101 69 -270q-14 -41 -63 -137 q-29 -60 22 -100q50 -46 99 -54q24 -3 24 -32q0 -72 -63 -86q-23 -5 -21 -21q5 -88 8 -108q1 -9 8 -28t9 -30q2 -9 5.5 -31t6 -34.5t7.5 -30.5t11 -33q15 -37 29 -90q49 -184 70 -281q11 -47 7.5 -99t-30.5 -97q-108 -174 -264 -207q-61 -11 -95.5 18t-33.5 91z" />
<glyph unicode="~" horiz-adv-x="868" d="M238 823q81 -20 118 -35q45 -19 99 -63q25 -19 44.5 -20t43.5 16q10 7 39.5 26.5t42.5 30.5q26 25 100 103q12 14 17.5 13.5t15.5 -15.5q15 -29 -10 -78q-8 -17 -27 -45t-25 -39q-3 -4 -7 -13.5t-7 -13.5q-38 -51 -86 -82q-35 -18 -94 0q-53 20 -137 76q-3 2 -22 14.5 t-30 18.5q-23 13 -34 -8q-27 -41 -95 -52q-13 -2 -39 11t-26 24q-3 18 8 43q12 33 45 59t66 29z" />
<glyph unicode="&#xa0;" horiz-adv-x="251" d="M166 1520q8 0 12 -2q25 -3 29 -23v-4q-8 -3 -10.5 -7.5t-2 -10.5t0.5 -7q-4 -22 -9.5 -65.5t-9.5 -65.5q-8 -39 -29 -98q-1 -5 -4 -19t-4 -22q0 -8 -14 -8q-12 0 -14 2q-22 22 -25 45q-2 21 -10 68q-4 15 -4 71v92q0 9 4 25q0 18 35 27q37 8 55 2zM123 1286q5 14 14 49v4 l-4 -4q-8 -34 -16 -47q-11 -18 -15 -53q4 0 4 -4l5 4q2 9 6 25.5t6 25.5z" />
<glyph unicode="&#xa1;" horiz-adv-x="499" d="M143 1118q17 66 23 84q9 23 43 31.5t49 -10.5q41 -47 51 -73q7 -18 8 -38q1 -33 6.5 -94t6.5 -76q0 -10 12 -158q1 -23 2 -93.5t6 -108.5q5 -51 20.5 -145t20.5 -134q3 -28 8 -180q0 -10 -2 -14q-30 -72 -104 -66h-17q-31 0 -48 16t-17 45q0 13 -2 37.5t-2 36.5 q-3 26 -13.5 95.5t-13.5 107.5q-3 26 -24 262q-7 76 -11 184q0 14 1.5 59t0.5 70q0 30 -4 162zM221 942q1 -4 8 -18q1 2 4 5.5t3 4.5q0 3 -5 18zM236 1018h-3l3 -2v2zM178 1464q-44 4 -54 15t-1 43q3 6 6 17.5t6 16.5q24 49 101 60q27 5 47.5 -8.5t27.5 -42.5q9 -32 -35 -47 q-2 -1 -5 -5.5t-5 -5.5q-12 -6 -30.5 -15.5t-32.5 -16.5t-25 -11z" />
<glyph unicode="&#xa2;" horiz-adv-x="720" d="M31 219v107q0 10 1 29t1 28q-1 9 -4.5 29.5t-3.5 33.5q0 22 4 72q12 154 26 227q19 137 80 250q64 112 201 138q63 10 113 -3q4 -2 14 -2t14 -2q45 -12 53 -49q13 -64 5 -116q-7 -40 -7 -70q-3 -16 -18 -21q-44 -27 -86 -49q-4 -2 -16 -6q0 3 -1 7.5t-1 6.5v13 q-11 22 -15 46.5t-5 57t-3 47.5v11q-3 9 -10 16q-15 -5 -17 -12q-23 -23 -42.5 -55.5t-28 -52t-25.5 -60.5q-29 -74 -43 -181q-1 -5 -4 -15t-4 -15q-2 -19 -8 -54.5t-8 -52.5q-3 0 -1.5 -36t1.5 -37q-1 -23 -2.5 -67t-2.5 -67q0 -4 -6 -10q-1 -3 -6.5 -7t-7.5 -7v-15 q2 2 5.5 5t4.5 4l4 4q6 -6 6 -8q0 -10 1 -32t1 -34q0 -1 -1 -2t-1 -2q4 -16 12.5 -45t12.5 -45q3 -6 6 -15q12 -18 33 -6q45 35 53 43q137 123 189 201q82 114 124 199q3 5 9.5 15t9.5 15q2 2 8 5.5t8 5.5q0 -1 4.5 -7t4.5 -8q-2 -10 -6.5 -37.5t-7.5 -42t-11.5 -35.5 t-20.5 -38q-36 -52 -49 -72q-8 -10 0 -29q9 -44 17 -57q3 -3 -2 -14q-9 -9 -26 -28t-26 -28q-3 -4 -10 -12.5t-13 -16t-11 -12.5q-11 -12 -70 -71q-14 -11 -33 -17q-11 -4 -32.5 -14t-39.5 -15t-38 -3q-27 2 -90 14q-23 5 -33 8q-69 13 -101 64q-24 55 -28 106zM176 250 q-2 4 -2 8h-4q4 -4 6 -8q-2 0 -5.5 -2.5t-4.5 -3.5q1 0 2 -1t2 -1q1 1 3 4t3 4zM106 420h3q0 20 -3 35q0 6 -6 12q-9 -5 -12 -10q-3 -3 2 -13q0 -4 1 -13t1 -13q-1 -13 -3 -37t-3 -37q-1 -2 -1.5 -8.5t-2.5 -9.5q-1 -2 -4.5 -5t-5 -5.5t-2.5 -5.5t2.5 -6t11.5 -5v-6 q0 -40 2 -60q0 -63 25 -127q1 -2 6 -5t6 -5q0 2 2 6.5t2 6.5q-2 11 -7 36t-7 39q-1 5 0.5 13.5t1.5 11.5q2 -4 3.5 -7.5t3.5 -8.5t3 -9q4 -12 11 -36t11 -37l11 -11v13q-1 8 -11 46t-10 60q0 55 -2 86v2q1 12 -10 10q-9 -4 -13 -1t-5 6.5t-1 9.5v88zM61 473h2v-6 q1 -1 2.5 -4t2.5 -4q4 4 6 8q2 0 2 6q2 6 2 23l-6 2q-2 -4 -5.5 -12.5t-5.5 -12.5zM117 586h-2v6q0 2 -2.5 5.5t-3.5 4.5q0 -2 -2 -4t-3 -4q-2 -2 -2 -6q1 -3 4 -10.5t3 -10.5q1 3 4 9.5t4 9.5zM106 479l3 10q0 1 -3 7l-6 -4q0 -4 6 -13zM121 356l4 4q0 1 -1 2.5t-1 2.5 l-4 -3q0 -2 2 -6zM104 535q1 2 2 3.5t2 2.5t1 2q-3 2 -5 4q-4 -4 -4 -6q-2 0 4 -6zM72 268v2h-2z" />
<glyph unicode="&#xa3;" horiz-adv-x="825" d="M262 1149q2 -76 6 -148q3 -21 23 -18q49 7 84 14q121 20 186 7q18 -3 34 -12.5t35.5 -28t28.5 -25.5q3 -3 3.5 -8t-4 -10.5t-11.5 -6.5q-22 -3 -67 -10t-68 -10q-150 -33 -193 -51q-17 -8 -23 -16.5t-5 -26.5q5 -37 20 -207q4 -64 -6 -90q-7 -17 -8 -48t-4 -44 q-8 -48 -49 -201q-7 -17 -4 -22t22 -5q16 0 58 2.5t65 1.5q19 0 40 -2t46.5 -5.5t38.5 -4.5q12 -1 33 -4t38 -5t33 -3q2 0 11 -1t12 -1t10.5 -1.5t11.5 -3.5t9.5 -5.5t9.5 -8.5q4 -4 10.5 -5t18.5 -1.5t16 -1.5q29 -6 40 -15.5t17 -33.5q6 -22 -3 -31t-32 -6q-31 3 -65 12 q-25 5 -158 35q-2 0 -7 1t-7 1q-14 0 -39.5 1t-46.5 1t-39 -2q-3 -1 -22 -4t-24.5 -4t-22.5 -4t-24 -5t-21.5 -5.5t-23.5 -7t-20.5 -8.5t-21.5 -11q-3 -2 -18 -11t-19 -12t-17 -11.5t-18.5 -13t-16 -13t-17 -15t-14.5 -15t-15 -17.5q-27 -31 -62 -19q-22 10 -31 22t-8 35 q3 5 1.5 13.5t-13.5 5.5l-8 4q3 8 6 23t6.5 24t7.5 12q21 6 39 22.5t26.5 28.5t22.5 35q49 85 82 168q8 22 14 46.5t12.5 63.5t8.5 48q18 120 4 277q-1 4 -12 26q-4 -2 -13.5 -5t-13.5 -5q-6 -3 -28 -20t-35 -17q-60 -3 -91 34t-16 99q3 8 19 19q7 2 54 18t71 23 q26 9 34 21.5t5 39.5q-1 18 -3.5 59.5t-3.5 65t-1 58t3 63.5q16 111 76 231q2 5 53 98q24 39 62 29q12 -2 41 2q91 14 141 -26q45 -35 88 -99q10 -15 10 -43q0 -38 -26 -43q-28 -11 -53 25q-6 9 -16.5 28.5t-16.5 28.5q-35 55 -84 55q-17 3 -35 -10q-39 -55 -59 -100 q-37 -76 -45 -117q-5 -21 -19 -137zM510 999q-31 0 -47 -2q-31 -5 -107 -14q-8 0 -11 -1.5t1 -12.5q3 -4 3.5 -5t1 -3t-1.5 -3.5t-7 -3.5q-4 -1 -29 -6q-1 -1 -3 -5t-3 -5q1 0 5 -2t7 -2q13 3 42.5 10t46.5 10q1 0 2.5 2l3 4t2.5 3q-1 0 -13 4q-6 0 -14 4q6 2 21 2 q12 0 16 -4q19 -19 53 -8q44 19 47 20q6 2 16 4t11 2q-8 2 -29 10q-6 2 -14 2zM412 172h-19q-8 -4 -14 -4q8 -8 16 -8q49 -8 76 -10l12 6q-1 1 -5 3t-5 3q-13 1 -33 5t-28 5zM211 121q0 1 -1 2t-1 2q-6 -3 -6 -4q2 -2 6 -2z" />
<glyph unicode="&#xa5;" horiz-adv-x="741" d="M580 1384q8 40 8 60q8 18 6 38.5t-23 35.5q-14 4 -2 24q3 11 9.5 40.5t11.5 45.5q3 9 25.5 22t31.5 11q12 -8 12 -23q3 -23 9 -26.5t28 4.5q30 7 33 -23q0 -2 -1 -7.5t-1 -8.5q-34 -225 -39 -268q-3 -20 -8.5 -70.5t-11.5 -77.5q-11 -66 -31 -137q-21 -109 -23 -115 q-10 -29 -41 -92q-3 -6 -11 -21.5t-11 -22t-10.5 -19t-13.5 -19t-15.5 -15t-19.5 -15.5q-19 -19 -19 -41q-3 -37 4 -82q0 -5 1 -8.5t2.5 -6t5 -4.5t4.5 -2.5t6 -2t6 -1.5q98 -27 176 -43q7 -1 12.5 -13t5.5 -22q0 -3 -9.5 -10t-16.5 -8q-14 0 -56 1.5t-65 0.5q-9 1 -19.5 1 t-23 -0.5t-19.5 -0.5q-27 -2 -36 -33q-38 -235 -41 -424q-4 -6 -4.5 -21t-4.5 -22q-6 -29 -14 -31q-23 -12 -53 -4q-82 38 -72 150q1 50 4.5 104.5t10 125t8.5 102.5q0 24 -4 27t-27 -1q-92 -19 -119 -30q-34 -9 -72 8q-38 8 -49 14q-7 1 -13.5 7t-6.5 11q-1 4 3.5 12 t10.5 13q14 5 54 25t63 26q30 11 89 23.5t71 15.5q31 3 28 29q0 7 2 19t2.5 17.5t-2.5 12.5q-6 7 -25 11t-24 7q-39 23 -60 38.5t-44.5 44t-34.5 63.5q-2 10 -11 31.5t-12 29.5q-41 177 -4 375q1 4 35 193q7 31 30.5 38t51.5 -12q25 -10 35 -22q18 -14 18 -31q1 -8 5 -32 t5 -36t0.5 -31t-4.5 -36q-54 -224 -43 -365q0 -45 15 -88q0 -26 31 -22q82 17 110 73q72 128 111 256q12 33 26 76q2 7 11 12l3 -4q3 -3 3 -8q0 -21 14 0q2 5 7 8t10 4t6 0q7 -9 14 -9.5t11 2.5t11 10.5t9 9.5q8 10 12 37q33 177 43 221q3 12 7 35t7 36q0 4 -1 8t-2.5 8 t-2.5 7q-1 -1 -8.5 -2.5t-9.5 -3.5q-29 -38 -33 -49q-1 -4 -5.5 -31.5t-8.5 -42.5q-22 -50 -23 -51q-1 -3 -2 -10.5t-2 -10.5q-1 -1 -2.5 -4l-3 -6t-2.5 -6q-4 12 -4 16q-2 2 -2 3.5t1 2.5t1 2h-4zM598 1262l-2 2h2v-2z" />
<glyph unicode="&#xa7;" horiz-adv-x="966" d="M500 1427q6 -2 51.5 -12t69.5 -18q53 -22 67 -90q1 -7 7 -18t7 -13q7 -14 0 -23q-6 -6 -14 -18q-20 -43 -47 -16q-19 22 -63 32q-24 5 -65 -3.5t-50 -8.5q-17 -1 -35.5 -7.5t-30.5 -12t-35.5 -18.5t-31.5 -17q-31 -13 -41 -39q-17 -32 6 -55q98 -71 211 -121 q22 -9 66 -33t65 -33q62 -27 119 -84q26 -27 39 -42.5t30.5 -44t28.5 -60.5q6 -18 6 -25q2 -17 9 -45.5t10 -42.5q6 -27 8 -40t1 -37.5t-9 -45.5q-6 -28 2 -37q6 -3 6 -14q1 -10 5.5 -47t4 -47.5t-3.5 -48.5q-1 -7 -5 -19l-3 -12q-48 -77 -56 -86l-23 -23t-25 -24t-23 -17 t-27 -12q-8 -3 -23.5 -13.5t-25.5 -12.5q-9 -2 -28 -4.5t-29 -4.5q-3 0 -9 -3.5t-8 -4.5q-11 -7 -22.5 -7.5t-27 3t-23.5 4.5q-45 3 -91 12q-22 3 -49 15q-47 18 -80 41q-18 14 -50.5 36.5t-43.5 30.5q-2 0 -2 2q-97 92 -123 121q-13 14 -45 72q-7 27 -6 31q3 52 -4 90l4 16 q1 -1 2.5 -1.5t2.5 -1.5t1 -3q12 -22 29 -39.5t29 -25t36 -21.5q55 -39 152 -90q7 -4 49.5 -29.5t65.5 -34.5q16 -5 46 -9.5t38 -6.5q83 -12 161 22q40 14 84 41q10 7 41 54q4 12 4 16q-4 8 -10 8q-1 0 -3.5 -2t-4.5 -2q-1 0 -11 -2.5t-13 -2.5h-10.5t-13.5 3t-13 8 q-6 7 -15 10t-23 4.5t-18 2.5l-8 8q2 1 5 2t5 2q4 3 14 7t15 7q4 4 6 4q-2 7 -6 11q-10 10 -18 8q-9 -1 -27 -6t-23 -6q-2 0 -5.5 -2.5t-6.5 -2.5q0 3 -6 9q5 14 6 14q26 6 33 10l8 4q-2 2 -3.5 4t-2.5 3.5t-2 1.5q-45 20 -51 22q-34 5 -47 18q-7 8 -16 13t-22.5 9.5 t-17.5 6.5q-92 49 -127 74q-3 2 -20.5 12t-26 19t-14.5 26q-32 83 -29 158q1 17 4 49.5t4 48.5q0 19 -12 27q-32 37 -45 106q-4 20 -4 66q-3 90 29 174q3 6 6.5 17.5t6.5 18t8 13.5t11 10q8 5 27 19q112 59 168 67h33v4zM688 795q9 -9 14 -19q0 6 3 6q-12 12 -15 13h-2h-2h2 zM98 315q-6 7 -18.5 22.5t-18.5 22.5q-1 3 -10 7q1 -2 1.5 -6.5t1.5 -7.5t3 -5q8 -7 22 -18t19 -15v0zM727 236h2q-4 -3 -11.5 -10t-10.5 -9q-14 -7 -39.5 -21.5t-38.5 -21.5q-8 -3 -35 -16t-41 -15q-72 -13 -129 -8q-11 2 -113 39q-89 39 -149 96q-1 1 -31 21h-8q1 -1 3 -5 t3 -5q5 -4 26 -22t33 -26q9 -10 39 -32q1 -1 4 -11q-3 0 -6 3q-19 13 -52 35l-48 32q-8 4 -10 4q2 -2 3.5 -6.5t2.5 -5.5q7 -5 27.5 -23t31.5 -26q43 -31 121 -78q63 -46 117 -51q41 -6 121 -6q25 -6 47 2l12 2q12 2 16 4.5t10 12.5t7 26q0 4 6 4q12 0 8 18q0 9 6 15 q5 5 15.5 13t15.5 13q8 9 22.5 29t22.5 29zM786 557q10 13 13 23q1 2 -8 20q-10 10 -13 10q-16 16 -46 44t-44 42q-2 2 -4.5 3.5t-3.5 2.5q-10 5 -30.5 15.5t-26.5 13.5q-9 4 -35.5 16.5t-40.5 18.5q-12 5 -34.5 14.5t-33.5 14.5q-4 3 -7 6t-6 6.5t-5 5.5q-12 4 -33 13.5 t-33 13.5q-13 6 -18 -2q-3 -4 -21 -13q-5 0 -18 -22q0 -9 10 -19q3 -8 10 -8q51 -39 105 -65q19 -9 57.5 -22.5t57.5 -22.5q16 -6 46.5 -22t45.5 -23q17 -9 50 -27t50 -27q5 -2 16 -10zM233 270h3q-4 9 -9 11q-46 28 -84 61q-15 10 -41.5 31t-35.5 28q-12 6 -13 7 q4 -17 8 -19q29 -33 43 -41q33 -26 86 -59q16 -11 43 -19zM496 180v6h4h8q-2 1 -4.5 4t-3.5 3q-30 6 -58 6h-26q-14 4 -43 14t-43 14q-1 0 -6 -1t-7 -1q2 -1 11 -10q19 -12 34 -14q35 -8 134 -21zM248 262q6 -6 8 -6q7 -5 22.5 -14.5t22.5 -14.5q1 0 3 1t3 1l-4 9 q-8 4 -23.5 13t-23.5 13q-1 0 -3.5 -1t-4.5 -1zM741 745q2 -4 4 -6v6v3q-1 0 -2 -1.5t-2 -1.5zM723 764v-4l2 4q0 2 -2 2v-2zM774 711h-2h2zM352 133q4 4 6 4q6 -5 13 -8l-4 -4q-12 6 -15 8z" />
<glyph unicode="&#xa8;" horiz-adv-x="401" d="M266 1567q-46 0 -43 32q1 15 -7.5 45t-6.5 46q1 7 16.5 15t18.5 15q3 12 11 15t19 -4q6 -4 20.5 -10t18.5 -11q5 -5 15 -14.5t17 -17.5t11 -17q8 -33 -16 -51q-16 -15 -16 -17q-7 -13 -30 -17.5t-28 -8.5zM66 1571q-21 0 -38.5 20.5t-15.5 36.5q1 16 8 29.5t9 28.5 q13 39 37 42t45 -24q3 -3 14.5 -13t17.5 -17.5t9 -16.5q8 -35 -17 -51q-2 -3 -8 -8.5t-8 -8.5q-7 -13 -27.5 -13t-25.5 -5z" />
<glyph unicode="&#xa9;" horiz-adv-x="747" d="M344 1077q39 0 55 -4q27 -2 58 -33q5 -3 8 -8q10 -26 33 -35q3 -2 17.5 -10t20 -11t14 -10t13.5 -14q8 -10 25 -27.5t22 -23.5q25 -29 45 -80q2 -6 2 -20q15 -69 15 -109q0 -24 -10 -47q-24 -74 -70 -129q-3 -8 -8 -16q-8 -19 -21 -21q-7 -3 -21.5 -10t-21.5 -10 q-18 -6 -26 -17q-3 -5 -19 -10q-16 -8 -46.5 -17.5t-35.5 -11.5q-26 -6 -49 3q-8 5 -25.5 8.5t-19.5 3.5q-43 9 -55 16q-7 5 -27 17t-29 20q-10 7 -24.5 23.5t-20.5 21.5q-4 6 -22 29q-15 25 -25 67q-1 8 -6 29.5t-6 32.5q-2 33 -2 92q1 17 3.5 45t2.5 35q5 30 27 59 q18 26 59 74q43 43 80 61q2 1 7 5.5t9 7.5q38 24 74 24zM340 498q26 4 74 8q26 4 35 8q12 5 34.5 14.5t34.5 14.5q1 1 8 5t9 7q7 8 16 21.5t12 17.5q4 5 13.5 17.5t13.5 19.5q1 3 20 47q13 26 13 41q8 28 8 45q0 15 -4 43q-6 43 -37 59l-21 10.5t-28 16.5q-2 1 -28.5 18.5 t-41.5 24.5q-9 7 -24.5 17t-20.5 14q-2 2 -6 2h-19q-2 0 -8.5 1t-9.5 1q-9 -3 -35 -6t-39 -11q-3 -1 -12.5 -5t-15.5 -7q-18 -12 -35 -29q-51 -37 -101 -100q-23 -33 -20 -84q4 -27 4 -86q0 -29 6 -39q19 -19 33 -31q1 -2 29 -24q20 -20 51 -29q1 0 67 -16q17 -4 25 -6z M616 639q1 1 3 2t2 2q9 15 22 53q0 7 -2 9q0 -1 -0.5 -2t-1.5 -2t-2 -3q-8 -24 -14 -34q-1 -4 -4 -10t-3 -9v-6zM590 588q1 1 4.5 3.5t5.5 4.5q12 25 14 27v12q-1 -2 -3 -4t-3 -4q-2 -3 -8.5 -12.5t-9.5 -16.5q0 -4 -2 -6q2 -2 2 -4zM416 477q3 1 5.5 1.5t6.5 1t8 1.5l2 2 q-1 0 -2 1t-2 1q-4 0 -20 -4q0 -2 -2 -2q2 -2 4 -2zM492 971l2 2q0 4 -2 4l-3 -2q0 -1 1.5 -2t1.5 -2zM379 686q47 9 92 12q1 0 2 1.5t2 -1.5q4 0 6 -2q-1 0 -2 -2t-2 -2q-6 -1 -19.5 -4t-19.5 -4q-12 0 -16 -6l-2 -2q-4 -2 -8 -6q4 -4 8 -6l2 -5l4 -4v9q0 8 10 8h13h4 q-1 -1 -2 -3t-2 -3t-2.5 -2t-2.5 -2t-2 -3q4 -8 9 -8q8 -3 2 -8q-11 -7 -23 -12q-25 -12 -43 -15q-25 -2 -76 -2q-12 0 -39 9q-4 1 -8.5 4t-9 7t-6.5 5t-3.5 2t-4 3t-4.5 3q-1 3 -6 10t-7 11l-14 28q-7 29 0 49q0 3 2 9t2 8q1 2 1.5 10t2.5 10q13 21 25 31q0 2 4 2l-2 -4 q-3 -3 -21 -27v-4q2 0 2 2q10 8 29 27q13 13 37 29l14 14q-3 -1 -8 -2t-8 -2h-2h-4q2 2 4 2q2 3 9.5 8t8.5 6q10 4 68 33q21 9 38 0.5t29 -27.5q13 -22 13 -36q3 -14 0 -21q-8 -11 -17 -2q-20 11 -51 2q-52 -15 -98 -55q-6 -5 -16 -16.5t-13 -14.5q-13 -13 4 -20 q35 -17 74 -17h43v-4zM260 831h2h-2zM260 831z" />
<glyph unicode="&#xaa;" d="M131 313q2 16 5 50.5t5 50.5q1 18 3 52.5t3 51.5t4.5 49t4.5 49q1 10 1.5 42t2.5 49q4 106 8 157q12 105 27 207q2 14 6 28t9.5 31t8.5 27l6 12q8 8 13 2h12q12 11 24 9q2 -1 9.5 2.5t11.5 -0.5q2 -1 8 -2t8 -2q49 -23 84 -84q7 -14 13 -23q14 -23 22 -70q3 -18 8 -55 t8 -57q1 -16 4.5 -50t4.5 -51q2 -23 2.5 -65.5t1.5 -56.5q0 -24 4 -60q4 -32 4 -53q0 -26 -4 -84q0 -49 -2 -74q0 -10 -1 -31.5t-1 -31.5q0 -5 -4 -13q-3 -6 -11 -2q-3 1 -10 2.5t-10 2.5q-14 4 -21 8q-17 9 -34 22q-13 8 -9 19q0 9 2.5 29t2.5 30q8 78 10 117v57 q0 6 -2.5 7.5t-5.5 -1.5q-9 -6 -19.5 -9.5t-25.5 -6t-21 -4.5q-14 -4 -45 -4q-8 1 -10 -0.5t-2 -7.5l-6 -99q-1 -16 -4.5 -50t-4.5 -52q0 -10 1 -32t1 -34q0 -26 -20 -32q-18 -4 -25 -15q-6 -7 -17 -7t-19 5q-19 11 -19 39q0 8 2 12h-2zM397 723q0 2 2 4q-2 -2 -2 -6 q0 -2 -1 -6t-1 -6h2v12v2zM231 1137v4v-4q-1 -4 -4 -11.5t-4 -11.5q-2 -5 -4 -15.5t-2 -11.5q-20 -66 -27 -163q-1 -20 -4 -57.5t-4 -55.5q-2 -27 -2 -80v-24h2q0 4 -1 12t-1 12q0 1 3 7t3 10q2 12 2 36q2 19 5.5 60.5t5.5 62.5q1 6 2 18.5t2 18.5q3 33 6 64q5 38 8 51 q14 63 14 78zM246 670v-25q-3 -16 12 -10q9 1 26 4t23 4q10 3 58 19q6 3 6 12q0 20 -1 59.5t-1 57.5q0 20 -4 30q-3 10 -4 29t-3 27q-3 13 -3.5 37t-2.5 34q-10 50 -20 90q-9 36 -31 68q-8 11 -12 -2q-11 -22 -15 -70q-16 -121 -20 -184q-4 -33 -4 -100q-4 -54 -4 -80z M414 731q0 -3 -0.5 -7.5t-1 -7.5t-1.5 -7t-3.5 -6.5t-6.5 -4.5t-4 -16q9 -2 13 -2q7 1 9.5 -2t2.5 -10q0 -1 -1 -4.5t-1.5 -5.5t-3.5 -4t-8 1q0 2 -4 -1q-3 -3 -3 -5q-4 -16 -4 -24q0 -10 3 -15.5t14 -1.5l6 -6q-4 -4 -6 -4q-13 3 -13 -10v-13q0 -6 -1.5 -19t-1 -22.5 t4.5 -17.5q0 -6 -2 -8q0 -1 -2 -4t-2 -4v-72q0 -4 4 -8q1 -2 4.5 -6t4.5 -6q2 -3 4 -10t4 -9l10 -10q4 8 4 10q2 18 2 55q9 68 6 136q-2 0 -1 36t1 37q-1 21 -4 63.5t-4 63.5q-1 8 -3 24.5t-3 24.5q0 1 -2.5 3t-3.5 4q-6 -6 -6 -9q-1 -15 -1 -31t0.5 -35.5t0.5 -29.5z M188 692q-1 0 -3 1t-3 1q-2 0 -2 -4t2 -6q0 1 0.5 1.5t2 2.5t3.5 4zM434 338l2 2h-2v-2z" />
<glyph unicode="&#xab;" horiz-adv-x="944" d="M809 1204q1 -3 3.5 -9.5t2.5 -9t-2 -7.5q-14 -116 -121 -197q-5 -5 -43.5 -40t-54.5 -52q-31 -19 -4 -43q14 -19 32 -39.5t41.5 -45t34.5 -36.5q11 -13 36.5 -41t44 -50t34.5 -44q12 -15 29.5 -28t21.5 -17q19 -4 25.5 -25t1.5 -47q-25 -91 -103 -115q-10 -6 -30 -6 q-15 -5 -24 -1t-15 20q-18 36 -86 131q-95 125 -96 127l-123 123q-19 22 -22.5 36.5t5.5 45.5q19 46 32.5 72t39.5 54.5t59 43.5q65 27 148 129q3 4 11.5 15.5t13.5 17t12.5 12.5t13.5 10q11 6 24 8.5t30 4t28 3.5zM440 1204q1 -3 3.5 -9.5t2.5 -9t-2 -7.5 q-15 -117 -120 -197q-9 -8 -46 -41.5t-53 -50.5q-31 -19 -4 -43q14 -19 32.5 -39.5t41.5 -44.5t35 -37q9 -11 36 -40.5t44.5 -51t33.5 -43.5q12 -14 30 -27.5t22 -17.5q19 -4 25 -25t1 -47q-25 -91 -102 -115q-10 -6 -31 -6q-15 -5 -24 -1t-15 20q-18 36 -86 131 q-95 125 -96 127q-18 19 -39 40t-46 45.5t-38 37.5q-18 22 -21.5 36.5t5.5 45.5q19 46 32.5 72t39.5 54.5t59 43.5q63 26 147 129q3 4 11.5 15.5t13.5 17t12.5 12.5t13.5 10q11 6 24 8.5t30 4t28 3.5z" />
<glyph unicode="&#xad;" horiz-adv-x="634" d="M201 766q15 0 86 1t88 1q26 1 58.5 -4.5t55.5 -5.5q15 0 60 -15q12 -3 17 -20.5t-1 -26.5q-8 -4 -14 -4q-5 0 -15 1t-14 1h-3q-7 1 -9 -0.5t2 -11.5q2 0 -4 -6q-4 -1 -14.5 -4t-14 -2.5t-12.5 4.5h-8q-6 -6 -23 -8.5t-31.5 -1.5t-23.5 0q-24 -2 -79 0t-77 0 q-39 -4 -102 -27q-22 -9 -36 0.5t-17 34.5q-8 33 0 51q4 17 12 25l24 6q13 2 41 6t41 6h13z" />
<glyph unicode="&#xae;" horiz-adv-x="827" d="M59 748q1 8 3.5 21t3.5 17q6 63 36 115q19 31 43 62q33 46 64 63q70 42 80 47q10 7 47 12q40 5 53 5q46 0 80 -5q47 -11 68 -38q2 -1 6 -9q12 -16 16 -22q10 -13 2 -23q-2 -4 -2 -12q2 -4 12 -4q14 4 35 -10q4 -3 12.5 -8.5t12.5 -8.5q20 -16 26 -26q19 -30 27 -52 q16 -40 16 -75q0 -5 1 -15.5t1 -15.5t1.5 -16.5t1.5 -16.5q0 -36 -5 -61q0 -7 -10 -37q-7 -16 -21.5 -46.5t-19.5 -41.5q-4 -8 -10 -12q-40 -35 -51 -46q-5 -3 -13.5 -10t-13.5 -10q-11 -11 -24 -14q-24 -2 -72 -21q-2 -1 -6.5 -2t-5.5 -2q-1 0 -3.5 1t-3.5 1q-10 -4 -45 0 q-8 2 -26 2q-31 0 -82 19q-23 3 -43 12q-7 2 -55 29q-10 8 -29.5 18.5t-26.5 15.5q-19 15 -26 29q-17 31 -31 53q-16 50 -16 95q-1 7 -7 43zM637 586q1 2 4 4t4 4q3 6 35 74v10l-6 -6q-4 -8 -10.5 -22.5t-10.5 -22.5q-2 -3 -5 -12t-5 -13q-6 -9 -6 -16q-4 1 -6 -1t-3.5 -5.5 t-2.5 -4.5q-24 -19 -56 -40q-4 -3 -10 -9.5t-10 -9.5v-4h4l17 7q16 7 24 13q33 22 43 54zM246 879v18v8q-3 24 16 27q16 7 23 0q12 -17 26 -6q27 12 60 12q24 2 69 -6q18 0 35 -14q14 -7 14 -21q0 -9 5 -14q13 -10 16 -33q0 -1 -1 -2t-1 -2q-15 -33 -33 -47 q-9 -4 -24.5 -17.5t-22.5 -17.5q-14 -8 -44.5 -22.5t-45.5 -22.5q-1 0 -2 -1t-2 -1q4 -4 4 -6q4 0 6 -2q11 -1 33 -7.5t29 -7.5q65 -10 86 -65q1 -3 4 -7.5t4 -5.5q13 -23 16 -47q0 -4 -8 -12q-2 -2 -8 4q-1 1 -3 4t-3 4q-13 28 -39 37q-3 1 -13 4t-16 4q-10 3 -30.5 8.5 t-30.5 8.5q-7 2 -21.5 6t-21.5 6q-8 3 -9.5 1t-1.5 -11q0 -7 -1 -22.5t-1 -22.5q-4 -48 -18 -64q-5 -5 2 -8q30 -6 31 -6q27 -4 73 -8q31 0 47 4q6 1 17.5 3t21 4t17.5 5q16 6 30 17q10 4 27.5 16t24.5 16q23 14 36 47q2 3 8 16t11 19q15 16 22 35q11 50 9 82v53 q0 37 -29 86q-15 24 -37 27q-23 0 -41 18q-2 3 -9 8t-7 11h-2q-26 16 -33 18q-30 18 -33 19q-24 6 -51 6q-54 3 -94 -11q-34 -13 -47 -22q-4 -3 -16.5 -11t-16.5 -12q-2 -2 -6 -3.5t-7 -3t-6 -4.5t-4 -7h-4l-4 -2q-14 -9 -16 -18q-5 -6 -18 -20.5t-21.5 -26.5t-13.5 -25 q-3 -6 -13.5 -24t-13.5 -29q-17 -53 -23 -80q-4 -30 0 -45q1 -3 6 -12t5 -13q0 -24 22 -39q33 -26 72 -53q7 -5 22.5 -11.5t16.5 -7.5q8 0 8 7q0 18 -1 55t-1 57q0 1 -1 3.5t-1.5 3t-2.5 2t-5 -0.5q-4 1 -4 3q-15 23 -15 36v29q3 11 13 14q14 5 14 23q-4 78 -4 115zM410 870 q-48 0 -80 -18q-21 -8 -19 -27v-28q0 -17 15 -9q12 5 32.5 16.5t26.5 14.5q6 4 24.5 17.5t28.5 19.5q4 4 4 6q-4 4 -6 4q-16 4 -26 4zM383 801q-3 -2 -9 -5t-9 -5q-2 0 -8.5 -3t-8.5 -4q-5 -3 -15.5 -9t-15.5 -9q-1 0 -2 -3q-1 -2 -2 -3q5 -5 11 -2q2 0 7 3t9 3q14 10 25 16 q12 8 18 11q4 0 4 6q-4 0 -4 4zM395 678h-6l6 -6q4 -1 26.5 -7t31.5 -10h4q0 1 -1 2t-1 2q-15 15 -37 19h-4h-19zM512 502q-1 0 -3 1t-3 1q-2 -1 -17 -6v-2q4 -4 9 -4q2 1 7 4.5t7 5.5zM436 481l4 4q-4 0 -4 4q-4 0 -4 -4zM467 485q6 6 8 7v2q-2 0 -4.5 -1t-3.5 -1h-2 q0 -1 -1 -2.5t-1 -2.5q2 0 4 -2zM399 803h-2h-2l2 -2q2 0 2 2z" />
<glyph unicode="&#xaf;" horiz-adv-x="634" d="M240 1698q12 0 61 1t61 1h11q14 0 34.5 -4t36.5 -4q5 0 43 -11q13 -3 13 -28q0 -11 -2 -13q-4 -4 -11 -4q-3 0 -9.5 1t-8.5 1h-6q-4 0 -4 -4q0 -2 2 -6q2 0 -4 -6q-18 -6 -19 -6q-2 0 -10 4h-4q-8 -8 -33 -8h-24q-3 0 -11 -1t-12 -1q-12 0 -34 2t-34 2q-4 0 -10.5 -1 t-9.5 -1q-29 -4 -72 -23q-6 -4 -14 -4q-9 0 -16.5 9t-8.5 24q-4 16 -4 27q0 6 4 18q4 15 11 20q2 3 16 7q10 1 30.5 4t26.5 4h11z" />
<glyph unicode="&#xb0;" horiz-adv-x="319" d="M281 1391q7 -47 -43 -113q-15 -22 -62 -41q-67 -33 -137 4q-51 25 -55 92v19q0 8 0.5 16t3.5 16.5t5 14t7 15.5t7.5 13.5t9 14.5t8.5 14q8 7 45 53q12 19 36.5 24.5t43.5 -5.5q9 -6 26 -6v26q-2 2 -5 10t-5 9q-14 10 4 10q10 2 31 2q8 0 20 -4q9 -19 23 -27 q11 -22 17.5 -46t12 -62.5t7.5 -48.5zM129 1309q60 38 64 123q0 10 -11 18q-2 4 -7.5 1.5t-8.5 -7.5q-40 -26 -74 -84q-5 -7 -11 -23t-11 -22q2 -19 7.5 -25.5t16.5 0.5q30 4 35 19zM223 1513l2 5q-11 17 -18 20q-2 0 -4 -4q2 -4 5 -7.5t7.5 -7t7.5 -6.5zM225 1487h2h-2z M227 1458h6h-6z" />
<glyph unicode="&#xb1;" horiz-adv-x="581" d="M342 1030q-1 -15 -3 -43.5t-3 -42.5q-2 -2 -2 -6q0 -17 3.5 -20t20.5 0q62 8 95 12q2 1 8.5 4t11.5 4q27 7 43 -16q5 -6 16.5 -18.5t16.5 -18.5q2 -3 5 -12t5 -13q5 -25 6 -29q3 -23 -22 -26q-9 -1 -28 -2t-28 -2q-17 -2 -52 -5t-52 -5q-8 -1 -24.5 -5.5t-24.5 -5.5 q-13 0 -17 -18q-4 -57 9 -189l6 -24q1 -3 2 -10t2 -11t2 -13t2 -13q5 -14 -2.5 -22t-20.5 -5q-3 1 -10 1t-12 1t-8 4q-19 16 -27 23.5t-18.5 24t-14.5 34.5q-13 74 -16 180q0 15 -3 18.5t-18 0.5q-18 -3 -106 -23q-32 -10 -55 17q-5 8 -15.5 24.5t-15.5 24.5q-4 8 -8 12 q-11 10 -8 23.5t18 17.5q7 2 24.5 5t24.5 5q18 3 51.5 8.5t51.5 8.5q7 1 21.5 2t21.5 2q20 3 22 22q1 35 3 104.5t3 104.5q0 14 11 25t26 12q24 3 43 -10t27 -33q9 -22 10.5 -32.5t1.5 -51.5zM240 707h2v-50q8 -59 14 -92l6 -12q0 2 1 7t1 7q0 43 -4 129q-1 10 -2 30.5 t-2 29.5q0 16 -6 16q-10 0 -10 -14v-51zM279 666q-1 2 -2.5 6t-2.5 6q0 -2 -1 -7.5t-1 -8.5q0 -5 2 -7q0 1 5 11zM205 422q82 4 121 4q33 1 55.5 -6t52.5 -8q12 0 24.5 -2.5t28 -7.5t23.5 -7q15 -4 22 -26.5t-2 -34.5q-6 -6 -18 -6q-6 0 -18 2t-17 2q-19 0 -19 -6 q0 -4 5 -11q4 0 -4 -8q-5 -1 -18.5 -4.5t-19 -3.5t-18.5 6q-6 0 -8 -2q-8 -7 -17.5 -9.5t-24.5 -2.5h-19q-30 -3 -49 0t-49 0q-50 -4 -132 -35q-28 -10 -46 2t-23 43q-8 44 0 66q8 24 18 32q3 3 31 9q17 2 52.5 7t53.5 7h15z" />
<glyph unicode="&#xb2;" horiz-adv-x="468" d="M365 821q0 -76 -37 -174q-44 -105 -90 -207q-23 -58 -60 -118q-4 -10 -21.5 -41t-23.5 -50q-2 -6 -8 -21t-8 -24q-4 -10 -1.5 -13.5t13.5 -0.5q15 2 44 6t44 6q19 3 56 9.5t55 9.5q30 3 39 -19q8 -20 36 -24q21 -2 27.5 -8t9.5 -29q3 -13 -1 -17.5t-19 -7.5 q-17 -2 -48.5 -5t-47.5 -5q-18 -3 -62.5 -14.5t-68.5 -14.5q-37 -6 -111 -14q-8 0 -16 8q-2 2 -8.5 8t-9 8t-8.5 8t-9 9.5t-7 9t-7 10.5t-5 11q-2 3 -4 9.5t-4 10.5q-5 16 -8 17q-16 13 -8 36q4 12 12 41.5t16 51.5t19 41q10 18 24.5 53.5t20.5 48.5q8 19 26.5 53.5 t26.5 52.5q9 17 74 166q7 16 37 93q0 2 2 3.5t2 2.5v32q-1 0 -11 -4t-14 -8l-33 -33t-43 -39q-30 -30 -63 -22q-20 4 -34 19.5t-17 35.5q-2 19 18 47q66 86 142 125q13 8 55 13q12 0 16 -9q2 -5 5 -8.5t8 -6t7.5 -3t10.5 -2.5t10 -2q38 -10 53 -64q7 -19 7 -47zM152 518 q-2 -3 -12 -22.5t-15 -30.5v-8q1 1 3 2t3 2q2 3 8 12.5t8.5 14.5t4 14t0.5 18q8 0 10 -1t0 -9q-43 -97 -72 -170q-2 -6 -49 -131q0 -1 -6 -23q7 7 14 21q1 0 2 3q1 2 2 3q3 7 12.5 28.5t14.5 34.5q2 6 8.5 17.5t11 22t6.5 20.5q0 2 17 35q50 107 59 133q12 30 19 78 q0 1 -2.5 3.5t-3.5 4.5q-10 -5 -7 -8q2 -9 -14 -25q-4 -4 -7.5 -10.5t-7.5 -15t-7 -13.5z" />
<glyph unicode="&#xb3;" horiz-adv-x="460" d="M246 897q-30 2 -107 -25q-36 -16 -71 -24q-41 -13 -58 18q-11 20 -10 33.5t16 30.5q34 38 115 57q63 12 121 -2q13 -2 37 -18q4 -2 16 -12t19 -13q44 -26 55 -100q6 -48 -25 -90q-51 -69 -67 -86q-6 -9 -15 -17t-21.5 -18t-17.5 -15q-13 -10 3 -14q7 -4 23.5 -10 t23.5 -10q2 -1 16.5 -14t22.5 -19q33 -27 34 -27q41 -29 52 -102q9 -57 -25 -146q-22 -52 -80 -114q-2 -2 -11.5 -13.5t-13 -15.5t-12.5 -13t-15.5 -13t-16 -8.5t-19.5 -6.5q-5 -3 -8 -8q-45 -29 -90 0q-62 41 -74 115v6q0 3 2 9t2 9q2 -2 7 -5t7 -5q9 -9 15 -21 q24 -34 61 -16q79 39 123 111q32 61 35 69q16 30 24 92q3 20 -3 29.5t-25 20.5q-42 21 -103 32q-9 3 -45 -2q-34 -8 -46.5 -0.5t-28.5 37.5q-2 2 -1.5 7.5t-0.5 7.5v12q-12 20 -9 31.5t23 23.5q23 15 37 27q13 11 35.5 31l40.5 36t34 31q47 50 58 107q3 12 -0.5 16t-16.5 4 h-22zM260 203q0 12 -2 14q-1 3 -3 9.5t-3 9.5q-2 -2 -7 -6.5t-7 -6.5q-11 -13 -33.5 -36.5t-34.5 -36.5q-1 -1 -2 -4t-2 -5q1 0 4 1t4 1q3 0 7.5 1t6.5 1q0 -3 -3 -8.5t-3 -7.5q-2 -4 -10 -8q-8 -8 -10 -12q6 2 16 2q2 1 5 3t5 3q14 7 25.5 19t17.5 21t17 27q10 15 12 19z M240 735q-1 2 -2 4.5t-1.5 3.5t-0.5 2q-5 0 -9 -4q-14 -12 -26 -26q-50 -46 -70 -66q-4 -2 -4 -12q8 0 12 2q12 10 36.5 30.5t37.5 30.5q6 6 16 19.5t11 15.5zM186 655q-4 2 -8 2q-12 -8 -16 -12l-6 -12q14 -5 16 -2q3 3 5 6.5t4.5 8.5zM133 117q2 1 5 2t5 2l-2 4 q-8 -4 -10 -6q0 -2 2 -2zM211 684h2h-2zM197 668v2l-2 -2h2z" />
<glyph unicode="&#xb4;" horiz-adv-x="378" d="M129 1597q-22 19 -33 52q-18 32 -4 43q3 3 9 8.5t10 9.5q10 6 32.5 22.5t36.5 24.5q40 30 60 35q50 22 57 27q16 9 51 2q4 0 10 -13q8 -13 2 -16q-13 -10 -24 -29q-30 -45 -60 -75q-16 -18 -47.5 -47.5t-40.5 -38.5q-1 -2 -6 -5t-5.5 -5.5t1.5 -12.5l-4 -4q-21 -4 -35 12 zM281 1759q7 7 17.5 20.5t12.5 16.5q0 4 2 6q-1 -1 -3.5 -0.5t-2.5 2.5q-27 -27 -33 -41q-4 -16 -24 -39q0 -4 -2 -6l6 2q4 7 13.5 19.5t13.5 19.5z" />
<glyph unicode="&#xb6;" horiz-adv-x="835" d="M526 31q-82 6 -159 12q-30 3 -62 -4q-48 -12 -83 6.5t-50 65.5q-13 40 6 86q10 26 39 20q17 -4 21 0.5t6 26.5q4 172 8 256q0 7 0.5 23t1 25t4 21t10.5 21v12q-10 40 -10 49q1 19 3 54t4 64t5 54q5 23 -18 29q-74 23 -119 63q-32 28 -41 48q-46 98 -53 131q-13 72 24 120 q112 144 277 158q97 13 178 -10q90 -29 152 -107q8 -13 4 -30q-5 -13 -2 -19t16 -14q19 -14 28.5 -38.5t2.5 -47.5q-34 -132 -47 -305q-2 -60 -10 -171t-9 -136q-4 -48 -7 -103t-6 -121.5t-5 -103.5q1 -8 0 -24.5t0 -24.5q4 -46 -29 -51q-14 0 -14 -15q-7 -27 -43 -20h-23z M389 225q-2 -17 2 -22.5t17 -5.5q43 -10 77 -15q4 0 8.5 5t4.5 8q9 88 6 118q-9 68 8 129q4 24 6.5 49.5t4.5 61t3 49.5q0 10 -1.5 28.5t-1.5 33t3 26.5q9 35 11 103t10 100q1 2 -0.5 7.5t-1.5 6.5q0 10 -1.5 36t-0.5 40q1 5 35 199q8 30 -19 41q-35 14 -84 28q-7 2 -10 0 t0 -12q3 -25 0 -51q-2 -10 -14 -49t-13 -60q-20 -203 -28 -362q-8 -126 -21 -492zM317 1219q1 11 -3 14.5t-15 1.5q-14 -3 -37 -16t-29 -15q-36 -17 -60 -45t-48 -72q-4 -6 -5.5 -18t1.5 -18q41 -36 57 -43q14 -5 43 -12.5t43 -12.5q12 -3 15.5 -1t5.5 11q2 23 10 70 q6 57 22 156zM547 371q5 -10 6 -11q0 2 1 5.5t1 5.5v6q-6 -6 -8 -6z" />
<glyph unicode="&#xb7;" horiz-adv-x="702" d="M342 561q-40 0 -62.5 14.5t-19.5 40.5t-12 80.5t-10 83.5q1 10 28 25.5t31 28.5q6 22 21.5 26t35.5 -10q10 -6 34.5 -15.5t33.5 -19.5q8 -9 27 -25t31.5 -30t17.5 -31q15 -62 -29 -90q-4 -8 -15 -17.5t-14 -13.5q-13 -22 -52 -31t-46 -16z" />
<glyph unicode="&#xb8;" horiz-adv-x="624" d="M393 -115q0 -18 -4 -24q-15 -48 -41 -68q-6 -6 -21.5 -17.5t-21.5 -17.5q-8 -8 -19.5 -13.5t-18 -7.5t-24 -5t-20.5 -4q-10 0 -10 2q-31 23 -47 37q-5 6 -15.5 19t-15.5 19q-9 11 -37 39t-41 45q-19 26 -14 50q3 15 6.5 17t18.5 -1q70 -22 153 -84q10 -7 32 -24.5 t36 -26.5q15 -11 18 8q3 12 -2 22q-3 12 -18 46q-25 65 -76 110q-8 8 -12 25q0 45 39 67q37 19 57 -10q16 -26 31.5 -49.5t21 -32.5t6.5 -12q30 -49 39 -109z" />
<glyph unicode="&#xb9;" horiz-adv-x="311" d="M201 111q-3 0 -10.5 0.5t-11 1.5t-9 2t-9.5 4t-7 8q-9 -2 -19.5 5.5t-13.5 8.5t-9.5 2t-9.5 3.5t-4 7.5l-6 24q0 63 -2 90q-6 92 -6 176q-3 62 -6 175t-4 149q0 16 -1 33.5t-2.5 38.5t-2.5 34q-2 11 5 21t17 10q8 0 27 -14q5 -2 20.5 -12.5t24.5 -12.5q13 -3 20.5 -9.5 t10 -11t6.5 -16.5t6 -25.5t2.5 -21.5t0 -25.5t-0.5 -23.5q2 -31 2 -90q4 -106 4 -158q5 -180 6 -217q0 -43 4 -137q0 -12 -5 -16t-17 -4zM145 473v55q0 2 -2 5t-2 4q-6 -6 -6 -9q-2 -2 -2 -8q2 -66 2 -190q0 -5 2.5 -14.5t3.5 -12.5l4 -2q5 0 5 2q0 5 1 15.5t1 15.5 q-1 15 -4 63.5t-3 75.5z" />
<glyph unicode="&#xbb;" horiz-adv-x="944" d="M106 1204q11 -2 28 -3.5t30 -4t24 -8.5q6 -3 14 -10t12.5 -12t14 -17.5t11.5 -15.5q84 -103 147 -129q33 -15 59 -43.5t39.5 -54.5t32.5 -72q9 -31 5.5 -45.5t-21.5 -36.5q-13 -13 -38 -37.5t-46 -45.5t-39 -40q-1 -2 -96 -127q-68 -95 -86 -131q-6 -16 -15 -20t-24 1 q-21 0 -31 6q-77 24 -102 115q-5 26 1 47t25 25q4 4 21.5 17t29.5 28q16 22 34.5 44t44 50t36.5 41q12 13 35 37t41.5 44.5t32.5 39.5q27 24 -4 43q-16 17 -53 50.5t-46 41.5q-107 81 -121 197q-2 5 -2 7.5t2.5 9t3.5 9.5zM475 1204q11 -2 28 -3.5t30 -4t24 -8.5 q6 -3 13.5 -10t12.5 -12.5t13.5 -17t11.5 -15.5q83 -102 148 -129q33 -15 59 -43.5t39.5 -54.5t32.5 -72q9 -31 5.5 -45.5t-22.5 -36.5q-101 -102 -122 -123q-16 -22 -50.5 -66.5t-46.5 -60.5q-68 -95 -86 -131q-6 -16 -15 -20t-24 1q-20 0 -30 6q-78 24 -103 115 q-5 26 1.5 47t25.5 25q4 4 21.5 17t29.5 28q16 22 34.5 44t44 50t36.5 41q11 12 34.5 36.5t41.5 45t32 39.5q27 24 -4 43q-12 13 -28 28t-37 33.5t-33 30.5q-107 81 -121 197q-2 5 -2 7.5t2.5 9t3.5 9.5z" />
<glyph unicode="&#xbc;" horiz-adv-x="1759" d="M446 627q-5 1 -14.5 2t-14.5 2t-11.5 5t-10.5 11q-11 -4 -22 6.5t-13 10.5q-3 1 -10.5 2t-10 4t-3.5 10q-1 4 -4 14t-4 17q0 75 -4 108q-5 185 -5 215q-6 134 -10 396q0 26 -3.5 70.5t-4.5 58.5q-2 14 5.5 26t17.5 12q9 0 30 -16q5 -3 15.5 -11t19.5 -13t17 -7 q18 -5 25.5 -15.5t12.5 -31.5q5 -13 7.5 -29t2.5 -26.5t-0.5 -32t-0.5 -29.5q2 -37 2 -110q4 -63 4 -193q1 -42 4 -130.5t4 -133.5q0 -26 1 -82t1 -86q1 -14 -4 -19t-19 -5zM385 1069v68q0 3 -2 6t-2 4q-6 -6 -6 -10q-2 -2 -2 -11q2 -78 2 -233q0 -4 2.5 -15.5t3.5 -17.5 l4 -2l4 2q0 7 2 20t2 19q-4 62 -8 170zM412 174q8 86 63 254q58 177 68 203q6 20 20 57t17 47q56 159 114 318q21 59 129 346q7 18 32 80.5t38 97.5q7 22 14 22q36 -4 47 -14q19 -11 45 -45q42 -55 13 -127q-12 -26 -33 -92q-3 -9 -34 -85.5t-46 -115.5q-7 -19 -22.5 -56.5 t-22.5 -55.5q-2 -7 -2 -24.5t-2 -25.5q-11 -31 -56.5 -154.5t-68.5 -191.5q-16 -42 -43 -120q-5 -12 -31.5 -71.5t-38.5 -92.5q-29 -75 -49 -146q-14 -39 -28 -110q-5 -53 -3 -72q1 -10 1.5 -18t-4 -14.5t-15.5 -10.5q-13 -5 -29.5 2.5t-19.5 20.5q-9 22 -29 22q-8 0 -18 29 q-18 43 -6 127v16zM680 678v-33q-1 -2 -9 -9t-9 -13q-47 -130 -64 -170v-11v-14l10 10q1 3 6 23q18 45 64 184q2 10 2 35q8 6 16 22v3q-9 -18 -14 -23q0 -2 -2 -4zM436 135l2 -2q0 -33 -2 -51q0 -3 6 -12q1 3 4 7t3 5q12 53 12 55q6 41 18.5 82.5t34.5 98.5t29 77 q11 37 25 77t33 90t28 77q8 23 16 63q0 21 2 31q9 25 30 76t30 76q7 21 19 60t19 59q5 12 14.5 36.5t14.5 36.5q1 5 -0.5 14t-1.5 13q-2 -4 -8.5 -11t-7.5 -10q-6 -9 -14.5 -29t-10.5 -24q-4 -11 -13 -34t-13 -35q-24 -76 -29 -89q-4 -12 -39 -101.5t-43 -139.5q0 -9 -4 -13 q-4 -11 -55 -149q-37 -100 -43 -131q-8 -40 -31 -118.5t-25 -84.5zM719 764q2 6 6 14q35 97 37 103v12q-8 -4 -8 -8q-35 -93 -41 -111q0 -4 6 -10zM791 967q7 23 10 28q0 1 -4.5 4t-5.5 5q-1 -3 -4 -10.5t-3 -10.5q0 -2 1 -3.5t2.5 -5t3.5 -7.5zM563 324q0 1 -1 2t-1 2 q-4 -4 -4 -6q2 -3 2 -7q1 2 2 5t2 4zM772 940q-1 -2 -2 -4.5t-1.5 -3.5t-0.5 -2t1 -3t1 -3q4 4 4 6q1 1 -2 10zM705 731q6 3 6 6v8q-6 0 -6 -6v-8zM1104 147v99q0 18 -17 12q-8 -1 -41 -3.5t-51 -10.5q-7 -4 -21 -0.5t-22 10.5q-61 45 -49 113q21 136 45 305q7 48 19.5 148 t19.5 151q0 9 2 27t2 26q3 18 21 12q23 -12 43 -43q0 -8 6 -10q27 -25 20 -76q-1 -8 -7 -64.5t-11 -86.5q-2 -13 -8 -37.5t-8 -36.5q-2 -6 -2 -17.5t-1 -15.5l-9 -69t-9 -68q-7 -42 -20 -156q-3 -14 12 -14q14 1 82 6q7 0 12 14q1 6 1.5 17.5t1.5 21t3 17.5q2 10 8 39.5 t9 44.5q2 4 9 11l9 9q3 -2 9 -7t9 -7q11 -12 16.5 -26.5t8.5 -34t6 -29.5q2 -5 8 -27q1 -15 4.5 -17t18.5 3q10 2 30.5 6t30.5 6q14 3 18 0.5t7 -14.5v-2q0 -6 0.5 -8t3.5 -5t10 0q10 3 31 -10q0 -10 -4 -12q-6 -3 -21 -11.5t-24 -11.5l-39 -12l-39 -12q-12 -4 -18 -4 q-23 2 -27 -25q-4 -22 -10 -31q-13 -22 -31 -102q-4 -20 -12 -31q-3 -11 -21 -16q-3 0 -8.5 4.5t-7.5 7.5q-1 2 -6 33q0 8 4 20h4zM1300 356l-10 9q-6 -1 -30.5 -5.5t-36.5 -5.5l-6 -6l6 -2q30 12 61 4q1 -1 16 6z" />
<glyph unicode="&#xbd;" horiz-adv-x="1501" d="M385 662q-4 1 -12.5 2t-13 2t-10 5t-9.5 11q-10 -4 -20 5t-11 9q-3 1 -8 2t-7 2t-4 3.5t-3 7.5q0 2 -3 12t-3 16q0 60 -5 101q-4 136 -4 194q-3 69 -6 195t-4 166q0 18 -1 37.5t-2.5 43t-2.5 37.5q-2 11 4.5 22t15.5 11q8 0 27 -14q3 -2 19.5 -14.5t25.5 -14.5 q12 -3 19 -9.5t9.5 -12.5t6.5 -19q4 -12 6 -27t2.5 -24t0 -29t-0.5 -26v-101q4 -59 4 -176q4 -158 8 -239q0 -74 3 -154q0 -24 -21 -24zM330 1067v59q0 4 -1 7t-1 4q-6 -6 -6 -11q-3 0 -3 -8q3 -108 3 -211q0 -6 2.5 -16l3.5 -14l2 -3q4 0 4 3q0 6 2 17t2 17q-4 56 -8 156z M330 133q8 86 63 254q58 177 68 203q6 20 20 57t17 47q56 159 114 318q21 58 129 346q7 18 32 80.5t38 97.5q8 23 14 23q34 -4 47 -15q21 -12 46 -45q41 -54 12 -127q-12 -26 -33 -92q-3 -9 -34 -85.5t-46 -115.5q-7 -19 -22.5 -56t-22.5 -56q-2 -7 -2 -24t-2 -25 q-10 -28 -56 -153.5t-69 -193.5q-16 -42 -43 -120q-5 -12 -31.5 -71.5t-38.5 -92.5q-29 -75 -49 -146q-14 -39 -28 -110q-4 -47 -2 -72q1 -10 1 -18t-4.5 -14.5t-15.5 -10.5q-13 -5 -29.5 2.5t-19.5 20.5q-9 22 -29 22q-8 0 -18 29q-18 43 -6 127v16zM598 637v-33 q-1 -2 -9 -9t-9 -13q-47 -130 -64 -170v-11v-14l10 10q1 3 6 23q18 45 64 184q2 10 2 35q7 5 16 23v2q-9 -18 -14 -23q0 -2 -2 -4zM354 94l2 -2q0 -33 -2 -51q0 -3 6 -12q1 3 4 7t3 5q12 53 12 55q6 41 18.5 82.5t34.5 98.5t29 77q11 37 25 77t33 90t28 77q8 22 16 64 q0 20 2 30q9 26 30 76.5t30 75.5q7 21 19.5 60t19.5 59q5 13 14 36.5t14 36.5q1 4 -0.5 13.5t-1.5 13.5q-2 -4 -8.5 -11t-7.5 -10q-6 -9 -14.5 -29t-10.5 -24q-4 -11 -13 -34t-13 -35q-25 -76 -29 -89q-4 -12 -39 -101.5t-43 -139.5q0 -8 -4 -12q-9 -23 -18 -48t-20 -55 t-17 -47q-37 -100 -43 -131q-6 -30 -15.5 -64.5t-22 -75t-18.5 -63.5zM637 723q2 6 6 14q35 97 37 103v12q-8 -4 -8 -8q-35 -93 -41 -111q0 -4 6 -10zM709 926q7 23 10 28q0 1 -4.5 4t-5.5 5q-1 -3 -4 -10.5t-3 -10.5q0 -2 1 -3.5t2.5 -5t3.5 -7.5zM481 283q0 1 -1 2t-1 2 q-4 -4 -4 -6q2 -3 2 -7q1 2 2 5t2 4zM690 899q-1 -2 -2 -4.5t-1.5 -3.5t-0.5 -2t1 -3t1 -3q4 4 4 6q1 1 -2 10zM623 690q6 3 6 6v9q-6 0 -6 -7v-8zM1186 903q0 -75 -39 -182q-23 -58 -92 -213q-37 -83 -62 -123q-4 -7 -16 -27t-19 -34.5t-12 -30.5q-2 -7 -8 -22.5t-8 -22.5 q-5 -11 -2.5 -14.5t14.5 -2.5q13 2 44.5 7.5t47.5 7.5q70 11 113 16q32 7 41 -18q7 -23 39 -23q21 -3 27.5 -9.5t9.5 -29.5q3 -14 -1 -18t-20 -6q-19 -2 -52.5 -6.5t-47.5 -6.5q-18 -3 -64 -14t-71 -14q-28 -6 -115 -15q-7 0 -16 9q-43 34 -56 63q-2 4 -4 11.5t-4 11.5 q-5 14 -8 16q-15 15 -8 37q2 8 9.5 33.5t11.5 38t11.5 32t16.5 35.5q10 18 25.5 55t21.5 50q8 19 26.5 54.5t26.5 55.5q13 27 76 170q6 14 12.5 30t13.5 36t11 30q4 4 4 7q0 22 2 34q-18 -7 -27 -14q-68 -68 -75 -74q-34 -30 -66 -22q-22 5 -37 20t-18 37q0 19 20 47 q65 89 146 131q12 6 57 11q4 1 9 -1.5t7 -5.5q2 -6 5.5 -10t8.5 -6t8 -3.5t10 -2.5t9 -2q38 -9 58 -66q2 -10 3.5 -26.5t2.5 -20.5zM967 590q-23 -41 -29 -55v-9q2 2 6 2q2 4 8 14t8.5 15.5t4 15.5t0.5 19q9 0 11 -1.5t-1 -10.5q-8 -18 -74 -174q-27 -77 -51 -136 q-4 -16 -4 -24q6 12 14 20q1 1 2 4t2 4q2 5 13 28.5t14 35.5q3 8 14 28.5t13 34.5q2 7 9.5 20t8.5 15q7 15 19.5 43t23 51t18.5 43q12 32 19 80q1 2 0 3.5t-3 4t-3 3.5q-10 -5 -6 -9q2 -9 -15 -26q-9 -9 -22 -39z" />
<glyph unicode="&#xbe;" horiz-adv-x="2015" d="M610 1401q-13 1 -28.5 -2t-22.5 -5t-28.5 -9.5t-24.5 -8.5q-42 -17 -72 -24q-40 -10 -57 18q-11 20 -10 33.5t16 30.5q34 39 113 57q62 12 120 -2q16 -2 37 -19q6 -3 17.5 -12t17.5 -12q44 -26 55 -100q6 -50 -24 -91q-34 -49 -68 -86q-6 -8 -14.5 -16t-21 -18t-15.5 -13 q-12 -10 0 -16q30 -11 47 -21q10 -5 39 -30q6 -4 17.5 -14.5t17.5 -14.5q40 -26 51 -100q9 -57 -24 -144q-23 -56 -78 -114q-4 -4 -14.5 -16t-16.5 -18.5t-16 -15t-20 -13.5t-21 -7q-6 -3 -11 -8q-43 -29 -88 0q-61 40 -73 115v6q0 2 2 8t2 8q2 -2 7 -5t7 -5q4 -4 14 -19 q21 -34 62 -16q80 39 121 109q7 12 37 69q17 36 24 92q1 20 -4.5 29t-24.5 20q-49 24 -102 33q-16 4 -45 -4q-32 -9 -46.5 0t-29.5 39q-2 2 -1.5 6t-0.5 8v13q-12 20 -9 31.5t23 21.5q7 5 35 27q72 60 111 100q44 44 59 104q2 12 -1 16.5t-15 4.5h-25zM627 709l-4 16 q0 3 -2.5 8.5t-2.5 9.5q-12 -8 -16 -12q-12 -13 -32.5 -37.5t-32.5 -36.5q-5 -5 -5 -8q1 0 4 1t5 1t7 1t7 1q-4 -12 -8 -16l-8 -8q-9 -9 -11 -13q11 0 17 2q1 1 4 3.5t4 3.5q14 7 26.5 19.5t17.5 20t17 27.5q8 12 13 17zM606 1239q-2 3 -3.5 6t-2.5 4q-1 0 -3.5 -1t-4.5 -1 q-10 -12 -27 -26q-59 -59 -67 -66q-4 -2 -4 -14q1 1 5.5 1.5t6.5 2.5q59 47 74 61q5 5 13 16.5t13 16.5zM551 1161h-6q-15 -10 -17 -12l-6 -12q2 0 6 -1t6.5 -1t2.5 2q5 3 14 24zM500 625q2 0 10 4l-2 4q-2 -2 -6 -4t-6 -4h4zM578 1190h2h-2zM561 1174h-2h2zM668 174 q8 86 63 254q58 177 68 203q6 20 20 57t17 47q56 159 114 318q21 59 129 346q7 18 32 80.5t38 97.5q7 22 14 22q36 -4 47 -14q19 -11 45 -45q42 -55 13 -127q-12 -26 -33 -92q-3 -9 -34 -85.5t-46 -115.5q-7 -19 -22.5 -56t-22.5 -56q-2 -7 -2 -24.5t-2 -25.5 q-11 -31 -56.5 -154.5t-68.5 -191.5q-16 -42 -43 -120q-5 -12 -31.5 -71.5t-38.5 -92.5q-29 -75 -49 -146q-14 -39 -28 -110q-5 -53 -3 -72q1 -10 1.5 -18t-4 -14.5t-15.5 -10.5q-13 -5 -29.5 2.5t-19.5 20.5q-9 22 -29 22q-8 0 -18 29q-18 43 -6 127v16zM936 678v-33 q-1 -2 -9 -9t-9 -13q-47 -130 -64 -170v-11v-14l10 10q1 3 6 23q18 45 64 184q2 10 2 35q8 6 16 22v3q-9 -18 -14 -23q0 -2 -2 -4zM692 135l2 -2q0 -33 -2 -51q0 -3 6 -12q1 3 4 7t3 5q12 53 12 55q6 41 18.5 82.5t34.5 98.5t29 77q11 37 25 77t33 90t28 77q8 23 16 63 q0 21 2 31q9 25 30 76t30 76q7 21 19 60t19 59q5 12 14.5 36.5t14.5 36.5q1 5 -0.5 14t-1.5 13q-2 -4 -8.5 -11t-7.5 -10q-6 -9 -14.5 -29t-10.5 -24q-4 -11 -13 -34t-13 -35q-25 -76 -29 -89q-4 -12 -39 -101.5t-43 -139.5q0 -9 -4 -13q-4 -11 -55 -149q-37 -100 -43 -131 q-6 -30 -15.5 -64.5t-22 -75t-18.5 -63.5zM975 764q2 6 6 14q35 97 37 103v12q-8 -4 -8 -8q-35 -93 -41 -111q0 -4 6 -10zM1047 967q7 23 10 28q0 1 -4.5 4t-5.5 5q-1 -3 -4 -10.5t-3 -10.5q0 -2 1 -3.5t2.5 -5t3.5 -7.5zM819 324q0 1 -1 2t-1 2q-4 -4 -4 -6q2 -3 2 -7 q1 2 2 5t2 4zM1028 940q-1 -2 -2 -4.5t-1.5 -3.5t-0.5 -2t1 -3t1 -3q4 4 4 6q1 1 -2 10zM961 731q6 3 6 6v8q-6 0 -6 -6v-8zM1362 170q0 11 -0.5 31.5t-0.5 37t1 31.5q0 19 -14 13q-10 -2 -27 -3t-31 -4t-26 -10q-12 -6 -41 13q-55 45 -43 114q21 156 39 309q8 59 21 173.5 t15 130.5q0 8 2.5 26t2.5 27q3 19 18 10q24 -11 39 -41l6 -12q26 -22 18 -74q-3 -26 -8 -78.5t-8 -77.5q-2 -13 -8 -36.5t-8 -36.5v-35q-3 -23 -9.5 -68.5t-9.5 -68.5q-3 -27 -9 -80t-9 -80q0 -7 2.5 -10t9.5 -2q8 1 23 1.5t28 1.5t25 3q4 0 10 12q1 9 2 28.5t2 28.5 q3 14 8.5 42.5t8.5 43.5q1 5 8 12.5t8 8.5q2 -2 5.5 -5t6 -5.5t4.5 -5.5q10 -12 15 -27t8 -34.5t6 -29.5q6 -12 6 -26q2 -15 5 -17t18 2q11 1 31 6.5t24 6.5q12 3 16 0t7 -17q0 -12 4 -13q3 0 8 1q3 0 28 -10q0 -10 -4 -12q-17 -11 -41 -25q-5 -2 -30.5 -11t-40.5 -14 q-12 -4 -17 -4q-12 1 -17 -5t-7 -19q-4 -22 -8 -31q-10 -20 -29 -104q-5 -24 -10 -31q-3 -12 -19 -17q-3 0 -16 13q-4 10 -4 33q0 14 2 20h4zM1540 381l-8 10q-35 -7 -62 -10q-4 -4 -4 -8h4q25 11 56 4q1 0 14 4z" />
<glyph unicode="&#xbf;" horiz-adv-x="862" d="M133 147q-8 105 2 162q12 61 62 176q14 31 31.5 65.5t39 76t33.5 65.5l17 34l20 40t18 33q14 27 41.5 75t38.5 68q4 8 5.5 24t4.5 23q1 6 4.5 23.5t5.5 26.5t6 23t10.5 25.5t14.5 20.5q15 17 18 37.5t-1 40.5q0 3 -2.5 11t-3 12.5t2 9.5t9.5 8q5 4 13 0t10.5 -6t9 -9.5 t8.5 -9.5q3 -4 13 -13.5t14 -17.5q25 -25 28 -36q17 -58 27 -123h-6q4 -7 1.5 -20t-1.5 -18.5t-4.5 -18t-7 -17.5t-9 -17t-10.5 -16.5t-11.5 -17t-11.5 -17.5q-16 -21 -42 -64t-35 -56q-53 -88 -60 -101q-32 -61 -39 -84q-6 -17 -29.5 -62t-29.5 -75q-2 -19 -16.5 -50.5 t-18.5 -43.5q-4 -11 -8 -55q0 -42 -16 -52l-5 -10q0 -11 -0.5 -39t2 -47t11.5 -37q23 -50 90 -22q52 19 74 39q110 90 145 161q26 43 70 43q6 1 18.5 5t19 5t19.5 -3q30 -15 22 -35q-17 -96 -86 -174q-51 -63 -127 -113q-81 -56 -170 -33q-58 14 -92 25q-52 12 -77 57 q-4 6 -18.5 24t-20.5 29q-19 29 -21 45zM291 575q-17 -39 -21 -63q-4 -18 -10 -53t-10 -53q16 8 22 12q5 6 14 19t11 16q25 29 31 45q15 27 24 51q13 23 72.5 132.5t91.5 166.5q53 90 62 149q1 7 5.5 19.5t6.5 17.5q0 5 -4 13l-11 -11v-8q-18 -38 -36 -72h-9q-3 10 -7 12.5 t-6.5 0.5t-6.5 -7l-4 -6q-25 -28 -51 -65q-8 -10 -19 -32t-24 -39t-31 -29v-9q6 -4 6.5 -8t-1.5 -6t-5.5 -6.5t-5.5 -7.5q-3 -8 -18.5 -20t-21 -20.5t0.5 -31.5q1 -3 -3.5 -11.5t-4.5 -13.5q-11 -20 -23 -47q-10 -13 -14 -35zM252 399q-2 -6 -2 -24h6v26q0 1 -3 3q-2 1 -3 2 q0 -1 1 -3.5t1 -3.5zM508 1442q-25 20 -28 30q-2 9 3 19q-4 32 11 44t45 3q16 -4 18 -4q70 -9 86 -78q2 -9 0 -19t-7 -24t-7 -22q0 -9 -11 -9q-8 3 -30.5 5.5t-36.5 9t-21 24.5q-1 4 -4 7l-5 5t-7 5t-6 4z" />
<glyph unicode="&#xc0;" d="M-12 70q8 113 14 166q2 29 6 87.5t6 88.5q1 13 6.5 73.5t6.5 92.5q2 25 3 75.5t3 75.5q8 176 16 262q15 148 43 348q4 22 10.5 45.5t16.5 54.5t14 44q2 8 10 20q13 18 23 4q3 -1 9 -1t9 1q21 18 43 13q3 -1 16 5t19 -1q3 -2 13 -3t14 -3q82 -43 141 -142q9 -21 21 -39 q7 -11 12 -21.5t9 -25t5.5 -21.5t5 -26t4.5 -22q15 -95 27 -189q11 -104 16 -168q2 -35 3.5 -103.5t3.5 -103.5q0 -15 1 -31t2.5 -36t2.5 -31q6 -87 6 -88l-6 -141q0 -84 -2 -125l-6 -105q0 -5 -5 -20q-5 -10 -18 -4q-5 2 -17.5 4t-17.5 4q-18 3 -33 12q-38 19 -61 37 q-16 12 -12 31q0 19 3.5 54t4.5 46q12 134 16 197q1 15 1 31t-0.5 35.5t-0.5 29.5q0 9 -4 12t-10 -2q-15 -11 -31.5 -17.5t-43.5 -12t-34 -7.5q-32 -8 -77 -4q-9 1 -13 -1t-5.5 -5t-2.5 -10q-4 -108 -8 -162q-12 -112 -16 -174q0 -16 1 -33.5t2.5 -39.5t2.5 -35 q0 -44 -37 -56q-31 -8 -41 -22q-9 -13 -29 -13.5t-33 9.5q-31 18 -28 63q0 15 2 23h-2zM432 754l4 8q-1 -2 -2 -5t-2 -5q0 -3 -1 -10.5t-1 -10.5h4q0 3 -1 10t-1 11v2zM154 1448q0 1 1 3.5t1 4.5v-8q-14 -28 -17 -37q-1 -5 -4 -21t-6 -24q-27 -91 -43 -276q-1 -21 -4 -59.5 t-5 -70t-3 -59.5q-4 -43 -4 -131v-43h2q0 7 -1 21.5t-1 21.5q10 20 10 25q1 10 2 31.5t2 31.5q4 73 16 207q1 10 3 29.5t3 29.5q2 19 5.5 55t5.5 52q1 10 3 28t4 32.5t5 27.5q2 11 7.5 31.5t9 33.5t6 31t2.5 33zM178 666v-41q-2 -12 4 -17t19 -2q14 3 41.5 8.5t40.5 8.5 q44 11 94 30q4 1 8 8.5t4 12.5t-6 194q0 36 -6 52q-4 15 -5 45.5t-5 46.5q-6 22 -7.5 64t-3.5 57q-8 51 -32 149q-16 66 -54 115q-11 18 -20 -2q-17 -40 -25 -119q-24 -202 -32 -307q-4 -40 -9 -168q-1 -15 -2 -43t-2 -50.5t-2 -41.5zM459 768v-17t-4 -24.5t-15 -13.5 q-6 -2 -6 -27q13 -4 19 -4q13 3 17.5 -2.5t2.5 -15.5q-1 -2 -1.5 -8.5t-1.5 -9.5t-6 -5.5t-15 2.5q0 4 -9 -8l-2 -2q-4 -28 -4 -43q0 -26 9 -30q7 -2 18 1l10 -10q-2 -1 -4 -2.5t-3.5 -2.5t-2.5 -1q-21 5 -21 -17q0 -4 -1 -10.5t-1 -9.5q0 -10 -2.5 -31.5t-1.5 -37.5t8 -31 q3 -3 -2 -13q0 -1 -4 -6.5t-4 -7.5v-121q0 -6 8 -14q12 -19 13 -21q3 -5 7 -15.5t7 -14.5q2 -3 16 -17q9 14 9 19q1 16 2 46.5t2 45.5q13 126 8 225q-1 21 0 62t0 61q-6 105 -15 215q-4 52 -8 80q0 2 -2 3.5t-5 3t-5 3.5q-10 -10 -10 -12v-162zM84 702q-10 5 -12 5 q-4 0 -4 -9q0 -2 4 -10q2 4 12 14zM496 111l2 2h-2v-2zM217 1839q2 1 5 4t5 4q17 14 37 6q0 -2 2 -4q-1 -10 -1.5 -12t6.5 -6.5t8 -5.5q10 -13 39.5 -48t43.5 -55q33 -41 56 -86q12 -20 24 -32q6 -6 -4 -17q-5 -10 -10 -10q-34 0 -51 12q-7 6 -16 12.5t-21 13.5t-18 11 q-10 5 -19.5 11.5t-24.5 20.5l-14 13q-14 11 -36 32.5t-31 29.5q-11 11 -17 20q-13 13 4 43q15 30 33 43zM365 1651q-4 9 -14 23.5t-13 19.5l-4 4v-6q20 -27 24 -43q5 -17 31 -47q0 2 2.5 2t3.5 -2l-2 6q-5 7 -14 21.5t-14 21.5z" />
<glyph unicode="&#xc1;" d="M-12 70h2q-2 -8 -2 -23q-3 -45 28 -63q13 -10 33 -9.5t29 13.5q10 14 41 22q37 12 37 56q-1 13 -2.5 35t-2.5 39.5t-1 33.5q4 62 16 174q4 54 8 162q1 7 2.5 10t5.5 5t13 1q45 -4 77 4q7 2 34 7.5t43.5 12t31.5 17.5q6 5 10 2t4 -12q0 -10 0.5 -29.5t0.5 -35.5t-1 -31 q-4 -63 -16 -197q-1 -11 -4.5 -46t-3.5 -54q-4 -19 12 -31q23 -18 61 -37q15 -9 33 -12q5 -2 17.5 -4t17.5 -4q13 -6 18 4q5 15 5 20l6 105q2 41 2 125l6 141q0 1 -6 88q-1 11 -2.5 31t-2.5 36t-1 31q-2 35 -3.5 103.5t-3.5 103.5q-5 64 -16 168q-12 94 -27 189 q-1 3 -4.5 22t-5 26t-5.5 21.5t-9 25t-12 21.5q-12 18 -21 39q-59 99 -141 142q-4 2 -14 3t-13 3q-6 7 -19 1t-16 -5q-22 5 -43 -13q-3 -1 -9 -1t-9 1q-10 14 -23 -4q-8 -12 -10 -20q-4 -13 -14 -44t-16.5 -54.5t-10.5 -45.5q-28 -200 -43 -348q-8 -86 -16 -262 q-2 -25 -3 -75.5t-3 -75.5q-1 -32 -6.5 -92.5t-6.5 -73.5q-2 -30 -6 -88.5t-6 -87.5q-6 -53 -14 -166zM432 754v-2q0 -4 1 -11t1 -10h-4q0 3 1 10.5t1 10.5q1 2 2 5t2 5q-1 -1 -1.5 -3t-1 -3t-1.5 -2zM154 1448q0 -19 -3.5 -38.5t-11.5 -51.5t-10 -39q-3 -13 -5 -27.5 t-4 -32.5t-3 -28q-2 -16 -5.5 -52t-5.5 -55q-1 -10 -3 -29.5t-3 -29.5q-12 -134 -16 -207q-1 -10 -2 -31.5t-2 -31.5q0 -5 -10 -25q0 -7 1 -21.5t1 -21.5h-2v43q0 88 4 131l12 189q16 185 43 276q3 8 6 24t4 21q3 9 17 37v8q0 -2 -1 -4.5t-1 -3.5zM178 666q1 19 2 41.5 t2 50.5t2 43q5 128 9 168q8 105 32 307q8 79 25 119q9 20 20 2q38 -49 54 -115q24 -98 32 -149q2 -15 3.5 -57t7.5 -64q4 -16 5 -46.5t5 -45.5q6 -16 6 -52q6 -189 6 -194t-4 -12.5t-8 -8.5q-50 -19 -94 -30q-13 -3 -40.5 -8.5t-41.5 -8.5q-13 -3 -19 2t-4 17v41zM459 768 v162q0 2 10 12q2 -2 5 -3.5t5 -3t2 -3.5q4 -28 8 -80q9 -110 15 -215q1 -20 0 -61t0 -62q5 -99 -8 -225q-1 -15 -2 -45.5t-2 -46.5q0 -5 -9 -19q-14 14 -16 17q-3 4 -7 14.5t-7 15.5q-1 2 -13 21q-8 8 -8 14v121q0 2 4 7.5t4 6.5q5 10 2 13q-7 15 -8 31t1.5 37.5t2.5 31.5 q0 3 1 9.5t1 10.5q0 22 21 17q1 0 2.5 1t3.5 2.5t4 2.5l-10 10q-13 -6 -19 0t-7 10.5t-1 15.5v3q0 15 4 43q4 7 11 10q10 -5 15 -2.5t6 5.5t1.5 9.5t1.5 8.5q2 10 -2.5 15.5t-17.5 2.5l-19 4q0 25 6 27q11 5 15 13.5t4 24.5v17zM84 702q-10 -10 -12 -14q-4 8 -4 10q0 9 4 9 q2 0 12 -5zM496 111v2h2zM211 1597q-22 19 -33 52q-18 32 -4 43q3 3 9 8.5t10 9.5q10 6 32.5 22.5t36.5 24.5q40 30 60 35q50 22 57 27q16 9 51 2q4 0 10 -13q8 -13 2 -16q-13 -10 -24 -29q-30 -45 -60 -75q-16 -18 -47.5 -47.5t-40.5 -38.5q-1 -2 -6 -5t-5.5 -5.5 t1.5 -12.5l-4 -4q-21 -4 -35 12zM362 1759q1 1 31 37q0 4 2 6q-1 -1 -3.5 -0.5t-2.5 2.5q-27 -27 -33 -41q-4 -16 -24 -39q0 -4 -2 -6l6 2q4 7 13 19.5t13 19.5z" />
<glyph unicode="&#xc2;" d="M-12 70q8 113 14 166q2 29 6 87.5t6 88.5q1 13 6.5 73.5t6.5 92.5q2 25 3 75.5t3 75.5q8 176 16 262q15 148 43 348q4 22 10.5 45.5t16.5 54.5t14 44q2 8 10 20q13 18 23 4q3 -1 9 -1t9 1q21 18 43 13q3 -1 16 5t19 -1q3 -2 13 -3t14 -3q82 -43 141 -142q9 -21 21 -39 q7 -11 12 -21.5t9 -25t5.5 -21.5t5 -26t4.5 -22q15 -95 27 -189q11 -104 16 -168q2 -35 3.5 -103.5t3.5 -103.5q0 -15 1 -31t2.5 -36t2.5 -31q6 -87 6 -88l-6 -141q0 -84 -2 -125l-6 -105q0 -5 -5 -20q-5 -10 -18 -4q-5 2 -17.5 4t-17.5 4q-18 3 -33 12q-38 19 -61 37 q-16 12 -12 31q0 19 3.5 54t4.5 46q12 134 16 197q1 15 1 31t-0.5 35.5t-0.5 29.5q0 9 -4 12t-10 -2q-15 -11 -31.5 -17.5t-43.5 -12t-34 -7.5q-32 -8 -77 -4q-9 1 -13 -1t-5.5 -5t-2.5 -10q-4 -108 -8 -162q-12 -112 -16 -174q0 -16 1 -33.5t2.5 -39.5t2.5 -35 q0 -44 -37 -56q-31 -8 -41 -22q-9 -13 -29 -13.5t-33 9.5q-31 18 -28 63q0 15 2 23h-2zM432 754l4 8q-1 -2 -2 -5t-2 -5q0 -3 -1 -10.5t-1 -10.5h4q0 3 -1 10t-1 11v2zM154 1448q0 1 1 3.5t1 4.5v-8q-14 -28 -17 -37q-1 -5 -4 -21t-6 -24q-27 -91 -43 -276q-1 -21 -4 -59.5 t-5 -70t-3 -59.5q-4 -43 -4 -131v-43h2q0 7 -1 21.5t-1 21.5q10 20 10 25q1 10 2 31.5t2 31.5q4 73 16 207q1 10 3 29.5t3 29.5q2 19 5.5 55t5.5 52q1 10 3 28t4 32.5t5 27.5q2 11 7.5 31.5t9 33.5t6 31t2.5 33zM178 666v-41q-2 -12 4 -17t19 -2q14 3 41.5 8.5t40.5 8.5 q44 11 94 30q4 1 8 8.5t4 12.5t-6 194q0 36 -6 52q-4 15 -5 45.5t-5 46.5q-6 22 -7.5 64t-3.5 57q-8 51 -32 149q-16 66 -54 115q-11 18 -20 -2q-17 -40 -25 -119q-24 -202 -32 -307q-4 -40 -9 -168q-1 -15 -2 -43t-2 -50.5t-2 -41.5zM459 768v-17t-4 -24.5t-15 -13.5 q-6 -2 -6 -27q13 -4 19 -4q13 3 17.5 -2.5t2.5 -15.5q-1 -2 -1.5 -8.5t-1.5 -9.5t-6 -5.5t-15 2.5q0 4 -9 -8l-2 -2q-4 -28 -4 -43q0 -26 9 -30q7 -2 18 1l10 -10q-2 -1 -4 -2.5t-3.5 -2.5t-2.5 -1q-21 5 -21 -17q0 -4 -1 -10.5t-1 -9.5q0 -10 -2.5 -31.5t-1.5 -37.5t8 -31 q3 -3 -2 -13q0 -1 -4 -6.5t-4 -7.5v-121q0 -6 8 -14q12 -19 13 -21q3 -5 7 -15.5t7 -14.5q2 -3 16 -17q9 14 9 19q1 16 2 46.5t2 45.5q13 126 8 225q-1 21 0 62t0 61q-6 105 -15 215q-4 52 -8 80q0 2 -2 3.5t-5 3t-5 3.5q-10 -10 -10 -12v-162zM84 702q-10 5 -12 5 q-4 0 -4 -9q0 -2 4 -10q2 4 12 14zM496 111l2 2h-2v-2zM418 1651q-10 -5 -12 -4q-50 2 -95 47q-7 6 -15 14t-16.5 17t-13.5 14q-12 9 -20 -2q-8 -10 -23.5 -31t-23.5 -31q-44 -55 -54 -65q-9 -11 -16 -29q-3 -18 -33 -14q-36 5 -55 43q-1 2 -2 6t-2 6q-6 11 6 23 q18 14 53 49t51 55q14 18 48 66q16 19 34 14q64 -18 84 -53q17 -34 66 -66q24 -15 27 -20q4 -4 6 -10.5t3.5 -15.5t2.5 -13z" />
<glyph unicode="&#xc3;" d="M-12 70q8 113 14 166q2 29 6 87.5t6 88.5q1 13 6.5 73.5t6.5 92.5q2 25 3 75.5t3 75.5q8 176 16 262q15 148 43 348q4 22 10.5 45.5t16.5 54.5t14 44q2 8 10 20q13 18 23 4q3 -1 9 -1t9 1q21 18 43 13q3 -1 16 5t19 -1q3 -2 13 -3t14 -3q82 -43 141 -142q9 -21 21 -39 q7 -11 12 -21.5t9 -25t5.5 -21.5t5 -26t4.5 -22q15 -95 27 -189q11 -104 16 -168q2 -35 3.5 -103.5t3.5 -103.5q0 -15 1 -31t2.5 -36t2.5 -31q6 -87 6 -88l-6 -141q0 -84 -2 -125l-6 -105q0 -5 -5 -20q-5 -10 -18 -4q-5 2 -17.5 4t-17.5 4q-18 3 -33 12q-38 19 -61 37 q-16 12 -12 31q0 19 3.5 54t4.5 46q12 134 16 197q1 15 1 31t-0.5 35.5t-0.5 29.5q0 9 -4 12t-10 -2q-15 -11 -31.5 -17.5t-43.5 -12t-34 -7.5q-32 -8 -77 -4q-9 1 -13 -1t-5.5 -5t-2.5 -10q-4 -108 -8 -162q-12 -112 -16 -174q0 -16 1 -33.5t2.5 -39.5t2.5 -35 q0 -44 -37 -56q-31 -8 -41 -22q-9 -13 -29 -13.5t-33 9.5q-31 18 -28 63q0 15 2 23h-2zM432 754l4 8q-1 -2 -2 -5t-2 -5q0 -3 -1 -10.5t-1 -10.5h4q0 3 -1 10t-1 11v2zM154 1448q0 1 1 3.5t1 4.5v-8q-14 -28 -17 -37q-1 -5 -4 -21t-6 -24q-27 -91 -43 -276q-1 -21 -4 -59.5 t-5 -70t-3 -59.5q-4 -43 -4 -131v-43h2q0 7 -1 21.5t-1 21.5q10 20 10 25q1 10 2 31.5t2 31.5q4 73 16 207q1 10 3 29.5t3 29.5q2 19 5.5 55t5.5 52q1 10 3 28t4 32.5t5 27.5q2 11 7.5 31.5t9 33.5t6 31t2.5 33zM178 666v-41q-2 -12 4 -17t19 -2q14 3 41.5 8.5t40.5 8.5 q44 11 94 30q4 1 8 8.5t4 12.5t-6 194q0 36 -6 52q-4 15 -5 45.5t-5 46.5q-6 22 -7.5 64t-3.5 57q-8 51 -32 149q-16 66 -54 115q-11 18 -20 -2q-17 -40 -25 -119q-24 -202 -32 -307q-4 -40 -9 -168q-1 -15 -2 -43t-2 -50.5t-2 -41.5zM459 768v-17t-4 -24.5t-15 -13.5 q-6 -2 -6 -27q13 -4 19 -4q13 3 17.5 -2.5t2.5 -15.5q-1 -2 -1.5 -8.5t-1.5 -9.5t-6 -5.5t-15 2.5q0 4 -9 -8l-2 -2q-4 -28 -4 -43q0 -26 9 -30q7 -2 18 1l10 -10q-2 -1 -4 -2.5t-3.5 -2.5t-2.5 -1q-21 5 -21 -17q0 -4 -1 -10.5t-1 -9.5q0 -10 -2.5 -31.5t-1.5 -37.5t8 -31 q3 -3 -2 -13q0 -1 -4 -6.5t-4 -7.5v-121q0 -6 8 -14q12 -19 13 -21q3 -5 7 -15.5t7 -14.5q2 -3 16 -17q9 14 9 19q1 16 2 46.5t2 45.5q13 126 8 225q-1 21 0 62t0 61q-6 105 -15 215q-4 52 -8 80q0 2 -2 3.5t-5 3t-5 3.5q-10 -10 -10 -12v-162zM84 702q-10 5 -12 5 q-4 0 -4 -9q0 -2 4 -10q2 4 12 14zM496 111l2 2h-2v-2zM170 1798q57 -16 82 -26q11 -6 65 -48q18 -14 30 -15t30 11q9 9 29 23t26 20q26 33 66 76q7 11 10.5 11t11.5 -11q9 -20 -6 -59q-5 -12 -18 -33t-17 -29q-2 -3 -5 -10t-5 -10q-26 -40 -57 -62q-23 -14 -64 0 q-44 19 -90 58q-7 4 -19.5 13t-15.5 11q-16 10 -24 -6q-16 -31 -64 -39q-8 -2 -25.5 8.5t-17.5 18.5q-2 11 6 31q7 25 29 44.5t43 22.5z" />
</font>
</defs>
</svg>
