<?xml version="1.0" standalone="no"?>
<!DOCTYPE svg PUBLIC "-//W3C//DTD SVG 1.1//EN" "http://www.w3.org/Graphics/SVG/1.1/DTD/svg11.dtd" >
<svg xmlns="http://www.w3.org/2000/svg">
<metadata></metadata>
<defs>
<font id="hello_sunshine_ornamentsRg" horiz-adv-x="1183" >
<font-face units-per-em="2048" ascent="1536" descent="-512" />
<missing-glyph horiz-adv-x="741" />
<glyph horiz-adv-x="0" />
<glyph horiz-adv-x="682" />
<glyph horiz-adv-x="0" />
<glyph horiz-adv-x="0" />
<glyph unicode="&#xd;" horiz-adv-x="741" />
<glyph unicode=" "  horiz-adv-x="741" />
<glyph unicode="&#x09;" horiz-adv-x="741" />
<glyph unicode="&#xa0;" horiz-adv-x="741" />
<glyph unicode="!" d="M186 532q0 2 1 6.5t1 6.5q8 30 33 30q40 0 103 -63q6 -3 6 -12l8 -8q9 37 29 60t45 23q11 0 26 -6q25 -14 25 -47q0 -12 -2.5 -25.5t-6.5 -29.5t-5 -21q-27 -104 -80 -227q-5 -10 -19 -10q-13 0 -18 10q-42 95 -92 191q-4 9 -18.5 33.5t-25 47.5t-10.5 41zM231 516 q0 -13 31 -72q2 1 3.5 4.5t2.5 4.5q4 8 13 8q-11 29 -23 41q-4 4 -12 9.5t-10 8.5q-1 0 -2.5 1t-2.5 1v-2v-4zM287 397q3 -5 8 -14t8 -14q-5 12 -8 28h-8zM328 315q0 4 2 4q-2 0 -2 3v-7zM422 492q2 6 2 14q-2 -4 -2 -14zM559 1411v10q0 7 5.5 12t13.5 5q10 0 16 -6 q78 -89 113 -215v-5q0 -16 -19 -16q-17 0 -20 16q-21 84 -68 150q3 -76 29 -166q2 2 8 2q4 0 16 -6q1 -2 5.5 -6t5.5 -6q53 12 59 63q11 28 12 33q29 78 37 96q18 41 39 62q40 36 72 36q18 0 32 -14q21 -21 21 -55q0 -23 -7.5 -50.5t-21.5 -62t-16 -39.5q-53 -140 -146 -284 q-7 -7 -16 -7t-16 7q-154 198 -154 446zM662 1120q20 -48 65 -110q4 5 10.5 14t10.5 14l-3 2q-15 15 -40.5 43.5t-32.5 36.5h-8h-2zM727 1116q11 -14 21 -22q5 47 22 102q-20 -51 -25 -72q-10 -10 -14 -10q-1 0 -2 1t-2 1zM791 1118q46 90 75 176q1 4 11 27t10 35 q0 24 -6 39q-64 -137 -90 -277zM799 717q0 70 35 108q16 19 36 19q18 0 33 -15q17 -17 17 -38q0 -23 -27 -68q0 -2 -1 -3.5t-1 -2.5q-2 -10 -2 -29h10q17 32 24.5 44.5t24.5 34.5t35.5 31t40.5 9q9 0 29 -4q16 -6 16 -19q0 -1 -1 -4t-1 -4q-19 -49 -54 -95.5t-94 -108.5 t-75 -80q-7 -7 -17 -7q-18 0 -18 17v4q4 24 4 39q0 25 -7 84t-7 88zM807 1358q5 7 12.5 21.5t9.5 17.5q-2 -3 -7 -11.5t-7 -11.5zM852 578q2 -6 2 -17q38 47 80 92q-4 0 -16 4q-21 -49 -50 -75q-4 -4 -12 -4h-4z" />
<glyph unicode="&#x22;" d="M186 532q0 2 1 6.5t1 6.5q8 30 33 30q40 0 103 -63q6 -3 6 -12l8 -8q9 37 29 60t45 23q11 0 26 -6q25 -14 25 -47q0 -12 -2.5 -25.5t-6.5 -29.5t-5 -21q-27 -104 -80 -227q-5 -10 -19 -10q-13 0 -18 10q-42 95 -92 191q-4 9 -18.5 33.5t-25 47.5t-10.5 41zM231 516 q0 -13 31 -72q2 1 3.5 4.5t2.5 4.5q4 8 13 8q-11 29 -23 41q-4 4 -12 9.5t-10 8.5q-1 0 -2.5 1t-2.5 1v-2v-4zM287 397q3 -5 8 -14t8 -14q-5 12 -8 28h-8zM328 315q0 4 2 4q-2 0 -2 3v-7zM422 492q2 6 2 14q-2 -4 -2 -14zM559 1411v10q0 7 5.5 12t13.5 5q10 0 16 -6 q78 -89 113 -215v-5q0 -16 -19 -16q-17 0 -20 16q-21 84 -68 150q3 -76 29 -166q2 2 8 2q4 0 16 -6q1 -2 5.5 -6t5.5 -6q53 12 59 63q11 28 12 33q29 78 37 96q18 41 39 62q40 36 72 36q18 0 32 -14q21 -21 21 -55q0 -23 -7.5 -50.5t-21.5 -62t-16 -39.5q-53 -140 -146 -284 q-7 -7 -16 -7t-16 7q-154 198 -154 446zM662 1120q20 -48 65 -110q4 5 10.5 14t10.5 14l-3 2q-15 15 -40.5 43.5t-32.5 36.5h-8h-2zM727 1116q11 -14 21 -22q5 47 22 102q-20 -51 -25 -72q-10 -10 -14 -10q-1 0 -2 1t-2 1zM791 1118q46 90 75 176q1 4 11 27t10 35 q0 24 -6 39q-64 -137 -90 -277zM799 717q0 70 35 108q16 19 36 19q18 0 33 -15q17 -17 17 -38q0 -23 -27 -68q0 -2 -1 -3.5t-1 -2.5q-2 -10 -2 -29h10q17 32 24.5 44.5t24.5 34.5t35.5 31t40.5 9q9 0 29 -4q16 -6 16 -19q0 -1 -1 -4t-1 -4q-19 -49 -54 -95.5t-94 -108.5 t-75 -80q-7 -7 -17 -7q-18 0 -18 17v4q4 24 4 39q0 25 -7 84t-7 88zM807 1358q5 7 12.5 21.5t9.5 17.5q-2 -3 -7 -11.5t-7 -11.5zM852 578q2 -6 2 -17q38 47 80 92q-4 0 -16 4q-21 -49 -50 -75q-4 -4 -12 -4h-4z" />
<glyph unicode="#" d="M186 532q0 2 1 6.5t1 6.5q8 30 33 30q40 0 103 -63q6 -3 6 -12l8 -8q9 37 29 60t45 23q11 0 26 -6q25 -14 25 -47q0 -12 -2.5 -25.5t-6.5 -29.5t-5 -21q-27 -104 -80 -227q-5 -10 -19 -10q-13 0 -18 10q-42 95 -92 191q-4 9 -18.5 33.5t-25 47.5t-10.5 41zM231 516 q0 -13 31 -72q2 1 3.5 4.5t2.5 4.5q4 8 13 8q-11 29 -23 41q-4 4 -12 9.5t-10 8.5q-1 0 -2.5 1t-2.5 1v-2v-4zM287 397q3 -5 8 -14t8 -14q-5 12 -8 28h-8zM328 315q0 4 2 4q-2 0 -2 3v-7zM422 492q2 6 2 14q-2 -4 -2 -14zM559 1411v10q0 7 5.5 12t13.5 5q10 0 16 -6 q78 -89 113 -215v-5q0 -16 -19 -16q-17 0 -20 16q-21 84 -68 150q3 -76 29 -166q2 2 8 2q4 0 16 -6q1 -2 5.5 -6t5.5 -6q53 12 59 63q11 28 12 33q29 78 37 96q18 41 39 62q40 36 72 36q18 0 32 -14q21 -21 21 -55q0 -23 -7.5 -50.5t-21.5 -62t-16 -39.5q-53 -140 -146 -284 q-7 -7 -16 -7t-16 7q-154 198 -154 446zM662 1120q20 -48 65 -110q4 5 10.5 14t10.5 14l-3 2q-15 15 -40.5 43.5t-32.5 36.5h-8h-2zM727 1116q11 -14 21 -22q5 47 22 102q-20 -51 -25 -72q-10 -10 -14 -10q-1 0 -2 1t-2 1zM791 1118q46 90 75 176q1 4 11 27t10 35 q0 24 -6 39q-64 -137 -90 -277zM799 717q0 70 35 108q16 19 36 19q18 0 33 -15q17 -17 17 -38q0 -23 -27 -68q0 -2 -1 -3.5t-1 -2.5q-2 -10 -2 -29h10q17 32 24.5 44.5t24.5 34.5t35.5 31t40.5 9q9 0 29 -4q16 -6 16 -19q0 -1 -1 -4t-1 -4q-19 -49 -54 -95.5t-94 -108.5 t-75 -80q-7 -7 -17 -7q-18 0 -18 17v4q4 24 4 39q0 25 -7 84t-7 88zM807 1358q5 7 12.5 21.5t9.5 17.5q-2 -3 -7 -11.5t-7 -11.5zM852 578q2 -6 2 -17q38 47 80 92q-4 0 -16 4q-21 -49 -50 -75q-4 -4 -12 -4h-4z" />
<glyph unicode="$" d="M186 532q0 2 1 6.5t1 6.5q8 30 33 30q40 0 103 -63q6 -3 6 -12l8 -8q9 37 29 60t45 23q11 0 26 -6q25 -14 25 -47q0 -12 -2.5 -25.5t-6.5 -29.5t-5 -21q-27 -104 -80 -227q-5 -10 -19 -10q-13 0 -18 10q-42 95 -92 191q-4 9 -18.5 33.5t-25 47.5t-10.5 41zM231 516 q0 -13 31 -72q2 1 3.5 4.5t2.5 4.5q4 8 13 8q-11 29 -23 41q-4 4 -12 9.5t-10 8.5q-1 0 -2.5 1t-2.5 1v-2v-4zM287 397q3 -5 8 -14t8 -14q-5 12 -8 28h-8zM328 315q0 4 2 4q-2 0 -2 3v-7zM422 492q2 6 2 14q-2 -4 -2 -14zM559 1411v10q0 7 5.5 12t13.5 5q10 0 16 -6 q78 -89 113 -215v-5q0 -16 -19 -16q-17 0 -20 16q-21 84 -68 150q3 -76 29 -166q2 2 8 2q4 0 16 -6q1 -2 5.5 -6t5.5 -6q53 12 59 63q11 28 12 33q29 78 37 96q18 41 39 62q40 36 72 36q18 0 32 -14q21 -21 21 -55q0 -23 -7.5 -50.5t-21.5 -62t-16 -39.5q-53 -140 -146 -284 q-7 -7 -16 -7t-16 7q-154 198 -154 446zM662 1120q20 -48 65 -110q4 5 10.5 14t10.5 14l-3 2q-15 15 -40.5 43.5t-32.5 36.5h-8h-2zM727 1116q11 -14 21 -22q5 47 22 102q-20 -51 -25 -72q-10 -10 -14 -10q-1 0 -2 1t-2 1zM791 1118q46 90 75 176q1 4 11 27t10 35 q0 24 -6 39q-64 -137 -90 -277zM799 717q0 70 35 108q16 19 36 19q18 0 33 -15q17 -17 17 -38q0 -23 -27 -68q0 -2 -1 -3.5t-1 -2.5q-2 -10 -2 -29h10q17 32 24.5 44.5t24.5 34.5t35.5 31t40.5 9q9 0 29 -4q16 -6 16 -19q0 -1 -1 -4t-1 -4q-19 -49 -54 -95.5t-94 -108.5 t-75 -80q-7 -7 -17 -7q-18 0 -18 17v4q4 24 4 39q0 25 -7 84t-7 88zM807 1358q5 7 12.5 21.5t9.5 17.5q-2 -3 -7 -11.5t-7 -11.5zM852 578q2 -6 2 -17q38 47 80 92q-4 0 -16 4q-21 -49 -50 -75q-4 -4 -12 -4h-4z" />
<glyph unicode="%" d="M186 532q0 2 1 6.5t1 6.5q8 30 33 30q40 0 103 -63q6 -3 6 -12l8 -8q9 37 29 60t45 23q11 0 26 -6q25 -14 25 -47q0 -12 -2.5 -25.5t-6.5 -29.5t-5 -21q-27 -104 -80 -227q-5 -10 -19 -10q-13 0 -18 10q-42 95 -92 191q-4 9 -18.5 33.5t-25 47.5t-10.5 41zM231 516 q0 -13 31 -72q2 1 3.5 4.5t2.5 4.5q4 8 13 8q-11 29 -23 41q-4 4 -12 9.5t-10 8.5q-1 0 -2.5 1t-2.5 1v-2v-4zM287 397q3 -5 8 -14t8 -14q-5 12 -8 28h-8zM328 315q0 4 2 4q-2 0 -2 3v-7zM422 492q2 6 2 14q-2 -4 -2 -14zM559 1411v10q0 7 5.5 12t13.5 5q10 0 16 -6 q78 -89 113 -215v-5q0 -16 -19 -16q-17 0 -20 16q-21 84 -68 150q3 -76 29 -166q2 2 8 2q4 0 16 -6q1 -2 5.5 -6t5.5 -6q53 12 59 63q11 28 12 33q29 78 37 96q18 41 39 62q40 36 72 36q18 0 32 -14q21 -21 21 -55q0 -23 -7.5 -50.5t-21.5 -62t-16 -39.5q-53 -140 -146 -284 q-7 -7 -16 -7t-16 7q-154 198 -154 446zM662 1120q20 -48 65 -110q4 5 10.5 14t10.5 14l-3 2q-15 15 -40.5 43.5t-32.5 36.5h-8h-2zM727 1116q11 -14 21 -22q5 47 22 102q-20 -51 -25 -72q-10 -10 -14 -10q-1 0 -2 1t-2 1zM791 1118q46 90 75 176q1 4 11 27t10 35 q0 24 -6 39q-64 -137 -90 -277zM799 717q0 70 35 108q16 19 36 19q18 0 33 -15q17 -17 17 -38q0 -23 -27 -68q0 -2 -1 -3.5t-1 -2.5q-2 -10 -2 -29h10q17 32 24.5 44.5t24.5 34.5t35.5 31t40.5 9q9 0 29 -4q16 -6 16 -19q0 -1 -1 -4t-1 -4q-19 -49 -54 -95.5t-94 -108.5 t-75 -80q-7 -7 -17 -7q-18 0 -18 17v4q4 24 4 39q0 25 -7 84t-7 88zM807 1358q5 7 12.5 21.5t9.5 17.5q-2 -3 -7 -11.5t-7 -11.5zM852 578q2 -6 2 -17q38 47 80 92q-4 0 -16 4q-21 -49 -50 -75q-4 -4 -12 -4h-4z" />
<glyph unicode="&#x26;" d="M186 532q0 2 1 6.5t1 6.5q8 30 33 30q40 0 103 -63q6 -3 6 -12l8 -8q9 37 29 60t45 23q11 0 26 -6q25 -14 25 -47q0 -12 -2.5 -25.5t-6.5 -29.5t-5 -21q-27 -104 -80 -227q-5 -10 -19 -10q-13 0 -18 10q-42 95 -92 191q-4 9 -18.5 33.5t-25 47.5t-10.5 41zM231 516 q0 -13 31 -72q2 1 3.5 4.5t2.5 4.5q4 8 13 8q-11 29 -23 41q-4 4 -12 9.5t-10 8.5q-1 0 -2.5 1t-2.5 1v-2v-4zM287 397q3 -5 8 -14t8 -14q-5 12 -8 28h-8zM328 315q0 4 2 4q-2 0 -2 3v-7zM422 492q2 6 2 14q-2 -4 -2 -14zM559 1411v10q0 7 5.5 12t13.5 5q10 0 16 -6 q78 -89 113 -215v-5q0 -16 -19 -16q-17 0 -20 16q-21 84 -68 150q3 -76 29 -166q2 2 8 2q4 0 16 -6q1 -2 5.5 -6t5.5 -6q53 12 59 63q11 28 12 33q29 78 37 96q18 41 39 62q40 36 72 36q18 0 32 -14q21 -21 21 -55q0 -23 -7.5 -50.5t-21.5 -62t-16 -39.5q-53 -140 -146 -284 q-7 -7 -16 -7t-16 7q-154 198 -154 446zM662 1120q20 -48 65 -110q4 5 10.5 14t10.5 14l-3 2q-15 15 -40.5 43.5t-32.5 36.5h-8h-2zM727 1116q11 -14 21 -22q5 47 22 102q-20 -51 -25 -72q-10 -10 -14 -10q-1 0 -2 1t-2 1zM791 1118q46 90 75 176q1 4 11 27t10 35 q0 24 -6 39q-64 -137 -90 -277zM799 717q0 70 35 108q16 19 36 19q18 0 33 -15q17 -17 17 -38q0 -23 -27 -68q0 -2 -1 -3.5t-1 -2.5q-2 -10 -2 -29h10q17 32 24.5 44.5t24.5 34.5t35.5 31t40.5 9q9 0 29 -4q16 -6 16 -19q0 -1 -1 -4t-1 -4q-19 -49 -54 -95.5t-94 -108.5 t-75 -80q-7 -7 -17 -7q-18 0 -18 17v4q4 24 4 39q0 25 -7 84t-7 88zM807 1358q5 7 12.5 21.5t9.5 17.5q-2 -3 -7 -11.5t-7 -11.5zM852 578q2 -6 2 -17q38 47 80 92q-4 0 -16 4q-21 -49 -50 -75q-4 -4 -12 -4h-4z" />
<glyph unicode="'" d="M186 532q0 2 1 6.5t1 6.5q8 30 33 30q40 0 103 -63q6 -3 6 -12l8 -8q9 37 29 60t45 23q11 0 26 -6q25 -14 25 -47q0 -12 -2.5 -25.5t-6.5 -29.5t-5 -21q-27 -104 -80 -227q-5 -10 -19 -10q-13 0 -18 10q-42 95 -92 191q-4 9 -18.5 33.5t-25 47.5t-10.5 41zM231 516 q0 -13 31 -72q2 1 3.5 4.5t2.5 4.5q4 8 13 8q-11 29 -23 41q-4 4 -12 9.5t-10 8.5q-1 0 -2.5 1t-2.5 1v-2v-4zM287 397q3 -5 8 -14t8 -14q-5 12 -8 28h-8zM328 315q0 4 2 4q-2 0 -2 3v-7zM422 492q2 6 2 14q-2 -4 -2 -14zM559 1411v10q0 7 5.5 12t13.5 5q10 0 16 -6 q78 -89 113 -215v-5q0 -16 -19 -16q-17 0 -20 16q-21 84 -68 150q3 -76 29 -166q2 2 8 2q4 0 16 -6q1 -2 5.5 -6t5.5 -6q53 12 59 63q11 28 12 33q29 78 37 96q18 41 39 62q40 36 72 36q18 0 32 -14q21 -21 21 -55q0 -23 -7.5 -50.5t-21.5 -62t-16 -39.5q-53 -140 -146 -284 q-7 -7 -16 -7t-16 7q-154 198 -154 446zM662 1120q20 -48 65 -110q4 5 10.5 14t10.5 14l-3 2q-15 15 -40.5 43.5t-32.5 36.5h-8h-2zM727 1116q11 -14 21 -22q5 47 22 102q-20 -51 -25 -72q-10 -10 -14 -10q-1 0 -2 1t-2 1zM791 1118q46 90 75 176q1 4 11 27t10 35 q0 24 -6 39q-64 -137 -90 -277zM799 717q0 70 35 108q16 19 36 19q18 0 33 -15q17 -17 17 -38q0 -23 -27 -68q0 -2 -1 -3.5t-1 -2.5q-2 -10 -2 -29h10q17 32 24.5 44.5t24.5 34.5t35.5 31t40.5 9q9 0 29 -4q16 -6 16 -19q0 -1 -1 -4t-1 -4q-19 -49 -54 -95.5t-94 -108.5 t-75 -80q-7 -7 -17 -7q-18 0 -18 17v4q4 24 4 39q0 25 -7 84t-7 88zM807 1358q5 7 12.5 21.5t9.5 17.5q-2 -3 -7 -11.5t-7 -11.5zM852 578q2 -6 2 -17q38 47 80 92q-4 0 -16 4q-21 -49 -50 -75q-4 -4 -12 -4h-4z" />
<glyph unicode="(" d="M186 532q0 2 1 6.5t1 6.5q8 30 33 30q40 0 103 -63q6 -3 6 -12l8 -8q9 37 29 60t45 23q11 0 26 -6q25 -14 25 -47q0 -12 -2.5 -25.5t-6.5 -29.5t-5 -21q-27 -104 -80 -227q-5 -10 -19 -10q-13 0 -18 10q-42 95 -92 191q-4 9 -18.5 33.5t-25 47.5t-10.5 41zM231 516 q0 -13 31 -72q2 1 3.5 4.5t2.5 4.5q4 8 13 8q-11 29 -23 41q-4 4 -12 9.5t-10 8.5q-1 0 -2.5 1t-2.5 1v-2v-4zM287 397q3 -5 8 -14t8 -14q-5 12 -8 28h-8zM328 315q0 4 2 4q-2 0 -2 3v-7zM422 492q2 6 2 14q-2 -4 -2 -14zM559 1411v10q0 7 5.5 12t13.5 5q10 0 16 -6 q78 -89 113 -215v-5q0 -16 -19 -16q-17 0 -20 16q-21 84 -68 150q3 -76 29 -166q2 2 8 2q4 0 16 -6q1 -2 5.5 -6t5.5 -6q53 12 59 63q11 28 12 33q29 78 37 96q18 41 39 62q40 36 72 36q18 0 32 -14q21 -21 21 -55q0 -23 -7.5 -50.5t-21.5 -62t-16 -39.5q-53 -140 -146 -284 q-7 -7 -16 -7t-16 7q-154 198 -154 446zM662 1120q20 -48 65 -110q4 5 10.5 14t10.5 14l-3 2q-15 15 -40.5 43.5t-32.5 36.5h-8h-2zM727 1116q11 -14 21 -22q5 47 22 102q-20 -51 -25 -72q-10 -10 -14 -10q-1 0 -2 1t-2 1zM791 1118q46 90 75 176q1 4 11 27t10 35 q0 24 -6 39q-64 -137 -90 -277zM799 717q0 70 35 108q16 19 36 19q18 0 33 -15q17 -17 17 -38q0 -23 -27 -68q0 -2 -1 -3.5t-1 -2.5q-2 -10 -2 -29h10q17 32 24.5 44.5t24.5 34.5t35.5 31t40.5 9q9 0 29 -4q16 -6 16 -19q0 -1 -1 -4t-1 -4q-19 -49 -54 -95.5t-94 -108.5 t-75 -80q-7 -7 -17 -7q-18 0 -18 17v4q4 24 4 39q0 25 -7 84t-7 88zM807 1358q5 7 12.5 21.5t9.5 17.5q-2 -3 -7 -11.5t-7 -11.5zM852 578q2 -6 2 -17q38 47 80 92q-4 0 -16 4q-21 -49 -50 -75q-4 -4 -12 -4h-4z" />
<glyph unicode=")" d="M186 532q0 2 1 6.5t1 6.5q8 30 33 30q40 0 103 -63q6 -3 6 -12l8 -8q9 37 29 60t45 23q11 0 26 -6q25 -14 25 -47q0 -12 -2.5 -25.5t-6.5 -29.5t-5 -21q-27 -104 -80 -227q-5 -10 -19 -10q-13 0 -18 10q-42 95 -92 191q-4 9 -18.5 33.5t-25 47.5t-10.5 41zM231 516 q0 -13 31 -72q2 1 3.5 4.5t2.5 4.5q4 8 13 8q-11 29 -23 41q-4 4 -12 9.5t-10 8.5q-1 0 -2.5 1t-2.5 1v-2v-4zM287 397q3 -5 8 -14t8 -14q-5 12 -8 28h-8zM328 315q0 4 2 4q-2 0 -2 3v-7zM422 492q2 6 2 14q-2 -4 -2 -14zM559 1411v10q0 7 5.5 12t13.5 5q10 0 16 -6 q78 -89 113 -215v-5q0 -16 -19 -16q-17 0 -20 16q-21 84 -68 150q3 -76 29 -166q2 2 8 2q4 0 16 -6q1 -2 5.5 -6t5.5 -6q53 12 59 63q11 28 12 33q29 78 37 96q18 41 39 62q40 36 72 36q18 0 32 -14q21 -21 21 -55q0 -23 -7.5 -50.5t-21.5 -62t-16 -39.5q-53 -140 -146 -284 q-7 -7 -16 -7t-16 7q-154 198 -154 446zM662 1120q20 -48 65 -110q4 5 10.5 14t10.5 14l-3 2q-15 15 -40.5 43.5t-32.5 36.5h-8h-2zM727 1116q11 -14 21 -22q5 47 22 102q-20 -51 -25 -72q-10 -10 -14 -10q-1 0 -2 1t-2 1zM791 1118q46 90 75 176q1 4 11 27t10 35 q0 24 -6 39q-64 -137 -90 -277zM799 717q0 70 35 108q16 19 36 19q18 0 33 -15q17 -17 17 -38q0 -23 -27 -68q0 -2 -1 -3.5t-1 -2.5q-2 -10 -2 -29h10q17 32 24.5 44.5t24.5 34.5t35.5 31t40.5 9q9 0 29 -4q16 -6 16 -19q0 -1 -1 -4t-1 -4q-19 -49 -54 -95.5t-94 -108.5 t-75 -80q-7 -7 -17 -7q-18 0 -18 17v4q4 24 4 39q0 25 -7 84t-7 88zM807 1358q5 7 12.5 21.5t9.5 17.5q-2 -3 -7 -11.5t-7 -11.5zM852 578q2 -6 2 -17q38 47 80 92q-4 0 -16 4q-21 -49 -50 -75q-4 -4 -12 -4h-4z" />
<glyph unicode="*" d="M186 532q0 2 1 6.5t1 6.5q8 30 33 30q40 0 103 -63q6 -3 6 -12l8 -8q9 37 29 60t45 23q11 0 26 -6q25 -14 25 -47q0 -12 -2.5 -25.5t-6.5 -29.5t-5 -21q-27 -104 -80 -227q-5 -10 -19 -10q-13 0 -18 10q-42 95 -92 191q-4 9 -18.5 33.5t-25 47.5t-10.5 41zM231 516 q0 -13 31 -72q2 1 3.5 4.5t2.5 4.5q4 8 13 8q-11 29 -23 41q-4 4 -12 9.5t-10 8.5q-1 0 -2.5 1t-2.5 1v-2v-4zM287 397q3 -5 8 -14t8 -14q-5 12 -8 28h-8zM328 315q0 4 2 4q-2 0 -2 3v-7zM422 492q2 6 2 14q-2 -4 -2 -14zM559 1411v10q0 7 5.5 12t13.5 5q10 0 16 -6 q78 -89 113 -215v-5q0 -16 -19 -16q-17 0 -20 16q-21 84 -68 150q3 -76 29 -166q2 2 8 2q4 0 16 -6q1 -2 5.5 -6t5.5 -6q53 12 59 63q11 28 12 33q29 78 37 96q18 41 39 62q40 36 72 36q18 0 32 -14q21 -21 21 -55q0 -23 -7.5 -50.5t-21.5 -62t-16 -39.5q-53 -140 -146 -284 q-7 -7 -16 -7t-16 7q-154 198 -154 446zM662 1120q20 -48 65 -110q4 5 10.5 14t10.5 14l-3 2q-15 15 -40.5 43.5t-32.5 36.5h-8h-2zM727 1116q11 -14 21 -22q5 47 22 102q-20 -51 -25 -72q-10 -10 -14 -10q-1 0 -2 1t-2 1zM791 1118q46 90 75 176q1 4 11 27t10 35 q0 24 -6 39q-64 -137 -90 -277zM799 717q0 70 35 108q16 19 36 19q18 0 33 -15q17 -17 17 -38q0 -23 -27 -68q0 -2 -1 -3.5t-1 -2.5q-2 -10 -2 -29h10q17 32 24.5 44.5t24.5 34.5t35.5 31t40.5 9q9 0 29 -4q16 -6 16 -19q0 -1 -1 -4t-1 -4q-19 -49 -54 -95.5t-94 -108.5 t-75 -80q-7 -7 -17 -7q-18 0 -18 17v4q4 24 4 39q0 25 -7 84t-7 88zM807 1358q5 7 12.5 21.5t9.5 17.5q-2 -3 -7 -11.5t-7 -11.5zM852 578q2 -6 2 -17q38 47 80 92q-4 0 -16 4q-21 -49 -50 -75q-4 -4 -12 -4h-4z" />
<glyph unicode="+" d="M186 532q0 2 1 6.5t1 6.5q8 30 33 30q40 0 103 -63q6 -3 6 -12l8 -8q9 37 29 60t45 23q11 0 26 -6q25 -14 25 -47q0 -12 -2.5 -25.5t-6.5 -29.5t-5 -21q-27 -104 -80 -227q-5 -10 -19 -10q-13 0 -18 10q-42 95 -92 191q-4 9 -18.5 33.5t-25 47.5t-10.5 41zM231 516 q0 -13 31 -72q2 1 3.5 4.5t2.5 4.5q4 8 13 8q-11 29 -23 41q-4 4 -12 9.5t-10 8.5q-1 0 -2.5 1t-2.5 1v-2v-4zM287 397q3 -5 8 -14t8 -14q-5 12 -8 28h-8zM328 315q0 4 2 4q-2 0 -2 3v-7zM422 492q2 6 2 14q-2 -4 -2 -14zM559 1411v10q0 7 5.5 12t13.5 5q10 0 16 -6 q78 -89 113 -215v-5q0 -16 -19 -16q-17 0 -20 16q-21 84 -68 150q3 -76 29 -166q2 2 8 2q4 0 16 -6q1 -2 5.5 -6t5.5 -6q53 12 59 63q11 28 12 33q29 78 37 96q18 41 39 62q40 36 72 36q18 0 32 -14q21 -21 21 -55q0 -23 -7.5 -50.5t-21.5 -62t-16 -39.5q-53 -140 -146 -284 q-7 -7 -16 -7t-16 7q-154 198 -154 446zM662 1120q20 -48 65 -110q4 5 10.5 14t10.5 14l-3 2q-15 15 -40.5 43.5t-32.5 36.5h-8h-2zM727 1116q11 -14 21 -22q5 47 22 102q-20 -51 -25 -72q-10 -10 -14 -10q-1 0 -2 1t-2 1zM791 1118q46 90 75 176q1 4 11 27t10 35 q0 24 -6 39q-64 -137 -90 -277zM799 717q0 70 35 108q16 19 36 19q18 0 33 -15q17 -17 17 -38q0 -23 -27 -68q0 -2 -1 -3.5t-1 -2.5q-2 -10 -2 -29h10q17 32 24.5 44.5t24.5 34.5t35.5 31t40.5 9q9 0 29 -4q16 -6 16 -19q0 -1 -1 -4t-1 -4q-19 -49 -54 -95.5t-94 -108.5 t-75 -80q-7 -7 -17 -7q-18 0 -18 17v4q4 24 4 39q0 25 -7 84t-7 88zM807 1358q5 7 12.5 21.5t9.5 17.5q-2 -3 -7 -11.5t-7 -11.5zM852 578q2 -6 2 -17q38 47 80 92q-4 0 -16 4q-21 -49 -50 -75q-4 -4 -12 -4h-4z" />
<glyph unicode="," d="M186 532q0 2 1 6.5t1 6.5q8 30 33 30q40 0 103 -63q6 -3 6 -12l8 -8q9 37 29 60t45 23q11 0 26 -6q25 -14 25 -47q0 -12 -2.5 -25.5t-6.5 -29.5t-5 -21q-27 -104 -80 -227q-5 -10 -19 -10q-13 0 -18 10q-42 95 -92 191q-4 9 -18.5 33.5t-25 47.5t-10.5 41zM231 516 q0 -13 31 -72q2 1 3.5 4.5t2.5 4.5q4 8 13 8q-11 29 -23 41q-4 4 -12 9.5t-10 8.5q-1 0 -2.5 1t-2.5 1v-2v-4zM287 397q3 -5 8 -14t8 -14q-5 12 -8 28h-8zM328 315q0 4 2 4q-2 0 -2 3v-7zM422 492q2 6 2 14q-2 -4 -2 -14zM559 1411v10q0 7 5.5 12t13.5 5q10 0 16 -6 q78 -89 113 -215v-5q0 -16 -19 -16q-17 0 -20 16q-21 84 -68 150q3 -76 29 -166q2 2 8 2q4 0 16 -6q1 -2 5.5 -6t5.5 -6q53 12 59 63q11 28 12 33q29 78 37 96q18 41 39 62q40 36 72 36q18 0 32 -14q21 -21 21 -55q0 -23 -7.5 -50.5t-21.5 -62t-16 -39.5q-53 -140 -146 -284 q-7 -7 -16 -7t-16 7q-154 198 -154 446zM662 1120q20 -48 65 -110q4 5 10.5 14t10.5 14l-3 2q-15 15 -40.5 43.5t-32.5 36.5h-8h-2zM727 1116q11 -14 21 -22q5 47 22 102q-20 -51 -25 -72q-10 -10 -14 -10q-1 0 -2 1t-2 1zM791 1118q46 90 75 176q1 4 11 27t10 35 q0 24 -6 39q-64 -137 -90 -277zM799 717q0 70 35 108q16 19 36 19q18 0 33 -15q17 -17 17 -38q0 -23 -27 -68q0 -2 -1 -3.5t-1 -2.5q-2 -10 -2 -29h10q17 32 24.5 44.5t24.5 34.5t35.5 31t40.5 9q9 0 29 -4q16 -6 16 -19q0 -1 -1 -4t-1 -4q-19 -49 -54 -95.5t-94 -108.5 t-75 -80q-7 -7 -17 -7q-18 0 -18 17v4q4 24 4 39q0 25 -7 84t-7 88zM807 1358q5 7 12.5 21.5t9.5 17.5q-2 -3 -7 -11.5t-7 -11.5zM852 578q2 -6 2 -17q38 47 80 92q-4 0 -16 4q-21 -49 -50 -75q-4 -4 -12 -4h-4z" />
<glyph unicode="-" d="M186 532q0 2 1 6.5t1 6.5q8 30 33 30q40 0 103 -63q6 -3 6 -12l8 -8q9 37 29 60t45 23q11 0 26 -6q25 -14 25 -47q0 -12 -2.5 -25.5t-6.5 -29.5t-5 -21q-27 -104 -80 -227q-5 -10 -19 -10q-13 0 -18 10q-42 95 -92 191q-4 9 -18.5 33.5t-25 47.5t-10.5 41zM231 516 q0 -13 31 -72q2 1 3.5 4.5t2.5 4.5q4 8 13 8q-11 29 -23 41q-4 4 -12 9.5t-10 8.5q-1 0 -2.5 1t-2.5 1v-2v-4zM287 397q3 -5 8 -14t8 -14q-5 12 -8 28h-8zM328 315q0 4 2 4q-2 0 -2 3v-7zM422 492q2 6 2 14q-2 -4 -2 -14zM559 1411v10q0 7 5.5 12t13.5 5q10 0 16 -6 q78 -89 113 -215v-5q0 -16 -19 -16q-17 0 -20 16q-21 84 -68 150q3 -76 29 -166q2 2 8 2q4 0 16 -6q1 -2 5.5 -6t5.5 -6q53 12 59 63q11 28 12 33q29 78 37 96q18 41 39 62q40 36 72 36q18 0 32 -14q21 -21 21 -55q0 -23 -7.5 -50.5t-21.5 -62t-16 -39.5q-53 -140 -146 -284 q-7 -7 -16 -7t-16 7q-154 198 -154 446zM662 1120q20 -48 65 -110q4 5 10.5 14t10.5 14l-3 2q-15 15 -40.5 43.5t-32.5 36.5h-8h-2zM727 1116q11 -14 21 -22q5 47 22 102q-20 -51 -25 -72q-10 -10 -14 -10q-1 0 -2 1t-2 1zM791 1118q46 90 75 176q1 4 11 27t10 35 q0 24 -6 39q-64 -137 -90 -277zM799 717q0 70 35 108q16 19 36 19q18 0 33 -15q17 -17 17 -38q0 -23 -27 -68q0 -2 -1 -3.5t-1 -2.5q-2 -10 -2 -29h10q17 32 24.5 44.5t24.5 34.5t35.5 31t40.5 9q9 0 29 -4q16 -6 16 -19q0 -1 -1 -4t-1 -4q-19 -49 -54 -95.5t-94 -108.5 t-75 -80q-7 -7 -17 -7q-18 0 -18 17v4q4 24 4 39q0 25 -7 84t-7 88zM807 1358q5 7 12.5 21.5t9.5 17.5q-2 -3 -7 -11.5t-7 -11.5zM852 578q2 -6 2 -17q38 47 80 92q-4 0 -16 4q-21 -49 -50 -75q-4 -4 -12 -4h-4z" />
<glyph unicode="." d="M186 532q0 2 1 6.5t1 6.5q8 30 33 30q40 0 103 -63q6 -3 6 -12l8 -8q9 37 29 60t45 23q11 0 26 -6q25 -14 25 -47q0 -12 -2.5 -25.5t-6.5 -29.5t-5 -21q-27 -104 -80 -227q-5 -10 -19 -10q-13 0 -18 10q-42 95 -92 191q-4 9 -18.5 33.5t-25 47.5t-10.5 41zM231 516 q0 -13 31 -72q2 1 3.5 4.5t2.5 4.5q4 8 13 8q-11 29 -23 41q-4 4 -12 9.5t-10 8.5q-1 0 -2.5 1t-2.5 1v-2v-4zM287 397q3 -5 8 -14t8 -14q-5 12 -8 28h-8zM328 315q0 4 2 4q-2 0 -2 3v-7zM422 492q2 6 2 14q-2 -4 -2 -14zM559 1411v10q0 7 5.5 12t13.5 5q10 0 16 -6 q78 -89 113 -215v-5q0 -16 -19 -16q-17 0 -20 16q-21 84 -68 150q3 -76 29 -166q2 2 8 2q4 0 16 -6q1 -2 5.5 -6t5.5 -6q53 12 59 63q11 28 12 33q29 78 37 96q18 41 39 62q40 36 72 36q18 0 32 -14q21 -21 21 -55q0 -23 -7.5 -50.5t-21.5 -62t-16 -39.5q-53 -140 -146 -284 q-7 -7 -16 -7t-16 7q-154 198 -154 446zM662 1120q20 -48 65 -110q4 5 10.5 14t10.5 14l-3 2q-15 15 -40.5 43.5t-32.5 36.5h-8h-2zM727 1116q11 -14 21 -22q5 47 22 102q-20 -51 -25 -72q-10 -10 -14 -10q-1 0 -2 1t-2 1zM791 1118q46 90 75 176q1 4 11 27t10 35 q0 24 -6 39q-64 -137 -90 -277zM799 717q0 70 35 108q16 19 36 19q18 0 33 -15q17 -17 17 -38q0 -23 -27 -68q0 -2 -1 -3.5t-1 -2.5q-2 -10 -2 -29h10q17 32 24.5 44.5t24.5 34.5t35.5 31t40.5 9q9 0 29 -4q16 -6 16 -19q0 -1 -1 -4t-1 -4q-19 -49 -54 -95.5t-94 -108.5 t-75 -80q-7 -7 -17 -7q-18 0 -18 17v4q4 24 4 39q0 25 -7 84t-7 88zM807 1358q5 7 12.5 21.5t9.5 17.5q-2 -3 -7 -11.5t-7 -11.5zM852 578q2 -6 2 -17q38 47 80 92q-4 0 -16 4q-21 -49 -50 -75q-4 -4 -12 -4h-4z" />
<glyph unicode="/" d="M186 532q0 2 1 6.5t1 6.5q8 30 33 30q40 0 103 -63q6 -3 6 -12l8 -8q9 37 29 60t45 23q11 0 26 -6q25 -14 25 -47q0 -12 -2.5 -25.5t-6.5 -29.5t-5 -21q-27 -104 -80 -227q-5 -10 -19 -10q-13 0 -18 10q-42 95 -92 191q-4 9 -18.5 33.5t-25 47.5t-10.5 41zM231 516 q0 -13 31 -72q2 1 3.5 4.5t2.5 4.5q4 8 13 8q-11 29 -23 41q-4 4 -12 9.5t-10 8.5q-1 0 -2.5 1t-2.5 1v-2v-4zM287 397q3 -5 8 -14t8 -14q-5 12 -8 28h-8zM328 315q0 4 2 4q-2 0 -2 3v-7zM422 492q2 6 2 14q-2 -4 -2 -14zM559 1411v10q0 7 5.5 12t13.5 5q10 0 16 -6 q78 -89 113 -215v-5q0 -16 -19 -16q-17 0 -20 16q-21 84 -68 150q3 -76 29 -166q2 2 8 2q4 0 16 -6q1 -2 5.5 -6t5.5 -6q53 12 59 63q11 28 12 33q29 78 37 96q18 41 39 62q40 36 72 36q18 0 32 -14q21 -21 21 -55q0 -23 -7.5 -50.5t-21.5 -62t-16 -39.5q-53 -140 -146 -284 q-7 -7 -16 -7t-16 7q-154 198 -154 446zM662 1120q20 -48 65 -110q4 5 10.5 14t10.5 14l-3 2q-15 15 -40.5 43.5t-32.5 36.5h-8h-2zM727 1116q11 -14 21 -22q5 47 22 102q-20 -51 -25 -72q-10 -10 -14 -10q-1 0 -2 1t-2 1zM791 1118q46 90 75 176q1 4 11 27t10 35 q0 24 -6 39q-64 -137 -90 -277zM799 717q0 70 35 108q16 19 36 19q18 0 33 -15q17 -17 17 -38q0 -23 -27 -68q0 -2 -1 -3.5t-1 -2.5q-2 -10 -2 -29h10q17 32 24.5 44.5t24.5 34.5t35.5 31t40.5 9q9 0 29 -4q16 -6 16 -19q0 -1 -1 -4t-1 -4q-19 -49 -54 -95.5t-94 -108.5 t-75 -80q-7 -7 -17 -7q-18 0 -18 17v4q4 24 4 39q0 25 -7 84t-7 88zM807 1358q5 7 12.5 21.5t9.5 17.5q-2 -3 -7 -11.5t-7 -11.5zM852 578q2 -6 2 -17q38 47 80 92q-4 0 -16 4q-21 -49 -50 -75q-4 -4 -12 -4h-4z" />
<glyph unicode="0" d="M186 532q0 2 1 6.5t1 6.5q8 30 33 30q40 0 103 -63q6 -3 6 -12l8 -8q9 37 29 60t45 23q11 0 26 -6q25 -14 25 -47q0 -12 -2.5 -25.5t-6.5 -29.5t-5 -21q-27 -104 -80 -227q-5 -10 -19 -10q-13 0 -18 10q-42 95 -92 191q-4 9 -18.5 33.5t-25 47.5t-10.5 41zM231 516 q0 -13 31 -72q2 1 3.5 4.5t2.5 4.5q4 8 13 8q-11 29 -23 41q-4 4 -12 9.5t-10 8.5q-1 0 -2.5 1t-2.5 1v-2v-4zM287 397q3 -5 8 -14t8 -14q-5 12 -8 28h-8zM328 315q0 4 2 4q-2 0 -2 3v-7zM422 492q2 6 2 14q-2 -4 -2 -14zM559 1411v10q0 7 5.5 12t13.5 5q10 0 16 -6 q78 -89 113 -215v-5q0 -16 -19 -16q-17 0 -20 16q-21 84 -68 150q3 -76 29 -166q2 2 8 2q4 0 16 -6q1 -2 5.5 -6t5.5 -6q53 12 59 63q11 28 12 33q29 78 37 96q18 41 39 62q40 36 72 36q18 0 32 -14q21 -21 21 -55q0 -23 -7.5 -50.5t-21.5 -62t-16 -39.5q-53 -140 -146 -284 q-7 -7 -16 -7t-16 7q-154 198 -154 446zM662 1120q20 -48 65 -110q4 5 10.5 14t10.5 14l-3 2q-15 15 -40.5 43.5t-32.5 36.5h-8h-2zM727 1116q11 -14 21 -22q5 47 22 102q-20 -51 -25 -72q-10 -10 -14 -10q-1 0 -2 1t-2 1zM791 1118q46 90 75 176q1 4 11 27t10 35 q0 24 -6 39q-64 -137 -90 -277zM799 717q0 70 35 108q16 19 36 19q18 0 33 -15q17 -17 17 -38q0 -23 -27 -68q0 -2 -1 -3.5t-1 -2.5q-2 -10 -2 -29h10q17 32 24.5 44.5t24.5 34.5t35.5 31t40.5 9q9 0 29 -4q16 -6 16 -19q0 -1 -1 -4t-1 -4q-19 -49 -54 -95.5t-94 -108.5 t-75 -80q-7 -7 -17 -7q-18 0 -18 17v4q4 24 4 39q0 25 -7 84t-7 88zM807 1358q5 7 12.5 21.5t9.5 17.5q-2 -3 -7 -11.5t-7 -11.5zM852 578q2 -6 2 -17q38 47 80 92q-4 0 -16 4q-21 -49 -50 -75q-4 -4 -12 -4h-4z" />
<glyph unicode="1" d="M186 532q0 2 1 6.5t1 6.5q8 30 33 30q40 0 103 -63q6 -3 6 -12l8 -8q9 37 29 60t45 23q11 0 26 -6q25 -14 25 -47q0 -12 -2.5 -25.5t-6.5 -29.5t-5 -21q-27 -104 -80 -227q-5 -10 -19 -10q-13 0 -18 10q-42 95 -92 191q-4 9 -18.5 33.5t-25 47.5t-10.5 41zM231 516 q0 -13 31 -72q2 1 3.5 4.5t2.5 4.5q4 8 13 8q-11 29 -23 41q-4 4 -12 9.5t-10 8.5q-1 0 -2.5 1t-2.5 1v-2v-4zM287 397q3 -5 8 -14t8 -14q-5 12 -8 28h-8zM328 315q0 4 2 4q-2 0 -2 3v-7zM422 492q2 6 2 14q-2 -4 -2 -14zM559 1411v10q0 7 5.5 12t13.5 5q10 0 16 -6 q78 -89 113 -215v-5q0 -16 -19 -16q-17 0 -20 16q-21 84 -68 150q3 -76 29 -166q2 2 8 2q4 0 16 -6q1 -2 5.5 -6t5.5 -6q53 12 59 63q11 28 12 33q29 78 37 96q18 41 39 62q40 36 72 36q18 0 32 -14q21 -21 21 -55q0 -23 -7.5 -50.5t-21.5 -62t-16 -39.5q-53 -140 -146 -284 q-7 -7 -16 -7t-16 7q-154 198 -154 446zM662 1120q20 -48 65 -110q4 5 10.5 14t10.5 14l-3 2q-15 15 -40.5 43.5t-32.5 36.5h-8h-2zM727 1116q11 -14 21 -22q5 47 22 102q-20 -51 -25 -72q-10 -10 -14 -10q-1 0 -2 1t-2 1zM791 1118q46 90 75 176q1 4 11 27t10 35 q0 24 -6 39q-64 -137 -90 -277zM799 717q0 70 35 108q16 19 36 19q18 0 33 -15q17 -17 17 -38q0 -23 -27 -68q0 -2 -1 -3.5t-1 -2.5q-2 -10 -2 -29h10q17 32 24.5 44.5t24.5 34.5t35.5 31t40.5 9q9 0 29 -4q16 -6 16 -19q0 -1 -1 -4t-1 -4q-19 -49 -54 -95.5t-94 -108.5 t-75 -80q-7 -7 -17 -7q-18 0 -18 17v4q4 24 4 39q0 25 -7 84t-7 88zM807 1358q5 7 12.5 21.5t9.5 17.5q-2 -3 -7 -11.5t-7 -11.5zM852 578q2 -6 2 -17q38 47 80 92q-4 0 -16 4q-21 -49 -50 -75q-4 -4 -12 -4h-4z" />
<glyph unicode="2" d="M186 532q0 2 1 6.5t1 6.5q8 30 33 30q40 0 103 -63q6 -3 6 -12l8 -8q9 37 29 60t45 23q11 0 26 -6q25 -14 25 -47q0 -12 -2.5 -25.5t-6.5 -29.5t-5 -21q-27 -104 -80 -227q-5 -10 -19 -10q-13 0 -18 10q-42 95 -92 191q-4 9 -18.5 33.5t-25 47.5t-10.5 41zM231 516 q0 -13 31 -72q2 1 3.5 4.5t2.5 4.5q4 8 13 8q-11 29 -23 41q-4 4 -12 9.5t-10 8.5q-1 0 -2.5 1t-2.5 1v-2v-4zM287 397q3 -5 8 -14t8 -14q-5 12 -8 28h-8zM328 315q0 4 2 4q-2 0 -2 3v-7zM422 492q2 6 2 14q-2 -4 -2 -14zM559 1411v10q0 7 5.5 12t13.5 5q10 0 16 -6 q78 -89 113 -215v-5q0 -16 -19 -16q-17 0 -20 16q-21 84 -68 150q3 -76 29 -166q2 2 8 2q4 0 16 -6q1 -2 5.5 -6t5.5 -6q53 12 59 63q11 28 12 33q29 78 37 96q18 41 39 62q40 36 72 36q18 0 32 -14q21 -21 21 -55q0 -23 -7.5 -50.5t-21.5 -62t-16 -39.5q-53 -140 -146 -284 q-7 -7 -16 -7t-16 7q-154 198 -154 446zM662 1120q20 -48 65 -110q4 5 10.5 14t10.5 14l-3 2q-15 15 -40.5 43.5t-32.5 36.5h-8h-2zM727 1116q11 -14 21 -22q5 47 22 102q-20 -51 -25 -72q-10 -10 -14 -10q-1 0 -2 1t-2 1zM791 1118q46 90 75 176q1 4 11 27t10 35 q0 24 -6 39q-64 -137 -90 -277zM799 717q0 70 35 108q16 19 36 19q18 0 33 -15q17 -17 17 -38q0 -23 -27 -68q0 -2 -1 -3.5t-1 -2.5q-2 -10 -2 -29h10q17 32 24.5 44.5t24.5 34.5t35.5 31t40.5 9q9 0 29 -4q16 -6 16 -19q0 -1 -1 -4t-1 -4q-19 -49 -54 -95.5t-94 -108.5 t-75 -80q-7 -7 -17 -7q-18 0 -18 17v4q4 24 4 39q0 25 -7 84t-7 88zM807 1358q5 7 12.5 21.5t9.5 17.5q-2 -3 -7 -11.5t-7 -11.5zM852 578q2 -6 2 -17q38 47 80 92q-4 0 -16 4q-21 -49 -50 -75q-4 -4 -12 -4h-4z" />
<glyph unicode="3" d="M186 532q0 2 1 6.5t1 6.5q8 30 33 30q40 0 103 -63q6 -3 6 -12l8 -8q9 37 29 60t45 23q11 0 26 -6q25 -14 25 -47q0 -12 -2.5 -25.5t-6.5 -29.5t-5 -21q-27 -104 -80 -227q-5 -10 -19 -10q-13 0 -18 10q-42 95 -92 191q-4 9 -18.5 33.5t-25 47.5t-10.5 41zM231 516 q0 -13 31 -72q2 1 3.5 4.5t2.5 4.5q4 8 13 8q-11 29 -23 41q-4 4 -12 9.5t-10 8.5q-1 0 -2.5 1t-2.5 1v-2v-4zM287 397q3 -5 8 -14t8 -14q-5 12 -8 28h-8zM328 315q0 4 2 4q-2 0 -2 3v-7zM422 492q2 6 2 14q-2 -4 -2 -14zM559 1411v10q0 7 5.5 12t13.5 5q10 0 16 -6 q78 -89 113 -215v-5q0 -16 -19 -16q-17 0 -20 16q-21 84 -68 150q3 -76 29 -166q2 2 8 2q4 0 16 -6q1 -2 5.5 -6t5.5 -6q53 12 59 63q11 28 12 33q29 78 37 96q18 41 39 62q40 36 72 36q18 0 32 -14q21 -21 21 -55q0 -23 -7.5 -50.5t-21.5 -62t-16 -39.5q-53 -140 -146 -284 q-7 -7 -16 -7t-16 7q-154 198 -154 446zM662 1120q20 -48 65 -110q4 5 10.5 14t10.5 14l-3 2q-15 15 -40.5 43.5t-32.5 36.5h-8h-2zM727 1116q11 -14 21 -22q5 47 22 102q-20 -51 -25 -72q-10 -10 -14 -10q-1 0 -2 1t-2 1zM791 1118q46 90 75 176q1 4 11 27t10 35 q0 24 -6 39q-64 -137 -90 -277zM799 717q0 70 35 108q16 19 36 19q18 0 33 -15q17 -17 17 -38q0 -23 -27 -68q0 -2 -1 -3.5t-1 -2.5q-2 -10 -2 -29h10q17 32 24.5 44.5t24.5 34.5t35.5 31t40.5 9q9 0 29 -4q16 -6 16 -19q0 -1 -1 -4t-1 -4q-19 -49 -54 -95.5t-94 -108.5 t-75 -80q-7 -7 -17 -7q-18 0 -18 17v4q4 24 4 39q0 25 -7 84t-7 88zM807 1358q5 7 12.5 21.5t9.5 17.5q-2 -3 -7 -11.5t-7 -11.5zM852 578q2 -6 2 -17q38 47 80 92q-4 0 -16 4q-21 -49 -50 -75q-4 -4 -12 -4h-4z" />
<glyph unicode="4" d="M186 532q0 2 1 6.5t1 6.5q8 30 33 30q40 0 103 -63q6 -3 6 -12l8 -8q9 37 29 60t45 23q11 0 26 -6q25 -14 25 -47q0 -12 -2.5 -25.5t-6.5 -29.5t-5 -21q-27 -104 -80 -227q-5 -10 -19 -10q-13 0 -18 10q-42 95 -92 191q-4 9 -18.5 33.5t-25 47.5t-10.5 41zM231 516 q0 -13 31 -72q2 1 3.5 4.5t2.5 4.5q4 8 13 8q-11 29 -23 41q-4 4 -12 9.5t-10 8.5q-1 0 -2.5 1t-2.5 1v-2v-4zM287 397q3 -5 8 -14t8 -14q-5 12 -8 28h-8zM328 315q0 4 2 4q-2 0 -2 3v-7zM422 492q2 6 2 14q-2 -4 -2 -14zM559 1411v10q0 7 5.5 12t13.5 5q10 0 16 -6 q78 -89 113 -215v-5q0 -16 -19 -16q-17 0 -20 16q-21 84 -68 150q3 -76 29 -166q2 2 8 2q4 0 16 -6q1 -2 5.5 -6t5.5 -6q53 12 59 63q11 28 12 33q29 78 37 96q18 41 39 62q40 36 72 36q18 0 32 -14q21 -21 21 -55q0 -23 -7.5 -50.5t-21.5 -62t-16 -39.5q-53 -140 -146 -284 q-7 -7 -16 -7t-16 7q-154 198 -154 446zM662 1120q20 -48 65 -110q4 5 10.5 14t10.5 14l-3 2q-15 15 -40.5 43.5t-32.5 36.5h-8h-2zM727 1116q11 -14 21 -22q5 47 22 102q-20 -51 -25 -72q-10 -10 -14 -10q-1 0 -2 1t-2 1zM791 1118q46 90 75 176q1 4 11 27t10 35 q0 24 -6 39q-64 -137 -90 -277zM799 717q0 70 35 108q16 19 36 19q18 0 33 -15q17 -17 17 -38q0 -23 -27 -68q0 -2 -1 -3.5t-1 -2.5q-2 -10 -2 -29h10q17 32 24.5 44.5t24.5 34.5t35.5 31t40.5 9q9 0 29 -4q16 -6 16 -19q0 -1 -1 -4t-1 -4q-19 -49 -54 -95.5t-94 -108.5 t-75 -80q-7 -7 -17 -7q-18 0 -18 17v4q4 24 4 39q0 25 -7 84t-7 88zM807 1358q5 7 12.5 21.5t9.5 17.5q-2 -3 -7 -11.5t-7 -11.5zM852 578q2 -6 2 -17q38 47 80 92q-4 0 -16 4q-21 -49 -50 -75q-4 -4 -12 -4h-4z" />
<glyph unicode="5" d="M186 532q0 2 1 6.5t1 6.5q8 30 33 30q40 0 103 -63q6 -3 6 -12l8 -8q9 37 29 60t45 23q11 0 26 -6q25 -14 25 -47q0 -12 -2.5 -25.5t-6.5 -29.5t-5 -21q-27 -104 -80 -227q-5 -10 -19 -10q-13 0 -18 10q-42 95 -92 191q-4 9 -18.5 33.5t-25 47.5t-10.5 41zM231 516 q0 -13 31 -72q2 1 3.5 4.5t2.5 4.5q4 8 13 8q-11 29 -23 41q-4 4 -12 9.5t-10 8.5q-1 0 -2.5 1t-2.5 1v-2v-4zM287 397q3 -5 8 -14t8 -14q-5 12 -8 28h-8zM328 315q0 4 2 4q-2 0 -2 3v-7zM422 492q2 6 2 14q-2 -4 -2 -14zM559 1411v10q0 7 5.5 12t13.5 5q10 0 16 -6 q78 -89 113 -215v-5q0 -16 -19 -16q-17 0 -20 16q-21 84 -68 150q3 -76 29 -166q2 2 8 2q4 0 16 -6q1 -2 5.5 -6t5.5 -6q53 12 59 63q11 28 12 33q29 78 37 96q18 41 39 62q40 36 72 36q18 0 32 -14q21 -21 21 -55q0 -23 -7.5 -50.5t-21.5 -62t-16 -39.5q-53 -140 -146 -284 q-7 -7 -16 -7t-16 7q-154 198 -154 446zM662 1120q20 -48 65 -110q4 5 10.5 14t10.5 14l-3 2q-15 15 -40.5 43.5t-32.5 36.5h-8h-2zM727 1116q11 -14 21 -22q5 47 22 102q-20 -51 -25 -72q-10 -10 -14 -10q-1 0 -2 1t-2 1zM791 1118q46 90 75 176q1 4 11 27t10 35 q0 24 -6 39q-64 -137 -90 -277zM799 717q0 70 35 108q16 19 36 19q18 0 33 -15q17 -17 17 -38q0 -23 -27 -68q0 -2 -1 -3.5t-1 -2.5q-2 -10 -2 -29h10q17 32 24.5 44.5t24.5 34.5t35.5 31t40.5 9q9 0 29 -4q16 -6 16 -19q0 -1 -1 -4t-1 -4q-19 -49 -54 -95.5t-94 -108.5 t-75 -80q-7 -7 -17 -7q-18 0 -18 17v4q4 24 4 39q0 25 -7 84t-7 88zM807 1358q5 7 12.5 21.5t9.5 17.5q-2 -3 -7 -11.5t-7 -11.5zM852 578q2 -6 2 -17q38 47 80 92q-4 0 -16 4q-21 -49 -50 -75q-4 -4 -12 -4h-4z" />
<glyph unicode="6" d="M186 532q0 2 1 6.5t1 6.5q8 30 33 30q40 0 103 -63q6 -3 6 -12l8 -8q9 37 29 60t45 23q11 0 26 -6q25 -14 25 -47q0 -12 -2.5 -25.5t-6.5 -29.5t-5 -21q-27 -104 -80 -227q-5 -10 -19 -10q-13 0 -18 10q-42 95 -92 191q-4 9 -18.5 33.5t-25 47.5t-10.5 41zM231 516 q0 -13 31 -72q2 1 3.5 4.5t2.5 4.5q4 8 13 8q-11 29 -23 41q-4 4 -12 9.5t-10 8.5q-1 0 -2.5 1t-2.5 1v-2v-4zM287 397q3 -5 8 -14t8 -14q-5 12 -8 28h-8zM328 315q0 4 2 4q-2 0 -2 3v-7zM422 492q2 6 2 14q-2 -4 -2 -14zM559 1411v10q0 7 5.5 12t13.5 5q10 0 16 -6 q78 -89 113 -215v-5q0 -16 -19 -16q-17 0 -20 16q-21 84 -68 150q3 -76 29 -166q2 2 8 2q4 0 16 -6q1 -2 5.5 -6t5.5 -6q53 12 59 63q11 28 12 33q29 78 37 96q18 41 39 62q40 36 72 36q18 0 32 -14q21 -21 21 -55q0 -23 -7.5 -50.5t-21.5 -62t-16 -39.5q-53 -140 -146 -284 q-7 -7 -16 -7t-16 7q-154 198 -154 446zM662 1120q20 -48 65 -110q4 5 10.5 14t10.5 14l-3 2q-15 15 -40.5 43.5t-32.5 36.5h-8h-2zM727 1116q11 -14 21 -22q5 47 22 102q-20 -51 -25 -72q-10 -10 -14 -10q-1 0 -2 1t-2 1zM791 1118q46 90 75 176q1 4 11 27t10 35 q0 24 -6 39q-64 -137 -90 -277zM799 717q0 70 35 108q16 19 36 19q18 0 33 -15q17 -17 17 -38q0 -23 -27 -68q0 -2 -1 -3.5t-1 -2.5q-2 -10 -2 -29h10q17 32 24.5 44.5t24.5 34.5t35.5 31t40.5 9q9 0 29 -4q16 -6 16 -19q0 -1 -1 -4t-1 -4q-19 -49 -54 -95.5t-94 -108.5 t-75 -80q-7 -7 -17 -7q-18 0 -18 17v4q4 24 4 39q0 25 -7 84t-7 88zM807 1358q5 7 12.5 21.5t9.5 17.5q-2 -3 -7 -11.5t-7 -11.5zM852 578q2 -6 2 -17q38 47 80 92q-4 0 -16 4q-21 -49 -50 -75q-4 -4 -12 -4h-4z" />
<glyph unicode="7" d="M186 532q0 2 1 6.5t1 6.5q8 30 33 30q40 0 103 -63q6 -3 6 -12l8 -8q9 37 29 60t45 23q11 0 26 -6q25 -14 25 -47q0 -12 -2.5 -25.5t-6.5 -29.5t-5 -21q-27 -104 -80 -227q-5 -10 -19 -10q-13 0 -18 10q-42 95 -92 191q-4 9 -18.5 33.5t-25 47.5t-10.5 41zM231 516 q0 -13 31 -72q2 1 3.5 4.5t2.5 4.5q4 8 13 8q-11 29 -23 41q-4 4 -12 9.5t-10 8.5q-1 0 -2.5 1t-2.5 1v-2v-4zM287 397q3 -5 8 -14t8 -14q-5 12 -8 28h-8zM328 315q0 4 2 4q-2 0 -2 3v-7zM422 492q2 6 2 14q-2 -4 -2 -14zM559 1411v10q0 7 5.5 12t13.5 5q10 0 16 -6 q78 -89 113 -215v-5q0 -16 -19 -16q-17 0 -20 16q-21 84 -68 150q3 -76 29 -166q2 2 8 2q4 0 16 -6q1 -2 5.5 -6t5.5 -6q53 12 59 63q11 28 12 33q29 78 37 96q18 41 39 62q40 36 72 36q18 0 32 -14q21 -21 21 -55q0 -23 -7.5 -50.5t-21.5 -62t-16 -39.5q-53 -140 -146 -284 q-7 -7 -16 -7t-16 7q-154 198 -154 446zM662 1120q20 -48 65 -110q4 5 10.5 14t10.5 14l-3 2q-15 15 -40.5 43.5t-32.5 36.5h-8h-2zM727 1116q11 -14 21 -22q5 47 22 102q-20 -51 -25 -72q-10 -10 -14 -10q-1 0 -2 1t-2 1zM791 1118q46 90 75 176q1 4 11 27t10 35 q0 24 -6 39q-64 -137 -90 -277zM799 717q0 70 35 108q16 19 36 19q18 0 33 -15q17 -17 17 -38q0 -23 -27 -68q0 -2 -1 -3.5t-1 -2.5q-2 -10 -2 -29h10q17 32 24.5 44.5t24.5 34.5t35.5 31t40.5 9q9 0 29 -4q16 -6 16 -19q0 -1 -1 -4t-1 -4q-19 -49 -54 -95.5t-94 -108.5 t-75 -80q-7 -7 -17 -7q-18 0 -18 17v4q4 24 4 39q0 25 -7 84t-7 88zM807 1358q5 7 12.5 21.5t9.5 17.5q-2 -3 -7 -11.5t-7 -11.5zM852 578q2 -6 2 -17q38 47 80 92q-4 0 -16 4q-21 -49 -50 -75q-4 -4 -12 -4h-4z" />
<glyph unicode="8" d="M186 532q0 2 1 6.5t1 6.5q8 30 33 30q40 0 103 -63q6 -3 6 -12l8 -8q9 37 29 60t45 23q11 0 26 -6q25 -14 25 -47q0 -12 -2.5 -25.5t-6.5 -29.5t-5 -21q-27 -104 -80 -227q-5 -10 -19 -10q-13 0 -18 10q-42 95 -92 191q-4 9 -18.5 33.5t-25 47.5t-10.5 41zM231 516 q0 -13 31 -72q2 1 3.5 4.5t2.5 4.5q4 8 13 8q-11 29 -23 41q-4 4 -12 9.5t-10 8.5q-1 0 -2.5 1t-2.5 1v-2v-4zM287 397q3 -5 8 -14t8 -14q-5 12 -8 28h-8zM328 315q0 4 2 4q-2 0 -2 3v-7zM422 492q2 6 2 14q-2 -4 -2 -14zM559 1411v10q0 7 5.5 12t13.5 5q10 0 16 -6 q78 -89 113 -215v-5q0 -16 -19 -16q-17 0 -20 16q-21 84 -68 150q3 -76 29 -166q2 2 8 2q4 0 16 -6q1 -2 5.5 -6t5.5 -6q53 12 59 63q11 28 12 33q29 78 37 96q18 41 39 62q40 36 72 36q18 0 32 -14q21 -21 21 -55q0 -23 -7.5 -50.5t-21.5 -62t-16 -39.5q-53 -140 -146 -284 q-7 -7 -16 -7t-16 7q-154 198 -154 446zM662 1120q20 -48 65 -110q4 5 10.5 14t10.5 14l-3 2q-15 15 -40.5 43.5t-32.5 36.5h-8h-2zM727 1116q11 -14 21 -22q5 47 22 102q-20 -51 -25 -72q-10 -10 -14 -10q-1 0 -2 1t-2 1zM791 1118q46 90 75 176q1 4 11 27t10 35 q0 24 -6 39q-64 -137 -90 -277zM799 717q0 70 35 108q16 19 36 19q18 0 33 -15q17 -17 17 -38q0 -23 -27 -68q0 -2 -1 -3.5t-1 -2.5q-2 -10 -2 -29h10q17 32 24.5 44.5t24.5 34.5t35.5 31t40.5 9q9 0 29 -4q16 -6 16 -19q0 -1 -1 -4t-1 -4q-19 -49 -54 -95.5t-94 -108.5 t-75 -80q-7 -7 -17 -7q-18 0 -18 17v4q4 24 4 39q0 25 -7 84t-7 88zM807 1358q5 7 12.5 21.5t9.5 17.5q-2 -3 -7 -11.5t-7 -11.5zM852 578q2 -6 2 -17q38 47 80 92q-4 0 -16 4q-21 -49 -50 -75q-4 -4 -12 -4h-4z" />
<glyph unicode="9" d="M186 532q0 2 1 6.5t1 6.5q8 30 33 30q40 0 103 -63q6 -3 6 -12l8 -8q9 37 29 60t45 23q11 0 26 -6q25 -14 25 -47q0 -12 -2.5 -25.5t-6.5 -29.5t-5 -21q-27 -104 -80 -227q-5 -10 -19 -10q-13 0 -18 10q-42 95 -92 191q-4 9 -18.5 33.5t-25 47.5t-10.5 41zM231 516 q0 -13 31 -72q2 1 3.5 4.5t2.5 4.5q4 8 13 8q-11 29 -23 41q-4 4 -12 9.5t-10 8.5q-1 0 -2.5 1t-2.5 1v-2v-4zM287 397q3 -5 8 -14t8 -14q-5 12 -8 28h-8zM328 315q0 4 2 4q-2 0 -2 3v-7zM422 492q2 6 2 14q-2 -4 -2 -14zM559 1411v10q0 7 5.5 12t13.5 5q10 0 16 -6 q78 -89 113 -215v-5q0 -16 -19 -16q-17 0 -20 16q-21 84 -68 150q3 -76 29 -166q2 2 8 2q4 0 16 -6q1 -2 5.5 -6t5.5 -6q53 12 59 63q11 28 12 33q29 78 37 96q18 41 39 62q40 36 72 36q18 0 32 -14q21 -21 21 -55q0 -23 -7.5 -50.5t-21.5 -62t-16 -39.5q-53 -140 -146 -284 q-7 -7 -16 -7t-16 7q-154 198 -154 446zM662 1120q20 -48 65 -110q4 5 10.5 14t10.5 14l-3 2q-15 15 -40.5 43.5t-32.5 36.5h-8h-2zM727 1116q11 -14 21 -22q5 47 22 102q-20 -51 -25 -72q-10 -10 -14 -10q-1 0 -2 1t-2 1zM791 1118q46 90 75 176q1 4 11 27t10 35 q0 24 -6 39q-64 -137 -90 -277zM799 717q0 70 35 108q16 19 36 19q18 0 33 -15q17 -17 17 -38q0 -23 -27 -68q0 -2 -1 -3.5t-1 -2.5q-2 -10 -2 -29h10q17 32 24.5 44.5t24.5 34.5t35.5 31t40.5 9q9 0 29 -4q16 -6 16 -19q0 -1 -1 -4t-1 -4q-19 -49 -54 -95.5t-94 -108.5 t-75 -80q-7 -7 -17 -7q-18 0 -18 17v4q4 24 4 39q0 25 -7 84t-7 88zM807 1358q5 7 12.5 21.5t9.5 17.5q-2 -3 -7 -11.5t-7 -11.5zM852 578q2 -6 2 -17q38 47 80 92q-4 0 -16 4q-21 -49 -50 -75q-4 -4 -12 -4h-4z" />
<glyph unicode=":" d="M186 532q0 2 1 6.5t1 6.5q8 30 33 30q40 0 103 -63q6 -3 6 -12l8 -8q9 37 29 60t45 23q11 0 26 -6q25 -14 25 -47q0 -12 -2.5 -25.5t-6.5 -29.5t-5 -21q-27 -104 -80 -227q-5 -10 -19 -10q-13 0 -18 10q-42 95 -92 191q-4 9 -18.5 33.5t-25 47.5t-10.5 41zM231 516 q0 -13 31 -72q2 1 3.5 4.5t2.5 4.5q4 8 13 8q-11 29 -23 41q-4 4 -12 9.5t-10 8.5q-1 0 -2.5 1t-2.5 1v-2v-4zM287 397q3 -5 8 -14t8 -14q-5 12 -8 28h-8zM328 315q0 4 2 4q-2 0 -2 3v-7zM422 492q2 6 2 14q-2 -4 -2 -14zM559 1411v10q0 7 5.5 12t13.5 5q10 0 16 -6 q78 -89 113 -215v-5q0 -16 -19 -16q-17 0 -20 16q-21 84 -68 150q3 -76 29 -166q2 2 8 2q4 0 16 -6q1 -2 5.5 -6t5.5 -6q53 12 59 63q11 28 12 33q29 78 37 96q18 41 39 62q40 36 72 36q18 0 32 -14q21 -21 21 -55q0 -23 -7.5 -50.5t-21.5 -62t-16 -39.5q-53 -140 -146 -284 q-7 -7 -16 -7t-16 7q-154 198 -154 446zM662 1120q20 -48 65 -110q4 5 10.5 14t10.5 14l-3 2q-15 15 -40.5 43.5t-32.5 36.5h-8h-2zM727 1116q11 -14 21 -22q5 47 22 102q-20 -51 -25 -72q-10 -10 -14 -10q-1 0 -2 1t-2 1zM791 1118q46 90 75 176q1 4 11 27t10 35 q0 24 -6 39q-64 -137 -90 -277zM799 717q0 70 35 108q16 19 36 19q18 0 33 -15q17 -17 17 -38q0 -23 -27 -68q0 -2 -1 -3.5t-1 -2.5q-2 -10 -2 -29h10q17 32 24.5 44.5t24.5 34.5t35.5 31t40.5 9q9 0 29 -4q16 -6 16 -19q0 -1 -1 -4t-1 -4q-19 -49 -54 -95.5t-94 -108.5 t-75 -80q-7 -7 -17 -7q-18 0 -18 17v4q4 24 4 39q0 25 -7 84t-7 88zM807 1358q5 7 12.5 21.5t9.5 17.5q-2 -3 -7 -11.5t-7 -11.5zM852 578q2 -6 2 -17q38 47 80 92q-4 0 -16 4q-21 -49 -50 -75q-4 -4 -12 -4h-4z" />
<glyph unicode=";" d="M186 532q0 2 1 6.5t1 6.5q8 30 33 30q40 0 103 -63q6 -3 6 -12l8 -8q9 37 29 60t45 23q11 0 26 -6q25 -14 25 -47q0 -12 -2.5 -25.5t-6.5 -29.5t-5 -21q-27 -104 -80 -227q-5 -10 -19 -10q-13 0 -18 10q-42 95 -92 191q-4 9 -18.5 33.5t-25 47.5t-10.5 41zM231 516 q0 -13 31 -72q2 1 3.5 4.5t2.5 4.5q4 8 13 8q-11 29 -23 41q-4 4 -12 9.5t-10 8.5q-1 0 -2.5 1t-2.5 1v-2v-4zM287 397q3 -5 8 -14t8 -14q-5 12 -8 28h-8zM328 315q0 4 2 4q-2 0 -2 3v-7zM422 492q2 6 2 14q-2 -4 -2 -14zM559 1411v10q0 7 5.5 12t13.5 5q10 0 16 -6 q78 -89 113 -215v-5q0 -16 -19 -16q-17 0 -20 16q-21 84 -68 150q3 -76 29 -166q2 2 8 2q4 0 16 -6q1 -2 5.5 -6t5.5 -6q53 12 59 63q11 28 12 33q29 78 37 96q18 41 39 62q40 36 72 36q18 0 32 -14q21 -21 21 -55q0 -23 -7.5 -50.5t-21.5 -62t-16 -39.5q-53 -140 -146 -284 q-7 -7 -16 -7t-16 7q-154 198 -154 446zM662 1120q20 -48 65 -110q4 5 10.5 14t10.5 14l-3 2q-15 15 -40.5 43.5t-32.5 36.5h-8h-2zM727 1116q11 -14 21 -22q5 47 22 102q-20 -51 -25 -72q-10 -10 -14 -10q-1 0 -2 1t-2 1zM791 1118q46 90 75 176q1 4 11 27t10 35 q0 24 -6 39q-64 -137 -90 -277zM799 717q0 70 35 108q16 19 36 19q18 0 33 -15q17 -17 17 -38q0 -23 -27 -68q0 -2 -1 -3.5t-1 -2.5q-2 -10 -2 -29h10q17 32 24.5 44.5t24.5 34.5t35.5 31t40.5 9q9 0 29 -4q16 -6 16 -19q0 -1 -1 -4t-1 -4q-19 -49 -54 -95.5t-94 -108.5 t-75 -80q-7 -7 -17 -7q-18 0 -18 17v4q4 24 4 39q0 25 -7 84t-7 88zM807 1358q5 7 12.5 21.5t9.5 17.5q-2 -3 -7 -11.5t-7 -11.5zM852 578q2 -6 2 -17q38 47 80 92q-4 0 -16 4q-21 -49 -50 -75q-4 -4 -12 -4h-4z" />
<glyph unicode="&#x3c;" d="M186 532q0 2 1 6.5t1 6.5q8 30 33 30q40 0 103 -63q6 -3 6 -12l8 -8q9 37 29 60t45 23q11 0 26 -6q25 -14 25 -47q0 -12 -2.5 -25.5t-6.5 -29.5t-5 -21q-27 -104 -80 -227q-5 -10 -19 -10q-13 0 -18 10q-42 95 -92 191q-4 9 -18.5 33.5t-25 47.5t-10.5 41zM231 516 q0 -13 31 -72q2 1 3.5 4.5t2.5 4.5q4 8 13 8q-11 29 -23 41q-4 4 -12 9.5t-10 8.5q-1 0 -2.5 1t-2.5 1v-2v-4zM287 397q3 -5 8 -14t8 -14q-5 12 -8 28h-8zM328 315q0 4 2 4q-2 0 -2 3v-7zM422 492q2 6 2 14q-2 -4 -2 -14zM559 1411v10q0 7 5.5 12t13.5 5q10 0 16 -6 q78 -89 113 -215v-5q0 -16 -19 -16q-17 0 -20 16q-21 84 -68 150q3 -76 29 -166q2 2 8 2q4 0 16 -6q1 -2 5.5 -6t5.5 -6q53 12 59 63q11 28 12 33q29 78 37 96q18 41 39 62q40 36 72 36q18 0 32 -14q21 -21 21 -55q0 -23 -7.5 -50.5t-21.5 -62t-16 -39.5q-53 -140 -146 -284 q-7 -7 -16 -7t-16 7q-154 198 -154 446zM662 1120q20 -48 65 -110q4 5 10.5 14t10.5 14l-3 2q-15 15 -40.5 43.5t-32.5 36.5h-8h-2zM727 1116q11 -14 21 -22q5 47 22 102q-20 -51 -25 -72q-10 -10 -14 -10q-1 0 -2 1t-2 1zM791 1118q46 90 75 176q1 4 11 27t10 35 q0 24 -6 39q-64 -137 -90 -277zM799 717q0 70 35 108q16 19 36 19q18 0 33 -15q17 -17 17 -38q0 -23 -27 -68q0 -2 -1 -3.5t-1 -2.5q-2 -10 -2 -29h10q17 32 24.5 44.5t24.5 34.5t35.5 31t40.5 9q9 0 29 -4q16 -6 16 -19q0 -1 -1 -4t-1 -4q-19 -49 -54 -95.5t-94 -108.5 t-75 -80q-7 -7 -17 -7q-18 0 -18 17v4q4 24 4 39q0 25 -7 84t-7 88zM807 1358q5 7 12.5 21.5t9.5 17.5q-2 -3 -7 -11.5t-7 -11.5zM852 578q2 -6 2 -17q38 47 80 92q-4 0 -16 4q-21 -49 -50 -75q-4 -4 -12 -4h-4z" />
<glyph unicode="=" d="M186 532q0 2 1 6.5t1 6.5q8 30 33 30q40 0 103 -63q6 -3 6 -12l8 -8q9 37 29 60t45 23q11 0 26 -6q25 -14 25 -47q0 -12 -2.5 -25.5t-6.5 -29.5t-5 -21q-27 -104 -80 -227q-5 -10 -19 -10q-13 0 -18 10q-42 95 -92 191q-4 9 -18.5 33.5t-25 47.5t-10.5 41zM231 516 q0 -13 31 -72q2 1 3.5 4.5t2.5 4.5q4 8 13 8q-11 29 -23 41q-4 4 -12 9.5t-10 8.5q-1 0 -2.5 1t-2.5 1v-2v-4zM287 397q3 -5 8 -14t8 -14q-5 12 -8 28h-8zM328 315q0 4 2 4q-2 0 -2 3v-7zM422 492q2 6 2 14q-2 -4 -2 -14zM559 1411v10q0 7 5.5 12t13.5 5q10 0 16 -6 q78 -89 113 -215v-5q0 -16 -19 -16q-17 0 -20 16q-21 84 -68 150q3 -76 29 -166q2 2 8 2q4 0 16 -6q1 -2 5.5 -6t5.5 -6q53 12 59 63q11 28 12 33q29 78 37 96q18 41 39 62q40 36 72 36q18 0 32 -14q21 -21 21 -55q0 -23 -7.5 -50.5t-21.5 -62t-16 -39.5q-53 -140 -146 -284 q-7 -7 -16 -7t-16 7q-154 198 -154 446zM662 1120q20 -48 65 -110q4 5 10.5 14t10.5 14l-3 2q-15 15 -40.5 43.5t-32.5 36.5h-8h-2zM727 1116q11 -14 21 -22q5 47 22 102q-20 -51 -25 -72q-10 -10 -14 -10q-1 0 -2 1t-2 1zM791 1118q46 90 75 176q1 4 11 27t10 35 q0 24 -6 39q-64 -137 -90 -277zM799 717q0 70 35 108q16 19 36 19q18 0 33 -15q17 -17 17 -38q0 -23 -27 -68q0 -2 -1 -3.5t-1 -2.5q-2 -10 -2 -29h10q17 32 24.5 44.5t24.5 34.5t35.5 31t40.5 9q9 0 29 -4q16 -6 16 -19q0 -1 -1 -4t-1 -4q-19 -49 -54 -95.5t-94 -108.5 t-75 -80q-7 -7 -17 -7q-18 0 -18 17v4q4 24 4 39q0 25 -7 84t-7 88zM807 1358q5 7 12.5 21.5t9.5 17.5q-2 -3 -7 -11.5t-7 -11.5zM852 578q2 -6 2 -17q38 47 80 92q-4 0 -16 4q-21 -49 -50 -75q-4 -4 -12 -4h-4z" />
<glyph unicode="&#x3e;" d="M186 532q0 2 1 6.5t1 6.5q8 30 33 30q40 0 103 -63q6 -3 6 -12l8 -8q9 37 29 60t45 23q11 0 26 -6q25 -14 25 -47q0 -12 -2.5 -25.5t-6.5 -29.5t-5 -21q-27 -104 -80 -227q-5 -10 -19 -10q-13 0 -18 10q-42 95 -92 191q-4 9 -18.5 33.5t-25 47.5t-10.5 41zM231 516 q0 -13 31 -72q2 1 3.5 4.5t2.5 4.5q4 8 13 8q-11 29 -23 41q-4 4 -12 9.5t-10 8.5q-1 0 -2.5 1t-2.5 1v-2v-4zM287 397q3 -5 8 -14t8 -14q-5 12 -8 28h-8zM328 315q0 4 2 4q-2 0 -2 3v-7zM422 492q2 6 2 14q-2 -4 -2 -14zM559 1411v10q0 7 5.5 12t13.5 5q10 0 16 -6 q78 -89 113 -215v-5q0 -16 -19 -16q-17 0 -20 16q-21 84 -68 150q3 -76 29 -166q2 2 8 2q4 0 16 -6q1 -2 5.5 -6t5.5 -6q53 12 59 63q11 28 12 33q29 78 37 96q18 41 39 62q40 36 72 36q18 0 32 -14q21 -21 21 -55q0 -23 -7.5 -50.5t-21.5 -62t-16 -39.5q-53 -140 -146 -284 q-7 -7 -16 -7t-16 7q-154 198 -154 446zM662 1120q20 -48 65 -110q4 5 10.5 14t10.5 14l-3 2q-15 15 -40.5 43.5t-32.5 36.5h-8h-2zM727 1116q11 -14 21 -22q5 47 22 102q-20 -51 -25 -72q-10 -10 -14 -10q-1 0 -2 1t-2 1zM791 1118q46 90 75 176q1 4 11 27t10 35 q0 24 -6 39q-64 -137 -90 -277zM799 717q0 70 35 108q16 19 36 19q18 0 33 -15q17 -17 17 -38q0 -23 -27 -68q0 -2 -1 -3.5t-1 -2.5q-2 -10 -2 -29h10q17 32 24.5 44.5t24.5 34.5t35.5 31t40.5 9q9 0 29 -4q16 -6 16 -19q0 -1 -1 -4t-1 -4q-19 -49 -54 -95.5t-94 -108.5 t-75 -80q-7 -7 -17 -7q-18 0 -18 17v4q4 24 4 39q0 25 -7 84t-7 88zM807 1358q5 7 12.5 21.5t9.5 17.5q-2 -3 -7 -11.5t-7 -11.5zM852 578q2 -6 2 -17q38 47 80 92q-4 0 -16 4q-21 -49 -50 -75q-4 -4 -12 -4h-4z" />
<glyph unicode="?" d="M186 532q0 2 1 6.5t1 6.5q8 30 33 30q40 0 103 -63q6 -3 6 -12l8 -8q9 37 29 60t45 23q11 0 26 -6q25 -14 25 -47q0 -12 -2.5 -25.5t-6.5 -29.5t-5 -21q-27 -104 -80 -227q-5 -10 -19 -10q-13 0 -18 10q-42 95 -92 191q-4 9 -18.5 33.5t-25 47.5t-10.5 41zM231 516 q0 -13 31 -72q2 1 3.5 4.5t2.5 4.5q4 8 13 8q-11 29 -23 41q-4 4 -12 9.5t-10 8.5q-1 0 -2.5 1t-2.5 1v-2v-4zM287 397q3 -5 8 -14t8 -14q-5 12 -8 28h-8zM328 315q0 4 2 4q-2 0 -2 3v-7zM422 492q2 6 2 14q-2 -4 -2 -14zM559 1411v10q0 7 5.5 12t13.5 5q10 0 16 -6 q78 -89 113 -215v-5q0 -16 -19 -16q-17 0 -20 16q-21 84 -68 150q3 -76 29 -166q2 2 8 2q4 0 16 -6q1 -2 5.5 -6t5.5 -6q53 12 59 63q11 28 12 33q29 78 37 96q18 41 39 62q40 36 72 36q18 0 32 -14q21 -21 21 -55q0 -23 -7.5 -50.5t-21.5 -62t-16 -39.5q-53 -140 -146 -284 q-7 -7 -16 -7t-16 7q-154 198 -154 446zM662 1120q20 -48 65 -110q4 5 10.5 14t10.5 14l-3 2q-15 15 -40.5 43.5t-32.5 36.5h-8h-2zM727 1116q11 -14 21 -22q5 47 22 102q-20 -51 -25 -72q-10 -10 -14 -10q-1 0 -2 1t-2 1zM791 1118q46 90 75 176q1 4 11 27t10 35 q0 24 -6 39q-64 -137 -90 -277zM799 717q0 70 35 108q16 19 36 19q18 0 33 -15q17 -17 17 -38q0 -23 -27 -68q0 -2 -1 -3.5t-1 -2.5q-2 -10 -2 -29h10q17 32 24.5 44.5t24.5 34.5t35.5 31t40.5 9q9 0 29 -4q16 -6 16 -19q0 -1 -1 -4t-1 -4q-19 -49 -54 -95.5t-94 -108.5 t-75 -80q-7 -7 -17 -7q-18 0 -18 17v4q4 24 4 39q0 25 -7 84t-7 88zM807 1358q5 7 12.5 21.5t9.5 17.5q-2 -3 -7 -11.5t-7 -11.5zM852 578q2 -6 2 -17q38 47 80 92q-4 0 -16 4q-21 -49 -50 -75q-4 -4 -12 -4h-4z" />
<glyph unicode="@" d="M186 532q0 2 1 6.5t1 6.5q8 30 33 30q40 0 103 -63q6 -3 6 -12l8 -8q9 37 29 60t45 23q11 0 26 -6q25 -14 25 -47q0 -12 -2.5 -25.5t-6.5 -29.5t-5 -21q-27 -104 -80 -227q-5 -10 -19 -10q-13 0 -18 10q-42 95 -92 191q-4 9 -18.5 33.5t-25 47.5t-10.5 41zM231 516 q0 -13 31 -72q2 1 3.5 4.5t2.5 4.5q4 8 13 8q-11 29 -23 41q-4 4 -12 9.5t-10 8.5q-1 0 -2.5 1t-2.5 1v-2v-4zM287 397q3 -5 8 -14t8 -14q-5 12 -8 28h-8zM328 315q0 4 2 4q-2 0 -2 3v-7zM422 492q2 6 2 14q-2 -4 -2 -14zM559 1411v10q0 7 5.5 12t13.5 5q10 0 16 -6 q78 -89 113 -215v-5q0 -16 -19 -16q-17 0 -20 16q-21 84 -68 150q3 -76 29 -166q2 2 8 2q4 0 16 -6q1 -2 5.5 -6t5.5 -6q53 12 59 63q11 28 12 33q29 78 37 96q18 41 39 62q40 36 72 36q18 0 32 -14q21 -21 21 -55q0 -23 -7.5 -50.5t-21.5 -62t-16 -39.5q-53 -140 -146 -284 q-7 -7 -16 -7t-16 7q-154 198 -154 446zM662 1120q20 -48 65 -110q4 5 10.5 14t10.5 14l-3 2q-15 15 -40.5 43.5t-32.5 36.5h-8h-2zM727 1116q11 -14 21 -22q5 47 22 102q-20 -51 -25 -72q-10 -10 -14 -10q-1 0 -2 1t-2 1zM791 1118q46 90 75 176q1 4 11 27t10 35 q0 24 -6 39q-64 -137 -90 -277zM799 717q0 70 35 108q16 19 36 19q18 0 33 -15q17 -17 17 -38q0 -23 -27 -68q0 -2 -1 -3.5t-1 -2.5q-2 -10 -2 -29h10q17 32 24.5 44.5t24.5 34.5t35.5 31t40.5 9q9 0 29 -4q16 -6 16 -19q0 -1 -1 -4t-1 -4q-19 -49 -54 -95.5t-94 -108.5 t-75 -80q-7 -7 -17 -7q-18 0 -18 17v4q4 24 4 39q0 25 -7 84t-7 88zM807 1358q5 7 12.5 21.5t9.5 17.5q-2 -3 -7 -11.5t-7 -11.5zM852 578q2 -6 2 -17q38 47 80 92q-4 0 -16 4q-21 -49 -50 -75q-4 -4 -12 -4h-4z" />
<glyph unicode="A" horiz-adv-x="1478" d="M0 399q0 22 10 45q14 26 53 50q6 3 18.5 8t18.5 8q6 2 19.5 7t19.5 7h8q-4 8 -4 13q0 4 2 8q51 94 115 155q-61 -12 -125 -12q-56 0 -100 8q-4 0 -12 4h-5q-8 5 -8 15q0 6 5 11t12 5h4h2q2 0 4 2q3 0 6 6q3 2 8 11q3 4 8.5 12t8.5 12q22 35 34 47q38 36 101 39h10 q43 0 84.5 -21.5t69.5 -56.5q100 55 225 68q-20 10 -23 12q-10 5 -33.5 18t-37 20t-34.5 13.5t-40 6.5h-12q-9 0 -13 -2q-18 0 -18 20q0 15 14 18q2 2 11 2q6 1 12.5 4.5t14.5 10t11 8.5q27 17 54 20q30 5 34 5q34 0 76 -17q47 -18 97 -61q28 -28 28 -58q0 -10 -2 -14 q45 0 131 -4h4q-3 2 -10 6t-10 6q-50 25 -58 54v4q0 7 9 16q37 16 69 16q36 0 68 -22q20 -14 49 -51q17 -17 23 -35q116 -4 172 -8h34q154 0 213 84q2 4 9 4q6 0 11 -4t5 -9q0 -4 -2 -6q-69 -100 -264 -100q-61 0 -183 4q-1 -1 -3 -2t-3 -2q-2 -2 -2 -4q-17 -19 -31 -63 t-26 -62q-38 -52 -111 -76q-1 0 -3 -1t-3 -1q-10 0 -10 14q0 1 1 3.5t1 3.5q8 19 8 47q0 9 -1 27.5t-1 27.5q0 33 10 53q12 30 56 37q6 0 8 2h-25q-45 2 -137 2h-57q4 -12 6 -16q6 -6 6 -15q4 -15 8 -45v-24q0 -26 -4 -72q-7 -57 -29 -90q-15 -24 -59 -51q-12 -12 -25 -12 q-16 0 -16 16q0 9 8 14q1 1 4 3t4 3v17l-6 18q-4 10 -22 41q-23 38 -23 72q0 3 1 8t1 8q7 51 47 78q18 15 43 21q2 1 10 1t14 1t7 4l2 4q-1 2 -2 7t-2 7q-9 -1 -26.5 -3t-26.5 -3q-119 -13 -205 -61v-3q2 -2 2 -8q0 -11 -10 -14q0 -1 1 -4t1 -4q0 -7 -6 -13q-1 -1 -3 -2 t-3 -2q51 -89 51 -151v-12q-2 -38 -29 -93q-14 -25 -22 -43q-1 -1 -4.5 -6t-4.5 -8q9 -23 9 -29q0 -17 -19 -22q-10 0 -16 6q-6 9 -6 20q0 7 4 23q-1 2 -13 20q-19 34 -28 46q-39 60 -51 96q-9 31 -9 45q0 10 2 16q-22 -31 -55 -80q-3 -6 -6 -6q6 -24 6 -49q0 -49 -28 -94 q-19 -31 -58 -58t-43 -32q0 -29 -26 -29q-13 0 -13 12q0 7 2 9q3 8 8 16q-6 31 -8 33q-1 7 -4 20.5t-4 20.5q-4 20 -4 30zM33 393q0 -12 2 -24.5t5.5 -27t4.5 -22.5q8 6 24.5 17.5t28.5 21.5t21 21q35 43 35 106v11q-10 -7 -23.5 -13t-30.5 -12t-26 -10q-38 -23 -41 -60v-8z M76 723q40 -6 82 -6q64 0 139 16q11 11 35 27q-31 31 -51 41q-33 20 -74 20q-17 0 -25 -2q-52 -11 -84 -63zM266 584q0 -26 25 -76q9 -19 29.5 -51.5t25.5 -40.5q1 1 2 4t2 4q35 64 41 88q4 24 4 37q0 55 -43 135q-15 -15 -30 -27q-3 -3 -21.5 -18.5t-24.5 -24.5 q-10 -10 -10 -30zM473 950q28 -8 84 -41q75 -51 127 -51h4q0 1 1 2t1 2q2 2 2 8q0 11 -12 23q-17 17 -35 29q-43 31 -80 41q-20 4 -30 4q-31 0 -58 -15q-4 0 -4 -2zM561 674q0 -3 1 -8.5t1 -8.5q3 -18 20 -47.5t21 -44.5q1 -2 2 -7.5t2 -8.5q23 19 33 39q14 27 18 90 q3 27 3 57v25q-5 -2 -27.5 -6.5t-32.5 -10.5q-41 -21 -41 -69zM831 913q6 -3 11 -8q10 -8 26 -20q41 -25 62 -33q1 0 2 -1t2 -1q4 0 13.5 -1t13.5 -1q-16 26 -46 53q-23 17 -51 17q-20 0 -33 -5zM844 637q54 23 80 70q7 13 19 46t22 48q-29 -13 -60 -19q-30 -6 -35 -8 q-13 -5 -16 -22q-3 -11 -4 -24t-1 -28.5t-1 -23.5q0 -15 -4 -39z" />
<glyph unicode="B" horiz-adv-x="1527" d="M4 344q-2 3 -2 5q0 3 2 7q69 101 264 101q61 0 183 -4q1 1 3 2t3 2q2 2 2 4q17 19 31 63t26 62q38 52 111 76q8 3 12.5 -4.5t1.5 -14.5q-8 -18 -8 -55q0 -11 1 -23q1 -11 1 -20q0 -38 -10 -58q-12 -29 -56 -36q-6 0 -8 -2h25q102 -4 157 -4q22 0 37 1q-5 15 -6 17 q-6 6 -6 14q-4 15 -8 45q-1 13 -1 27q0 32 5 69q7 58 29 91q15 24 59 51q12 12 25 12q12 0 15 -12.5t-7 -18.5q-1 -1 -4 -3t-4 -3v-16q1 -3 3 -9.5t3 -9.5q4 -10 22 -41q22 -37 22 -74q0 -7 -1 -14q-6 -50 -47 -77q-18 -15 -43 -21q-2 -1 -10 -1t-14 -1t-7 -4l-2 -4 q1 -2 2 -7t2 -7q9 1 26.5 3t26.5 3q119 13 205 61v2q-3 6 -0.5 14t8.5 9q-4 12 4 20q1 1 3 2t3 2q-51 90 -51 153v11q2 37 29 92q14 25 22 43q1 1 4.5 6.5t4.5 8.5q-21 41 10 51q10 0 16 -6q10 -17 2 -43q3 -6 13 -21q17 -29 28 -45q39 -60 51 -96q12 -40 7 -62q23 31 55 80 q3 6 6 6q-8 26 -8 51q0 50 31 93q18 30 57 57q35 25 43 33q0 29 27 29q8 0 11 -7t-1 -14q-3 -8 -8 -16q6 -31 8 -33q1 -7 4 -20.5t4 -20.5q3 -15 3 -30q0 -24 -9 -46q-13 -25 -53 -49q-6 -3 -18.5 -8t-18.5 -8q-6 -2 -19.5 -7.5t-19.5 -7.5h-8q7 -10 2 -20 q-52 -96 -115 -156q63 12 124 12q51 0 101 -8q5 0 13 -4h4q13 -7 7 -20.5t-20 -10.5h-2q-2 0 -4 -2q-3 0 -6 -6q-4 -2 -8 -10q-3 -4 -8.5 -12.5t-8.5 -12.5q-22 -35 -34 -47q-38 -36 -101 -39h-11q-39 0 -78 19q-45 22 -75 59q-97 -54 -225 -67q14 -7 23 -13 q8 -4 35.5 -19.5t41.5 -21.5t37 -12t43 -4q9 0 13 2q11 0 16.5 -9t2 -18.5t-14.5 -11.5q-2 -2 -10 -2q-8 -1 -39 -22q-29 -18 -54 -21q-17 -4 -34 -4q-36 0 -76 16q-43 16 -96 62q-30 30 -30 56q0 8 3 16q-45 0 -131 4h-4q3 -2 10 -6.5t10 -6.5q51 -25 58 -53q3 -12 -9 -20 q-38 -16 -70 -16q-38 0 -67 22q-20 14 -49 51q-17 17 -23 35q-116 4 -172 8q-15 1 -29 1q-160 0 -218 -85q-4 -6 -11.5 -5t-11.5 7zM487 463q25 11 60 18q30 6 35 8q12 5 16 23q3 11 4 24t1 28.5t1 23.5q0 15 4 39q-54 -23 -80 -70q-7 -13 -19 -46t-22 -48zM492 416 q18 -30 45 -54q23 -17 51 -17q15 0 33 5q-6 3 -11 8q-3 3 -12 10.5t-14 10.5q-41 25 -62 33q-1 0 -2 1t-2 1q-4 0 -13 1t-13 1zM762 401q-2 -4 -2 -8q0 -10 12 -22q17 -17 35 -29q43 -31 80 -41q16 -3 32 -4q30 0 56 14q4 0 4 2q-28 8 -84 41q-81 52 -128 52h-3 q0 -1 -1 -2.5t-1 -2.5zM791 504q5 2 27 6t32 10q23 12 33.5 35.5t5.5 50.5q-3 18 -20 47.5t-21 44.5q-1 2 -2 8t-2 9q-23 -19 -33 -39q-14 -27 -18 -90q-3 -36 -3 -60q0 -13 1 -22zM1061 752q-4 -16 -4 -34q0 -59 43 -138q10 10 30 26q3 3 21.5 18.5t24.5 24.5q9 10 11 23.5 t-4.5 31.5t-9.5 25.5t-12 26.5t-30 51.5t-25 40.5q-1 -1 -2 -4t-2 -4q-35 -64 -41 -88zM1120 504q31 -31 51 -41q37 -21 75 -21q12 0 24 2q52 11 84 64l22 33q-38 5 -77 5q-70 0 -144 -16q-8 -8 -35 -26zM1298 768q10 7 23.5 13t30.5 12t26 10q38 23 41 59v9q0 9 -1 17 q-2 14 -6 30.5t-5 25.5q-8 -7 -24.5 -17.5t-28.5 -20.5t-21 -21q-35 -44 -36 -107q1 -5 1 -10z" />
<glyph unicode="C" horiz-adv-x="1869" d="M86 539q0 16 16 16q1 0 3.5 -1t3.5 -1q0 5 10 8q47 9 101 15.5t121 13.5t105 12q2 2 11 2h6q51 -25 98.5 -64.5t73.5 -84.5v-4h444q4 7 21 16v4q0 6 4 10q6 4 22 4q36 0 45 -30q3 0 3 -4h30q3 13 13.5 22.5t21.5 11.5q1 0 3 1t3 1q8 0 8 -10q4 12 15 12h4q28 -13 31 -38 h36q10 32 45 32q9 9 19 9q28 -11 35 -41h198q-9 41 -18 59v2q0 3 4 6.5t8 3.5t6 -2q3 12 17 12h4q72 -25 141 -73q12 -6 12 -23q0 -10 -8 -18q-49 -38 -112 -82q-6 -4 -15 -4q-6 0 -10 2q-3 -3 -8 -19q-4 -4 -10 -4q-13 0 -13 11v10q0 9 2 31t2 36v13q-136 0 -204 -2 q-16 -23 -48 -23h-6q-26 3 -39 23h-43q-14 -25 -49 -25q-30 3 -41 25h-41q-4 -10 -26 -23q-6 -2 -19 -2q-32 0 -45 25q-302 0 -454 2q-34 -37 -113 -142v-4q0 -8 -12 -8h-2q-3 -8 -4 -8q-4 -4 -9 -4q-8 0 -12 12q-19 1 -52 4t-60.5 5t-51.5 3q-29 0 -86 -3t-86 -3h-22 q-2 0 -4.5 2.5t-2.5 3.5q0 2 3 2q-5 10 -5 11t5 6q49 97 96 141q-73 33 -117 102q-2 2 -2 7zM123 537q50 -53 98 -84l4 -2h2h37q-2 2 -9.5 8.5t-10.5 9.5q-2 2 -2 8q0 15 10 15q1 0 3 -1.5t3 -1.5q2 -2 6.5 -6t7.5 -6.5t6.5 -6.5t4.5 -7l6 -12h80q-33 43 -62 61q-8 3 -8 10 q0 6 5 11.5t11 5.5q7 0 9 -2q48 -32 65 -78v-8h35q-33 30 -45 53v4q0 6 3.5 11t8.5 5t8 -6q7 -4 15 -16.5t12 -16.5q5 -6 15.5 -15t15.5 -15l4 -4h51q-6 8 -13 14.5t-17 14.5l-15 12q-8 3 -8 10q0 4 3.5 8t8.5 4h4q45 -11 62 -61v-2h71q-9 8 -32 30t-37 33q-38 35 -80 64 l-2 -3q-26 -3 -102 -14t-128.5 -16.5t-103.5 -7.5zM137 287q53 8 170 8q119 0 176 -10q28 43 103 127h-105v-4q-5 -9 -15 -28t-15 -28q-20 -36 -33 -49q-2 -4 -8 -4q-5 0 -9 4t-4 8v2q10 23 31 52q5 7 15.5 23.5t15.5 23.5h-80q10 -3 10 -13v-4q-5 -7 -15 -23t-16 -24 q-14 -36 -26 -45q-2 -4 -8 -4q-11 0 -11 10v2q6 17 27 47q4 7 13 23.5t16 26.5q4 4 6 4h-25q-3 -8 -11.5 -21t-10.5 -18q-7 -9 -16 -24.5t-11 -18.5q-4 -4 -12 -4q-10 0 -10 6q0 2 2 4q10 31 26 49q3 5 19 27h-33q-22 -49 -47 -78q-2 -2 -6 -2q-11 0 -11 8q0 2 2 4 q7 15 21.5 37t19.5 31h-45q-6 0 -8 4q-55 -77 -82 -129zM494 348v4q11 27 38 51q3 3 7 3q5 0 9.5 -4.5t4.5 -8.5t-2 -6q-17 -13 -37 -49q-2 -4 -6 -4q-5 0 -9.5 4t-4.5 10zM1126 451h9q-1 1 -4.5 2t-4.5 2v-4zM1233 451h37l-10 10q-2 1 -4 5l-3 3q0 -6 -4 -6q-11 -2 -16 -12 zM1366 451h39q-3 8 -14 12q-16 0 -25 -12zM1651 498q5 -13 14 -47h64q-44 29 -78 47zM1673 389q14 14 29 23h-29v-23z" />
<glyph unicode="D" horiz-adv-x="925" d="M137 645q0 36 19 60q22 28 55 28q23 0 43 -14q63 -52 98 -92q44 -50 86 -121q20 66 74 127q90 100 166 100q19 0 37 -6q53 -21 53 -86q0 -31 -20 -98q-12 -36 -28.5 -72t-43.5 -88.5t-35 -69.5q-52 -112 -88 -247q-6 -23 -35 -23q-14 0 -25.5 9t-11.5 22v4q-23 11 -75 63 q-64 64 -99 111q-75 99 -125 225q-12 29 -39 117q-6 48 -6 51zM193 649q0 -14 2 -20q7 -81 65 -199q37 -83 111 -182q58 -68 69 -80q6 -7 20.5 -20.5t20.5 -20.5q1 -2 5.5 -5.5t5.5 -4.5q25 89 77 202q11 21 32 59.5t37.5 70t29.5 59.5q26 57 37 102q4 20 4 35q0 25 -15 33 q-6 4 -18 4q-30 0 -68 -33q-38 -28 -69 -71q-54 -74 -54 -148q0 -17 2 -27v-2q0 -10 -8.5 -16t-19.5 -6q-23 0 -29 18q-33 107 -123 203q-40 46 -80 76q-10 10 -14 10q-1 0 -3 -1t-3 -1q-6 -2 -10 -14q-4 -8 -4 -21z" />
<glyph unicode="E" horiz-adv-x="624" d="M86 596q0 54 41 70q6 2 20 2q35 0 70 -35q51 -59 86 -158q36 106 115 176q49 49 98 49h6q29 -3 50.5 -22t29.5 -47q4 -20 4 -31q0 -38 -24 -84q-46 -93 -68 -137q-20 -38 -42.5 -82t-50 -98.5t-42.5 -83.5q-10 -17 -25 -17q-10 0 -19.5 7t-12.5 18q-28 80 -123 229 q-37 53 -64 103q-2 5 -13.5 27t-15.5 31.5t-10 27t-8 32.5q-2 8 -2 23zM131 592q0 -32 41 -98q23 -41 87.5 -137t92.5 -152q52 103 80 155q20 46 51 103q48 93 52 104q6 24 6 35q0 25 -19 33q-2 2 -10 2q-21 0 -66 -45q-53 -55 -94 -168q-5 -21 -30 -21q2 -2 2 -4v-4 q0 -18 -21 -18q-13 0 -16 12q-21 110 -90 197q-24 33 -37 37h-6q-23 0 -23 -31z" />
<glyph unicode="F" horiz-adv-x="2392" d="M209 209q0 12 12 18q72 43 150 58q35 8 56.5 14.5t48 23.5t40.5 42q4 8 16 8q7 0 11 -4q7 -8 14 -15t16.5 -14t15.5 -11.5t18.5 -11t16.5 -9t19.5 -10t18.5 -9.5q0 -2 2 -2q0 1 0.5 1.5t1 2t0.5 4.5q2 2 6 2q8 0 8 -8q222 95 487 157q-21 29 -26 41q-1 1 -7.5 10.5t-9 13 t-8 12.5t-8 15t-4.5 14t-2 15v6q0 18 9.5 28.5t23.5 10.5q15 0 26 -8q3 -1 9.5 -5t9.5 -5q15 -11 28 -19q9 0 11 -8q30 -27 43 -59q7 34 18.5 66t31.5 58.5t42 26.5q17 0 37 -20q8 0 14 -6t6 -15q0 -4 -4 -12q4 -16 4 -24q0 -12 -2.5 -26t-6.5 -30.5t-5 -21.5v-6 q132 21 305 34q0 13 6 17q8 4 12 4q17 0 31 -14h41q0 18 16 18h4q5 -3 13.5 -7t13.5 -7q7 0 26 1t29 1q5 10 9 14q-2 2 -7 2q-8 4 -8 12q0 13 13 13q35 -6 38 -41q23 2 64 2q45 0 139 -4q-1 4 -2 15.5t-2 16.5q-2 1 -12 11q-2 2 -2 6q0 10 14 14q0 2 2 2l12 -6q0 -3 7 -10 q67 -54 77 -60l5 -2q4 -5 14 -8q6 -6 6 -16q0 -11 -6 -17q-49 -21 -107 -63q-4 -4 -8 -4q-7 0 -12.5 7t-5.5 15q0 9 4 11q1 1 5 4t7 4q0 2 -1 4.5t-1 3.5q0 2 2 2q0 7 1 19t1 16q-68 6 -203 6q-6 -8 -14 -16q0 -2 -2 -2q-1 0 -4 1t-4 1q-10 2 -17 16h-45q0 -26 -16 -35 q-8 -4 -12 -4q-17 0 -31 17q-2 8 -2 16h-25h-4q-4 -2 -6.5 -8.5t-3.5 -7.5q-7 -7 -14 -7q-18 0 -29 19v2q-149 -11 -317 -43q-41 -104 -43 -107q0 -13 -5 -18q-2 -18 -7 -49t-7 -45q-3 -13 -14 -13q-13 0 -17 11q-33 42 -61 96q0 1 -1 2t-3 3.5t-4 4.5q-1 4 -3.5 9.5 t-6.5 11t-5 8.5q-23 20 -32 43q-251 -53 -508 -160q-27 -121 -29 -166q0 -3 -1 -5t-2.5 -3.5t-3 -2.5t-4 -2.5t-3.5 -2.5q-18 -7 -72.5 -23t-83.5 -30q-21 -8 -72 -35t-79 -35h-2q-15 0 -15 14q0 7 4 11q28 30 95 61q6 57 26 104q0 7 8 7q9 0 9 -9q-9 -29 -21 -92q9 4 31 8 q41 20 98 37v6q1 13 4.5 49.5t3.5 57.5q0 10 10 10q11 0 11 -10q2 -10 2 -29q0 -35 -10 -80q4 1 17 5t21 4q6 73 31 143q-65 -30 -121 -53v-2q2 -8 2 -27q0 -44 -12 -78q-2 -10 -10 -10q-10 0 -10 12q2 13 7.5 45.5t8.5 48.5q-21 -4 -31 -14q0 -5 -6 -53q0 -37 -12 -51 q0 -2 -4 -2q-6 0 -6 6q-2 4 -2 14q0 15 4 35q0 7 6 43q-4 -2 -17 -7.5t-18 -8.5q-2 -5 -10 -5q-22 -71 -76 -122q-5 -5 -8 -5q-10 0 -10 11q0 4 2 6q52 56 75 119q6 6 7 6q0 2 2.5 5.5t3.5 4.5q18 6 22 10q-16 4 -34 30t-29 34q-1 0 -9 -2t-12 -4q36 -16 56 -41q4 -4 4 -9 t-4.5 -8.5t-10.5 -3.5q-2 0 -10 4q-41 37 -68 47q-23 -3 -38 -12q44 -11 96 -41q8 -5 8 -14q0 -7 -4.5 -13t-11.5 -6q-1 0 -3.5 1t-3.5 1q-15 5 -62.5 24t-74.5 26q-14 7 -14 16zM397 252q1 -2 9 -14q1 -2 7 -9l9 -10.5t8.5 -8.5t11 -7t11.5 -2h2q8 0 8 -4q35 14 63 28 q-42 3 -67 45h-4l-6 -2q-6 -2 -7 -6q6 -6 17 -10q4 -4 4 -8q0 -1 -1 -3t-1 -3q0 -5 -8 -5h-4q-6 9 -23 21q-2 4 -2 6q-7 -1 -16 -4t-11 -4zM485 285q27 -37 78 -37h12l3 2q1 0 2.5 -1t3.5 -1q7 5 25 12.5t28 13.5q-55 15 -105 56q0 -5 -6 -11q4 -4 39 -34q4 -4 4 -9 q0 -10 -12 -10q-4 0 -6 2q-5 6 -18 17t-19 18q-2 -1 -12.5 -8.5t-16.5 -9.5zM1288 313q2 -1 6 -7l4 -5q0 1 2.5 4t2.5 6q-3 0 -8 1t-7 1zM1296 369q2 -4 7 -4q2 4 2 10q-1 -1 -4.5 -2.5t-4.5 -3.5zM1815 508l4 -2h2h2v8h-8v-6zM2173 489q18 14 31 17q-10 2 -29 2 q0 -11 -2 -19z" />
<glyph unicode="G" horiz-adv-x="786" d="M39 641q0 6 2 8q0 11 22 15q13 2 101 8q7 0 21.5 1t21.5 1q21 0 57 -4q0 3 6 57q1 13 4.5 36t4.5 36q12 97 28 143q1 4 10 8q13 0 19 -4q14 -18 26.5 -38t30.5 -53.5t21 -39.5q28 -46 39 -67q5 -11 17 -35t17 -35q20 4 66 16l111 15q3 0 11.5 -10t8.5 -13q-5 -18 -18 -31 t-34.5 -27.5t-29.5 -21.5q-10 -8 -29 -23.5t-26 -21.5q-19 -16 -43 -26q2 -9 3 -19.5t1.5 -23t1.5 -19.5q0 -15 1 -43t1 -43v-16q0 -72 -25 -142q-3 -14 -18 -18h-4q-8 0 -16 8q-39 47 -62 115q-4 10 -12.5 31.5t-12.5 31.5q-9 22 -16 31q-13 -21 -65 -82q-27 -32 -101 -102 q-8 -4 -10 -4h-4q-13 0 -21 16l-4 8v6v6q0 13 17 64q6 23 22 63q23 58 45 103q-63 47 -176 108q-3 0 -8 9q0 2 -1 8.5t-1 9.5zM115 625q76 -38 157 -88q8 -5 11 -19q0 -1 1 -3t1 -3t-1 -3t-1 -3q-30 -62 -54 -123q-2 -9 -9 -27t-9 -24q13 13 37 41q5 6 21 25t24 30 q24 36 41 53q0 4 6 4h4q20 0 23 -14v-6v-4q6 -4 10.5 -9t9.5 -12.5t7.5 -11.5t7 -14.5t5.5 -12.5t6 -15l5 -13q29 -65 39 -82q8 31 8 69q0 6 -1 18t-1 17q0 28 -4 86v19q0 36 10 59q3 6 8 6q2 2 4 2q1 0 2 -1t2 -1q14 15 80 68q4 4 14.5 12t14.5 14q-16 -4 -25 -4 q-14 -2 -41.5 -6t-42.5 -6h-4q-6 0 -12 6h-4q-14 0 -21 10q-6 12 -17 35.5t-17 34.5q-5 10 -16.5 32t-16.5 32q-8 18 -26 50t-25 46q-1 -17 -5.5 -49t-5.5 -47q-2 -13 -4 -38t-4 -38q0 -45 -8 -68q0 -8 -12 -12h-8q-5 0 -7 -2h-4q-17 -1 -50.5 -3t-51.5 -3q-32 -4 -51 -4z " />
<glyph unicode="H" horiz-adv-x="604" d="M41 602q0 12 12 16q0 5 4 5q14 19 36.5 30t52.5 19t44 14q3 21 13 45q2 9 7 27.5t7 27.5q15 42 33 107q5 10 18 10q19 0 19 -16q7 -4 13 -13t8.5 -15.5t7.5 -21.5l6 -18q2 -11 10 -31.5t10 -27.5q1 -7 7.5 -25t6.5 -28q16 2 52 2q53 0 116 -13q14 -3 17 -16q4 -4 4 -14 q0 -7 -2 -9q-5 -7 -11 -13.5t-15.5 -14t-14.5 -10.5t-18 -11.5t-15 -9.5q-7 -6 -22.5 -16t-20.5 -15q-14 -5 -16 -8q-7 -3 -7 -6l5 -10q14 -34 40 -98.5t39 -98.5v-6q0 -9 -7.5 -17t-16.5 -8q-2 0 -10 4q-57 42 -150 127q-14 -22 -57 -65q-41 -48 -88 -80q-2 -2 -6 -2 q-10 0 -13 6q-22 0 -22 19q0 6 2 10q17 47 20 102q4 17 13 50t10 38q-61 24 -113 64q-8 5 -8 14zM90 604q65 -28 111 -43q18 -4 18 -24v-9q-26 -79 -29 -110q-6 -27 -6 -49q5 6 16.5 18.5t16.5 18.5q13 15 35 44.5t35 43.5q5 8 12 8q6 0 12 -6.5t8 -12.5q6 -5 34 -26t44 -31 q4 -8 9 -8q-9 18 -11 26q-16 40 -22 58q-15 26 -15 45v6q1 14 9 25.5t14.5 16.5t25 15.5t21.5 12.5q10 6 47 34q2 2 4 2q-104 17 -149 17q-13 3 -13 14q-5 5 -8 12t-5.5 16.5t-4.5 14.5q-12 47 -12 49q-9 32 -11 47q0 15 -2 21q-6 -26 -24 -74q-1 -8 -3 -17t-5 -19.5 t-4 -16.5q-3 -6 -7 -22t-8 -25q0 -2 -4 -10q-26 -23 -67 -33q-42 -13 -62 -29z" />
<glyph unicode="I" horiz-adv-x="419" d="M27 557q0 31 32 31h2q14 -2 48 -2q31 0 45 2q-5 8 -64 82l-4 12q0 12 9 20.5t20 8.5q7 0 20 -9q9 -10 27.5 -29.5t27.5 -29.5q1 17 4.5 48.5t4.5 47.5q1 12 10 19.5t20 7.5q10 0 17.5 -7t7.5 -18v-2q-2 -33 -2 -100v-41q24 24 74 78q13 10 20 10q12 0 21.5 -11.5 t9.5 -23.5q0 -10 -6 -22q-2 -3 -21 -27q29 -6 29 -39q0 -30 -27 -33q-6 -1 -18.5 -3t-18.5 -3q57 -52 74 -71q10 -10 10 -25q0 -12 -8 -22.5t-20 -10.5q-13 0 -19 6q-34 23 -98 78q4 -41 8 -119v-6q0 -13 -8.5 -19.5t-20.5 -6.5q-34 0 -34 32q-5 22 -9 76q-35 -39 -61 -57 q-10 -10 -25 -10q-14 0 -26 12t-12 25q0 12 12 24q14 12 28.5 26t32 30.5t27.5 25.5q-52 0 -105 6q-34 9 -34 39z" />
<glyph unicode="J" horiz-adv-x="509" d="M106 414q0 14 13 24q41 15 90 60q-1 1 -6 10q-7 1 -31 4.5t-33 3.5q-14 3 -22 13.5t-8 21.5q0 10 7.5 18.5t18.5 8.5h4h4q-4 2 -4 6q-6 6 -6 20q0 12 8.5 20.5t20.5 8.5t20 -10q9 -10 60 -70q1 0 5.5 -1.5t9.5 -4t9 -6.5q3 4 11.5 14t11.5 14q11 23 28 80q6 21 25 21 q12 0 22.5 -9.5t10.5 -21.5v-6q-4 -6 -10 -10q16 -10 16 -23q0 -10 -2 -16q-19 -19 -35 -43q-3 -3 -6 -9t-6 -13.5t-4 -10.5q30 -12 57 -43q10 -13 10 -21q0 -12 -9 -21t-21 -9q-3 0 -11 2.5t-10 3.5q-11 13 -33 26q0 -2 -2 -6q3 -7 22 -51t27 -67v-7q0 -14 -8.5 -22 t-21.5 -8q-21 0 -27 20q-5 8 -18 53q-2 0 -4.5 -7t-4.5 -7q-1 -8 -9.5 -14t-16.5 -6q-29 0 -29 30v6q23 48 27 74q0 2 -2 6.5t-2 5.5q-38 -35 -92 -55q-6 -4 -17 -4q-12 0 -19.5 7.5t-7.5 19.5z" />
<glyph unicode="K" horiz-adv-x="643" d="M78 661q4 19 22 17l6 -2q62 -21 138 -60q-34 78 -51 121q-9 22 11 34q20 11 29 -9q7 -15 19.5 -42.5t22.5 -50t18 -42.5q56 94 90 143q7 12 20 12h3q15 -2 21 -12.5t-1 -24.5q-50 -70 -104 -170q100 33 184 70q20 8 27 -13q2 -7 2 -13q0 -14 -13 -21l-4 -2 q-23 -9 -71.5 -27.5t-71.5 -27.5q6 -4 69 -49q12 -9 10.5 -23.5t-12 -20t-24.5 2.5q-3 2 -29 21t-41 28q16 -39 50 -117l51 -117q6 -14 -3 -25.5t-21 -11.5t-19 13l-117 270q-38 -77 -82 -197q-5 -15 -18.5 -17.5t-23.5 6.5t-5 24q27 85 65 166q-12 -3 -33.5 -9.5 t-33.5 -9.5q-15 -4 -24 6.5t-6.5 23.5t17.5 17q19 5 55 15.5t54 15.5q0 2 2 2q-82 45 -162 74q-17 7 -17 24q0 4 1 8z" />
<glyph unicode="L" horiz-adv-x="749" d="M150 592q-1 3 -1 7q0 12 9 21q11 12 28 7q46 -13 164 -52q-14 50 -39 127q-5 18 7 28q10 8 21 8q3 0 7 -1q16 -3 23 -20q3 -9 8 -27.5t8 -27.5q10 26 14 32q6 17 22 20t28 -7t6 -27q-31 -83 -41 -107q140 35 245 45q17 2 25 -12q4 -7 4 -14q0 -6 -4 -14q-8 -15 -25 -17 q-84 -8 -184 -31q14 -7 35 -14q24 -10 20 -36q-4 -21 -23 -21l-11 2l-33 12l-33 12q27 -120 39 -243q2 -17 -12 -24.5t-29.5 0t-17.5 24.5q-8 99 -35 229q-84 -223 -119 -311q-6 -17 -22 -20q-4 -1 -7 -1q-13 0 -21 8q-12 10 -5 27q19 51 58 154.5t58 154.5q-5 -2 -71 -28 q-23 -10 -39 13q-15 22 4 35q2 2 6 3q13 5 37 14.5t37 14.5q-20 6 -60.5 18t-60.5 18q-17 5 -20 21z" />
<glyph unicode="M" horiz-adv-x="634" d="M111 435q2 16 18 22q165 67 166 67q2 2 3.5 7t2.5 6q-86 66 -158 159q-15 23 9 37.5t38 -6.5q66 -84 140 -141q2 0 2 2q-11 65 -43 137q-7 16 5 26q9 8 21 8q3 0 7 -1q16 -3 22 -19q5 -13 14.5 -41t14.5 -41q9 21 24 39q9 14 22.5 14t23 -12.5t1.5 -27.5q-4 -7 -23 -39.5 t-28 -48.5q0 -7 4 -15q38 17 111 45q24 10 32 -12q3 -7 2 -12q0 -13 -12 -22l-8 -5q-6 -2 -41.5 -18t-54.5 -25q12 -5 34.5 -15.5t33.5 -15.5q14 -8 14 -22t-13.5 -24t-29.5 -3q-8 4 -27.5 13.5t-27.5 13.5q4 -41 4 -119q-2 -16 -16 -24q-7 -4 -14 -4q-8 0 -14 4 q-14 8 -12 24q0 72 -6 143q-3 -1 -9 -4t-9 -4q-5 -10 -23 -37q-9 -16 -26.5 -12t-22.5 19q-17 -6 -36.5 -14t-43.5 -18.5t-37 -15.5q-16 -7 -26 5q-8 10 -8 22v5z" />
<glyph unicode="N" horiz-adv-x="1298" d="M25 750q0 7 6 16q11 8 45 37q8 8 16 8q11 0 19 -8q8 -5 8 -19q0 -11 -8 -16q-9 -8 -13 -10q4 -2 4 -8q0 -10 -7.5 -17.5t-18.5 -9.5h-27h-2q-9 0 -15.5 8t-6.5 19zM506 424q0 31 20 61q9 9 17 9q7 0 20 -9q6 -6 6 -14q2 2 11 2q8 0 16 -6t8 -16q0 -1 -1 -4t-1 -5 q-9 -44 -53 -65q-12 -4 -14 -4q-15 0 -21 12q-8 19 -8 39zM598 860v4q5 19 25 43q0 4 4 6q4 19 20 19q6 0 10 -2q1 0 3.5 -1t3.5 -1q3 0 9 1t9 1q12 0 19.5 -8t7.5 -19q0 -16 -15 -22q0 -17 -4 -27q-15 -27 -49 -27q-19 0 -31 9q-12 6 -12 24zM1178 743q0 12 10 25q6 6 16 6 q13 0 19 -6q4 -4 8 -12q4 0 8 -4q8 -5 8 -19q0 -11 -8 -16q-9 -12 -22 -12q-14 0 -26.5 11.5t-12.5 26.5z" />
<glyph unicode="O" horiz-adv-x="888" d="M74 500q22 25 53 10h2q1 -1 4 -3t4 -3q4 -4 4 -6q19 -29 -6 -58q-12 -12 -30.5 -14t-32.5 10q-11 13 -11 30q0 21 13 34zM442 858q-2 7 -2 13q0 19 15 34q14 13 30 13q11 0 23 -6q30 -14 31 -44q0 -11 -9 -18.5t-20 -7.5h-2v-2q-1 -10 -11.5 -16t-21.5 -3q-26 9 -33 37z M631 215q0 24 33 45q11 14 23 14q6 0 13 -4q2 0 2 -2q40 0 58 -30q5 -8 5 -16q1 -10 -9 -18q-16 -14 -35 -3q-5 -11 -12 -15q-11 -9 -27 -9q-10 0 -20 3q-30 9 -31 35z" />
<glyph unicode="P" horiz-adv-x="1222" d="M84 709q-1 5 -1 10q0 11 6 21q9 14 24 22q4 14 18 20q13 7 24 -1t11 -21q12 -6 18 -25q6 -16 -10 -24q-25 -18 -47 4q2 -19 -18.5 -22.5t-24.5 16.5zM141 723zM158 748zM672 612q0 31 6 58q0 2 2 4q11 36 37 49q17 14 36 13q15 0 31 -9q11 -7 11 -20q10 -13 10 -31 q0 -1 -1 -3t-1 -3q7 -10 0 -23q-13 -20 -39.5 -24.5t-46.5 8.5v-19q0 -14 -11 -19.5t-22 0t-12 19.5zM883 377q-1 7 5 13t15 7h17q18 0 22 -22q0 -9 -7 -16t-15 -7h-17q-9 0 -14.5 7t-5.5 18zM1016 881q0 9 6.5 15.5t15.5 6.5h15q9 0 15.5 -6.5t6.5 -15.5t-6.5 -16t-15.5 -7 h-15q-9 0 -15.5 7t-6.5 16z" />
<glyph unicode="Q" horiz-adv-x="2134" d="M131 207q-4 18 -4 34q0 30 12 54l6 18l7 15l2 4v4l4 4l6 2l2 4v4q1 1 5 7.5t7 7.5q30 24 64 34q41 12 91 12q13 0 27 -1q24 0 52 -4q3 -3 7 -4.5t8 -2.5t5 -2q14 -3 23 -8q21 -12 30 -24q19 -13 23 -35v-4l2 -2q0 -6 -1 -10l-1 -5q0 -8 -6 -14q-2 -6 -10 -13.5t-9 -9.5 q-5 -5 -11 -8.5t-10.5 -5.5t-9.5 -3t-8.5 -1h-6.5t-4 0.5t-1 -0.5q-14 5 -14 14q7 17 18 17h2h2q4 0 4 -2q9 0 27 6q24 15 16 39q-3 13 -12 24q-28 19 -29 19q-6 2 -18 8q-3 0 -10 1t-10 1q-8 2 -23 2t-25 -2q-38 -5 -84 -45q-14 -8 -34 -33l-4 -8l-2 -2v2v-6l-11 -4l-2 -2 v-4v-3q-1 -2 -2 -5.5t-2 -4.5q-6 -12 -6 -43q9 -32 20 -41q2 -7 7 -12q1 -2 6 -5l4 -3q1 -1 3.5 -2t5 -3t3.5 -5l4 -2l10 -3q8 -4 9 -6h6q8 -4 14 -4l17 -4q4 0 9 -2t7 -2q49 0 74 8q28 5 71 25q77 31 152 71q83 47 149 80q80 44 164 82q50 26 166 74q180 74 359 123 q23 5 87 20.5t103 22.5q71 9 124 9q41 0 71 -5q38 -8 102 -41q52 -27 78 -78q2 -3 12 -28l2 -5v-8v-2l4 -4v-8q2 -6 2 -19v-14q0 -4 -1 -13.5t-1 -12.5q-15 -59 -47 -99q-32 -45 -70 -67q-2 -3 -10 -9t-10 -8q-12 -8 -21 -10q-1 -1 -40 -23q-72 -33 -168 -49 q-90 -17 -164 -17q-86 0 -150 23q-47 20 -65 35q-31 25 -45 62q-4 24 -2 39v4v2v4l2 6q6 12 10 18q12 25 47 48q45 23 104 41q41 5 71 5q13 0 24 -1q28 0 45 -11q9 -2 22 -10q2 -4 4 -4l2 -2v-2q2 -2 2 0l7 -2v-2l2 -4q1 -1 2 -4t2 -4q0 -3 2 -9q0 -6 6 -10v-20 q-9 -24 -14 -39q-21 -27 -48 -31q-6 -2 -14 -2l-4 -6q-37 10 -37 41q0 15 12 26.5t27 10.5h2q9 0 12 2q5 0 5 8q4 2 4 4v2v4l-4 4q1 1 4 -4v4h-4v2q-4 4 -11 4q-8 8 -28 15q-18 5 -40 5t-48 -5q-36 -5 -97 -33q-24 -20 -30 -37q-9 -9 -9 -12l-2 -4v-2v-4q0 -19 2 -23 q19 -30 37 -43q30 -20 60 -25q32 -14 87 -14q22 0 48 2q26 0 76 12l18 2l16 5q7 2 20.5 5t20.5 5q74 15 148 53q17 5 37 18q3 8 12 11l18 12q32 25 52 55q19 31 22 66q6 4 6 14v10v7v2l-6 6v2v4v-4l-2 4q0 8 -4 12q-18 37 -49 49q-15 15 -35 21q-5 2 -17.5 6t-17.5 6 q-56 14 -124 14q-25 0 -52 -2q-17 0 -48 -3.5t-40 -4.5q-19 -2 -49.5 -8t-42.5 -8q-176 -41 -357 -111q-59 -23 -169 -69q-20 -10 -75.5 -37.5t-84.5 -42.5q-72 -35 -154 -82q-70 -44 -147 -82q-103 -35 -162 -43h-19h-20q-4 0 -12 1t-11 1l-12 6l-8 2h-8l-6 4h-2l-2 2 q-18 3 -25 8q-11 5 -16 13q-16 4 -19 12q-30 26 -47 78z" />
<glyph unicode="R" d="M186 532q0 2 1 6.5t1 6.5q8 30 33 30q40 0 103 -63q6 -3 6 -12l8 -8q9 37 29 60t45 23q11 0 26 -6q25 -14 25 -47q0 -12 -2.5 -25.5t-6.5 -29.5t-5 -21q-27 -104 -80 -227q-5 -10 -19 -10q-13 0 -18 10q-42 95 -92 191q-4 9 -18.5 33.5t-25 47.5t-10.5 41zM231 516 q0 -13 31 -72q2 1 3.5 4.5t2.5 4.5q4 8 13 8q-11 29 -23 41q-4 4 -12 9.5t-10 8.5q-1 0 -2.5 1t-2.5 1v-2v-4zM287 397q3 -5 8 -14t8 -14q-5 12 -8 28h-8zM328 315q0 4 2 4q-2 0 -2 3v-7zM422 492q2 6 2 14q-2 -4 -2 -14zM559 1411v10q0 7 5.5 12t13.5 5q10 0 16 -6 q78 -89 113 -215v-5q0 -16 -19 -16q-17 0 -20 16q-21 84 -68 150q3 -76 29 -166q2 2 8 2q4 0 16 -6q1 -2 5.5 -6t5.5 -6q53 12 59 63q11 28 12 33q29 78 37 96q18 41 39 62q40 36 72 36q18 0 32 -14q21 -21 21 -55q0 -23 -7.5 -50.5t-21.5 -62t-16 -39.5q-53 -140 -146 -284 q-7 -7 -16 -7t-16 7q-154 198 -154 446zM662 1120q20 -48 65 -110q4 5 10.5 14t10.5 14l-3 2q-15 15 -40.5 43.5t-32.5 36.5h-8h-2zM727 1116q11 -14 21 -22q5 47 22 102q-20 -51 -25 -72q-10 -10 -14 -10q-1 0 -2 1t-2 1zM791 1118q46 90 75 176q1 4 11 27t10 35 q0 24 -6 39q-64 -137 -90 -277zM799 717q0 70 35 108q16 19 36 19q18 0 33 -15q17 -17 17 -38q0 -23 -27 -68q0 -2 -1 -3.5t-1 -2.5q-2 -10 -2 -29h10q17 32 24.5 44.5t24.5 34.5t35.5 31t40.5 9q9 0 29 -4q16 -6 16 -19q0 -1 -1 -4t-1 -4q-19 -49 -54 -95.5t-94 -108.5 t-75 -80q-7 -7 -17 -7q-18 0 -18 17v4q4 24 4 39q0 25 -7 84t-7 88zM807 1358q5 7 12.5 21.5t9.5 17.5q-2 -3 -7 -11.5t-7 -11.5zM852 578q2 -6 2 -17q38 47 80 92q-4 0 -16 4q-21 -49 -50 -75q-4 -4 -12 -4h-4z" />
<glyph unicode="S" horiz-adv-x="1421" d="M199 725q-1 4 -1 8q0 10 6 17q10 10 25 8q24 -5 41.5 -14.5t31.5 -27t20.5 -28.5t19.5 -38t18 -36q8 289 75 345q14 12 31 12q24 0 52 -25q12 -10 21 -24t14 -34.5t8.5 -36t4.5 -42t1.5 -38t0.5 -39.5t-1 -32q-3 -61 -15.5 -134.5t-23.5 -118t-34 -130.5q8 -10 1.5 -22 t-18.5 -15q-3 -1 -6 -1l-18 8q-207 173 -254 438zM375 514q2 -4 10 -12q2 1 6 14q-6 -2 -16 -2zM442 408q16 -21 17 -23q15 66 26 102q-2 -1 -3.5 -4t-2.5 -4q0 -6 -4 -6q0 -45 -26 -61q-2 0 -4 -2t-3 -2zM498 854q10 -28 18 -88q0 18 -3.5 48.5t-4.5 41.5q-2 0 -5 -1t-5 -1 zM910 1089q1 26 14 46q12 16 16 22q2 1 5 4t5 4q6 10 18 12t21 -6q24 -7 39 -20q6 2 19 -2q47 -25 61 -100q20 43 49 94q2 4 12 19.5t13.5 21t13.5 17t17 15.5t19 7q9 2 17 2h6q13 -3 23 -13q5 -6 5 -12q0 -5 -3 -10q-79 -194 -195 -445q-6 -12 -22.5 -12t-22.5 12 q-12 28 -35.5 80t-41.5 94.5t-33 81.5q-11 28 -16 45q-4 14 -4 35v8zM995 975q1 -4 5.5 -11.5t5.5 -11.5v6q0 1 -11 17zM1055 1047l2 -7v7h-2zM1108 915q14 34 43.5 102.5t44.5 102.5q-28 -46 -86 -184q-2 -8 -2 -21z" />
<glyph unicode="T" horiz-adv-x="712" d="M137 879q-16 38 -16 69q0 43 31 74q34 38 74 39q30 0 63 -21q10 2 19.5 -3.5t10.5 -16.5q26 -62 29 -125q0 -1 14 -10q89 81 144 121q1 1 7.5 6t8 6.5t7.5 6t9 6t8.5 5.5t9 5.5t9 3.5t10 3t10.5 2t11 1q50 -6 72 -51q16 -33 16 -69q0 -13 -2 -26q-8 -57 -42.5 -105 t-82.5 -83t-97.5 -68t-95 -76t-67.5 -90q-8 -13 -23 -13q-4 0 -10 1q-22 6 -20 29q4 32 4 63q0 81 -25 152q-13 34 -45 90t-41 74zM194 888q4 -9 15 -20q4 -8 15.5 -26.5t15.5 -26.5q29 -59 36 -86q19 -65 25 -137q13 14 30 29.5t28.5 25t36.5 28.5t31.5 23.5t38.5 27 t34 24.5q109 81 133 145q-119 -111 -213 -166q-11 -8 -19 -8q-8 -6 -22 -17l-14 -12q-11 -10 -24 -9.5t-22 11.5q-43 63 -96 178q-6 20 14.5 31t32.5 -4q12 -12 13 -14q-13 22 -15 33q-11 1 -21 1q-56 0 -55 -22q0 -4 2 -9zM340 795q0 -1 3 -6t3 -9q3 -9 0 -20q0 -4 4 -8 q10 8 31 26.5t31 26.5q-31 7 -43 12q-24 -21 -29 -22zM420 866q14 -3 29 -3t30 3q0 2 2 2q15 13 45.5 40t46.5 40q12 15 37 0q1 4 2.5 6.5l3 5t2.5 3.5q-9 9 -24 9q-52 0 -174 -106z" />
<glyph unicode="U" horiz-adv-x="1662" d="M47 729q0 44 37 57q25 5 29 5q62 0 120 -54q0 4 1.5 11t1.5 10q22 77 38 100q29 43 74 43q41 0 68 -43q22 -37 22 -92q0 -25 -5.5 -70.5t-6.5 -60.5q-13 -180 -20 -260q-1 -13 -10.5 -22t-20.5 -9q-14 0 -19 8q-19 20 -73.5 74.5t-83.5 85.5q-12 13 -42.5 44t-51.5 55 t-37 48q-21 31 -21 70zM88 727q0 -11 4.5 -23t14 -24t17 -20.5t20 -21.5t16.5 -17q22 -22 89 -86.5t101 -100.5q4 29 7.5 81t4.5 58q15 157 15 195q0 55 -21 70q-6 6 -12 6q-15 0 -31 -27q-33 -67 -37 -176q0 -14 -8 -21.5t-20 -7.5t-20.5 7t-8.5 20v2q0 37 8 70h-8 q-14 12 -47.5 27.5t-56.5 15.5q-24 0 -27 -19v-8zM539 940q0 112 43 172q41 59 100 59q3 0 8 -1t8 -1q57 -9 86 -98q30 -89 45 -180q32 88 115 227q25 42 49.5 69.5t57.5 39.5q19 8 41 8q54 0 92 -51q33 -41 33 -107q0 -21 -9 -73q-18 -86 -55 -179q-40 -98 -157 -323 t-162 -355q-6 -15 -19 -18q-3 -10 -14 -10q-9 0 -15 6l-4 8q-12 8 -12 19q-88 143 -145 311q-55 162 -76 334q-10 107 -10 143zM588 932q0 -106 28 -246q45 -241 168 -485q57 135 144 299q102 192 151 301q48 126 54 147q28 91 28 125q0 28 -8 49q-8 25 -24.5 39.5 t-38.5 14.5q-21 0 -39 -15q-9 -7 -16.5 -14.5t-15 -17.5t-12 -16.5t-12 -19t-10 -17.5t-11 -20t-9.5 -18q-51 -92 -80 -168t-33 -155q0 -13 -8 -21t-19 -8t-20 8t-10 21q-3 171 -60 348q-18 46 -39 55q-2 0 -5 1t-5 1q-23 0 -47 -16q-36 -34 -49 -127q0 -7 -1 -22t-1 -23z M1253 651q0 62 15 158q17 84 67 84q13 0 25 -6q32 -14 51 -49t19 -72q27 30 71 51q32 12 60 12q21 0 34 -8q27 -19 27 -57q0 -13 -4 -29q-13 -78 -107 -172q-75 -75 -180 -160q-9 -6 -20 -6q-23 0 -29 21q-29 126 -29 233zM1303 686q0 -108 26 -209q14 12 48 42.5t53 45.5 q5 6 21.5 22.5t23.5 24.5t19.5 22t22 26t17.5 24q23 44 27 72v6q0 6 -5 6q-6 0 -10 -2q-12 0 -37 -10q-23 -13 -43 -36t-29.5 -39.5t-25.5 -47.5q-9 -15 -25 -15q-12 0 -21 8t-9 19t4 17q20 44 51 83q-16 0 -16 19q0 39 -23 65q-21 21 -33 21q-13 0 -18 -12q-7 -11 -12 -58 q-1 -8 -1.5 -21.5t-1.5 -25.5t-3 -24v-23z" />
<glyph unicode="V" horiz-adv-x="1705" d="M135 788q0 40 33 48q16 4 25 4q51 0 104 -45q0 5 1 10t1 6q16 63 33 86q24 37 63 37q38 0 60 -37q16 -31 16 -78q0 -25 -10 -112q-2 -43 -17 -224q-1 -12 -9 -19t-17 -7q-11 0 -17 6q-24 26 -70.5 72t-64.5 65q-13 15 -37 40t-42.5 46.5t-32.5 42.5q-19 30 -19 59z M573 969q0 95 37 147q35 51 86 51q11 0 17 -2q48 -7 73 -84q24 -77 39 -153q29 78 99 194q45 77 90 92q27 9 35 9q48 0 81 -45q27 -36 27 -91q0 -23 -8 -63q-14 -72 -47 -154q-36 -89 -136 -280.5t-139 -300.5q-2 -11 -14 -19q-4 -8 -12 -8q-10 0 -13 6l-2 4q-2 3 -4 4 q-8 4 -8 15q-74 118 -127 268q-44 130 -63 287q-11 102 -11 123zM1188 715q0 69 12 137q13 70 57 70q15 0 23 -4q27 -11 42 -41t15 -62q32 29 62 43q28 8 49 8q18 0 33 -6q22 -15 22 -51q0 -17 -2 -23q-11 -62 -92 -147q-41 -41 -154 -137q-6 -6 -16 -6q-21 0 -27 18 q-24 99 -24 201z" />
<glyph unicode="W" horiz-adv-x="2580" d="M92 713q0 61 29 127q30 67 85 113t120 46q27 0 39 -4q78 -24 106 -88q8 -16 8 -39q0 -20 -10 -32q-15 -19 -37 -19q-20 0 -26 19q-5 15 -5 18q0 1 5 16q0 -4 8 -4q2 0 2 2v2q0 3 -4 7q0 -5 -6 -5q6 6 6 9l-6 18q-18 14 -37 27q-27 10 -47 10q-21 0 -41 -10 q-48 -19 -81.5 -73.5t-41.5 -113.5q-2 -10 -2 -28q0 -54 32.5 -96.5t85 -67t103.5 -37.5t104 -18q79 -9 107 -9q203 0 360 101q119 71 201 192q-84 46 -145 96q-87 66 -132 175q-16 50 -16 102q0 61 29 106q14 25 37 42t47 18q2 0 7 1t7 1q49 0 72 -45q24 -32 45 -117 q1 6 5 17.5t5 15.5q10 30 17 47t25 35t42 18h8q65 -12 82 -108q8 -41 8 -97q0 -8 -1 -23.5t-1 -23.5q-8 -116 -69 -241q130 -59 252 -97q164 -54 421 -114q238 -60 396 -60q68 0 123 8h2q14 0 14 -16q0 -19 -16 -22q-65 -9 -132 -9q-164 0 -380 50q-279 60 -484 129 q-156 54 -221 84q-76 -120 -182 -195q-188 -133 -434 -133q-85 0 -156 14q-179 34 -262 117q-70 64 -70 162zM406 870v2v-2zM903 1147q0 -81 54 -152.5t133 -124.5q4 -2 35.5 -21t48.5 -26q32 66 47 117q20 78 20 143q0 61 -14 107q-2 17 -10.5 32t-22.5 15h-2 q-8 -2 -14.5 -13.5t-12 -29.5t-6.5 -20q-27 -85 -35 -162q-3 -23 -24 -23q-20 0 -23 23q-7 120 -53 219q-20 39 -47 39q-8 0 -12 -2q-37 -19 -56 -70q-6 -24 -6 -51z" />
<glyph unicode="X" horiz-adv-x="2580" d="M92 516q0 16 14 16h3q55 -8 122 -8q158 0 396 60q261 61 422 114q118 37 251 97q-61 125 -69 241q0 8 -1 23.5t-1 23.5q0 56 8 97q17 96 82 108h8q24 0 42 -18t25 -35t17 -47q1 -4 5 -15.5t5 -17.5q21 85 45 117q23 45 72 45q2 0 7 -1t7 -1q24 -1 47 -18t37 -42 q29 -45 29 -106q0 -52 -16 -102q-45 -110 -131 -175q-59 -48 -146 -96q82 -121 201 -192q157 -101 360 -101q28 0 107 9q53 5 104 18t103.5 37.5t85 67t32.5 96.5q0 18 -2 28q-8 59 -41 113.5t-81 73.5q-20 10 -41 10t-48 -10q-13 -9 -36 -27q-1 -3 -3.5 -9t-3.5 -9 q0 -2 7 -9q-7 0 -7 5l-4 -7v-2q0 -2 2 -2q9 0 9 4q4 -12 4 -16q0 -6 -4 -18q-6 -19 -27 -19q-22 0 -37 19q-10 13 -10 32q0 23 8 39q28 63 107 88q12 4 38 4q65 0 120 -46t85 -113q29 -66 29 -127q0 -98 -70 -162q-83 -83 -262 -117q-71 -14 -155 -14q-247 0 -435 133 q-106 75 -182 195q-65 -30 -221 -84q-206 -69 -483 -129q-216 -50 -381 -50q-66 0 -131 9q-17 3 -17 22zM1280 1083q0 -65 20 -143q13 -46 48 -117q17 7 48.5 26t35.5 21q79 52 132.5 124t53.5 153q0 27 -6 51q-19 51 -56 70q-4 2 -12 2q-28 0 -47 -39q-46 -99 -53 -219 q-3 -23 -23 -23q-21 0 -24 23q-8 77 -35 162q-1 2 -6.5 20t-12 29.5t-14.5 13.5h-2q-14 0 -22.5 -15t-10.5 -32q-14 -46 -14 -107zM2116 870v2v-2z" />
<glyph unicode="Y" horiz-adv-x="2777" d="M121 760q0 101 80 155q31 17 61 17q32 0 55 -17q39 -22 39 -63q0 -19 -8 -35q-6 -16 -22 -16q-10 0 -19 6q-31 11 -31 47q0 2 1.5 6.5t1.5 7.5q2 0 2 4q-2 7 -13 7h-4q-24 0 -63 -39q-21 -38 -21 -78q0 -36 15 -70q25 -71 94.5 -106t156.5 -35q32 0 48 2q153 21 354 166 q-83 57 -134.5 142.5t-62.5 182.5q0 7 -1 21.5t-1 21.5q0 37 6 78q24 99 74 99q37 -1 68.5 -22t50.5 -50q22 -29 31 -62q6 9 11.5 21t8.5 18q19 34 37.5 55t44.5 29q18 7 33 7q29 0 73 -27q48 -42 48 -105q4 -18 4 -55q0 -178 -191 -346q5 -4 37 -16q107 -29 238 -29h26 q116 0 291 25q43 4 166.5 18.5t209 21.5t167.5 7h49q378 0 563 -152q6 -6 6 -12q0 -8 -5.5 -13.5t-12.5 -5.5t-17 7q-94 80 -226.5 109.5t-297.5 29.5h-26q-124 -4 -364 -31.5t-273 -30.5q-194 -22 -279 -22q-174 0 -299 57h-2q-70 -53 -172 -112q-128 -69 -240 -80 q-14 -2 -43 -2q-112 0 -202.5 56t-114.5 157q-6 24 -6 51zM700 1083q0 -37 9 -77q15 -77 63.5 -144.5t118.5 -109.5q172 139 192 288q4 24 4 47q0 46 -15.5 81t-51.5 38h-4q-9 0 -17.5 -3.5t-16 -11.5t-12 -14t-11.5 -17t-9 -13q-33 -47 -53 -109q-6 -18 -25 -18 q-25 0 -28 24q-7 84 -39 125q-30 30 -37 35q-3 1 -8 2.5t-8 2.5t-4 1q-6 2 -15 2q-7 0 -12 -8q-21 -58 -21 -121z" />
<glyph unicode="Z" horiz-adv-x="2777" d="M121 590q0 6 6 12q185 152 563 152h49q82 0 167.5 -7t209 -21.5t166.5 -18.5q175 -25 291 -25h26q131 0 238 29q32 12 37 16q-191 168 -191 346q0 33 5 55q0 64 47 105q44 27 73 27q16 0 33 -7q26 -8 44.5 -29t37.5 -55q3 -5 9 -17.5t12 -21.5q9 35 30 62q19 29 50.5 50 t68.5 22q50 0 74 -99q6 -41 6 -78q0 -7 -1 -21.5t-1 -21.5q-11 -97 -62.5 -182.5t-134.5 -142.5q201 -144 355 -166q16 -2 47 -2q87 0 157 35t95 106q14 32 14 70q0 40 -21 78q-39 39 -63 39h-4q-10 0 -12 -7l2 -4q0 -3 1 -7.5t1 -6.5q0 -36 -31 -47q-9 -6 -18 -6 q-17 0 -23 16q-8 16 -8 35q0 41 39 63q23 17 55 17q30 0 61 -17q80 -54 80 -155q0 -27 -6 -51q-24 -101 -114.5 -157t-202.5 -56q-29 0 -43 2q-112 11 -240 80q-102 59 -172 112h-2q-125 -57 -299 -57q-85 0 -279 22q-34 3 -273 30.5t-363 31.5h-27q-165 0 -297.5 -29.5 t-226.5 -109.5q-10 -7 -17 -7t-12.5 5.5t-5.5 13.5zM1735 1087q0 -23 4 -47q20 -149 192 -288q70 42 119 109.5t64 144.5q8 36 8 77q0 63 -21 121q-5 8 -12 8q-8 0 -14 -2q-1 0 -4.5 -1t-8.5 -2.5t-8 -2.5q-7 -5 -37 -35q-32 -41 -39 -125q-3 -24 -28 -24q-19 0 -25 18 q-20 62 -53 109q-2 2 -9 13t-11.5 17t-12 14t-16 11.5t-17.5 3.5h-4q-36 -3 -51.5 -38t-15.5 -81z" />
<glyph unicode="[" d="M186 532q0 2 1 6.5t1 6.5q8 30 33 30q40 0 103 -63q6 -3 6 -12l8 -8q9 37 29 60t45 23q11 0 26 -6q25 -14 25 -47q0 -12 -2.5 -25.5t-6.5 -29.5t-5 -21q-27 -104 -80 -227q-5 -10 -19 -10q-13 0 -18 10q-42 95 -92 191q-4 9 -18.5 33.5t-25 47.5t-10.5 41zM231 516 q0 -13 31 -72q2 1 3.5 4.5t2.5 4.5q4 8 13 8q-11 29 -23 41q-4 4 -12 9.5t-10 8.5q-1 0 -2.5 1t-2.5 1v-2v-4zM287 397q3 -5 8 -14t8 -14q-5 12 -8 28h-8zM328 315q0 4 2 4q-2 0 -2 3v-7zM422 492q2 6 2 14q-2 -4 -2 -14zM559 1411v10q0 7 5.5 12t13.5 5q10 0 16 -6 q78 -89 113 -215v-5q0 -16 -19 -16q-17 0 -20 16q-21 84 -68 150q3 -76 29 -166q2 2 8 2q4 0 16 -6q1 -2 5.5 -6t5.5 -6q53 12 59 63q11 28 12 33q29 78 37 96q18 41 39 62q40 36 72 36q18 0 32 -14q21 -21 21 -55q0 -23 -7.5 -50.5t-21.5 -62t-16 -39.5q-53 -140 -146 -284 q-7 -7 -16 -7t-16 7q-154 198 -154 446zM662 1120q20 -48 65 -110q4 5 10.5 14t10.5 14l-3 2q-15 15 -40.5 43.5t-32.5 36.5h-8h-2zM727 1116q11 -14 21 -22q5 47 22 102q-20 -51 -25 -72q-10 -10 -14 -10q-1 0 -2 1t-2 1zM791 1118q46 90 75 176q1 4 11 27t10 35 q0 24 -6 39q-64 -137 -90 -277zM799 717q0 70 35 108q16 19 36 19q18 0 33 -15q17 -17 17 -38q0 -23 -27 -68q0 -2 -1 -3.5t-1 -2.5q-2 -10 -2 -29h10q17 32 24.5 44.5t24.5 34.5t35.5 31t40.5 9q9 0 29 -4q16 -6 16 -19q0 -1 -1 -4t-1 -4q-19 -49 -54 -95.5t-94 -108.5 t-75 -80q-7 -7 -17 -7q-18 0 -18 17v4q4 24 4 39q0 25 -7 84t-7 88zM807 1358q5 7 12.5 21.5t9.5 17.5q-2 -3 -7 -11.5t-7 -11.5zM852 578q2 -6 2 -17q38 47 80 92q-4 0 -16 4q-21 -49 -50 -75q-4 -4 -12 -4h-4z" />
<glyph unicode="\" d="M186 532q0 2 1 6.5t1 6.5q8 30 33 30q40 0 103 -63q6 -3 6 -12l8 -8q9 37 29 60t45 23q11 0 26 -6q25 -14 25 -47q0 -12 -2.5 -25.5t-6.5 -29.5t-5 -21q-27 -104 -80 -227q-5 -10 -19 -10q-13 0 -18 10q-42 95 -92 191q-4 9 -18.5 33.5t-25 47.5t-10.5 41zM231 516 q0 -13 31 -72q2 1 3.5 4.5t2.5 4.5q4 8 13 8q-11 29 -23 41q-4 4 -12 9.5t-10 8.5q-1 0 -2.5 1t-2.5 1v-2v-4zM287 397q3 -5 8 -14t8 -14q-5 12 -8 28h-8zM328 315q0 4 2 4q-2 0 -2 3v-7zM422 492q2 6 2 14q-2 -4 -2 -14zM559 1411v10q0 7 5.5 12t13.5 5q10 0 16 -6 q78 -89 113 -215v-5q0 -16 -19 -16q-17 0 -20 16q-21 84 -68 150q3 -76 29 -166q2 2 8 2q4 0 16 -6q1 -2 5.5 -6t5.5 -6q53 12 59 63q11 28 12 33q29 78 37 96q18 41 39 62q40 36 72 36q18 0 32 -14q21 -21 21 -55q0 -23 -7.5 -50.5t-21.5 -62t-16 -39.5q-53 -140 -146 -284 q-7 -7 -16 -7t-16 7q-154 198 -154 446zM662 1120q20 -48 65 -110q4 5 10.5 14t10.5 14l-3 2q-15 15 -40.5 43.5t-32.5 36.5h-8h-2zM727 1116q11 -14 21 -22q5 47 22 102q-20 -51 -25 -72q-10 -10 -14 -10q-1 0 -2 1t-2 1zM791 1118q46 90 75 176q1 4 11 27t10 35 q0 24 -6 39q-64 -137 -90 -277zM799 717q0 70 35 108q16 19 36 19q18 0 33 -15q17 -17 17 -38q0 -23 -27 -68q0 -2 -1 -3.5t-1 -2.5q-2 -10 -2 -29h10q17 32 24.5 44.5t24.5 34.5t35.5 31t40.5 9q9 0 29 -4q16 -6 16 -19q0 -1 -1 -4t-1 -4q-19 -49 -54 -95.5t-94 -108.5 t-75 -80q-7 -7 -17 -7q-18 0 -18 17v4q4 24 4 39q0 25 -7 84t-7 88zM807 1358q5 7 12.5 21.5t9.5 17.5q-2 -3 -7 -11.5t-7 -11.5zM852 578q2 -6 2 -17q38 47 80 92q-4 0 -16 4q-21 -49 -50 -75q-4 -4 -12 -4h-4z" />
<glyph unicode="]" d="M186 532q0 2 1 6.5t1 6.5q8 30 33 30q40 0 103 -63q6 -3 6 -12l8 -8q9 37 29 60t45 23q11 0 26 -6q25 -14 25 -47q0 -12 -2.5 -25.5t-6.5 -29.5t-5 -21q-27 -104 -80 -227q-5 -10 -19 -10q-13 0 -18 10q-42 95 -92 191q-4 9 -18.5 33.5t-25 47.5t-10.5 41zM231 516 q0 -13 31 -72q2 1 3.5 4.5t2.5 4.5q4 8 13 8q-11 29 -23 41q-4 4 -12 9.5t-10 8.5q-1 0 -2.5 1t-2.5 1v-2v-4zM287 397q3 -5 8 -14t8 -14q-5 12 -8 28h-8zM328 315q0 4 2 4q-2 0 -2 3v-7zM422 492q2 6 2 14q-2 -4 -2 -14zM559 1411v10q0 7 5.5 12t13.5 5q10 0 16 -6 q78 -89 113 -215v-5q0 -16 -19 -16q-17 0 -20 16q-21 84 -68 150q3 -76 29 -166q2 2 8 2q4 0 16 -6q1 -2 5.5 -6t5.5 -6q53 12 59 63q11 28 12 33q29 78 37 96q18 41 39 62q40 36 72 36q18 0 32 -14q21 -21 21 -55q0 -23 -7.5 -50.5t-21.5 -62t-16 -39.5q-53 -140 -146 -284 q-7 -7 -16 -7t-16 7q-154 198 -154 446zM662 1120q20 -48 65 -110q4 5 10.5 14t10.5 14l-3 2q-15 15 -40.5 43.5t-32.5 36.5h-8h-2zM727 1116q11 -14 21 -22q5 47 22 102q-20 -51 -25 -72q-10 -10 -14 -10q-1 0 -2 1t-2 1zM791 1118q46 90 75 176q1 4 11 27t10 35 q0 24 -6 39q-64 -137 -90 -277zM799 717q0 70 35 108q16 19 36 19q18 0 33 -15q17 -17 17 -38q0 -23 -27 -68q0 -2 -1 -3.5t-1 -2.5q-2 -10 -2 -29h10q17 32 24.5 44.5t24.5 34.5t35.5 31t40.5 9q9 0 29 -4q16 -6 16 -19q0 -1 -1 -4t-1 -4q-19 -49 -54 -95.5t-94 -108.5 t-75 -80q-7 -7 -17 -7q-18 0 -18 17v4q4 24 4 39q0 25 -7 84t-7 88zM807 1358q5 7 12.5 21.5t9.5 17.5q-2 -3 -7 -11.5t-7 -11.5zM852 578q2 -6 2 -17q38 47 80 92q-4 0 -16 4q-21 -49 -50 -75q-4 -4 -12 -4h-4z" />
<glyph unicode="^" d="M186 532q0 2 1 6.5t1 6.5q8 30 33 30q40 0 103 -63q6 -3 6 -12l8 -8q9 37 29 60t45 23q11 0 26 -6q25 -14 25 -47q0 -12 -2.5 -25.5t-6.5 -29.5t-5 -21q-27 -104 -80 -227q-5 -10 -19 -10q-13 0 -18 10q-42 95 -92 191q-4 9 -18.5 33.5t-25 47.5t-10.5 41zM231 516 q0 -13 31 -72q2 1 3.5 4.5t2.5 4.5q4 8 13 8q-11 29 -23 41q-4 4 -12 9.5t-10 8.5q-1 0 -2.5 1t-2.5 1v-2v-4zM287 397q3 -5 8 -14t8 -14q-5 12 -8 28h-8zM328 315q0 4 2 4q-2 0 -2 3v-7zM422 492q2 6 2 14q-2 -4 -2 -14zM559 1411v10q0 7 5.5 12t13.5 5q10 0 16 -6 q78 -89 113 -215v-5q0 -16 -19 -16q-17 0 -20 16q-21 84 -68 150q3 -76 29 -166q2 2 8 2q4 0 16 -6q1 -2 5.5 -6t5.5 -6q53 12 59 63q11 28 12 33q29 78 37 96q18 41 39 62q40 36 72 36q18 0 32 -14q21 -21 21 -55q0 -23 -7.5 -50.5t-21.5 -62t-16 -39.5q-53 -140 -146 -284 q-7 -7 -16 -7t-16 7q-154 198 -154 446zM662 1120q20 -48 65 -110q4 5 10.5 14t10.5 14l-3 2q-15 15 -40.5 43.5t-32.5 36.5h-8h-2zM727 1116q11 -14 21 -22q5 47 22 102q-20 -51 -25 -72q-10 -10 -14 -10q-1 0 -2 1t-2 1zM791 1118q46 90 75 176q1 4 11 27t10 35 q0 24 -6 39q-64 -137 -90 -277zM799 717q0 70 35 108q16 19 36 19q18 0 33 -15q17 -17 17 -38q0 -23 -27 -68q0 -2 -1 -3.5t-1 -2.5q-2 -10 -2 -29h10q17 32 24.5 44.5t24.5 34.5t35.5 31t40.5 9q9 0 29 -4q16 -6 16 -19q0 -1 -1 -4t-1 -4q-19 -49 -54 -95.5t-94 -108.5 t-75 -80q-7 -7 -17 -7q-18 0 -18 17v4q4 24 4 39q0 25 -7 84t-7 88zM807 1358q5 7 12.5 21.5t9.5 17.5q-2 -3 -7 -11.5t-7 -11.5zM852 578q2 -6 2 -17q38 47 80 92q-4 0 -16 4q-21 -49 -50 -75q-4 -4 -12 -4h-4z" />
<glyph unicode="_" d="M186 532q0 2 1 6.5t1 6.5q8 30 33 30q40 0 103 -63q6 -3 6 -12l8 -8q9 37 29 60t45 23q11 0 26 -6q25 -14 25 -47q0 -12 -2.5 -25.5t-6.5 -29.5t-5 -21q-27 -104 -80 -227q-5 -10 -19 -10q-13 0 -18 10q-42 95 -92 191q-4 9 -18.5 33.5t-25 47.5t-10.5 41zM231 516 q0 -13 31 -72q2 1 3.5 4.5t2.5 4.5q4 8 13 8q-11 29 -23 41q-4 4 -12 9.5t-10 8.5q-1 0 -2.5 1t-2.5 1v-2v-4zM287 397q3 -5 8 -14t8 -14q-5 12 -8 28h-8zM328 315q0 4 2 4q-2 0 -2 3v-7zM422 492q2 6 2 14q-2 -4 -2 -14zM559 1411v10q0 7 5.5 12t13.5 5q10 0 16 -6 q78 -89 113 -215v-5q0 -16 -19 -16q-17 0 -20 16q-21 84 -68 150q3 -76 29 -166q2 2 8 2q4 0 16 -6q1 -2 5.5 -6t5.5 -6q53 12 59 63q11 28 12 33q29 78 37 96q18 41 39 62q40 36 72 36q18 0 32 -14q21 -21 21 -55q0 -23 -7.5 -50.5t-21.5 -62t-16 -39.5q-53 -140 -146 -284 q-7 -7 -16 -7t-16 7q-154 198 -154 446zM662 1120q20 -48 65 -110q4 5 10.5 14t10.5 14l-3 2q-15 15 -40.5 43.5t-32.5 36.5h-8h-2zM727 1116q11 -14 21 -22q5 47 22 102q-20 -51 -25 -72q-10 -10 -14 -10q-1 0 -2 1t-2 1zM791 1118q46 90 75 176q1 4 11 27t10 35 q0 24 -6 39q-64 -137 -90 -277zM799 717q0 70 35 108q16 19 36 19q18 0 33 -15q17 -17 17 -38q0 -23 -27 -68q0 -2 -1 -3.5t-1 -2.5q-2 -10 -2 -29h10q17 32 24.5 44.5t24.5 34.5t35.5 31t40.5 9q9 0 29 -4q16 -6 16 -19q0 -1 -1 -4t-1 -4q-19 -49 -54 -95.5t-94 -108.5 t-75 -80q-7 -7 -17 -7q-18 0 -18 17v4q4 24 4 39q0 25 -7 84t-7 88zM807 1358q5 7 12.5 21.5t9.5 17.5q-2 -3 -7 -11.5t-7 -11.5zM852 578q2 -6 2 -17q38 47 80 92q-4 0 -16 4q-21 -49 -50 -75q-4 -4 -12 -4h-4z" />
<glyph unicode="`" d="M186 532q0 2 1 6.5t1 6.5q8 30 33 30q40 0 103 -63q6 -3 6 -12l8 -8q9 37 29 60t45 23q11 0 26 -6q25 -14 25 -47q0 -12 -2.5 -25.5t-6.5 -29.5t-5 -21q-27 -104 -80 -227q-5 -10 -19 -10q-13 0 -18 10q-42 95 -92 191q-4 9 -18.5 33.5t-25 47.5t-10.5 41zM231 516 q0 -13 31 -72q2 1 3.5 4.5t2.5 4.5q4 8 13 8q-11 29 -23 41q-4 4 -12 9.5t-10 8.5q-1 0 -2.5 1t-2.5 1v-2v-4zM287 397q3 -5 8 -14t8 -14q-5 12 -8 28h-8zM328 315q0 4 2 4q-2 0 -2 3v-7zM422 492q2 6 2 14q-2 -4 -2 -14zM559 1411v10q0 7 5.5 12t13.5 5q10 0 16 -6 q78 -89 113 -215v-5q0 -16 -19 -16q-17 0 -20 16q-21 84 -68 150q3 -76 29 -166q2 2 8 2q4 0 16 -6q1 -2 5.5 -6t5.5 -6q53 12 59 63q11 28 12 33q29 78 37 96q18 41 39 62q40 36 72 36q18 0 32 -14q21 -21 21 -55q0 -23 -7.5 -50.5t-21.5 -62t-16 -39.5q-53 -140 -146 -284 q-7 -7 -16 -7t-16 7q-154 198 -154 446zM662 1120q20 -48 65 -110q4 5 10.5 14t10.5 14l-3 2q-15 15 -40.5 43.5t-32.5 36.5h-8h-2zM727 1116q11 -14 21 -22q5 47 22 102q-20 -51 -25 -72q-10 -10 -14 -10q-1 0 -2 1t-2 1zM791 1118q46 90 75 176q1 4 11 27t10 35 q0 24 -6 39q-64 -137 -90 -277zM799 717q0 70 35 108q16 19 36 19q18 0 33 -15q17 -17 17 -38q0 -23 -27 -68q0 -2 -1 -3.5t-1 -2.5q-2 -10 -2 -29h10q17 32 24.5 44.5t24.5 34.5t35.5 31t40.5 9q9 0 29 -4q16 -6 16 -19q0 -1 -1 -4t-1 -4q-19 -49 -54 -95.5t-94 -108.5 t-75 -80q-7 -7 -17 -7q-18 0 -18 17v4q4 24 4 39q0 25 -7 84t-7 88zM807 1358q5 7 12.5 21.5t9.5 17.5q-2 -3 -7 -11.5t-7 -11.5zM852 578q2 -6 2 -17q38 47 80 92q-4 0 -16 4q-21 -49 -50 -75q-4 -4 -12 -4h-4z" />
<glyph unicode="a" horiz-adv-x="1173" d="M38 498v19q0 47 10 91q12 53 40 103t66 87t89.5 60.5t108.5 24.5q64 0 112 -46q33 -31 32 -69q0 -18 -7 -37q-11 -29 -56 -52q-28 -14 -49 -14q-13 0 -24 5q-15 9 -20.5 26.5t0.5 30.5q3 8 12.5 20t16.5 21t11.5 19.5t-1 19.5t-21.5 16q-8 3 -17 3q-39 0 -112 -48 q-59 -42 -90 -92q-37 -62 -43 -134q-1 -11 -1 -23q0 -60 24 -117q20 -48 61 -78q42 -29 90 -40q44 -10 96 -10h10q58 1 106.5 10t95.5 23q93 27 174 76t163 137t119.5 135t123.5 164q15 19 22 29q5 9 13.5 13t16.5 -1q2 -2 2 -8q0 -11 -6 -20q-30 -43 -41 -64 q-63 -96 -116 -164.5t-121 -138.5t-148.5 -121t-175.5 -86q-59 -22 -118.5 -35.5t-125.5 -14.5h-9q-61 0 -113 14q-56 15 -103.5 56t-73.5 105q-21 49 -23 105z" />
<glyph unicode="b" horiz-adv-x="1128" d="M-86 238q0 11 6 20q30 43 41 64q63 96 116 164.5t121 138t148.5 120.5t175.5 86q59 22 118.5 35.5t125.5 15.5h12q60 0 110 -14q56 -16 103.5 -56.5t73.5 -104.5q21 -49 23 -105v-19q0 -47 -10 -91q-12 -53 -40 -103t-66 -87t-89.5 -60.5t-108.5 -24.5q-64 0 -112 46 q-33 31 -32 69q0 18 7 37q11 29 56 52q28 14 49 14q13 0 24 -5q15 -9 20.5 -26.5t-0.5 -30.5q-4 -9 -16.5 -25t-20 -27t-4.5 -23.5t23 -21.5q8 -3 17 -3q39 0 112 49q59 42 90 92q38 62 44 134q1 12 1 25q0 59 -24 115q-25 59 -80 90q-56 32 -124 36q-20 1 -39 1 q-47 -1 -92 -7q-63 -8 -124 -26q-76 -22 -147 -63.5t-127 -89.5t-113 -112.5t-100.5 -120.5t-94.5 -126q-13 -19 -20 -28q-5 -9 -14 -13.5t-17 0.5q-2 2 -2 9z" />
<glyph unicode="c" horiz-adv-x="980" d="M-76 295q0 33 19.5 66t46.5 53q68 49 172 49q59 0 219 -33q134 -29 215 -29q226 0 338 138q5 8 16 8q5 -1 4 -2l-2 -10q0 -5 -4 -13q-67 -80 -157 -124t-193 -44h-6q-43 1 -88.5 8.5t-107 21.5t-87.5 19q-79 15 -131 17q-18 0 -43 -3t-55 -10t-50 -21.5t-20 -33.5 q0 -17 17 -37q19 -19 24 -36q0 -2 1 -5.5t1 -5.5q0 -22 -19 -36.5t-42 -14.5q-16 0 -33 10q-35 25 -35 68z" />
<glyph unicode="d" horiz-adv-x="980" d="M-72 229q0 5 4 13q67 80 157.5 124t193.5 44h6q43 -1 89 -9t105.5 -22t87.5 -19q72 -13 131 -16q18 0 43 3t55 10t50 21.5t20 33.5q0 18 -16 37q-21 21 -25 36q0 2 -1 5.5t-1 5.5q0 22 19.5 36.5t42.5 14.5q16 0 33 -10q34 -24 34 -68q0 -33 -19 -66.5t-46 -52.5 q-68 -49 -172 -49q-59 0 -219 33q-129 28 -215 28q-227 0 -338 -137q-5 -8 -17 -8q-4 1 -4 2z" />
<glyph unicode="e" horiz-adv-x="811" d="M-37 803q0 160 96 256q62 59 150 59q68 0 125 -38t80 -105q10 -33 10 -70q0 -92 -51 -135q-15 -12 -39 -12q-36 0 -58 22q-10 13 -10 31q0 10 2 14q9 19 43 27q42 9 51 16q17 11 17 41q0 39 -25 84q-22 36 -62 58t-83 22q-13 0 -33 -4q-43 -9 -75.5 -37t-51.5 -67 t-28 -81t-9 -85v-21q3 -84 39 -163.5t96 -141.5q71 -74 166.5 -111.5t200.5 -37.5q200 0 322 75q8 4 12 4q26 0 26 -9q0 -6 -11 -15q-41 -37 -156 -73q-105 -32 -190 -32h-5q-107 0 -205 37q-108 41 -189.5 124.5t-123.5 193.5q-31 91 -31 174z" />
<glyph unicode="f" horiz-adv-x="915" d="M-25 1011q41 37 156 73q105 32 190 32h5q106 0 204 -37q108 -41 190.5 -124.5t123.5 -192.5q30 -88 30 -174q0 -160 -96 -256q-63 -60 -149 -60q-68 0 -125 38.5t-80 105.5q-10 33 -10 69q0 93 51 136q15 12 39 12q34 0 57 -23q10 -13 10 -30q0 -11 -2 -15 q-9 -17 -43 -26q-39 -9 -51 -17q-16 -11 -16 -41q0 -41 24 -84q21 -36 62 -58t84 -22q8 0 33 5q56 12 94.5 57.5t53.5 99.5t15 113v20q-3 84 -39 164.5t-96 141.5q-143 149 -366 149q-198 0 -322 -76q-8 -4 -12 -4q-26 0 -26 9q0 6 11 15z" />
<glyph unicode="g" horiz-adv-x="1185" d="M43 371q0 55 12 92q30 79 81 133t119.5 81.5t138.5 38.5t159 11q80 0 236.5 -14.5t226.5 -14.5q128 0 184 17q1 0 5 1t5 1h4q9 1 9 -6q0 -16 -17 -19q-90 -20 -268 -20q-106 0 -340 8h-51q-172 0 -287 -64q-90 -49 -133 -120q-25 -39 -39 -80q-6 -24 -6 -45 q0 -71 84 -115q-4 12 -4 14q0 16 20 19q2 0 7 1t8 1q36 0 36 -37q0 -21 -16 -37.5t-45 -17.5h-6q-65 0 -94 49t-29 123z" />
<glyph unicode="h" horiz-adv-x="1101" d="M-100 215q0 15 16 18q95 21 268 21q106 0 340 -8h51q174 0 287 63q89 49 133 121q25 39 39 80q6 24 6 45q0 71 -84 115q1 -2 2 -5.5t2 -5.5t1 -4q0 -15 -21 -18q-2 0 -6.5 -1t-7.5 -1q-37 0 -37 37q0 21 16 37.5t45 17.5h6q65 0 94 -49t29 -123q0 -55 -12 -92 q-30 -79 -81 -133t-119.5 -81.5t-138.5 -38.5t-159 -11q-80 0 -236.5 14t-226.5 14q-131 0 -184 -16q-1 0 -5 -1t-5 -1h-4q-8 -1 -8 6z" />
<glyph unicode="i" horiz-adv-x="1091" d="M76 403q0 61 33 144q57 124 135 151q21 9 43 9q65 0 92 -52q6 -15 6 -30q0 -29 -17.5 -50.5t-43.5 -21.5q-20 0 -35 10q-19 15 -19 31v4q0 1 15 23q10 13 10 20q0 14 -27 14q-2 0 -6 -1t-6 -1q-27 -9 -61 -57q-70 -90 -70 -190v-19q3 -48 27 -78t67 -30q7 0 27 4 q71 12 168 75q119 75 264 254q24 28 74.5 90t91 109t80.5 86q109 109 161 109q34 0 45 -37q0 -1 1.5 -4t1.5 -4q0 -10 -8.5 -16.5t-18.5 -6.5q-17 0 -23 16q0 2 -4 2q-12 0 -52.5 -32.5t-47.5 -42.5q-44 -39 -96 -101q-64 -72 -168 -205q-180 -212 -332 -292 q-98 -54 -168 -54q-19 0 -29 2q-42 9 -69 41t-35 76q-6 27 -6 55z" />
<glyph unicode="j" horiz-adv-x="1009" d="M-68 274q0 10 8.5 16.5t18.5 6.5q17 0 23 -16q0 -2 4 -2q12 0 52.5 32.5t47.5 42.5q44 39 96 101q70 79 168 204q85 100 164.5 173t167.5 120q98 54 168 54q19 0 29 -2q42 -9 69 -41t35 -76q6 -27 6 -56q0 -61 -33 -143q-57 -124 -135 -151q-21 -9 -43 -9q-65 0 -92 52 q-6 15 -6 30q0 29 17.5 50.5t43.5 21.5q20 0 35 -10q19 -15 19 -31v-4q0 -1 -15 -23q-10 -13 -10 -20q0 -14 27 -14q2 0 6 1t6 1q27 9 61 57q70 90 70 190v19q-3 48 -27 78t-67 30q-7 0 -27 -4q-71 -12 -168 -75q-119 -75 -264 -254q-24 -28 -74.5 -90t-91 -109t-80.5 -86 q-109 -109 -161 -109q-35 0 -46 37q0 1 -1 4t-1 4z" />
<glyph unicode="k" horiz-adv-x="1681" d="M-21 280q-3 18 -3 37q0 34 10 68q14 53 55 82q23 18 54 16.5t46 -24.5q4 -14 4 -26q0 -24 -16 -42q-13 -11 -45.5 -20.5t-46.5 -22.5q-9 -14 -11 -29.5t0.5 -26.5t8.5 -32q31 -108 129 -166q86 -46 191 -46q82 0 177 28q131 37 239 117.5t183 197.5q-12 10 -23 24 t-26 37.5t-20 30.5q-25 47 -35 99q-4 21 -3 42q0 32 8 64q14 54 56 86q35 28 73 27q22 -1 44 -9q61 -26 76 -96q5 -22 4 -46q0 -103 -86 -249q10 -10 16 -10q57 -38 125.5 -55.5t126.5 -19.5h15q53 0 123 12q80 14 129.5 27t132.5 38q23 7 30 -6q1 -3 1 -5q0 -7 -14 -12 q-2 -1 -5 -1q-81 -26 -139 -42t-145.5 -32.5t-154.5 -16.5t-140.5 18.5t-127.5 59.5q-2 -2 -2 0q-113 -166 -278 -258q-64 -36 -140 -60.5t-160 -32.5q-33 -3 -64 -3q-49 0 -95 8q-76 12 -142 56.5t-104 119.5q-23 42 -31 94zM891 610q6 -50 31 -95t65 -83q8 20 8 27 q46 82 58 143q6 38 6 62v12q-7 35 -35 54q-21 14 -44 14q-8 0 -16 -1q-32 -6 -51 -38q-23 -37 -23 -78q0 -8 1 -17z" />
<glyph unicode="l" horiz-adv-x="1734" d="M-63 393q0 18 18 21q233 75 412 75q183 0 295 -83l2 2v-2q113 166 278 258q76 43 173.5 69.5t191.5 26.5q112 0 202 -44.5t138 -140.5q32 -59 32 -135q0 -101 -63 -145q-22 -16 -49 -16q-36 0 -51 24q-5 20 -5 25q0 23 17 43q13 11 45.5 20t46.5 23q12 14 12 39 q0 19 -10 49q-31 108 -129 166q-80 45 -193 45q-83 0 -176 -27q-131 -37 -239 -117.5t-183 -197.5q9 -8 19.5 -20t17 -21.5t17 -26t16.5 -24.5q37 -69 37 -146q0 -92 -64 -145q-35 -27 -73 -27q-41 0 -75 28.5t-44 76.5q-4 14 -4 45q0 105 86 249q-11 11 -17 11 q-109 73 -264 73q-204 0 -387 -55q-1 0 -4 -1t-4 -1q-3 0 -7.5 -0.5t-6.5 -1t-4 0t-3 2.5t-1 5zM598 86q6 -31 29 -49.5t51 -18.5q42 0 65 39t23 82q0 99 -96 191q-8 -20 -8 -27q-46 -82 -58 -143q-6 -27 -6 -60v-14z" />
<glyph unicode="m" horiz-adv-x="1128" d="M-33 565q0 73 47.5 132.5t128.5 80.5q21 6 43 6q88 0 131 -67q17 -27 17 -58q0 -62 -53 -67h-7q-11 0 -18.5 9t-7.5 20q0 19 18 22v10q0 37 -19 57.5t-54 20.5h-5q-35 0 -65 -18q-53 -24 -84 -72q-23 -36 -23 -76q0 -75 70 -135q85 -74 219 -74q81 0 158 25 q181 58 346 161t278 238q5 8 17 8q4 0 8 1t4.5 1t1 -2t0.5 -8q0 -7 -6 -16q-111 -133 -258.5 -238t-312.5 -172q-122 -51 -240 -51q-164 0 -268 107q-66 69 -66 155z" />
<glyph unicode="n" horiz-adv-x="1128" d="M-33 313q0 8 6 17q223 267 572 409q124 52 239 52q165 0 269 -107q65 -68 65 -156q0 -73 -47.5 -132.5t-128.5 -80.5q-21 -6 -43 -6q-87 0 -131 68q-16 26 -16 57q0 63 53 68h6q12 0 19.5 -9t7.5 -20q0 -19 -19 -22v-11q0 -37 19.5 -57.5t54.5 -20.5h4q34 0 66 19 q53 24 84 72q22 34 22 75q0 76 -70 136q-84 73 -219 73q-84 0 -157 -24q-181 -58 -346.5 -161.5t-278.5 -238.5q-5 -8 -16 -8q-4 0 -8 -1t-5 -1t-1.5 2t-0.5 8z" />
<glyph unicode="o" horiz-adv-x="2580" d="M-47 465q0 102 61 178q55 73 144.5 108t210.5 54q104 16 229 16q417 0 868 -231q6 -3 55.5 -27.5t61 -30t56 -26.5t62.5 -27.5t57.5 -22t64.5 -21t60 -14.5t66.5 -12t63.5 -3h6q97 0 188 26.5t169.5 87.5t111.5 148q4 7 -2 14q15 0 15 -20q0 -7 -2 -9q-45 -126 -150 -198 t-246 -90q-34 -5 -78 -5q-61 0 -129.5 13.5t-117.5 28t-126 48.5t-110.5 50.5t-116.5 58.5q-427 217 -821 217q-34 0 -104 -4q-74 -5 -127 -12t-124.5 -24.5t-125.5 -52t-86 -85.5q-37 -58 -37 -129q0 -39 14 -86q15 -59 56 -100q24 -30 69 -47q23 -13 39 -13q57 0 80 111 q-6 6 -6 14q0 9 6.5 17t15.5 8q12 0 17 -8q31 -34 31 -78q0 -38 -24.5 -68.5t-66.5 -40.5q-12 -4 -38 -4q-63 0 -119.5 45.5t-87.5 106.5q-33 71 -33 139z" />
<glyph unicode="p" horiz-adv-x="2580" d="M-47 334q0 6 2 8q46 126 150 198.5t245 90.5q27 4 78 4q61 0 129.5 -13.5t117.5 -28t126 -48.5t110.5 -50.5t116.5 -58.5q427 -217 821 -217q35 0 105 4q74 5 127 12t124.5 24.5t125.5 52t86 85.5q37 58 37 129q0 35 -15 86q-16 62 -55 101q-23 30 -70 47q-21 12 -39 12 q-57 0 -80 -110q7 -7 7 -15q0 -9 -7 -16.5t-16 -7.5q-11 0 -16 8q-31 34 -31 78q0 38 24 68t66 40q12 4 39 4q63 0 119.5 -45t87.5 -106q33 -71 33 -140q0 -101 -62 -178q-55 -73 -144 -108t-210 -54q-104 -16 -230 -16q-415 0 -868 232q-6 3 -55.5 27.5t-61 30t-56 26.5 t-62.5 27.5t-57.5 22t-64.5 21t-60 14.5t-66.5 12t-63.5 3h-6q-97 0 -188 -26.5t-169.5 -87.5t-111.5 -148q-1 -3 -0.5 -5t1.5 -4t2 -3q3 -3 -1 -3q-14 0 -14 21z" />
<glyph unicode="q" horiz-adv-x="2619" d="M68 809q14 95 76 169.5t145 115.5t178 55q60 9 120 9q226 0 447 -126q104 -56 186 -137.5t121 -181.5q106 0 302.5 -29t283.5 -33q28 -1 55 -1q151 0 254 34q166 52 248 139q9 10 17 1q3 -3 3 -6q0 -4 -5 -9q-9 -14 -21.5 -27t-34 -31.5t-24.5 -21.5q-161 -116 -440 -116 q-25 0 -50 1q-93 3 -284.5 27t-290.5 27q5 -13 10 -60q4 -24 4 -48q0 -106 -74 -230q-82 -132 -207 -164q-32 -9 -64 -9t-65 9q-63 19 -102 72q-34 43 -42 103q-3 21 -3 41q0 37 10 71q16 53 49.5 96t75.5 71t94.5 48t102.5 30t104 15h39q-63 130 -209 225 q-222 152 -471 158h-18q-125 0 -235 -40q-118 -43 -181 -143q-28 -49 -34 -105q-3 -17 -3 -34q0 -37 11 -72q14 -49 53.5 -86.5t97.5 -48.5q26 -6 52 -6q29 0 57 7q55 14 94 53q36 39 36 81q0 6 -1 11v16q-4 -11 -14 -18.5t-21 -3.5q-30 7 -39 34.5t6 51.5q17 26 47 26 q4 0 8 -1q36 -4 58 -34q22 -32 22 -76q0 -19 -4 -40q-17 -61 -72 -107.5t-120 -58.5q-29 -4 -57 -4q-42 0 -83 9q-68 16 -112 60q-48 44 -70 109q-17 52 -17 104q0 15 1 29zM522 754zM862 418q-3 -17 -3 -33q0 -34 11 -66q12 -52 54.5 -83t97.5 -31h7q57 0 111 31 q56 33 94.5 85t61.5 114.5t23 119.5q2 5 2 14q0 7 -1 15q-3 20 -4.5 28t-6 27.5t-6.5 28.5q-297 0 -402 -156q-31 -42 -39 -94z" />
<glyph unicode="r" horiz-adv-x="2619" d="M67 496q0 5 5 10q9 14 21.5 27t34 31.5t24.5 21.5q160 115 439 115q25 0 50 -1q93 -3 285 -26.5t291 -26.5q-7 17 -11 60q-4 24 -4 48q0 106 74 230q82 132 207 164q32 9 64 9q33 0 65 -10q64 -18 102 -71q34 -43 42 -103q3 -21 3 -41q0 -37 -10 -71q-16 -53 -49.5 -96 t-75.5 -71t-94.5 -48t-102.5 -30t-104 -15h-39q63 -130 209 -225q222 -152 471 -158h18q125 0 235 40q118 43 181 142q28 49 34 105q2 17 3 35q-1 37 -11 71q-14 49 -53.5 87t-97.5 49q-26 6 -52 6q-29 0 -57 -8q-54 -14 -93 -52q-36 -39 -36 -81q0 -5 1 -11v-16 q4 11 14 18.5t21 3.5q29 -7 38 -34.5t-6 -51.5q-17 -27 -46 -27q-5 0 -9 1q-35 5 -57 34q-23 34 -23 78q0 19 4 39q17 61 72.5 107.5t120.5 58.5q29 4 57 5q40 0 82 -10q68 -16 113 -60q48 -44 70 -110q17 -51 18 -103q0 -14 -2 -29q-10 -72 -48.5 -133t-94.5 -102 t-121.5 -68t-135.5 -37q-60 -9 -120 -9q-226 0 -447 126q-104 56 -186 137.5t-121 181.5q-106 0 -302.5 29t-283.5 33q-28 1 -55 1q-152 0 -254 -34q-166 -52 -248 -139q-6 -6 -12 -4q-8 2 -7 8zM1251 724q2 -16 9 -43t8 -34q296 0 401 156q31 42 39 93q3 17 3 34 q0 33 -11 65q-12 52 -54.5 83.5t-97.5 31.5h-7q-57 0 -111 -31q-56 -33 -94.5 -85t-61.5 -114.5t-23 -119.5q-1 -10 -1 -19t1 -17zM2048 561z" />
<glyph unicode="s" horiz-adv-x="727" d="M-8 559q-6 35 -6 68q0 56 18 104q14 39 41 72l6 8l2 2l2 2l4 4q1 1 3.5 3t3.5 3l8 9q2 2 7 6t7 6q12 8 16 10q56 37 117 37q13 0 27 -2q3 0 33 -6q1 -1 4 -2t4 -2h4l4 -2l6 -5l4 -2q2 0 4 -2q2 -1 7.5 -4t7.5 -4q2 -2 6 -5t6 -5l10 -10q2 -2 5 -6.5t5 -6.5q14 -20 25 -45 q4 -8 8 -24q0 -1 1 -4.5t1 -5.5t1 -5.5t1 -5.5q1 -8 1 -17q0 -22 -7 -50q-1 -2 -8 -17l-2 -6q-5 -11 -16 -15.5t-21 -0.5t-14.5 16.5t0.5 22.5q1 1 2 3t2 3l2 2l2 2l4 4q0 2 4 6q10 20 10 43q0 17 -6 35q-7 22 -20 37q-7 7 -9 8q-3 5 -8 8l-8 8q-2 1 -5 3.5t-5 3.5l-2 2 l-4 2l-6 2l-2 2h-3l-8 2q-12 6 -24 6q-9 1 -17 1q-50 0 -102 -30q-2 -2 -6 -5t-6 -5t-7.5 -5t-7.5 -5l-4 -6q-1 -1 -4 -3t-4 -3l-2 -5l-2 -2l-6 -8q-17 -19 -35 -61q-14 -40 -14 -82q0 -32 8 -66q16 -81 69 -137q31 -31 62 -47q12 -8 16 -10l19 -8q2 -1 16 -6.5t21 -6.5 q6 -2 18 -5t18 -5q7 0 20 -2t19 -2h39h19h10l8 2q26 2 72 14q3 1 8 3t8 3q9 3 17 7l10 4l2 2l4 2q8 3 16 8q57 28 105 76q45 45 71 84q33 54 43 76q11 19 15 28q3 6 8 21l8 18q2 6 7.5 8.5t11.5 -0.5q9 -2 9 -10q0 -2 -1 -6l-6 -21l-23 -53q-21 -48 -43 -80q-23 -40 -74 -94 q-55 -55 -112 -84q-2 -2 -8.5 -5t-8.5 -5l-4 -2h-2l-2 -2l-8 -4l-18 -6q-11 -4 -19 -9q-68 -15 -80 -16l-10 -2h-10q-8 -2 -23 -2h-41q-7 1 -21.5 3t-21.5 3q-16 2 -43 10q-8 2 -22.5 8t-18.5 7l-20 10q-10 2 -21 10q-41 23 -69 55q-7 7 -8 9l-9 8l-12 18l-12 21 q-2 3 -6.5 9t-6.5 9q-1 3 -4 10.5t-4 10.5q-1 5 -4 11.5t-4 8.5l-6 23z" />
<glyph unicode="t" horiz-adv-x="727" d="M-12 508q2 6 6 20q5 15 22 54q21 48 43 80q23 40 74 94q54 54 113 84q2 2 8 5.5t8 4.5l4 2h2l2 2l9 4l18 6q12 4 18 8q75 17 80 17l11 2h10q8 2 22 2h41q7 -1 21.5 -3t21.5 -3q16 -2 43 -10q8 -2 22.5 -8t18.5 -7l21 -10q8 -2 20 -10q42 -23 70 -56l8 -8l8 -8 q1 -2 4 -5.5t5 -6.5t3 -6l13 -21l12 -18q1 -3 4 -10.5t4 -10.5q1 -5 4 -11.5t4 -8.5l7 -23l6 -20q6 -33 5 -65q0 -57 -18 -107q-14 -39 -41 -72l-6 -8l-2 -2l-2 -2l-4 -4q-1 -1 -3 -3.5t-3 -3.5l-8 -8q-2 -2 -7.5 -6t-7.5 -6q-12 -8 -16 -10q-57 -37 -118 -37q-12 0 -25 2 q-3 0 -33 6q-1 1 -4 2t-4 2h-4l-4 2l-7 4l-4 2q-2 0 -4 2q-2 1 -7 4.5t-7 4.5q-2 2 -6 5t-6 5q-1 2 -5.5 5.5t-5.5 4.5q-2 2 -5 6t-5 6q-12 17 -24 45q-6 11 -9 25q0 1 -1 4.5t-1 5.5t-1 5.5t-1 5.5q-1 8 -1 17q0 22 7 50q1 5 5 10l4 6l2 7q5 11 16 15.5t21 0.5t14.5 -16.5 t-0.5 -22.5q-1 -1 -2 -3t-2 -3l-2 -2l-2 -2l-4 -4q0 -1 -5 -6q-10 -20 -10 -43q0 -17 6 -35q7 -20 21 -37l8 -8q3 -5 8 -8q1 -2 8 -9q2 -1 5.5 -3t5.5 -3l2 -2l4 -2l6 -2l2 -2h2l8 -2q12 -6 25 -6q9 -1 18 -1q51 0 101 29q2 2 6 5.5t6 5.5t7 5t7 5l4 6q1 1 4.5 3t4.5 3l2 4 l2 2l6 9q17 19 35 61q14 40 14 82q0 32 -8 65q-16 81 -70 138q-32 32 -61 47q-9 6 -17 10l-18 8q-2 1 -16 6.5t-21 6.5q-6 2 -18.5 5t-18.5 5q-7 0 -20 2t-19 2h-39h-18h-10l-9 -2q-19 -2 -71 -15q-3 -1 -8.5 -3t-8.5 -3q-12 -4 -16 -6l-10 -4l-2 -2l-4 -2q-10 -3 -17 -8 q-55 -27 -104 -76q-48 -48 -72 -84q-33 -54 -43 -76q-8 -14 -14 -28q-3 -6 -8 -21l-9 -18q-4 -15 -18 -8q-9 2 -9 10q0 2 1 6z" />
<glyph unicode="u" horiz-adv-x="1325" d="M6 -449q-5 33 -5 65q1 56 15 112q22 88 72.5 163.5t110.5 138t135 120.5q57 44 222 149.5t243 173.5q-61 71 -86 150q-21 69 -21 139v30q6 86 39 162q13 32 35.5 67.5t52.5 71.5q29 36 67 53q22 10 43 10q15 0 29 -5q39 -12 67 -48t38.5 -80.5t15.5 -92.5q2 -20 2 -37 q0 -25 -4 -45q-19 -179 -172 -342l-31 -31q93 -82 219 -102q35 -5 69 -5q91 0 179 38q15 6 29 -4q14 -11 14 -25q0 -13 -14 -21q-96 -42 -201 -42q-41 0 -82 6q-149 23 -256 118q-65 -57 -162 -124t-174 -116t-164 -120.5t-147 -145.5q-78 -96 -110 -206q-17 -59 -17 -119 q0 -52 13 -103q27 -107 98 -178q3 -1 8 -4.5t12.5 -9.5t14.5 -10q24 8 33 -9q5 -8 29.5 -8t57.5 4t42 4q13 1 21 -9.5t3 -24.5q-15 -59 -71 -59q-27 0 -64 14q-4 0 -12.5 3.5t-12.5 4.5q-58 35 -61 37q-68 50 -109.5 127t-52.5 165zM745 733q9 -123 93 -221q109 105 157 227 q35 88 35 164q0 26 -4 51q-4 21 -11.5 42.5t-19.5 46t-27 37.5q-16 14 -36 16h-5q-19 0 -40 -19q-73 -59 -111 -153q-32 -81 -31 -164q-1 -13 0 -27z" />
<glyph unicode="v" horiz-adv-x="1325" d="M0 -21q0 13 14 21q96 42 201 42q41 0 82 -6q149 -23 256 -118q65 57 162 124t174 116t164 120.5t147 145.5q78 96 110 207q17 60 18 119q0 51 -13 102q-27 107 -98 178q-3 1 -8 5l-12.5 10t-14.5 10q-25 -8 -33 8q-5 8 -29.5 8t-57.5 -4t-42 -4q-13 -1 -21.5 10t-3.5 25 q15 59 71 59q27 0 64 -14q4 0 12.5 -3.5t12.5 -4.5q7 -4 20.5 -11.5t24 -14t17.5 -11.5q67 -50 108.5 -127t52.5 -166q5 -33 5 -65q-1 -56 -15 -112q-22 -88 -72.5 -163.5t-110 -137.5t-134.5 -120q-57 -44 -222 -150t-243 -174q62 -72 86 -149q20 -69 21 -139q1 -15 -1 -31 q-6 -86 -39 -162q-13 -32 -35.5 -67.5t-52.5 -71.5q-29 -36 -67 -53q-22 -10 -43 -10q-15 0 -29 5q-39 12 -67 48t-38.5 80.5t-15.5 92.5q-2 20 -2 37q0 25 4 45q19 179 172 342l31 31q-92 83 -218 103q-35 6 -70 5q-90 0 -179 -38q-15 -6 -29 4t-14 24zM358 -598 q4 -21 11.5 -42.5t20 -46t28.5 -37.5q16 -14 36 -16h4q19 0 40 19q73 59 110 153q32 80 32 164q0 14 -1 27q-9 125 -92 221q-110 -107 -158 -227q-35 -88 -35 -164q0 -26 4 -51z" />
<glyph unicode="w" horiz-adv-x="1148" d="M53 829q0 8 1 24t1 24q2 39 10 93.5t23 122.5t44 116.5t65 54.5h4q17 0 32 -10t19 -25q4 -12 4 -19q0 -28 -29 -57q-10 -11 -32 -28.5t-31 -26.5q-58 -60 -58 -234v-35q0 -179 91 -303q26 -32 51 -49q3 83 41 160q35 71 97 121.5t134 60.5q10 2 29 2q65 0 115.5 -38 t50.5 -101v-14q-8 -72 -86.5 -143.5t-161.5 -108.5q-58 -25 -113 -25q-33 0 -49 4q21 -121 124.5 -190.5t234.5 -69.5h20q142 6 275.5 77.5t236.5 184.5q9 9 16 9h6q2 -1 2 -2q-1 -4 -1 -9q0 -6 -7 -16q-118 -131 -262 -215t-293 -84q-101 0 -190 41q-92 40 -148.5 118.5 t-68.5 174.5q-49 23 -80 63q-117 131 -117 352zM299 453q27 -9 55 -9q68 0 133 41q56 37 115.5 98t59.5 111q0 49 -70 72q-21 6 -41 6q-58 0 -113.5 -39.5t-87.5 -93.5q-51 -80 -51 -186z" />
<glyph unicode="x" horiz-adv-x="1148" d="M55 938q0 1 0.5 2t1 3t0.5 5q0 8 6 17q118 131 262 215t293 84q102 0 191 -41q92 -40 148.5 -118.5t68.5 -174.5q47 -23 80 -64q117 -131 117 -352q0 -8 -1 -23.5t-1 -23.5q-2 -39 -10 -93.5t-23 -122.5t-44 -116.5t-65 -54.5h-4q-17 0 -32 10t-19 25q-4 12 -4 18 q0 28 29 57q10 11 32 29t31 27q57 59 57 233v35q0 180 -90 303q-26 32 -51 49q-3 -82 -41 -159q-35 -71 -97 -122t-134 -61q-10 -2 -29 -2q-64 0 -115 38.5t-51 101.5v14q8 72 86.5 143.5t161.5 108.5q56 24 113 24q33 0 49 -4q-21 121 -124.5 190.5t-234.5 69.5h-20 q-142 -6 -275.5 -77.5t-236.5 -184.5q-8 -8 -17 -8h-7q-1 -1 -1 0zM614 649q0 -48 70 -71q25 -7 41 -7q58 0 113.5 40t87.5 94q51 80 51 186q-24 8 -55 8q-69 0 -134 -41q-56 -36 -115 -97.5t-59 -111.5z" />
<glyph unicode="y" horiz-adv-x="1413" d="M-31 602q0 15 4 47q18 89 87.5 154t156.5 65q29 0 62 -10q42 -14 71 -47t29 -74q0 -14 -2 -20q-5 -26 -30 -54t-50 -28q-22 0 -37 27q-4 8 -4 12q0 14 28.5 39t28.5 45q0 12 -4 18q-19 39 -78 39q-63 0 -108 -31q-44 -28 -71 -78t-29 -104v-6q0 -60 32 -104.5t84 -67.5 t106 -34t109 -11h6q260 0 519 89.5t462 248.5q9 6 19 6q5 0 23 10q6 3 6 -4q0 -9 -9 -18q-294 -225 -632 -322q-221 -65 -386 -65q-89 0 -165 20q-98 26 -163 95.5t-65 162.5z" />
<glyph unicode="z" horiz-adv-x="1413" d="M-31 463q0 10 8 18q294 224 633 322q221 65 385 65q90 0 166 -20q98 -26 163 -95.5t65 -162.5q0 -7 -5 -47q-18 -89 -87 -154t-156 -65q-29 0 -62 10q-42 14 -71 47t-29 74q0 14 2 20q5 26 30 54t50 28q22 0 37 -27q4 -8 4 -12q0 -14 -29 -39t-29 -45q0 -10 5 -18 q19 -39 77 -39q64 0 109 31q44 28 71 78t29 104v6q0 60 -32 104.5t-84 67.5t-106 34t-109 11h-7q-260 0 -519 -89.5t-462 -248.5q-9 -6 -18 -6q-5 0 -23 -10q-5 0 -6 4z" />
<glyph unicode="{" d="M186 532q0 2 1 6.5t1 6.5q8 30 33 30q40 0 103 -63q6 -3 6 -12l8 -8q9 37 29 60t45 23q11 0 26 -6q25 -14 25 -47q0 -12 -2.5 -25.5t-6.5 -29.5t-5 -21q-27 -104 -80 -227q-5 -10 -19 -10q-13 0 -18 10q-42 95 -92 191q-4 9 -18.5 33.5t-25 47.5t-10.5 41zM231 516 q0 -13 31 -72q2 1 3.5 4.5t2.5 4.5q4 8 13 8q-11 29 -23 41q-4 4 -12 9.5t-10 8.5q-1 0 -2.5 1t-2.5 1v-2v-4zM287 397q3 -5 8 -14t8 -14q-5 12 -8 28h-8zM328 315q0 4 2 4q-2 0 -2 3v-7zM422 492q2 6 2 14q-2 -4 -2 -14zM559 1411v10q0 7 5.5 12t13.5 5q10 0 16 -6 q78 -89 113 -215v-5q0 -16 -19 -16q-17 0 -20 16q-21 84 -68 150q3 -76 29 -166q2 2 8 2q4 0 16 -6q1 -2 5.5 -6t5.5 -6q53 12 59 63q11 28 12 33q29 78 37 96q18 41 39 62q40 36 72 36q18 0 32 -14q21 -21 21 -55q0 -23 -7.5 -50.5t-21.5 -62t-16 -39.5q-53 -140 -146 -284 q-7 -7 -16 -7t-16 7q-154 198 -154 446zM662 1120q20 -48 65 -110q4 5 10.5 14t10.5 14l-3 2q-15 15 -40.5 43.5t-32.5 36.5h-8h-2zM727 1116q11 -14 21 -22q5 47 22 102q-20 -51 -25 -72q-10 -10 -14 -10q-1 0 -2 1t-2 1zM791 1118q46 90 75 176q1 4 11 27t10 35 q0 24 -6 39q-64 -137 -90 -277zM799 717q0 70 35 108q16 19 36 19q18 0 33 -15q17 -17 17 -38q0 -23 -27 -68q0 -2 -1 -3.5t-1 -2.5q-2 -10 -2 -29h10q17 32 24.5 44.5t24.5 34.5t35.5 31t40.5 9q9 0 29 -4q16 -6 16 -19q0 -1 -1 -4t-1 -4q-19 -49 -54 -95.5t-94 -108.5 t-75 -80q-7 -7 -17 -7q-18 0 -18 17v4q4 24 4 39q0 25 -7 84t-7 88zM807 1358q5 7 12.5 21.5t9.5 17.5q-2 -3 -7 -11.5t-7 -11.5zM852 578q2 -6 2 -17q38 47 80 92q-4 0 -16 4q-21 -49 -50 -75q-4 -4 -12 -4h-4z" />
<glyph unicode="|" d="M186 532q0 2 1 6.5t1 6.5q8 30 33 30q40 0 103 -63q6 -3 6 -12l8 -8q9 37 29 60t45 23q11 0 26 -6q25 -14 25 -47q0 -12 -2.5 -25.5t-6.5 -29.5t-5 -21q-27 -104 -80 -227q-5 -10 -19 -10q-13 0 -18 10q-42 95 -92 191q-4 9 -18.5 33.5t-25 47.5t-10.5 41zM231 516 q0 -13 31 -72q2 1 3.5 4.5t2.5 4.5q4 8 13 8q-11 29 -23 41q-4 4 -12 9.5t-10 8.5q-1 0 -2.5 1t-2.5 1v-2v-4zM287 397q3 -5 8 -14t8 -14q-5 12 -8 28h-8zM328 315q0 4 2 4q-2 0 -2 3v-7zM422 492q2 6 2 14q-2 -4 -2 -14zM559 1411v10q0 7 5.5 12t13.5 5q10 0 16 -6 q78 -89 113 -215v-5q0 -16 -19 -16q-17 0 -20 16q-21 84 -68 150q3 -76 29 -166q2 2 8 2q4 0 16 -6q1 -2 5.5 -6t5.5 -6q53 12 59 63q11 28 12 33q29 78 37 96q18 41 39 62q40 36 72 36q18 0 32 -14q21 -21 21 -55q0 -23 -7.5 -50.5t-21.5 -62t-16 -39.5q-53 -140 -146 -284 q-7 -7 -16 -7t-16 7q-154 198 -154 446zM662 1120q20 -48 65 -110q4 5 10.5 14t10.5 14l-3 2q-15 15 -40.5 43.5t-32.5 36.5h-8h-2zM727 1116q11 -14 21 -22q5 47 22 102q-20 -51 -25 -72q-10 -10 -14 -10q-1 0 -2 1t-2 1zM791 1118q46 90 75 176q1 4 11 27t10 35 q0 24 -6 39q-64 -137 -90 -277zM799 717q0 70 35 108q16 19 36 19q18 0 33 -15q17 -17 17 -38q0 -23 -27 -68q0 -2 -1 -3.5t-1 -2.5q-2 -10 -2 -29h10q17 32 24.5 44.5t24.5 34.5t35.5 31t40.5 9q9 0 29 -4q16 -6 16 -19q0 -1 -1 -4t-1 -4q-19 -49 -54 -95.5t-94 -108.5 t-75 -80q-7 -7 -17 -7q-18 0 -18 17v4q4 24 4 39q0 25 -7 84t-7 88zM807 1358q5 7 12.5 21.5t9.5 17.5q-2 -3 -7 -11.5t-7 -11.5zM852 578q2 -6 2 -17q38 47 80 92q-4 0 -16 4q-21 -49 -50 -75q-4 -4 -12 -4h-4z" />
<glyph unicode="}" d="M186 532q0 2 1 6.5t1 6.5q8 30 33 30q40 0 103 -63q6 -3 6 -12l8 -8q9 37 29 60t45 23q11 0 26 -6q25 -14 25 -47q0 -12 -2.5 -25.5t-6.5 -29.5t-5 -21q-27 -104 -80 -227q-5 -10 -19 -10q-13 0 -18 10q-42 95 -92 191q-4 9 -18.5 33.5t-25 47.5t-10.5 41zM231 516 q0 -13 31 -72q2 1 3.5 4.5t2.5 4.5q4 8 13 8q-11 29 -23 41q-4 4 -12 9.5t-10 8.5q-1 0 -2.5 1t-2.5 1v-2v-4zM287 397q3 -5 8 -14t8 -14q-5 12 -8 28h-8zM328 315q0 4 2 4q-2 0 -2 3v-7zM422 492q2 6 2 14q-2 -4 -2 -14zM559 1411v10q0 7 5.5 12t13.5 5q10 0 16 -6 q78 -89 113 -215v-5q0 -16 -19 -16q-17 0 -20 16q-21 84 -68 150q3 -76 29 -166q2 2 8 2q4 0 16 -6q1 -2 5.5 -6t5.5 -6q53 12 59 63q11 28 12 33q29 78 37 96q18 41 39 62q40 36 72 36q18 0 32 -14q21 -21 21 -55q0 -23 -7.5 -50.5t-21.5 -62t-16 -39.5q-53 -140 -146 -284 q-7 -7 -16 -7t-16 7q-154 198 -154 446zM662 1120q20 -48 65 -110q4 5 10.5 14t10.5 14l-3 2q-15 15 -40.5 43.5t-32.5 36.5h-8h-2zM727 1116q11 -14 21 -22q5 47 22 102q-20 -51 -25 -72q-10 -10 -14 -10q-1 0 -2 1t-2 1zM791 1118q46 90 75 176q1 4 11 27t10 35 q0 24 -6 39q-64 -137 -90 -277zM799 717q0 70 35 108q16 19 36 19q18 0 33 -15q17 -17 17 -38q0 -23 -27 -68q0 -2 -1 -3.5t-1 -2.5q-2 -10 -2 -29h10q17 32 24.5 44.5t24.5 34.5t35.5 31t40.5 9q9 0 29 -4q16 -6 16 -19q0 -1 -1 -4t-1 -4q-19 -49 -54 -95.5t-94 -108.5 t-75 -80q-7 -7 -17 -7q-18 0 -18 17v4q4 24 4 39q0 25 -7 84t-7 88zM807 1358q5 7 12.5 21.5t9.5 17.5q-2 -3 -7 -11.5t-7 -11.5zM852 578q2 -6 2 -17q38 47 80 92q-4 0 -16 4q-21 -49 -50 -75q-4 -4 -12 -4h-4z" />
<glyph unicode="~" d="M186 532q0 2 1 6.5t1 6.5q8 30 33 30q40 0 103 -63q6 -3 6 -12l8 -8q9 37 29 60t45 23q11 0 26 -6q25 -14 25 -47q0 -12 -2.5 -25.5t-6.5 -29.5t-5 -21q-27 -104 -80 -227q-5 -10 -19 -10q-13 0 -18 10q-42 95 -92 191q-4 9 -18.5 33.5t-25 47.5t-10.5 41zM231 516 q0 -13 31 -72q2 1 3.5 4.5t2.5 4.5q4 8 13 8q-11 29 -23 41q-4 4 -12 9.5t-10 8.5q-1 0 -2.5 1t-2.5 1v-2v-4zM287 397q3 -5 8 -14t8 -14q-5 12 -8 28h-8zM328 315q0 4 2 4q-2 0 -2 3v-7zM422 492q2 6 2 14q-2 -4 -2 -14zM559 1411v10q0 7 5.5 12t13.5 5q10 0 16 -6 q78 -89 113 -215v-5q0 -16 -19 -16q-17 0 -20 16q-21 84 -68 150q3 -76 29 -166q2 2 8 2q4 0 16 -6q1 -2 5.5 -6t5.5 -6q53 12 59 63q11 28 12 33q29 78 37 96q18 41 39 62q40 36 72 36q18 0 32 -14q21 -21 21 -55q0 -23 -7.5 -50.5t-21.5 -62t-16 -39.5q-53 -140 -146 -284 q-7 -7 -16 -7t-16 7q-154 198 -154 446zM662 1120q20 -48 65 -110q4 5 10.5 14t10.5 14l-3 2q-15 15 -40.5 43.5t-32.5 36.5h-8h-2zM727 1116q11 -14 21 -22q5 47 22 102q-20 -51 -25 -72q-10 -10 -14 -10q-1 0 -2 1t-2 1zM791 1118q46 90 75 176q1 4 11 27t10 35 q0 24 -6 39q-64 -137 -90 -277zM799 717q0 70 35 108q16 19 36 19q18 0 33 -15q17 -17 17 -38q0 -23 -27 -68q0 -2 -1 -3.5t-1 -2.5q-2 -10 -2 -29h10q17 32 24.5 44.5t24.5 34.5t35.5 31t40.5 9q9 0 29 -4q16 -6 16 -19q0 -1 -1 -4t-1 -4q-19 -49 -54 -95.5t-94 -108.5 t-75 -80q-7 -7 -17 -7q-18 0 -18 17v4q4 24 4 39q0 25 -7 84t-7 88zM807 1358q5 7 12.5 21.5t9.5 17.5q-2 -3 -7 -11.5t-7 -11.5zM852 578q2 -6 2 -17q38 47 80 92q-4 0 -16 4q-21 -49 -50 -75q-4 -4 -12 -4h-4z" />
<glyph unicode="&#xad;" d="M186 532q0 2 1 6.5t1 6.5q8 30 33 30q40 0 103 -63q6 -3 6 -12l8 -8q9 37 29 60t45 23q11 0 26 -6q25 -14 25 -47q0 -12 -2.5 -25.5t-6.5 -29.5t-5 -21q-27 -104 -80 -227q-5 -10 -19 -10q-13 0 -18 10q-42 95 -92 191q-4 9 -18.5 33.5t-25 47.5t-10.5 41zM231 516 q0 -13 31 -72q2 1 3.5 4.5t2.5 4.5q4 8 13 8q-11 29 -23 41q-4 4 -12 9.5t-10 8.5q-1 0 -2.5 1t-2.5 1v-2v-4zM287 397q3 -5 8 -14t8 -14q-5 12 -8 28h-8zM328 315q0 4 2 4q-2 0 -2 3v-7zM422 492q2 6 2 14q-2 -4 -2 -14zM559 1411v10q0 7 5.5 12t13.5 5q10 0 16 -6 q78 -89 113 -215v-5q0 -16 -19 -16q-17 0 -20 16q-21 84 -68 150q3 -76 29 -166q2 2 8 2q4 0 16 -6q1 -2 5.5 -6t5.5 -6q53 12 59 63q11 28 12 33q29 78 37 96q18 41 39 62q40 36 72 36q18 0 32 -14q21 -21 21 -55q0 -23 -7.5 -50.5t-21.5 -62t-16 -39.5q-53 -140 -146 -284 q-7 -7 -16 -7t-16 7q-154 198 -154 446zM662 1120q20 -48 65 -110q4 5 10.5 14t10.5 14l-3 2q-15 15 -40.5 43.5t-32.5 36.5h-8h-2zM727 1116q11 -14 21 -22q5 47 22 102q-20 -51 -25 -72q-10 -10 -14 -10q-1 0 -2 1t-2 1zM791 1118q46 90 75 176q1 4 11 27t10 35 q0 24 -6 39q-64 -137 -90 -277zM799 717q0 70 35 108q16 19 36 19q18 0 33 -15q17 -17 17 -38q0 -23 -27 -68q0 -2 -1 -3.5t-1 -2.5q-2 -10 -2 -29h10q17 32 24.5 44.5t24.5 34.5t35.5 31t40.5 9q9 0 29 -4q16 -6 16 -19q0 -1 -1 -4t-1 -4q-19 -49 -54 -95.5t-94 -108.5 t-75 -80q-7 -7 -17 -7q-18 0 -18 17v4q4 24 4 39q0 25 -7 84t-7 88zM807 1358q5 7 12.5 21.5t9.5 17.5q-2 -3 -7 -11.5t-7 -11.5zM852 578q2 -6 2 -17q38 47 80 92q-4 0 -16 4q-21 -49 -50 -75q-4 -4 -12 -4h-4z" />
<glyph unicode="&#x2000;" horiz-adv-x="735" />
<glyph unicode="&#x2001;" horiz-adv-x="1470" />
<glyph unicode="&#x2002;" horiz-adv-x="735" />
<glyph unicode="&#x2003;" horiz-adv-x="1470" />
<glyph unicode="&#x2004;" horiz-adv-x="490" />
<glyph unicode="&#x2005;" horiz-adv-x="367" />
<glyph unicode="&#x2006;" horiz-adv-x="245" />
<glyph unicode="&#x2007;" horiz-adv-x="245" />
<glyph unicode="&#x2008;" horiz-adv-x="183" />
<glyph unicode="&#x2009;" horiz-adv-x="294" />
<glyph unicode="&#x200a;" horiz-adv-x="81" />
<glyph unicode="&#x2010;" d="M186 532q0 2 1 6.5t1 6.5q8 30 33 30q40 0 103 -63q6 -3 6 -12l8 -8q9 37 29 60t45 23q11 0 26 -6q25 -14 25 -47q0 -12 -2.5 -25.5t-6.5 -29.5t-5 -21q-27 -104 -80 -227q-5 -10 -19 -10q-13 0 -18 10q-42 95 -92 191q-4 9 -18.5 33.5t-25 47.5t-10.5 41zM231 516 q0 -13 31 -72q2 1 3.5 4.5t2.5 4.5q4 8 13 8q-11 29 -23 41q-4 4 -12 9.5t-10 8.5q-1 0 -2.5 1t-2.5 1v-2v-4zM287 397q3 -5 8 -14t8 -14q-5 12 -8 28h-8zM328 315q0 4 2 4q-2 0 -2 3v-7zM422 492q2 6 2 14q-2 -4 -2 -14zM559 1411v10q0 7 5.5 12t13.5 5q10 0 16 -6 q78 -89 113 -215v-5q0 -16 -19 -16q-17 0 -20 16q-21 84 -68 150q3 -76 29 -166q2 2 8 2q4 0 16 -6q1 -2 5.5 -6t5.5 -6q53 12 59 63q11 28 12 33q29 78 37 96q18 41 39 62q40 36 72 36q18 0 32 -14q21 -21 21 -55q0 -23 -7.5 -50.5t-21.5 -62t-16 -39.5q-53 -140 -146 -284 q-7 -7 -16 -7t-16 7q-154 198 -154 446zM662 1120q20 -48 65 -110q4 5 10.5 14t10.5 14l-3 2q-15 15 -40.5 43.5t-32.5 36.5h-8h-2zM727 1116q11 -14 21 -22q5 47 22 102q-20 -51 -25 -72q-10 -10 -14 -10q-1 0 -2 1t-2 1zM791 1118q46 90 75 176q1 4 11 27t10 35 q0 24 -6 39q-64 -137 -90 -277zM799 717q0 70 35 108q16 19 36 19q18 0 33 -15q17 -17 17 -38q0 -23 -27 -68q0 -2 -1 -3.5t-1 -2.5q-2 -10 -2 -29h10q17 32 24.5 44.5t24.5 34.5t35.5 31t40.5 9q9 0 29 -4q16 -6 16 -19q0 -1 -1 -4t-1 -4q-19 -49 -54 -95.5t-94 -108.5 t-75 -80q-7 -7 -17 -7q-18 0 -18 17v4q4 24 4 39q0 25 -7 84t-7 88zM807 1358q5 7 12.5 21.5t9.5 17.5q-2 -3 -7 -11.5t-7 -11.5zM852 578q2 -6 2 -17q38 47 80 92q-4 0 -16 4q-21 -49 -50 -75q-4 -4 -12 -4h-4z" />
<glyph unicode="&#x2011;" d="M186 532q0 2 1 6.5t1 6.5q8 30 33 30q40 0 103 -63q6 -3 6 -12l8 -8q9 37 29 60t45 23q11 0 26 -6q25 -14 25 -47q0 -12 -2.5 -25.5t-6.5 -29.5t-5 -21q-27 -104 -80 -227q-5 -10 -19 -10q-13 0 -18 10q-42 95 -92 191q-4 9 -18.5 33.5t-25 47.5t-10.5 41zM231 516 q0 -13 31 -72q2 1 3.5 4.5t2.5 4.5q4 8 13 8q-11 29 -23 41q-4 4 -12 9.5t-10 8.5q-1 0 -2.5 1t-2.5 1v-2v-4zM287 397q3 -5 8 -14t8 -14q-5 12 -8 28h-8zM328 315q0 4 2 4q-2 0 -2 3v-7zM422 492q2 6 2 14q-2 -4 -2 -14zM559 1411v10q0 7 5.5 12t13.5 5q10 0 16 -6 q78 -89 113 -215v-5q0 -16 -19 -16q-17 0 -20 16q-21 84 -68 150q3 -76 29 -166q2 2 8 2q4 0 16 -6q1 -2 5.5 -6t5.5 -6q53 12 59 63q11 28 12 33q29 78 37 96q18 41 39 62q40 36 72 36q18 0 32 -14q21 -21 21 -55q0 -23 -7.5 -50.5t-21.5 -62t-16 -39.5q-53 -140 -146 -284 q-7 -7 -16 -7t-16 7q-154 198 -154 446zM662 1120q20 -48 65 -110q4 5 10.5 14t10.5 14l-3 2q-15 15 -40.5 43.5t-32.5 36.5h-8h-2zM727 1116q11 -14 21 -22q5 47 22 102q-20 -51 -25 -72q-10 -10 -14 -10q-1 0 -2 1t-2 1zM791 1118q46 90 75 176q1 4 11 27t10 35 q0 24 -6 39q-64 -137 -90 -277zM799 717q0 70 35 108q16 19 36 19q18 0 33 -15q17 -17 17 -38q0 -23 -27 -68q0 -2 -1 -3.5t-1 -2.5q-2 -10 -2 -29h10q17 32 24.5 44.5t24.5 34.5t35.5 31t40.5 9q9 0 29 -4q16 -6 16 -19q0 -1 -1 -4t-1 -4q-19 -49 -54 -95.5t-94 -108.5 t-75 -80q-7 -7 -17 -7q-18 0 -18 17v4q4 24 4 39q0 25 -7 84t-7 88zM807 1358q5 7 12.5 21.5t9.5 17.5q-2 -3 -7 -11.5t-7 -11.5zM852 578q2 -6 2 -17q38 47 80 92q-4 0 -16 4q-21 -49 -50 -75q-4 -4 -12 -4h-4z" />
<glyph unicode="&#x2012;" d="M186 532q0 2 1 6.5t1 6.5q8 30 33 30q40 0 103 -63q6 -3 6 -12l8 -8q9 37 29 60t45 23q11 0 26 -6q25 -14 25 -47q0 -12 -2.5 -25.5t-6.5 -29.5t-5 -21q-27 -104 -80 -227q-5 -10 -19 -10q-13 0 -18 10q-42 95 -92 191q-4 9 -18.5 33.5t-25 47.5t-10.5 41zM231 516 q0 -13 31 -72q2 1 3.5 4.5t2.5 4.5q4 8 13 8q-11 29 -23 41q-4 4 -12 9.5t-10 8.5q-1 0 -2.5 1t-2.5 1v-2v-4zM287 397q3 -5 8 -14t8 -14q-5 12 -8 28h-8zM328 315q0 4 2 4q-2 0 -2 3v-7zM422 492q2 6 2 14q-2 -4 -2 -14zM559 1411v10q0 7 5.5 12t13.5 5q10 0 16 -6 q78 -89 113 -215v-5q0 -16 -19 -16q-17 0 -20 16q-21 84 -68 150q3 -76 29 -166q2 2 8 2q4 0 16 -6q1 -2 5.5 -6t5.5 -6q53 12 59 63q11 28 12 33q29 78 37 96q18 41 39 62q40 36 72 36q18 0 32 -14q21 -21 21 -55q0 -23 -7.5 -50.5t-21.5 -62t-16 -39.5q-53 -140 -146 -284 q-7 -7 -16 -7t-16 7q-154 198 -154 446zM662 1120q20 -48 65 -110q4 5 10.5 14t10.5 14l-3 2q-15 15 -40.5 43.5t-32.5 36.5h-8h-2zM727 1116q11 -14 21 -22q5 47 22 102q-20 -51 -25 -72q-10 -10 -14 -10q-1 0 -2 1t-2 1zM791 1118q46 90 75 176q1 4 11 27t10 35 q0 24 -6 39q-64 -137 -90 -277zM799 717q0 70 35 108q16 19 36 19q18 0 33 -15q17 -17 17 -38q0 -23 -27 -68q0 -2 -1 -3.5t-1 -2.5q-2 -10 -2 -29h10q17 32 24.5 44.5t24.5 34.5t35.5 31t40.5 9q9 0 29 -4q16 -6 16 -19q0 -1 -1 -4t-1 -4q-19 -49 -54 -95.5t-94 -108.5 t-75 -80q-7 -7 -17 -7q-18 0 -18 17v4q4 24 4 39q0 25 -7 84t-7 88zM807 1358q5 7 12.5 21.5t9.5 17.5q-2 -3 -7 -11.5t-7 -11.5zM852 578q2 -6 2 -17q38 47 80 92q-4 0 -16 4q-21 -49 -50 -75q-4 -4 -12 -4h-4z" />
<glyph unicode="&#x2013;" horiz-adv-x="1324" d="M186 532q0 2 1 6.5t1 6.5q10 30 39 30q46 0 119 -63q7 -3 7 -12l9 -8q11 37 34 60t52 23q13 0 30 -6q29 -14 29 -47q0 -12 -3 -25.5t-7.5 -29.5t-5.5 -21q-31 -104 -93 -227q-6 -10 -22 -10q-15 0 -21 10q-48 95 -106 191q-5 9 -22 33.5t-29 47.5t-12 41zM238 516 q0 -13 36 -72q2 1 4 4.5t3 4.5q5 8 15 8q-13 29 -27 41q-4 4 -13.5 9.5t-11.5 8.5q-1 0 -3 1t-3 1v-2v-4zM303 397q4 -5 9.5 -14t9.5 -14q-6 12 -10 28h-9zM351 315q0 4 2 4q-2 0 -2 3v-7zM460 492q2 6 2 14q-2 -4 -2 -14zM619 1411v10q0 7 6 12t16 5q11 0 18 -6 q91 -89 131 -215v-5q0 -16 -22 -16q-20 0 -23 16q-24 84 -79 150q4 -76 34 -166q2 2 9 2q5 0 19 -6q1 -2 6 -6t6 -6q62 12 69 63q13 28 14 33q33 78 43 96q20 41 45 62q46 36 83 36q21 0 37 -14q25 -21 25 -55q0 -23 -9 -50.5t-25 -62t-18 -39.5q-62 -140 -170 -284 q-8 -7 -18.5 -7t-18.5 7q-178 198 -178 446zM738 1120q23 -48 75 -110q5 5 12.5 14t12.5 14l-4 2q-17 15 -46.5 43.5t-37.5 36.5h-10h-2zM813 1116q13 -14 25 -22q6 47 25 102q-23 -51 -29 -72q-11 -10 -16 -10q-1 0 -2 1t-3 1zM888 1118q53 90 87 176q1 4 12.5 27t11.5 35 q0 24 -7 39q-74 -137 -104 -277zM897 717q0 70 40 108q19 19 42 19q21 0 38 -15q20 -17 20 -38q0 -23 -31 -68q0 -2 -1 -3.5t-1 -2.5q-3 -10 -3 -29h12q20 32 28.5 44.5t28 34.5t41 31t47.5 9q10 0 33 -4q19 -6 19 -19q0 -1 -1 -4t-1 -4q-22 -49 -63 -95.5t-109 -108.5 t-87 -80q-8 -7 -20 -7q-21 0 -21 17v4q5 24 5 39q0 25 -8 84t-8 88zM906 1358q6 7 14.5 21.5t11.5 17.5q-3 -3 -8.5 -11.5t-8.5 -11.5zM958 578q3 -6 3 -17q44 47 92 92q-4 0 -18 4q-24 -49 -58 -75q-5 -4 -14 -4h-5z" />
<glyph unicode="&#x2014;" horiz-adv-x="2348" d="M186 532q0 2 2.5 6.5t2.5 6.5q18 30 76 30q93 0 239 -63q14 -3 14 -12l19 -8q20 37 66.5 60t104.5 23q26 0 60 -6q58 -14 58 -47q0 -12 -5.5 -25.5t-15 -29.5t-11.5 -21q-63 -104 -186 -227q-11 -10 -44 -10q-30 0 -41 10q-98 95 -214 191q-9 9 -42.5 33.5t-58 47.5 t-24.5 41zM290 516q0 -13 72 -72q5 1 8.5 4.5t5.5 4.5q9 8 30 8q-25 29 -53 41q-9 4 -27.5 9.5t-23.5 8.5q-2 0 -5.5 1t-6.5 1v-2v-4zM420 397q7 -5 18.5 -14t18.5 -14q-11 12 -18 28h-19zM515 315q0 4 5 4q-5 0 -5 3v-7zM733 492q5 6 5 14q-5 -4 -5 -14zM1051 1411v10 q0 7 13 12t31 5q23 0 37 -6q181 -89 262 -215v-5q0 -16 -44 -16q-39 0 -46 16q-49 84 -158 150q7 -76 67 -166q5 2 19 2q9 0 37 -6q2 -2 12.5 -6t13.5 -6q123 12 136 63q26 28 28 33q68 78 86 96q42 41 91 62q92 36 167 36q41 0 74 -14q49 -21 49 -55q0 -23 -17.5 -50.5 t-50 -62t-37.5 -39.5q-123 -140 -338 -284q-17 -7 -37.5 -7t-37.5 7q-357 198 -357 446zM1290 1120q46 -48 151 -110q9 5 24 14t24 14l-6 2q-35 15 -94.5 43.5t-75.5 36.5h-18h-5zM1441 1116q25 -14 48 -22q12 47 52 102q-47 -51 -58 -72q-24 -10 -33 -10q-2 0 -4.5 1 t-4.5 1zM1589 1118q107 90 174 176q2 4 25.5 27t23.5 35q0 24 -14 39q-148 -137 -209 -277zM1608 717q0 70 81 108q37 19 83 19q42 0 77 -15q39 -17 39 -38q0 -23 -62 -68q0 -2 -2.5 -3.5t-2.5 -2.5q-4 -10 -4 -29h23q39 32 56.5 44.5t57 34.5t82.5 31t94 9q21 0 67 -4 q37 -6 37 -19q0 -1 -2.5 -4t-2.5 -4q-44 -49 -125 -95.5t-218 -108.5t-174 -80q-16 -7 -39 -7q-42 0 -42 17v4q9 24 9 39q0 25 -16 84t-16 88zM1626 1358q12 7 29.5 21.5t21.5 17.5q-4 -3 -15.5 -11.5t-16.5 -11.5zM1731 578q4 -6 4 -17q88 47 186 92q-9 0 -37 4 q-49 -49 -116 -75q-9 -4 -28 -4h-9z" />
<glyph unicode="&#x202f;" horiz-adv-x="294" />
<glyph unicode="&#x205f;" horiz-adv-x="367" />
<glyph unicode="&#x25fc;" horiz-adv-x="1259" d="M0 0v1260h1260v-1260h-1260z" />
</font>
</defs>
</svg>
