<svg xmlns="http://www.w3.org/2000/svg" width="1184.9" height="790.1" viewBox="0 0 1184.9 790.1"><g fill="none" stroke="#000" stroke-width="2" stroke-linecap="round" stroke-linejoin="round" stroke-miterlimit="10"><path d="M1018.3 468.2c.6-2.8 1.4-5.6 1.8-8.4.1-.5-.8-1.4-1.4-1.6-1.5-.4-3.2-.6-4.8-.8-4.4-.4-8.8-.7-13.2-1-3.5-.2-7-.5-10.6-.7-6.1-.5-12.2-.9-18.2-1.4-6.6-.6-13.3-1.3-19.9-1.9-3.7-.3-7.4-.2-11-.5-6.8-.6-13.6-1.3-20.4-1.9-3-.3-5.9-.3-8.9-.5-5.4-.4-10.9-1-16.3-1.4-4.6-.4-9.3-.6-13.9-1-4.7-.4-9.4-1-14.2-1.4-4.6-.4-9.3-.6-13.9-1-5.3-.4-10.6-1-15.8-1.4-2.3-.2-4.6-.3-7-.5-7.9-.6-15.8-1-23.8-1.8-1.9-.2-2 .5-2.2 2-.5 4.7-1.2 9.3-1.9 13.9-.5 3.8-1 7.5-1.7 11.3-.9 4.8-1.9 9.6-2.9 14.4-.8 4.3-1.5 8.7-2.4 13-1.3 5.8-2.7 11.6-4.3 17.3-1.2 4.1-2.5 8.3-4.1 12.2-1.9 4.8-4.3 9.5-6.4 14.2-1.6 3.5-4.2 6.3-6.7 9.1-.4.4-.5 1.1-.7 1.7M1001.5 127.4c-3.8 2.5-7.5 5-11.3 7.4-.6.4-1.3.8-1.9 1.2M985.2 138.5c-2.6 1.8-5.2 3.7-7.9 5.5-2.8 1.8-5.9 3.3-8.6 5.3-5.9 4.4-12.4 7.4-19 10.6-4 1.9-7.8 4.2-11.8 6.2-2.7 1.3-5.6 2.3-8.4 3.4-4.2 1.6-8.4 3.2-12.7 4.5-6.4 2.1-12.9 3.7-19.7 3.9M892.8 179.2c-6.4 1.5-12.9 2.7-19.2 4.5-6.1 1.7-12.1 3.7-18 6-8 3-15.8 6.6-23.8 9.5-4.9 1.7-9.7 4.2-15.1 4.4M782.6 437.8c-1.2-5.4-2.3-10.9-3.7-16.3-.3-1.4-.9-2.6-3.1-2.7-7.4-.5-14.7-1.3-22.1-2.1-.5 0-1-.4-1.4-.4-1.4-.1-2.9-.1-4.3 0-2.2.1-2 2.3-2.6 3.6-2.2 4.6-4.1 9.2-6.1 13.9-1.2 2.9-.9 3.4 2.2 3.6 1 .1 2.1-.1 3.1 0 1.4.2 2.7.7 4 1-.2 2.4-.5 4.6-.6 6.9-.1 1.6-.5 2-2.2 1.7-3.2-.5-6.5-.7-9.8-1-5.6-.5-11.2-.9-16.8-1.4.2-2.8.3-5.3.6-7.7.1-.5.9-1 1.4-1.4.1-.1.3 0 .5 0 1.9-.3 4.1 1.3 5.5-1 1.1-1.8 1.8-3.8 2.7-5.7.4-.9.6-1.8 1-2.6 4.5-9.1 7.8-18.6 12-27.9 2.3-5.1 4.1-10.4 6.3-15.6 2.9-6.9 5.9-13.8 8.9-20.6 1.3-3.1 2.6-6.2 3.8-9.4.2-.4-.1-.9-.2-1.4M555.6 634.3c-.7 8.7-1.4 17.4-2.2 26.2-.5 5.5-.9 11-1.4 16.6-.5 5.6-1.1 11.2-1.7 16.8-.4 4.1-.7 8.2-1.2 12.2-.5 4.3-1.1 8.6-1.7 13-.6 4.4-1.1 8.8-1.7 13.2-.4 3.4-.8 6.7-1.2 10.1-.6 4.6-1.1 9.3-1.7 13.9-.8 6.4-1.8 12.8-2.6 19.2-.6 4.2-1.1 8.5-1.7 12.7-.1.5-.5 1-.7 1.4"/><path d="M762 352.6c3.8 2 7.6 3.9 11.2 6.1.8.4 1.4 1.5 1.7 2.4 1.8 6.3 3.6 12.6 5.3 19 1.1 4.2 1.8 8.5 2.9 12.7 1.5 5.9 3.2 11.7 4.8 17.5 1.8 7.1 3.6 14.2 5.3 21.4.7 2.8 1.4 5.6 1.9 8.4.3 1.9 1.2 2.8 3.2 2.7.9-.1 1.8.2 2.8.4-.1 1.1-.1 2.1-.1 3.2M816.4 202.8c.4 2.1-1.6 2.3-2.6 2.8-3.2 1.5-6.6 2.5-9.8 4-6 2.6-12.1 5.3-18 8.2-6.5 3.2-12.9 6.5-19.2 10.1-3.5 2-6.8 4.5-9.8 7.2-2.2 1.9-4.4 3.6-7 4.8-6.1 2.7-9.8 7.9-13.4 13.2-1.8 2.6-3.2 5.4-4.8 8.1M687.6 444.2c-5.1.4-10.1.8-15.2 1.3.3 4.9.6 9.4.7 13.9.3 12.8.5 25.6.7 38.4.1 7.4.1 14.7 0 22.1 0 2.2-.7 4.3-1.1 6.5M612.2 653c-.9 1.1-1.7 2.3-2.6 3.4-2.8 3.2-4.1 7.2-4.2 11.3-.2 6 2.5 10.8 6.9 14.9 3 2.9 6.5 4.5 10.6 4.8 6.8.4 11.6-2.7 15.1-8.4 4.7-7.5 3.8-14.9-1.2-21.6-.3-.4-.5-.8-.7-1.2M586.1 711.8c.9 3.5 1.8 7 2.6 10.6 1.1 5.1 2.1 10.2 3.1 15.4.8 4.1 1.4 8.2 2.2 12.2 1.3 6.5 2.7 13 4.1 19.4 1.4 6.4 2.9 12.8 4.3 19.2.1.4 0 .8 0 1.2M661 708.7c-.2 1.9-.1 3.9-.6 5.7-.2 1-1.1 1.9-2.6 1.7-2.6-.4-3.9.7-4.9 3.3-2.2 5.3-4.9 10.5-7.6 15.6-4.7 9.1-9.3 18.1-14.2 27.1-4.4 8.1-8.9 16-13.4 24-.6 1-1.1 2.1-1.7 3.1M1101.6 348.7c3.6 1.6 7.5.8 11.3 1.5 5.4.9 11 1.2 16 3 6.9 2.5 12.2 7.2 16 13.9 3.7 6.5 3 13.2 2.9 20 0 4.3-.7 8.7-1.4 13-.7 4.9-1.8 9.8-2.6 14.6-.5 2.8-.8 5.6-1.2 8.4-.5 3-.9 5.9-1.4 8.9-.8 4.6-1.6 9.3-2.4 13.9-.7 3.6-1.4 7.2-2.2 10.8-2 9-4 18.1-6 27.1 0 .1-.2.2-.2.2M756.5 460.6c-.6.6-1.4 1-1.9 1.7-8.4 11.6-19 20.9-31 28.5-3.7 2.3-7.3 4.7-11.1 6.9-.5.3-1.3.2-1.9.3M655.4 626.2c1.8 1.3 3.9 2.4 5.5 3.9 1.1 1.1 2 2.7 2.4 4.3.6 2.5 1.9 4.8 1.4 7.7-.6 3.7-2.4 6.4-4.9 8.8-4.3 4.1-9.6 5.1-15.3 4.3-1.3-.2-2.4-1.1-3.6-1.6M788.9 503c-2.4-.9-4 1-5.7 1.9-4.8 2.6-9.7 5.1-14.4 7.9-7 4.1-13.9 8.4-20.9 12.7-1.9 1.2-3.9 2.3-5.7 3.6-.7.5-1.1 1.3-1.7 1.9M757.2 457.7c-.9 1.8-.2 3.2.7 4.8 2 3.4 3.7 7 5.6 10.5 3.3 6 6.8 11.9 11 17.3 3 3.9 6.2 7.6 10.1 10.6.7.5 1.1 1.3 1.7 1.9M589.7 624.7c-4.4 2.2-6.2 10-4.3 15.4 3.5 9.8 11.7 12.1 19 12.2 1.2 0 2.4-.3 3.6-.5M558 452.4c.2 2.9.6 5.8.7 8.6.4 7.5.7 15 1 22.6.3 7.4.6 14.7 1 22.1M670.8 636.2c-.5 6.2-1 12.5-1.4 18.7-.5 6.9-.7 13.8-1.2 20.6-.3 4.6-1 9.1-1.4 13.7-.4 3.6-.7 7.2-1 10.8-.4 4.6-.8 9.3-1.2 13.9-.1 1.2-.7 2.4-.9 3.6-.3 1.5.5 2.2 1.9 2.4 3.1.3 6.2.7 9.4.9.9.1 1.9-.1 2.9-.2M712.6 498.2c2.9 2.7 5.9 5.3 8.6 8.2 4.1 4.3 8.1 8.7 12 13.2 2.7 3.2 5.2 6.7 7.7 10.1M605.5 742.3c-2.3 1.1-1.1 3.2-.9 4.5 1.2 7.3 2.8 14.6 4.2 21.9.3 1.6.5 3.2.7 4.8M598.3 713c.2 1.5.4 3.1.7 4.6.9 4.4 1.9 8.8 2.9 13.2.3 1.3 1 1.8 2.4 2 4.6.6 9.2.7 13.7 1.6 2.4.5 4.9.2 7.4.3M607.9 742.3c2.4.2 4.8.5 7.2.7 3 .3 5.9.4 8.9.7 3.2.3 3.9 1.3 2.6 4.3-1.8 4-3.8 7.9-5.7 11.8-2 4.1-4.1 8.2-6.3 12.2-.4.8-1.1 1.5-1.7 2.2M942.5 184.6c.9 2.9 1.7 5.8 2.7 8.6.3 1.1.8 2.1 1.2 3.1 1.3 3.1 2.6 6.2 3.8 9.4.2.6.2 1.3.3 1.9M951.6 210.5c2.1 3.8 4.5 7.5 5.8 11.8M560.4 506.6c.2 2.4.6 4.8.7 7.2.4 7.8.7 15.7 1 23.5.1 2.6-.1 5.1-.2 7.7M565.7 339.1c-1.3.8-2.6 1.6-3.8 2.4-1.1.7-2.2 1.4-3.4 2.2M554.6 348.7c-.2.6-.1 1.5-.5 1.9-2.4 2.5-2.6 5.8-3 8.9-1.2 8.3-.2 16.6 0 25 0 1.8.9 3.6-.5 5.3M929.5 204.2c.6 1.8 1 3.7 1.7 5.5 1.7 4.2 3.6 8.4 5.5 12.5.8 1.6 2 3 2.8 4.6 1 1.9 1.9 3.8 2.9 5.7M552.7 420.2c1.7 1.1.8 2.9.9 4.3.5 5.8.9 11.5 1.2 17.3 0 .9-.4 1.8-.7 2.6M781.9 440.9h-8.8c-.3 2.3-.6 4.4-.8 6.5-.2 1.5.5 2.1 2.1 2.2 7.9.5 15.8 1.2 23.8 1.9 1.9.2 2.6-.8 2.2-3.4M1016.4 473c.3.2.9.5.9.7-.7 3.5-1.6 7-2.4 10.6M1014 487.9c-.8 3.9-1.4 7.9-2.5 11.7-1.6 5.7-3.2 11.3-5.3 16.8-1.8 4.9-4.3 9.6-6.4 14.4-.1.2 0 .5 0 .7M851.8 321.8c-2 1.6-3.9 3.4-6 4.7-2.1 1.3-4 3-6.9 2.8-.7 0-1.5 1.7-2.4 2.8-2.5 1.1-5.4 2.3-8.1 3.8-2.7 1.4-5.5 2.7-8.7 2.9-.7 0-1.4.3-2.2.5M675.1 527.8c-1.2 3.3-2.2 6.6-3.7 9.8-1.3 2.8-3 5.5-4.5 8.2-.5.9-1 1.9-1.4 2.9M557 611.3c-.4 6.7-.8 13.4-1.2 20.2M589.9 587.3c.3-1.6-.4-2.4-1.9-2.4-2.2.1-4.5.3-6.6.5-.7 1.7 0 2.3 1.3 3.1 2.5 1.6 4.7.5 7 .1M641 717.8c-2.2 5-4.4 10.1-6.8 15.1-.4.8-1.2 1.5-1.9 2.2M915.6 215.8c-.7.3-1.3.7-2 1 .6 1.9 1.1 3.5 2.6 4.9 1 1 1.1 3.1 1.5 4.7M919.8 229.4c.1.6.2 1.1.4 1.7M921.8 234.5c1.1 1.4 2.2 2.9 3.4 4.3M929.5 243.6c-.3 1.5.7 2.3 1.4 3.4.8 1.2 1.3 2.5 2 3.8M893.3 237.4c1.5 1.5.9 3.5 1.4 5.3 1.3 5.2 3.2 10.1 5 15.1.6 1.5 1.5 2.2 2.9 2.6M660.7 708.2c-1.3-.2-2.6-.6-3.8-.7-4.9-.5-9.8-1-14.6-1.4-2.2-.2-4.5-.1-6.7 0-.7 0-1.7.6-1.8 1.2-.4 2-.7 4-.7 6 0 .4 1 1.1 1.6 1.1 1.8.2 3.7.1 5.5.1M659.5 503.6c2 .8 4.3 1.1 5.3 3.5M835.9 238.6c1.9 1.4 3.9 1.7 6.2.4.6 1.9 1.1 3.6 1.8 5.3.1.3.8.5 1.2.7M607.9 702.7c.7.1 1.5.3 2.2.4-.4 3-.9 5.7-1.2 8.5-.1 1.2-.7 1.7-1.7 1.6-1.1-.1-2.1-.4-3.1-.7M618.7 630.7c-1.9-2-3.9-3.9-5.7-6-1.4-1.6-3.2-2-5.1-2.4M652.3 606c1.5-1.1 4.7-1.3 6-.2 1.4 1.1 1.1 4.4-.5 5.5-1.5 1-3.1 1.4-4.8.7-.7-.3-1.7-1.5-1.6-1.8.5-1.2-2.2-2.9.6-3.6M555.8 524.4c.1 2.9.1 5.8.3 8.6.1 1.9.3 3.8.5 5.8M673.4 570.2c.1.9.2 1.8.2 2.6M875.5 242.9c-.2.3-.5.7-.5 1 .7 3.5 1 7.2 2.3 10.5 1 2.5 1.1 5.9 4.7 6.8M772 578.9c0 .2.1.5.1.7M808.6 197.5c.5 2.5 2.8 2.8 4.6 3.8.8.5 1.8.8 2.6 1.2M815.3 577c-.1.6-.2 1.3-.2 1.9M552 396.2c.2 2.7.5 5.4.7 8.2M638.9 625.4c-2.2 2.2-5.4 3.1-7 6M726 291.6c.3 2.7.6 5.4.9 8.4-1.7-.5-3-.8-4.3-1.2M580.6 700.6c-.5 2.9-1.1 5.7-1.4 8.6-.1 1.1.9 1.9 2.3 1.7.9-.2 1.9-.2 2.9-.3M557.8 594.5c.1-1.8.1-3.5.3-5.3.1-1.2-.6-1.2-1.5-1.2M828.7 231.1l6.2 6.2M850.3 258.5c.6 1.3 1.2 2.5 1.7 3.8.3.9.5 1.9.7 2.9M927.1 195.1c.9 2.3 2.9 4.4 1.9 7.2M903.1 261.4c1.9 2.1 3.8 4.2 5.8 6.2M818.4 225.8c.2-1.9-1.1-1.5-2.2-1.4-1.3.1-2.6.5-3.8.7M558 602.6c-.2 2.4-.5 4.8-.7 7.2M888.2 255.6c0 .5-.1 1 0 1.4 1.2 3.3 2.5 6.6 3.8 9.8.3.7.6 1.4 1 2.2M554.9 497.5c-.2 1.4-.4 2.9-.5 4.3-.1 1.8-.3 3.7-.2 5.5.1 1.5.6 3 .9 4.6M901 260.2c.1 2.2.2 4.3.2 6.5M866.4 255.1c1 .2 1.6.7 1.5 1.9-.2 1.2 0 2.4 0 3.6M883 254.2c1.3 2 2.8 3.8 5.3 4.3M598.3 620.9c-2.6.6-5.1 1.3-7.7 1.9M913.4 209.8c.8 2.6.8 2.6-1.9 2.9-1.4.1-2.7.2-4.1.2M889.9 221c.2 1.7 1 3.5.6 5-.9 3.5.9 6.2 2 9.2.2.5.3 1.1.5 1.7M837.4 231.6c-.7-1-2.6-.8-2.5-2.6 0 0-.9-.2-1.4-.2M553.2 407.8c-.1 1.8-.2 3.5-.2 5.3M889.9 205.4c-.3.6-1.1 1.4-.9 1.6 1.2 2 0 3.7-.3 5.6M899.8 219.1c1.5.8.5 1.7 0 2.4-.6.7-1.4 1.1-2.1 1.7M860.4 224.9c-.3.6-1 1.4-.9 1.9.6 1.8 1.8 3.5 2.2 5.3.4 2 .2 4.1.3 6.2.1.8.3 1.6.5 2.4M622.3 611.3c-.6.9-1.7 1.7-1.8 2.7-.1 1.1.8 2.2 1.1 3.4.6 2.6 1 5.3 1.5 7.9M912.2 205.2c-.3 1.6-.7 3.2 1 4.5 1.6-1.1.7-2.7 1-4M880.3 260.9c0 .6-.1 1.1 0 1.7.4 1.9.8 3.8 1.2 5.8M901.7 229.2c.2.7.1 1.5.5 2.1 1.3 2.2.9 5.1 3.3 6.8.3.2.2 1.1.3 1.6M837.4 233.5c1.4 1 2.7 2.1 4.1 3.1M881 268.6c.7.1 1.4.3 2 .4.5 1.5 1 2.8 1.3 4.2.1.5-.3 1.1-.4 1.7M735.1 591.6c.5.3.9.9 1.4.9 1.8.2 2.5 1.2 2.4 2.9 0 .2-.6.3-.9.5M677.8 569c-.3 1.1-.6 2.2-1 3.4M945.1 550.3c.2 1 .3 1.9.5 2.9M578.9 547c-.2 1-.3 1.9-.5 2.9M850.6 235.2c.2.2.5.5.5.7-.1 2.7 2 4.5 2.4 7 .2 1.7 1 .8 1.7.7M873.1 233c.3 2.7.6 5.4 1 8.2M864.2 241.7c-1.4-1.1-1.9-.5-1.9 1M926.4 241c-.4 1-.8 2.1-1.2 3.1M887.8 213.1c1.7-.7 2.2.2 2.2 1.7 0 1-.2 2 0 2.9.5 2.1 0 3.4-2.2 3.8M569 551.5v1.7M772.3 580.1c.2 1 .3 1.9.5 2.9M588 563.8l-1.2 2.4M630 609.4c.5 1 1 2.1 1.6 3.2-1.1.6-2.1 1.1-3 1.6M552.5 413.4c.2 2.4.5 4.7.7 7.1M622.1 612.7c1.4 1.6 3.1 2 5 1.4M913.7 220.3c-1.4.7-2.8 1.2-4.3.2M670.8 627.6v6.2M905.5 235.4v2.4M555.4 448.6c.1.8.2 1.6.2 2.4M554.6 347.8c-1.2-.6-2.3-1.1-3.9-.8-1.2.2-2.5-.7-3.8-1.1M900 222.5c.1.6.2 1.3.2 1.9M738 590.6c-.2.6-.3 1.3-.5 1.9M879.6 265.7c1.3.2 2.6.3 3.8.5M552.2 508.1h1.7M667.2 513.1c.4 0 .8-.1 1.2-.1M764.9 374.4c-2.2 2.1-3 5-4.1 7.7-3.1 7.5-6.1 15-9.1 22.6-.8 2.1-.1 3.1 2.1 3.3 6.2.6 12.5 1 18.7 1.4 2.5.2 3.1-.6 2.6-2.8-1-4.3-2-8.5-3.1-12.7-1.3-5-2.7-9.9-4.1-14.9-.4-1.3-.9-2.6-1.5-3.8-.2-.4-.9-.5-1.4-.7"/></g></svg>